<svg width="70" height="92" viewBox="0 0 70 92" fill="none" xmlns="http://www.w3.org/2000/svg">
<path d="M34.1614 31.8587C34.183 31.3784 34.5787 31 35.0596 31C35.572 31 35.9808 31.4276 35.9578 31.9395L35.4 44.3514L36 59.1081L34.8613 71.7778C34.8205 72.2316 34.813 72.6878 34.8389 73.1428L35.3459 82.0504C35.3753 82.5659 34.9652 83 34.4489 83C33.9724 83 33.5788 82.6282 33.5518 82.1525L33.0432 73.2192C33.0145 72.7134 33.0228 72.2061 33.0681 71.7015L34.2 59.1081L33.6 44.3514L34.1614 31.8587Z" fill="#47342B"/>
<path d="M9.33362 36.1198C14.8566 34.424 20.7893 39.3666 24.1565 40.6511C21.1713 43.2026 18.0942 48.0815 12.8538 48.5294C8.08403 48.9371 2.00276 46.5397 1.59549 43.5032C1.33508 41.5616 5.37985 37.3338 9.33362 36.1198Z" fill="#13990A"/>
<path d="M19.798 37.6528C19.5177 37.3905 19.482 36.9584 19.7155 36.6538C19.9838 36.3036 20.4957 36.2613 20.8179 36.5627L23.6452 39.2077C23.8393 39.3893 24.05 39.5523 24.2745 39.6946L28.6894 42.4922L32.7142 45.5759L35.1194 47.9463C35.3867 48.2098 35.416 48.6311 35.1877 48.929C34.9155 49.2843 34.3934 49.3206 34.0746 49.0064L31.8018 46.7666L27.7771 43.6829L23.4288 40.9274C23.16 40.7571 22.9077 40.5619 22.6753 40.3445L19.798 37.6528Z" fill="#47342B"/>
<path d="M16.7624 53.6872C16.4032 53.552 16.2051 53.1663 16.3044 52.7956C16.4186 52.3694 16.8755 52.1347 17.2883 52.2902L20.9118 53.6542C21.1605 53.7479 21.4175 53.818 21.6794 53.8637L26.8283 54.7622L31.7259 56.0741L34.8543 57.3456C35.202 57.487 35.3901 57.8651 35.293 58.2277C35.1771 58.66 34.7086 58.8931 34.2939 58.7245L31.3377 57.523L26.4401 56.2111L21.3689 55.3262C21.0554 55.2715 20.7477 55.1875 20.4498 55.0754L16.7624 53.6872Z" fill="#47342B"/>
<path d="M34.6997 29.6095C34.4885 29.93 34.0686 30.0381 33.7289 29.8593C33.3385 29.6539 33.2105 29.1565 33.4533 28.7881L35.5837 25.5553C35.7299 25.3333 35.8551 25.0981 35.9575 24.8528L37.9706 20.0294L40.3315 15.5423L42.2624 12.7718C42.477 12.4639 42.8873 12.364 43.2195 12.5388C43.6156 12.7472 43.7394 13.2556 43.4835 13.6229L41.6589 16.2408L39.2981 20.7279L37.3153 25.4786C37.1927 25.7723 37.0429 26.0538 36.8678 26.3196L34.6997 29.6095Z" fill="#47342B"/>
<path d="M35.6642 55.4019C35.4154 55.71 34.9697 55.771 34.6472 55.5411C34.2962 55.2908 34.2285 54.7965 34.4994 54.4611L39.2341 48.5989L44.1622 40.825L48.9892 34.054L52.7633 29.531C53.0137 29.2308 53.4532 29.1742 53.7716 29.4012C54.1261 29.6539 54.1906 30.1549 53.9116 30.4892L50.2106 34.9248L45.3836 41.6958L40.4555 49.4697L35.6642 55.4019Z" fill="#47342B"/>
<path d="M22 79H48L46 92H24L22 79Z" fill="#D3A06E"/>
<path d="M32.6973 40.4605C25.7701 41.1538 25.4553 39.326 22.1209 38.7586C24.1201 35.8511 26.073 31.7564 30.6277 30.3778C34.7734 29.1231 40.3142 29.2498 41.4905 31.9701C42.5104 34.3285 37.6941 39.9604 32.6973 40.4605Z" fill="#228B22"/>
<path d="M52.6973 15.4605C45.7701 16.1538 45.4553 14.326 42.1209 13.7586C44.1201 10.8511 46.073 6.75638 50.6277 5.37784C54.7734 4.12311 60.3142 4.24979 61.4905 6.97007C62.5104 9.32849 57.6941 14.9604 52.6973 15.4605Z" fill="#228B22"/>
<path d="M22.738 46.6037C26.9533 51.6086 25.7004 52.8164 27.0295 55.7007C23.7097 55.6839 19.4922 56.3291 16.0037 53.5248C12.8286 50.9724 9.98606 46.61 11.4749 44.2636C12.7658 42.2293 19.6973 42.9934 22.738 46.6037Z" fill="#228B22"/>
<path d="M15.3823 25.9669C17.7962 28.1662 20.5245 34.3776 22.1111 37.6722C18.2969 37.7294 13.4649 38.5705 9.39913 35.418C5.69848 32.5486 2.21738 27.5049 4.00437 24.8454C5.10581 23.2062 12.9684 23.7675 15.3823 25.9669Z" fill="#2BA45B"/>
<path d="M50.9529 24.7035C47.6899 24.8326 41.3857 22.326 37.9427 21.0945C40.6181 18.3754 43.4678 14.3836 48.5763 13.7731C53.2259 13.2174 59.2461 14.364 59.8413 17.5124C60.2081 19.4529 54.2159 24.5743 50.9529 24.7035Z" fill="#2BA45B"/>
<path d="M31.2933 4.58576C36.6466 5.16587 39.937 11.7113 42.3576 14.0949C38.8696 15.2127 34.4564 18.334 29.7992 16.767C25.5604 15.3407 20.7364 10.9943 21.3562 9.03265C22.1107 6.6447 27.461 4.17049 31.2933 4.58576Z" fill="#37B883"/>
<path d="M42.3085 24.5604C47.1706 25.0354 50.1382 30.5877 52.3295 32.6055C49.1565 33.5674 45.1361 36.2354 40.9099 34.9192C37.0633 33.7212 32.6949 30.0432 33.2647 28.3737C33.9583 26.3415 38.8279 24.2204 42.3085 24.5604Z" fill="#37B883"/>
<path d="M58.6973 39.4605C51.7701 40.1538 51.4553 38.326 48.1209 37.7586C50.1201 34.8511 52.073 30.7564 56.6277 29.3778C60.7734 28.1231 66.3142 28.2498 67.4905 30.9701C68.5104 33.3285 63.6941 38.9604 58.6973 39.4605Z" fill="#228B22"/>
<path d="M51.9527 54.7035C48.6897 54.8326 42.3855 52.326 38.9425 51.0945C41.6179 48.3754 44.4676 44.3836 49.576 43.7731C54.2257 43.2174 60.2458 44.364 60.841 47.5124C61.2079 49.4529 55.2157 54.5743 51.9527 54.7035Z" fill="#2BA45B"/>
<path d="M10.1987 52.568C13.1818 52.1931 19.0339 53.9273 22.2256 54.7518C19.864 57.3901 17.3839 61.1776 12.727 62.1287C8.4883 62.9944 2.94008 62.4507 2.29367 59.6898C1.89524 57.988 7.21571 52.9429 10.1987 52.568Z" fill="#2BA45B"/>
<path d="M36.777 35.6505C40.7243 36.8664 42.2471 42.1765 43.7224 44.2902C40.9321 44.6008 37.1525 46.2522 33.8736 44.4111C30.8891 42.7355 27.8903 38.8208 28.6434 37.4658C29.5603 35.8164 33.9512 34.78 36.777 35.6505Z" fill="#37B883"/>
<path d="M18.9487 59.8969C22.1926 56.3359 27.9198 57.0729 30.6662 56.4655C29.4549 59.4928 28.9519 64.1302 25.4889 66.7259C22.337 69.0884 17.3512 70.1331 16.0638 68.2634C15.2407 67.0679 16.6264 62.4462 18.9487 59.8969Z" fill="#13990A"/>
<rect x="20" y="77" width="30" height="3" fill="#D3A06E"/>
</svg>
