<svg width="50" height="27" viewBox="0 0 50 27" fill="none" xmlns="http://www.w3.org/2000/svg">
<path d="M19.514 11.551C19.424 11.695 19.328 11.803 19.226 11.875C19.13 11.947 19.004 11.983 18.848 11.983C18.71 11.983 18.56 11.941 18.398 11.857C18.242 11.767 18.062 11.668 17.858 11.56C17.66 11.452 17.432 11.356 17.174 11.272C16.916 11.182 16.622 11.137 16.292 11.137C15.722 11.137 15.296 11.26 15.014 11.506C14.738 11.746 14.6 12.073 14.6 12.487C14.6 12.751 14.684 12.97 14.852 13.144C15.02 13.318 15.239 13.468 15.509 13.594C15.785 13.72 16.097 13.837 16.445 13.945C16.799 14.047 17.159 14.164 17.525 14.296C17.891 14.422 18.248 14.572 18.596 14.746C18.95 14.92 19.262 15.142 19.532 15.412C19.808 15.682 20.03 16.012 20.198 16.402C20.366 16.786 20.45 17.251 20.45 17.797C20.45 18.403 20.345 18.97 20.135 19.498C19.925 20.026 19.619 20.488 19.217 20.884C18.821 21.274 18.329 21.583 17.741 21.811C17.159 22.033 16.496 22.144 15.752 22.144C15.344 22.144 14.927 22.102 14.501 22.018C14.081 21.934 13.673 21.817 13.277 21.667C12.881 21.511 12.509 21.328 12.161 21.118C11.813 20.908 11.51 20.674 11.252 20.416L12.152 18.994C12.224 18.892 12.317 18.808 12.431 18.742C12.551 18.67 12.68 18.634 12.818 18.634C12.998 18.634 13.178 18.691 13.358 18.805C13.544 18.919 13.751 19.045 13.979 19.183C14.213 19.321 14.48 19.447 14.78 19.561C15.08 19.675 15.434 19.732 15.842 19.732C16.394 19.732 16.823 19.612 17.129 19.372C17.435 19.126 17.588 18.739 17.588 18.211C17.588 17.905 17.504 17.656 17.336 17.464C17.168 17.272 16.946 17.113 16.67 16.987C16.4 16.861 16.091 16.75 15.743 16.654C15.395 16.558 15.038 16.453 14.672 16.339C14.306 16.219 13.949 16.075 13.601 15.907C13.253 15.733 12.941 15.508 12.665 15.232C12.395 14.95 12.176 14.602 12.008 14.188C11.84 13.768 11.756 13.252 11.756 12.64C11.756 12.148 11.855 11.668 12.053 11.2C12.251 10.732 12.542 10.315 12.926 9.949C13.31 9.583 13.781 9.292 14.339 9.076C14.897 8.854 15.536 8.743 16.256 8.743C16.658 8.743 17.048 8.776 17.426 8.842C17.81 8.902 18.173 8.995 18.515 9.121C18.857 9.241 19.175 9.388 19.469 9.562C19.769 9.73 20.036 9.922 20.27 10.138L19.514 11.551ZM39.9953 8.887L35.9453 22H33.1913L30.7253 13.873C30.6773 13.747 30.6323 13.609 30.5903 13.459C30.5483 13.303 30.5063 13.141 30.4643 12.973C30.4223 13.141 30.3803 13.303 30.3383 13.459C30.2963 13.609 30.2513 13.747 30.2033 13.873L27.7013 22H24.9473L20.8973 8.887H23.4533C23.7173 8.887 23.9363 8.947 24.1103 9.067C24.2903 9.187 24.4073 9.346 24.4613 9.544L26.2613 16.384C26.3153 16.6 26.3693 16.837 26.4233 17.095C26.4773 17.347 26.5313 17.611 26.5853 17.887C26.6933 17.323 26.8253 16.822 26.9813 16.384L29.1053 9.544C29.1593 9.376 29.2733 9.226 29.4473 9.094C29.6273 8.956 29.8433 8.887 30.0953 8.887H30.9953C31.2593 8.887 31.4723 8.95 31.6343 9.076C31.7963 9.196 31.9193 9.352 32.0033 9.544L34.1093 16.384C34.2653 16.804 34.3973 17.281 34.5053 17.815C34.5533 17.545 34.6013 17.293 34.6493 17.059C34.7033 16.819 34.7573 16.594 34.8113 16.384L36.6113 9.544C36.6593 9.37 36.7733 9.217 36.9533 9.085C37.1333 8.953 37.3493 8.887 37.6013 8.887H39.9953Z" fill="#4B4B4B"/>
<line x1="0.583975" y1="24.7226" x2="16.584" y2="0.722649" stroke="#0A5B6E"/>
<line x1="30.7396" y1="22.4025" x2="33.3048" y2="25.7722" stroke="#0A5B6E"/>
<line x1="16.1877" y1="0.851777" x2="21.3979" y2="7.69718" stroke="#0A5B6E"/>
<line x1="19.617" y1="25.6786" x2="22.3646" y2="22.4038" stroke="#0A5B6E"/>
<line x1="38.8356" y1="1.05246" x2="49.081" y2="24.5478" stroke="#0A5B6E"/>
<path d="M34.0278 7.61822L39 1.49998" stroke="#0A5B6E"/>
</svg>
