<svg width="29" height="15" viewBox="0 0 29 15" fill="none" xmlns="http://www.w3.org/2000/svg">
<path d="M8.514 3.551C8.424 3.695 8.328 3.803 8.226 3.875C8.13 3.947 8.004 3.983 7.848 3.983C7.71 3.983 7.56 3.941 7.398 3.857C7.242 3.767 7.062 3.668 6.858 3.56C6.66 3.452 6.432 3.356 6.174 3.272C5.916 3.182 5.622 3.137 5.292 3.137C4.722 3.137 4.296 3.26 4.014 3.506C3.738 3.746 3.6 4.073 3.6 4.487C3.6 4.751 3.684 4.97 3.852 5.144C4.02 5.318 4.239 5.468 4.509 5.594C4.785 5.72 5.097 5.837 5.445 5.945C5.799 6.047 6.159 6.164 6.525 6.296C6.891 6.422 7.248 6.572 7.596 6.746C7.95 6.92 8.262 7.142 8.532 7.412C8.808 7.682 9.03 8.012 9.198 8.402C9.366 8.786 9.45 9.251 9.45 9.797C9.45 10.403 9.345 10.97 9.135 11.498C8.925 12.026 8.619 12.488 8.217 12.884C7.821 13.274 7.329 13.583 6.741 13.811C6.159 14.033 5.496 14.144 4.752 14.144C4.344 14.144 3.927 14.102 3.501 14.018C3.081 13.934 2.673 13.817 2.277 13.667C1.881 13.511 1.509 13.328 1.161 13.118C0.813 12.908 0.51 12.674 0.252 12.416L1.152 10.994C1.224 10.892 1.317 10.808 1.431 10.742C1.551 10.67 1.68 10.634 1.818 10.634C1.998 10.634 2.178 10.691 2.358 10.805C2.544 10.919 2.751 11.045 2.979 11.183C3.213 11.321 3.48 11.447 3.78 11.561C4.08 11.675 4.434 11.732 4.842 11.732C5.394 11.732 5.823 11.612 6.129 11.372C6.435 11.126 6.588 10.739 6.588 10.211C6.588 9.905 6.504 9.656 6.336 9.464C6.168 9.272 5.946 9.113 5.67 8.987C5.4 8.861 5.091 8.75 4.743 8.654C4.395 8.558 4.038 8.453 3.672 8.339C3.306 8.219 2.949 8.075 2.601 7.907C2.253 7.733 1.941 7.508 1.665 7.232C1.395 6.95 1.176 6.602 1.008 6.188C0.84 5.768 0.756 5.252 0.756 4.64C0.756 4.148 0.855 3.668 1.053 3.2C1.251 2.732 1.542 2.315 1.926 1.949C2.31 1.583 2.781 1.292 3.339 1.076C3.897 0.853999 4.536 0.743 5.256 0.743C5.658 0.743 6.048 0.776 6.426 0.842C6.81 0.902 7.173 0.995 7.515 1.121C7.857 1.241 8.175 1.388 8.469 1.562C8.769 1.73 9.036 1.922 9.27 2.138L8.514 3.551ZM28.9953 0.887L24.9453 14H22.1913L19.7253 5.873C19.6773 5.747 19.6323 5.609 19.5903 5.459C19.5483 5.303 19.5063 5.141 19.4643 4.973C19.4223 5.141 19.3803 5.303 19.3383 5.459C19.2963 5.609 19.2513 5.747 19.2033 5.873L16.7013 14H13.9473L9.89733 0.887H12.4533C12.7173 0.887 12.9363 0.947 13.1103 1.067C13.2903 1.187 13.4073 1.346 13.4613 1.544L15.2613 8.384C15.3153 8.6 15.3693 8.837 15.4233 9.095C15.4773 9.347 15.5313 9.611 15.5853 9.887C15.6933 9.323 15.8253 8.822 15.9813 8.384L18.1053 1.544C18.1593 1.376 18.2733 1.226 18.4473 1.094C18.6273 0.956 18.8433 0.887 19.0953 0.887H19.9953C20.2593 0.887 20.4723 0.95 20.6343 1.076C20.7963 1.196 20.9193 1.352 21.0033 1.544L23.1093 8.384C23.2653 8.804 23.3973 9.281 23.5053 9.815C23.5533 9.545 23.6013 9.293 23.6493 9.059C23.7033 8.819 23.7573 8.594 23.8113 8.384L25.6113 1.544C25.6593 1.37 25.7733 1.217 25.9533 1.085C26.1333 0.953 26.3493 0.887 26.6013 0.887H28.9953Z" fill="#4B4B4B"/>
</svg>
