<svg width="238" height="469" viewBox="0 0 238 469" fill="none" xmlns="http://www.w3.org/2000/svg">
<g filter="url(#filter0_d)">
<path d="M49.9998 78.5L57.4998 80L54.9998 89L47.4998 98.5L41.9998 101.5V89L49.9998 78.5Z" fill="#006622"/>
<path d="M17.7695 93.8996C17.0013 93.7262 16.7258 92.774 17.2827 92.2171L21.647 87.8528C22.2075 87.2923 22.8932 86.8731 23.6475 86.6298L37.2512 82.2415C37.7472 82.0815 38.2651 82 38.7863 82H43.9998C46.7612 82 48.9998 84.2386 48.9998 87V87.2581C48.9998 88.0737 48.8003 88.8768 48.4187 89.5976L45.0632 95.9358C44.7165 96.5905 44.0364 97 43.2956 97H32.0573C31.6867 97 31.3174 96.9588 30.9559 96.8772L17.7695 93.8996Z" fill="#228B22"/>
<path d="M52.9998 38.5L55.2685 44.2827L44.9997 96.4999L39.5089 115.56L32.3249 137.275L6.5 268.5L0.999672 267L8.99968 218.5L28.0562 136.492L35.2401 114.778L42.1168 97.2798C42.5252 96.2406 42.8302 95.1637 43.0275 94.0647L52.9998 38.5Z" fill="#47342B"/>
<path d="M41.8741 74.7616C42.2593 73.4298 43.0938 72.2725 44.2358 71.4864L48.1223 68.811C48.7748 68.3619 49.5098 68.0464 50.2848 67.8827L55.6131 66.7576C56.5245 66.5651 57.4682 66.5875 58.3694 66.823L61.2373 67.5722C61.8954 67.7442 62.578 67.803 63.2558 67.7461L65.3465 67.5706C66.5626 67.4685 67.781 67.7397 68.839 68.348L70.6298 69.3776C71.0921 69.6435 71.5878 69.8465 72.1038 69.9813L78.3033 71.601L79.326 72.0186C80.4175 72.4644 81.6161 72.5787 82.7722 72.3472L83.3566 72.2302C85.3206 71.837 87.3513 72.4498 88.77 73.8638L91.9356 77.0189C92.4564 77.538 92.8774 78.1485 93.1775 78.8199L95.6259 84.2965L96.545 86.2044C96.9786 87.1045 97.6301 87.882 98.4404 88.4665L99.525 89.2488C100.452 89.9174 101.169 90.8369 101.591 91.899L102 92.9281L98.9054 92.9281C97.7941 92.9281 96.7047 92.6195 95.7585 92.0367L93.5665 90.6864C93.0329 90.3577 92.451 90.1146 91.8421 89.966L87.0519 88.7971C86.5022 88.6629 85.9743 88.4517 85.4837 88.1696L83.339 86.9365C82.5315 86.4722 81.627 86.2023 80.6971 86.1482L72.6983 85.6825C72.3854 85.6643 72.0745 85.6216 71.7684 85.5548L65.9998 84.2965L62.3019 83.2133C61.7521 83.0523 61.2282 82.8133 60.7462 82.5038L57.5168 80.4297C57.1726 80.2086 56.8068 80.0234 56.4249 79.8768L53.355 78.6982C51.8645 78.1259 50.2074 78.1713 48.7505 78.8243L39.4998 82.9705L41.8741 74.7616Z" fill="#228B22"/>
<path d="M54.0761 89.7738C54.9929 88.9535 56.1799 88.5 57.4101 88.5H62.5234C62.8402 88.5 63.1564 88.4699 63.4676 88.41L74.7646 86.2375C75.5754 86.0816 76.4122 86.1289 77.2003 86.3752L82.944 88.1701C83.6394 88.3874 84.374 88.4501 85.0962 88.3538L88.7352 87.8686C90.4536 87.6395 92.1681 88.3168 93.2658 89.6586L94.6257 91.3206C95.4954 92.3835 96.7963 93 98.1697 93C99.9041 93 101.49 93.9799 102.265 95.5313L102.472 95.9443C102.819 96.6385 103 97.4041 103 98.1803V101.766C103 102.253 103.071 102.737 103.211 103.203L103.952 105.675C104.305 106.851 104.213 108.114 103.694 109.226L101.555 113.809C101.191 114.59 100.631 115.263 99.9306 115.764L95.3036 119.069C94.4556 119.674 93.4395 120 92.3974 120H88.2954C87.4457 120 86.61 119.783 85.8672 119.371L83.6323 118.129C82.8895 117.717 82.0538 117.5 81.2041 117.5H78.5136C77.5265 117.5 76.5615 117.208 75.7401 116.66L72.2594 114.34C71.438 113.792 70.473 113.5 69.4859 113.5H66.8796C65.374 113.5 63.9485 112.822 62.999 111.653L59.1799 106.952C58.4332 106.034 57.3123 105.5 56.1283 105.5C55.0856 105.5 54.0855 105.086 53.3482 104.348L45.9998 97L54.0761 89.7738Z" fill="#37B883"/>
<path d="M43.5 98.5L47.6565 97.253C48.2158 97.0852 48.7967 97 49.3806 97H49.9123C51.85 97 53.6684 97.9358 54.7947 99.5126L55.1566 100.019C55.3842 100.338 55.6594 100.62 55.9727 100.855C56.9341 101.576 57.5 102.707 57.5 103.909V104.11C57.5 105.593 58.2779 106.967 59.5491 107.729L61.18 108.708C62.046 109.228 62.7668 109.957 63.2757 110.83L65.3715 114.422C65.7861 115.133 66.3424 115.751 67.0059 116.238L71.8441 119.786C72.885 120.549 73.5 121.763 73.5 123.053C73.5 123.989 73.8236 124.896 74.416 125.62L77.2428 129.074C77.7387 129.681 78.3863 130.145 79.1197 130.42C80.8522 131.07 82 132.726 82 134.576V134.63C82 135.205 81.8904 135.774 81.6769 136.308L81.3536 137.116C81.12 137.7 81 138.323 81 138.952V139.586C81 140.491 80.6403 141.36 80 142L79.8718 142.128C79.3136 142.686 79 143.444 79 144.233C79 145.322 78.405 146.325 77.4487 146.846L74.8431 148.267C73.9618 148.748 72.9739 149 71.97 149H63.3403C62.7828 149 62.2281 148.922 61.692 148.769L54.0465 146.585C52.7226 146.206 51.569 145.384 50.7794 144.256L49.4804 142.401C48.8396 141.485 47.9557 140.767 46.9286 140.327L45.1365 139.558C42.9304 138.613 41.5 136.444 41.5 134.044V133.262C41.5 132.112 41.1692 130.985 40.5471 130.018L39.2122 127.941C37.8777 125.865 37.9503 123.184 39.3951 121.184L42.3641 117.073C43.1025 116.05 43.5 114.821 43.5 113.56V98.5Z" fill="#228B22"/>
<path d="M16.8192 30.3944C15.8717 27.7416 18.7724 25.3636 21.1879 26.8129L26.1831 29.81C26.3934 29.9362 26.5875 30.0877 26.7609 30.2611L31.097 34.5972C31.3631 34.8634 31.677 35.077 32.0221 35.2271L42.7346 39.8847C42.911 39.9614 43.0795 40.0549 43.238 40.1638L49.9497 44.7781C50.6207 45.2394 51.0754 45.9537 51.2093 46.757L52.4998 54.5L40.9998 52L32.2341 49.6933C31.7521 49.5664 31.3094 49.3215 30.9458 48.9806L23.4998 42L19.3285 36.9018C19.111 36.6359 18.9407 36.3346 18.8251 36.0111L16.8192 30.3944Z" fill="#006622"/>
<path d="M26.9998 18.2645C26.9998 16.6063 28.5581 15.3896 30.1668 15.7918C30.7072 15.9269 31.277 15.8812 31.789 15.6618L36.6352 13.5848C37.5156 13.2075 38.5021 13.1586 39.4154 13.4471L46.2823 15.6155C47.0743 15.8656 47.9244 15.863 48.7148 15.608L59.6399 12.0838C61.5595 11.4646 63.6397 12.3714 64.4927 14.1991L65.315 15.9611C66.0263 17.4854 65.708 19.2917 64.5187 20.4811L61.8102 23.1895C61.6039 23.3959 61.4207 23.6242 61.264 23.8704L51.6251 39.0173C51.2167 39.6591 50.9998 40.4041 50.9998 41.1648V47.5L31.3501 31.2891C31.1173 31.097 30.8635 30.9319 30.5935 30.7969L28.083 29.5416C27.3767 29.1885 26.7907 28.6341 26.3989 27.9485L26.2004 27.6011C25.4646 26.3134 25.5194 24.7205 26.3421 23.4864C26.7709 22.8432 26.9998 22.0875 26.9998 21.3144V18.2645Z" fill="#37B883"/>
<path d="M49.0669 49.6716C49.0223 49.2253 49.0278 48.7754 49.0835 48.3303L49.851 42.1907C49.9492 41.4047 50.2022 40.6459 50.5952 39.9582L53.297 35.2298C53.7592 34.4211 54.4033 33.731 55.1783 33.2143L57.6446 31.5701C58.2106 31.1928 58.7083 30.722 59.1164 30.1778L60.3752 28.4994C61.1075 27.5231 62.12 26.7932 63.2778 26.4073L65.2375 25.7541C65.7434 25.5855 66.2246 25.3501 66.6683 25.0543L70.8353 22.2763C71.6013 21.7656 72.4746 21.4381 73.3875 21.319L82.9743 20.0685C83.3239 20.0229 83.6688 19.9466 84.0051 19.8404L91.2794 17.5433C92.4015 17.1889 93.603 17.1724 94.7345 17.4956L95.036 17.5818C95.9966 17.8562 97.0106 17.8865 97.9859 17.6698L99.7634 17.2747C100.579 17.0936 101.423 17.0846 102.242 17.2484L109.499 18.6998C110.206 18.8413 110.536 19.6628 110.122 20.2539L108.695 22.2927C107.921 23.3985 106.796 24.211 105.504 24.5989L104.079 25.0262C103.045 25.3363 101.947 25.3618 100.9 25.1L98.1948 24.4238C97.0878 24.147 95.9248 24.1917 94.8422 24.5525L93.3435 25.0521C92.4598 25.3466 91.6569 25.8429 90.9982 26.5016L86.2527 31.2471C85.4348 32.0649 84.3981 32.6289 83.2672 32.8713L79.0295 33.7793C78.3482 33.9253 77.6976 34.1889 77.1067 34.5582L74.6051 36.1216C74.203 36.373 73.7724 36.5758 73.3225 36.7257L70.3806 37.7064C69.7968 37.901 69.2465 38.1842 68.7489 38.5461L59.3901 45.3525C58.8014 45.7806 58.2956 46.3122 57.8973 46.9214L49.9998 59L49.0669 49.6716Z" fill="#228B22"/>
<path d="M4.86612 44.948C4.47863 43.4686 5.82761 42.1193 7.30719 42.5065L19.1335 45.6013L25.4319 47.4686C25.9595 47.625 26.5094 47.6933 27.0592 47.6706L32.214 47.4579L42.4141 48.4257C42.8072 48.463 43.1945 48.5467 43.5679 48.6751L45.6874 49.4039C46.8844 49.8156 47.8807 50.6659 48.4753 51.7833L51.621 57.6944L45.9203 60.3404C44.9574 60.7873 43.8772 60.9162 42.8361 60.7083L38.4303 59.8285L33.7522 58.9335C33.3755 58.8614 32.9917 58.8329 32.6084 58.8486L26.997 59.078C26.3486 59.1045 25.7013 59.0046 25.0911 58.7837L20.5111 57.126L12.5882 54.0507L8.42534 51.9284C7.15446 51.2805 6.22083 50.1206 5.85941 48.7407L4.86612 44.948Z" fill="#37B883"/>
<path d="M51.2165 55.4843C51.4426 54.8152 51.8977 54.2473 52.5015 53.8807L63.1158 47.4357C63.5851 47.1507 64.1237 47 64.6728 47H76.417C77.8826 47 78.8504 48.5242 78.2271 49.8506L76.3384 53.8699C76.1593 54.2512 75.9018 54.5905 75.5827 54.8657L64.6777 64.2717C64.133 64.7415 63.4376 65 62.7183 65H52.1808C50.1278 65 48.6814 62.9842 49.3388 61.0393L51.2165 55.4843Z" fill="#006622"/>
<path d="M51.2719 7.5787C52.0154 6.62272 53.2609 6.20757 54.4293 6.52623L57.2434 7.29372C57.7393 7.42897 58.2617 7.43452 58.7603 7.30985L63.1522 6.21188C63.7058 6.0735 64.2873 6.09583 64.8285 6.27626L68.0379 7.34605C68.3438 7.44802 68.6313 7.59863 68.8892 7.7921L72.0151 10.1365C72.335 10.3764 72.6996 10.55 73.0875 10.6469L78.5 12L82.9283 13.7713C83.3055 13.9222 83.6481 14.1481 83.9354 14.4354L86.302 16.802C86.9637 17.4637 86.9637 18.5363 86.302 19.198V19.198C86.1038 19.3962 85.8594 19.5422 85.5909 19.6227L81.4217 20.8735C81.1421 20.9574 80.8517 21 80.5597 21H76.297C76.0995 21 75.9024 21.0195 75.7087 21.0582L73.7699 21.446C73.5902 21.4819 73.4141 21.5342 73.244 21.6023L71.4956 22.3017C71.1676 22.4329 70.8654 22.6209 70.6028 22.8572L65.9998 27L51.4998 38L45.2943 27.4981C45.0999 27.1691 44.9701 26.8059 44.912 26.4281L43.3105 16.0184C43.1232 14.8005 43.6996 13.5919 44.764 12.971L48.4992 10.792C48.8298 10.5991 49.1205 10.3447 49.3556 10.0425L51.2719 7.5787Z" fill="#006622"/>
<path d="M29.5 180.695L36 177.695L46.2416 176.514C47.5983 176.357 48.7093 177.576 48.428 178.912L47 185.695L43.5 190.695L36 193.195L23 195.195L24 186.195L29.5 180.695Z" fill="#006622"/>
<path d="M38.4998 125.195L44.9998 122.195L55.2414 121.014C56.598 120.857 57.7091 122.076 57.4278 123.412L55.9998 130.195L52.4998 135.195L44.9998 137.695L31.9998 139.695L32.9998 130.695L38.4998 125.195Z" fill="#006622"/>
<path d="M16.4721 161.944L19.6884 168.571L20.8379 183.825L11.7203 182.991L6.58732 180.073L3.23579 172.79L0.657266 163.631C0.123017 161.734 1.53286 159.845 3.50399 159.818L8.11446 159.755L16.4721 161.944Z" fill="#006622"/>
<path d="M9.68968 145.973C9.88956 145.023 10.4277 144.179 11.2039 143.597L15.5998 140.3C17.022 139.233 18.9775 139.233 20.3998 140.3L25.0648 143.799C25.6753 144.257 26.1421 144.88 26.4101 145.594L27.4998 148.5L30.7531 157.331C30.9163 157.773 30.9998 158.242 30.9998 158.713V166.351C30.9998 166.781 30.9304 167.208 30.7945 167.616L29.1838 172.448C29.0617 172.814 28.8873 173.161 28.666 173.477L21.9998 183L13.6 173.667C13.2048 173.228 12.9117 172.706 12.7419 172.141L9.99976 163L8.1875 154.845C8.06377 154.288 8.06055 153.711 8.17805 153.153L9.68968 145.973Z" fill="#37B883"/>
<path d="M7.74999 123.736C7.53154 123.3 7.47962 122.8 7.60398 122.329L9.25295 116.081C9.52672 115.044 10.57 114.407 11.6176 114.639L16.1827 115.646C16.5178 115.72 16.8283 115.879 17.0842 116.107L18.7814 117.623C18.8871 117.718 18.9824 117.823 19.0659 117.938L22.7321 122.973C22.8047 123.073 22.8863 123.166 22.976 123.25L26.4566 126.536C26.6776 126.745 26.8482 127.001 26.9553 127.286L28.987 132.68C29.1234 133.042 29.1518 133.436 29.0688 133.814L28.0635 138.39L21.4319 137.211C21.1964 137.169 20.9704 137.086 20.7644 136.964L14.878 133.485C14.7063 133.384 14.5508 133.257 14.4166 133.11L10.2262 128.507C10.1031 128.372 9.99922 128.22 9.9173 128.057L7.74999 123.736Z" fill="#228B22"/>
<path d="M11.9658 74.188C11.174 73.9109 11.0548 72.8408 11.7661 72.3962L20.5257 66.9214C21.4805 66.3247 22.6088 66.0676 23.7279 66.192L39.42 67.9356C39.8054 67.9784 40.1844 68.0659 40.5495 68.1963L44.7861 69.7093C46.1884 70.2101 47.2945 71.3099 47.8034 72.7093L48.3106 74.1041C48.7529 75.3204 48.7063 76.6608 48.1807 77.8435L47 80.5L43.5 88L30.3733 80.7074C30.1249 80.5694 29.8651 80.4528 29.5969 80.3589L11.9658 74.188Z" fill="#37B883"/>
<path d="M22.6046 94.2188C22.9205 94.074 23.2591 93.9852 23.6054 93.9564L34.4684 93.0511C34.8733 93.0174 35.2808 93.0662 35.6662 93.1947L42.9947 95.6375C43.6949 95.871 44.2845 96.3543 44.6507 96.9952L45.2315 98.0116C45.7585 98.9339 45.7585 100.066 45.2315 100.988L44.5327 102.211C44.2388 102.726 43.7993 103.141 43.2696 103.406L41.3181 104.382C40.5606 104.761 40.082 105.535 40.082 106.382C40.082 107.086 39.7507 107.749 39.1876 108.171L35.0913 111.243C34.4458 111.727 33.6326 111.931 32.8351 111.808L28.3414 111.117C27.8432 111.04 27.3337 111.09 26.86 111.263L23.6494 112.43C22.6747 112.784 21.5861 112.61 20.7707 111.97L15.611 107.916C15.2627 107.642 14.9793 107.295 14.7812 106.898L11.082 99.5L22.6046 94.2188Z" fill="#006622"/>
<path d="M19.4824 181.656L27.9533 195.161C28.1925 195.542 28.4821 195.89 28.8143 196.194L41.0797 207.413C41.5071 207.804 41.8633 208.266 42.1324 208.779L44.4698 213.233C45.3507 214.912 47.1054 215.948 49.0009 215.908L50.3301 215.881C52.0877 215.844 53.7353 216.734 54.6695 218.223L56.2265 220.705C57.0764 222.06 58.5232 222.927 60.1189 223.037L65.6881 223.42L71.1973 223.579C71.9509 223.601 72.6997 223.452 73.3876 223.143L80.945 219.754C81.7804 219.38 82.4969 218.783 83.0164 218.029L85.5421 214.362C86.0212 213.667 86.7282 213.161 87.5409 212.931C88.5088 212.658 89.3196 211.994 89.779 211.1L94.1834 202.522C94.7863 201.348 94.9005 199.984 94.5012 198.726L91.0573 187.875C90.7116 186.786 90.0032 185.848 89.0501 185.218L78.2562 178.078C77.6029 177.646 76.8572 177.373 76.0793 177.282L66.8332 176.2C66.442 176.154 66.0467 176.154 65.6555 176.201L62.8306 176.541C61.6055 176.688 60.3693 176.377 59.3597 175.667L57.9313 174.663C57.0332 174.032 55.9523 173.714 54.8556 173.758L43.6711 174.208C43.2285 174.226 42.7902 174.303 42.3678 174.436L19.4824 181.656Z" fill="#228B22"/>
<path d="M100.678 230.158C100.605 229.449 100.684 228.733 100.91 228.057L100.977 227.857C101.642 225.87 100.997 223.68 99.3627 222.369L97.4887 220.867C96.6253 220.175 95.5568 219.789 94.4505 219.769L90.2293 219.694C89.9239 219.688 89.6198 219.654 89.3209 219.591L87.8895 219.291C86.2852 218.954 85.1924 217.462 85.3544 215.831V215.831C85.4901 214.465 84.7416 213.163 83.4923 212.593L77.338 209.785C76.0881 209.214 74.6586 209.183 73.3853 209.699L70.1732 211C68.8881 211.521 67.8768 212.551 67.3809 213.846L66.187 216.964C65.6164 218.454 65.7912 220.127 66.6575 221.467L68.2732 223.966C68.4337 224.214 68.6158 224.447 68.8175 224.663L72.496 228.603C73.0462 229.192 73.7308 229.64 74.4913 229.907L81.5764 232.399L87.2894 234.296C87.947 234.514 88.6428 234.593 89.3326 234.528L95.8783 233.913C96.1984 233.883 96.5206 233.883 96.8405 233.915L101.111 234.339L100.678 230.158Z" fill="#37B883"/>
<path d="M134.954 213.345C135.491 213.285 136.034 213.37 136.526 213.593L144.537 217.217L149.067 219.663C149.909 220.118 150.484 220.947 150.614 221.894L151.695 229.759C151.807 230.569 150.953 231.163 150.233 230.777L142.316 226.536C142.118 226.431 141.91 226.348 141.694 226.288L131.326 223.438C131.065 223.366 130.821 223.242 130.609 223.073L128.499 221.391C128.14 221.104 127.851 220.739 127.655 220.324L126.712 218.322C126.263 217.369 126.347 216.25 126.933 215.374L126.973 215.314C127.464 214.581 128.253 214.101 129.13 214.002L134.954 213.345Z" fill="#006622"/>
<path d="M155.422 193.411C156.753 192.973 158.208 193.135 159.41 193.856V193.856C162.012 195.417 162.543 198.964 160.512 201.218L155.534 206.742C154.987 207.348 154.598 208.079 154.399 208.87L153.974 210.56C153.669 211.77 152.924 212.822 151.883 213.511L139.502 221.702C139.165 221.924 138.857 222.187 138.583 222.484L131.4 230.281C130.825 230.906 130.017 231.265 129.168 231.273V231.273C128.019 231.285 126.959 230.655 126.42 229.639L126.23 229.282C125.486 227.88 125.708 226.161 126.783 224.994L132.893 218.362C133.285 217.937 133.6 217.447 133.824 216.914L139.338 203.812C139.839 202.621 140.782 201.671 141.968 201.159L144.702 199.981C145.47 199.65 146.143 199.132 146.659 198.473L148.023 196.733C148.631 195.956 149.457 195.376 150.394 195.068L155.422 193.411Z" fill="#228B22"/>
<path d="M122.676 179.804C124.066 179.744 125.419 180.267 126.408 181.247L130.823 185.62C131.191 185.985 131.5 186.404 131.739 186.863L134.145 191.482C135.129 193.374 134.806 195.681 133.34 197.23L131.205 199.485C130.392 200.343 129.909 201.462 129.843 202.642L129.688 205.397C129.616 206.681 128.906 207.843 127.796 208.493V208.493C126.075 209.501 125.413 211.659 126.273 213.459L126.831 214.626C127.153 215.299 127.32 216.036 127.32 216.782L127.32 218.991C127.32 219.525 127.406 220.056 127.574 220.562L128.502 223.367C129.155 225.339 128.521 227.509 126.908 228.819L126.249 229.355L120.915 225.036C119.978 224.277 118.799 223.883 117.595 223.925L106.633 224.304C104.389 224.382 102.435 222.783 102.068 220.567V220.567C101.753 218.664 102.694 216.773 104.403 215.877L105.934 215.075C108.133 213.922 108.408 210.883 106.451 209.355V209.355C105.838 208.876 105.407 208.202 105.228 207.445L104.557 204.589C104.245 203.265 104.486 201.871 105.225 200.729L108.178 196.164C109.001 194.891 109.203 193.315 108.726 191.876L108.255 190.454C107.945 189.517 107.919 188.509 108.181 187.557L109.199 183.854C109.775 181.759 111.636 180.276 113.806 180.183L122.676 179.804Z" fill="#37B883"/>
<path d="M3.0001 264.776L33.5001 260.5L44.6795 255.093L62.8655 245.979L86.9511 237.522L114.602 227.818L127.392 227.818L154.36 230.009L154.36 233.201L127.392 231.009L114.602 231.253L86.9511 242.5L62.8655 251.5L47.0001 260.5L37.3192 264.776L10.6573 270.313L1.96057 268.177L3.0001 264.776Z" fill="#47342B"/>
<path d="M170.814 222.748C171.779 222.356 172.842 222.274 173.855 222.515L212.042 231.593C213.391 231.913 214.546 232.78 215.232 233.985L222.575 246.897C223.428 248.395 223.448 250.227 222.629 251.744L222.231 252.481C221.338 254.135 219.594 255.148 217.715 255.104L214.521 255.03C213.244 255 212.027 254.483 211.119 253.583L207.134 249.636C206.403 248.912 205.467 248.432 204.454 248.259L197.174 247.02C196.469 246.9 195.797 246.63 195.205 246.228L176.653 233.634C175.94 233.15 175.113 232.858 174.253 232.788L162.126 231.794L152.866 232.143C151.748 232.185 151.415 230.639 152.452 230.217L170.814 222.748Z" fill="#228B22"/>
<path d="M163.261 188.351C163.732 187.623 164.844 187.799 165.067 188.637L165.83 191.507C166.116 192.584 166.753 193.534 167.641 194.207L169.158 195.357C170.067 196.047 170.713 197.026 170.988 198.133L172.656 204.826C172.739 205.16 172.857 205.485 173.007 205.795L175.824 211.619C176.769 213.573 176.346 215.914 174.775 217.413L174.194 217.968C173.539 218.594 173.065 219.386 172.825 220.26L172.676 220.802C172.408 221.777 171.851 222.648 171.077 223.3L165.856 227.7C165.191 228.26 164.391 228.638 163.536 228.795L149.004 231.462L152.805 226.696C153.422 225.921 153.796 224.98 153.878 223.992L154.3 218.91C154.383 217.923 154.756 216.982 155.374 216.207L155.871 215.584C156.477 214.823 156.849 213.903 156.94 212.934L157.54 206.54C157.584 206.066 157.696 205.6 157.873 205.158L158.898 202.582C159.151 201.946 159.271 201.265 159.25 200.581L159.123 196.379C159.092 195.364 159.371 194.364 159.923 193.512L163.261 188.351Z" fill="#37B883"/>
<path d="M127.5 228.5L133.164 232.38L136.783 248.424L143.298 258.771L146.62 277.297L147.329 294.504L144.064 298.645L137.75 295.875L135.175 284.992L136.245 276.055L132.21 263.487L123 245.5L127.5 228.5Z" fill="#006622"/>
<path d="M152.95 230L152.965 236.948L149.497 243.617L147.301 254.616L139.159 259.852L136.043 254.618L135.072 249.103L136.043 245L139.196 242.185L144.153 235.485L152.95 230Z" fill="#37B883"/>
<path d="M151.603 231.917L159.301 231.915C159.979 231.915 160.65 232.052 161.273 232.32L183.725 241.952L198.108 249.34C198.549 249.566 198.954 249.857 199.31 250.202L199.358 250.249C200.841 251.692 201.283 253.9 200.468 255.802L199.616 257.792L197.583 261.852C196.865 263.286 195.502 264.288 193.919 264.547L188.726 265.396C187.782 265.551 186.814 265.431 185.936 265.052L179.202 262.142C178.479 261.83 177.84 261.351 177.338 260.745L173.731 256.398C173.309 255.89 172.791 255.47 172.207 255.163L168.762 253.355C168.178 253.048 167.66 252.629 167.238 252.121L165.316 249.803C164.568 248.902 163.42 248.434 162.255 248.555V248.555C161.054 248.68 159.873 248.178 159.13 247.226L157.402 245.015C157.244 244.812 157.102 244.598 156.977 244.374L155.146 241.094L151.603 231.917Z" fill="#006622"/>
<path d="M77.0074 228.257C77.7548 227.622 78.6726 227.22 79.6464 227.102L84.3832 226.53C85.5378 226.391 86.705 226.658 87.6838 227.286L91.8376 229.953L96.7358 233.366C97.3727 233.81 97.2829 234.779 96.5753 235.098L89.6748 238.212C88.4229 238.777 86.9938 238.802 85.7229 238.281L83.6692 237.44C83.1105 237.211 82.5149 237.085 81.9113 237.068L79.5161 237.003C77.9397 236.959 76.4874 236.137 75.6395 234.807V234.807C74.3628 232.805 74.7593 230.168 76.5682 228.63L77.0074 228.257Z" fill="#006622"/>
<path d="M97.396 214.749C98.3099 214.371 99.3157 214.272 100.286 214.465L106.147 215.632C107.297 215.861 108.329 216.486 109.064 217.399L112.818 222.059L117.125 227.842C117.586 228.462 117.2 229.349 116.433 229.433L107.157 230.459C105.779 230.611 104.4 230.184 103.348 229.28L101.065 227.317C100.603 226.92 100.073 226.611 99.5001 226.404L96.5447 225.339C94.9797 224.776 93.7976 223.47 93.3913 221.857L93.2033 221.111C92.5973 218.706 93.8466 216.219 96.1384 215.27L97.396 214.749Z" fill="#006622"/>
<path d="M98.725 259.472C99.6196 257.914 99.6094 255.995 98.6982 254.447L97.9053 253.099C97.2134 251.923 97.032 250.516 97.4032 249.203L99.3503 242.316C99.6988 241.083 100.507 240.031 101.608 239.377L106.006 236.765L116.031 229.642C116.454 229.341 117.038 229.414 117.373 229.811L119.191 231.958C119.811 232.69 120.628 233.229 121.545 233.509L123.514 234.111C124.905 234.537 126.042 235.547 126.628 236.878L128.88 241.995C129.161 242.633 129.305 243.321 129.304 244.018L129.292 251.465C129.291 251.827 129.33 252.187 129.407 252.54L130.66 258.277C130.887 259.316 130.776 260.4 130.345 261.372L126.377 270.312C126.197 270.717 125.963 271.098 125.683 271.442L121.845 276.151C121.136 277.02 120.156 277.626 119.062 277.871L109.924 279.919C109.014 280.123 108.066 280.068 107.186 279.762L100.678 277.495C99.2736 277.005 98.1598 275.916 97.6392 274.523L95.483 268.754C94.9618 267.359 95.0892 265.805 95.8304 264.514L98.725 259.472Z" fill="#37B883"/>
<path d="M91.6886 248.813C92.9511 247.92 93.7295 246.494 93.7971 244.949L93.8752 243.166C93.926 242.006 94.3791 240.9 95.1568 240.037L99.9041 234.771C100.553 234.051 101.398 233.535 102.335 233.286L106.683 232.132L114.936 230.642C115.396 230.559 115.852 230.806 116.034 231.236L117.664 235.086C117.855 235.539 118.113 235.961 118.428 236.339L119.548 237.683C120.46 238.776 120.862 240.206 120.654 241.614L119.906 246.693C119.82 247.276 119.631 247.839 119.349 248.356L115.941 254.609C115.796 254.876 115.675 255.156 115.58 255.445L113.81 260.847C113.526 261.713 113.011 262.485 112.32 263.08L105.579 268.88C105.261 269.154 104.911 269.386 104.535 269.572L100.232 271.701C99.1292 272.247 97.8636 272.367 96.6776 272.038L90.5951 270.35C89.5454 270.058 88.6195 269.432 87.9583 268.566L85.058 264.768C84.1876 263.628 83.8485 262.17 84.127 260.763L85.2591 255.044C85.5081 253.786 86.2306 252.672 87.2773 251.932L91.6886 248.813Z" fill="#006622"/>
<g filter="url(#filter1_d)">
<path d="M154 231L141.5 230L127.371 235.088L114.284 241.848L105.469 250.147L104.495 256.443L111.276 257.444L114.429 253.563L119.963 253.55L125.008 247.341L131.374 248.004L134.211 244.512L137.981 242.421L143.959 237.614L154 231Z" fill="#228B22"/>
</g>
<path d="M76 342.141L81.7769 337.545L91.0995 336.099L102.654 330.715L115.851 334.193L114.866 340.298L111.322 344.763L107.055 348.375L101.08 345.815L90.1159 346.013L76 342.141Z" fill="#37B883"/>
<path d="M82.666 277.292C82.4175 278.272 81.8781 279.153 81.1188 279.819L72.0542 287.779C71.1565 288.568 70.0063 289.008 68.8117 289.022L57.5617 289.15L44.2066 288.791C43.4436 288.77 42.9839 287.937 43.3736 287.28L52.6327 271.684C53.3577 270.463 54.5676 269.608 55.9607 269.332L62.8685 267.964C63.4781 267.843 64.0598 267.61 64.5839 267.276L70.9568 263.215C72.3692 262.315 74.1382 262.182 75.6693 262.86L81.392 265.396C83.6207 266.384 84.8124 268.834 84.2128 271.197L82.666 277.292Z" fill="#006622"/>
<path d="M52.0292 439.589C51.5062 438.697 51.273 437.664 51.3617 436.633L53.1027 416.405C53.1467 415.895 53.2689 415.394 53.4652 414.92L59.8986 399.396C60.1302 398.837 60.4614 398.325 60.8761 397.884L81.6133 375.844C82.1573 375.266 83.1259 375.522 83.3133 376.293L91.5804 410.324C91.8518 411.441 91.73 412.617 91.2354 413.655L83.0946 430.737C82.9504 431.039 82.837 431.356 82.756 431.681L79.5734 444.478C79.1664 446.115 77.9615 447.436 76.3691 447.992L64.1319 452.264C61.8758 453.051 59.3779 452.132 58.1699 450.07L52.0292 439.589Z" fill="#006622"/>
<path d="M52.0292 439.589C51.5062 438.697 51.273 437.664 51.3617 436.633L53.1027 416.405C53.1467 415.895 53.2689 415.394 53.4652 414.92L59.8986 399.396C60.1302 398.837 60.4614 398.325 60.8761 397.884L81.6133 375.844C82.1573 375.266 83.1259 375.522 83.3133 376.293L91.5804 410.324C91.8518 411.441 91.73 412.617 91.2354 413.655L83.0946 430.737C82.9504 431.039 82.837 431.356 82.756 431.681L79.5734 444.478C79.1664 446.115 77.9615 447.436 76.3691 447.992L64.1319 452.264C61.8758 453.051 59.3779 452.132 58.1699 450.07L52.0292 439.589Z" fill="#006622"/>
<path d="M43.5514 292.07C44.0257 292.683 44.6362 293.165 45.3335 293.478L47.3262 294.372L51.1578 296.548C52.0997 297.083 53.1978 297.269 54.2782 297.076L58.1482 296.385C58.7065 296.286 59.2737 296.286 59.8247 296.388L62.7821 296.931C63.2432 297.016 63.6848 297.18 64.089 297.417V297.417C65.1606 298.044 66.4598 298.142 67.6449 297.684L76.9321 294.095C77.6265 293.827 78.2599 293.402 78.7859 292.852L82.377 289.096C83.3845 288.043 83.9254 286.606 83.8627 285.151L83.7965 283.613C83.7087 281.574 82.4558 279.832 80.6142 279.188L78.6962 278.518C78.4323 278.426 78.1605 278.357 77.8837 278.314L72.2753 277.44C71.631 277.34 70.969 277.376 70.3286 277.546L61.8366 279.806L54.9385 281.745C54.4427 281.884 53.968 282.102 53.5314 282.391L46.7523 286.882C46.5497 287.016 46.3385 287.135 46.1205 287.238L41.5016 289.422L43.5514 292.07Z" fill="#37B883"/>
<path d="M125.26 385.483C124.872 385.608 124.465 385.654 124.065 385.618L101.667 383.616L87.3141 381.561C86.438 381.436 85.6753 380.925 85.2321 380.168L76.1864 364.714C75.7646 363.994 76.3892 363.08 77.2234 363.198L101.51 366.612C101.674 366.635 101.839 366.644 102.005 366.64L129.313 365.9C129.517 365.895 129.72 365.921 129.914 365.977L137.502 368.173C137.888 368.284 138.245 368.474 138.551 368.73L143.629 372.979C144.634 373.819 144.943 375.241 144.388 376.469L143.446 378.554C143.082 379.359 142.391 379.976 141.553 380.246L125.26 385.483Z" fill="#006622"/>
<path d="M87.4991 343.425C88.5845 343.667 89.7245 343.523 90.7333 343.017L114.594 331.026C115.927 330.355 116.91 329.113 117.272 327.639L119.773 317.466C120.141 315.97 119.801 314.395 118.857 313.219C117.739 311.827 115.947 311.207 114.211 311.611L113.432 311.793C112.066 312.111 110.885 313.007 110.181 314.259L108.787 316.738C108.222 317.742 107.345 318.525 106.3 318.958L102.394 320.577C101.659 320.881 101.003 321.36 100.48 321.975L90.4278 333.781C89.7971 334.522 88.975 335.064 88.06 335.342L80.2343 337.719L74.8624 338.59C73.7811 338.765 73.7101 340.344 74.7728 340.581L87.4991 343.425Z" fill="#228B22"/>
<path d="M134.001 359.091C135.226 359.857 136.082 361.098 136.354 362.501L136.588 363.709C137.188 366.805 134.823 369.588 131.675 369.49L122.644 369.209C121.79 369.183 120.95 369.374 120.205 369.765L118.231 370.801C117.09 371.399 115.745 371.522 114.483 371.143L98.0229 366.197C97.6149 366.074 97.1946 366.003 96.7721 365.985L84.8692 365.479C83.8422 365.435 82.8678 364.961 82.1871 364.173C81.3228 363.173 81.0483 361.805 81.4677 360.589L81.6173 360.155C82.2337 358.368 83.9463 357.214 85.8627 357.296L95.8848 357.722C96.4917 357.748 97.0948 357.664 97.6646 357.474L112.996 352.358C114.265 351.935 115.668 352.046 116.887 352.666L120.227 354.367C121.014 354.767 121.887 354.96 122.757 354.924L125.481 354.812C126.505 354.77 127.528 355.044 128.411 355.595L134.001 359.091Z" fill="#228B22"/>
<path d="M9.84522 265.063L20.1343 268.724L28.4331 275.825L46.6566 290.11L60.9999 309.5L76.9484 339.527L77.8995 354.262L79.6244 386.189L76.7142 388.034L74.9893 356.107L73.0382 341.372L58.0897 312.345L43.5 294.5L26.5 283L17.5 278.825L-0.499818 277.67L-0.499819 266L9.84522 265.063Z" fill="#47342B"/>
<path d="M144.483 385.715C144.758 385.793 144.99 385.982 145.122 386.235L147.803 391.36C149.039 393.722 148.253 396.576 146.006 397.884L135.5 404L122.5 409.46L113.015 412.054C111.739 412.403 110.36 412.226 109.184 411.562L106.282 409.924C105.559 409.517 104.742 409.318 103.924 409.351C102.294 409.418 100.734 408.562 99.8941 407.138L93.059 395.559L83.9851 378.826L90.5605 381.436C91.5398 381.824 92.6067 381.903 93.6124 381.659L99.3299 380.277C100.336 380.033 101.403 380.112 102.382 380.5L103.44 380.92C104.401 381.302 105.448 381.384 106.438 381.157L113.552 379.522C114.038 379.41 114.541 379.372 115.043 379.41L119.357 379.735L134.039 382.744L144.483 385.715Z" fill="#37B883"/>
<path d="M103.94 323.462C103.86 324.462 103.495 325.413 102.893 326.194L96.9714 333.874C96.2575 334.799 95.2513 335.434 94.1275 335.667L85.3969 337.478L74.9821 339.214C74.2328 339.338 73.6301 338.571 73.9016 337.837L79.029 323.991C79.5141 322.682 80.5022 321.643 81.7587 321.122L86.7127 319.067C87.2647 318.838 87.771 318.506 88.2068 318.088L92.3896 314.077C93.5827 312.933 95.2512 312.483 96.8414 312.876L100.495 313.779C102.874 314.367 104.489 316.674 104.285 319.193L103.94 323.462Z" fill="#006622"/>
<path d="M31.5562 321.976C33.4964 322.494 35.5612 321.791 36.7945 320.192L37.9055 318.752C38.8516 317.525 40.3072 316.805 41.8487 316.8L50.2725 316.774C51.5521 316.77 52.7824 317.26 53.7089 318.143L58.7121 322.911L71.2562 333.177C71.3584 333.26 71.4429 333.363 71.5049 333.48L73.5414 337.315C74.6753 339.45 74.1222 342.1 72.2279 343.609L69.1413 346.068L62.8078 352.401C62.2458 352.963 61.5593 353.383 60.805 353.626L52.9081 356.176C52.5144 356.303 52.1377 356.479 51.7867 356.699L46.237 360.181C45.2227 360.818 44.0162 361.069 42.8367 360.888L31.5123 359.157C31.0623 359.089 30.624 358.958 30.2097 358.77L23.0166 355.499C22.0814 355.074 21.3011 354.368 20.7822 353.478L14.1353 342.083C13.7219 341.374 13.489 340.573 13.4572 339.75L13.0808 329.994C13.0224 328.479 13.6494 327.017 14.7864 326.016L20.2037 321.247C21.458 320.143 23.1754 319.738 24.7824 320.167L31.5562 321.976Z" fill="#228B22"/>
<path d="M30.7698 388.302C31.9997 387.739 32.9485 386.696 33.3985 385.414L35.8848 378.331C36.2204 377.375 36.8364 376.544 37.6516 375.949L50.4203 366.616C51.4008 365.899 52.6078 365.567 53.8154 365.682L61.69 366.429L79.1297 366.416C79.7604 366.415 80.2339 366.997 80.1092 367.618L78.9801 373.25C78.7868 374.214 78.8796 375.214 79.2469 376.125L80.8522 380.111C81.3684 381.393 81.3361 382.831 80.7631 384.086L75.571 395.46C75.3584 395.926 75.076 396.356 74.7336 396.735L64.8473 407.691C64.6712 407.886 64.5107 408.095 64.3673 408.316L57.5169 418.853C57.0821 419.522 56.4943 420.076 55.8026 420.47L39.9667 429.48C39.6272 429.673 39.2664 429.825 38.8915 429.934L28.8914 432.826C27.6319 433.19 26.2797 433.04 25.1276 432.409L14.4469 426.557C13.3627 425.963 12.5355 424.986 12.1251 423.815L8.5916 413.73C8.13641 412.431 8.23191 411.002 8.85571 409.778L15.6641 396.413C16.1754 395.409 17.0087 394.609 18.0291 394.141L30.7698 388.302Z" fill="#228B22"/>
<path d="M81.2524 360.942L75.1694 378.374L59.4805 380.887L48.0627 390.42L27.3512 395.9L8.03844 397.691L3.27918 393.351L6.18819 384.452L17.1708 370.238L27.2475 371.305L41.2412 365.114L62.0521 363.454L81.2524 360.942Z" fill="#006622"/>
<path d="M79.159 373.205C81.9181 373.092 84.3187 375.233 84.5208 377.987L84.8736 382.792C84.9429 383.737 84.742 384.673 84.2942 385.492L74.0276 404.265L65.9317 419.391C65.7027 419.819 65.4105 420.208 65.0644 420.547L64.9592 420.65C63.4463 422.132 61.1197 422.452 59.1836 421.445L57.1421 420.382L52.816 417.794C51.4493 416.976 50.5268 415.579 50.3246 414.02L49.5252 407.856C49.4071 406.945 49.5416 406.028 49.9141 405.204L53.2321 397.864C53.5505 397.159 54.0333 396.544 54.6414 396.069L59.3497 392.389C59.8612 391.989 60.285 391.49 60.5967 390.92L62.6393 387.185C62.951 386.615 63.3748 386.115 63.8864 385.716L66.3363 383.801C67.3275 383.026 67.8619 381.806 67.7683 380.532C67.6717 379.216 68.2446 377.962 69.2927 377.194L71.5854 375.513C71.7949 375.359 72.0168 375.223 72.249 375.105L74.7632 373.828C75.3876 373.51 76.0769 373.331 76.7852 373.302L79.159 373.205Z" fill="#37B883"/>
<path d="M76.3394 344L72.8666 351.81L64.0778 358.069L55.1013 369.644L39.7145 372.634L37.4676 365.648L38.7216 359.109L41.1713 353.11L48.6629 352.803L59.8 347.037L76.3394 344Z" fill="#37B883"/>
<path d="M52.7601 303.567C52.2859 303.035 51.9311 302.407 51.7192 301.727L51.6567 301.526C51.0341 299.525 49.2304 298.125 47.1381 298.018L44.7395 297.895C43.6344 297.839 42.5418 298.15 41.6328 298.781L38.1646 301.189C37.9137 301.363 37.6468 301.513 37.3677 301.637L36.0308 302.23C34.5324 302.895 32.7739 302.324 31.9514 300.906C31.2623 299.718 29.8941 299.1 28.5473 299.368L21.9127 300.689C20.5653 300.957 19.3876 301.768 18.6562 302.931L16.8114 305.865C16.0733 307.039 15.8557 308.466 16.2106 309.806L17.0652 313.033C17.4736 314.576 18.5937 315.831 20.0801 316.411L22.852 317.493C23.1273 317.601 23.4116 317.684 23.7015 317.741L28.9892 318.786C29.7802 318.942 30.5971 318.905 31.3705 318.677L38.5754 316.556L44.3186 314.753C44.9797 314.545 45.5904 314.203 46.1121 313.747L51.0619 309.42C51.304 309.208 51.5659 309.02 51.844 308.859L55.5563 306.706L52.7601 303.567Z" fill="#37B883"/>
<path d="M36.4565 313.362C36.6911 312.409 37.2008 311.547 37.922 310.882L41.4298 307.648C42.2849 306.859 43.3881 306.394 44.5494 306.331L49.4781 306.065L55.4479 305.97C56.2242 305.957 56.7178 306.796 56.3305 307.469L52.5536 314.03C51.8684 315.22 50.7237 316.076 49.3883 316.397L47.2304 316.915C46.6433 317.056 46.0866 317.302 45.5873 317.642L43.6057 318.989C42.3015 319.876 40.6425 320.058 39.1771 319.475C36.9709 318.598 35.7505 316.227 36.3185 313.921L36.4565 313.362Z" fill="#006622"/>
<path d="M17.5914 291.023C18.166 291.71 18.9149 292.231 19.7595 292.53L25.423 294.534C26.4322 294.891 27.5295 294.914 28.5533 294.601L33.8778 292.973L39.8298 290.907C40.5996 290.64 40.7439 289.614 40.0776 289.145L32.8492 284.056C31.834 283.341 30.5894 283.03 29.3573 283.182L26.3794 283.551C25.8311 283.618 25.2753 283.595 24.7347 283.481L21.5098 282.801C20.0519 282.494 18.5351 282.906 17.4331 283.909C15.5954 285.581 15.4029 288.405 16.9967 290.312L17.5914 291.023Z" fill="#228B22"/>
</g>
<defs>
<filter id="filter0_d" x="-32.9771" y="0.122307" width="270.137" height="468.637" filterUnits="userSpaceOnUse" color-interpolation-filters="sRGB">
<feFlood flood-opacity="0" result="BackgroundImageFix"/>
<feColorMatrix in="SourceAlpha" type="matrix" values="0 0 0 0 0 0 0 0 0 0 0 0 0 0 0 0 0 0 127 0"/>
<feOffset dy="4"/>
<feGaussianBlur stdDeviation="5"/>
<feColorMatrix type="matrix" values="0 0 0 0 0 0 0 0 0 0 0 0 0 0 0 0 0 0 0.25 0"/>
<feBlend mode="normal" in2="BackgroundImageFix" result="effect1_dropShadow"/>
<feBlend mode="normal" in="SourceGraphic" in2="effect1_dropShadow" result="shape"/>
</filter>
<filter id="filter1_d" x="91" y="207.863" width="74" height="77.6906" filterUnits="userSpaceOnUse" color-interpolation-filters="sRGB">
<feFlood flood-opacity="0" result="BackgroundImageFix"/>
<feColorMatrix in="SourceAlpha" type="matrix" values="0 0 0 0 0 0 0 0 0 0 0 0 0 0 0 0 0 0 127 0"/>
<feOffset dy="4"/>
<feGaussianBlur stdDeviation="5.5"/>
<feColorMatrix type="matrix" values="0 0 0 0 0 0 0 0 0 0 0 0 0 0 0 0 0 0 0.25 0"/>
<feBlend mode="normal" in2="BackgroundImageFix" result="effect1_dropShadow"/>
<feBlend mode="normal" in="SourceGraphic" in2="effect1_dropShadow" result="shape"/>
</filter>
</defs>
</svg>
