<svg width="250" height="417" viewBox="0 0 250 417" fill="none" xmlns="http://www.w3.org/2000/svg">
<path d="M188.938 109.135C189.58 108.401 189.444 107.272 188.647 106.71V106.71C187.959 106.225 187.016 106.338 186.462 106.972L176.971 117.835L167.856 130.765L162.554 136.852L157.252 142.939L147.18 154.659C146.548 155.396 146.687 156.517 147.48 157.076V157.076C148.173 157.565 149.124 157.447 149.676 156.804L159.954 144.844L170.558 132.669L179.673 119.739L188.938 109.135Z" fill="#47342B"/>
<path d="M155.872 161.116L152.971 168.149C152.662 168.898 152.175 169.561 151.553 170.081L138.435 181.028C138.195 181.229 137.937 181.406 137.664 181.558L119.426 191.715L100.254 200.275C98.5786 201.023 96.6282 200.793 95.1724 199.676L83.2092 190.5C81.4508 189.151 80.79 186.806 81.5855 184.738L87.075 170.466C87.3719 169.694 87.8556 169.008 88.4828 168.469L99.1965 159.261C99.3985 159.087 99.6141 158.93 99.8411 158.791L111.509 151.633C112.045 151.305 112.637 151.08 113.256 150.971L120.51 149.693C121.059 149.596 121.588 149.408 122.075 149.137L140.366 138.951C141.11 138.537 141.947 138.319 142.799 138.319L160.279 138.319C161.629 138.319 162.591 139.628 162.188 140.916L155.872 161.116Z" fill="#228B22"/>
<path d="M104.938 158.254L102.755 159.517C102.101 159.896 101.369 160.121 100.615 160.176L94.1247 160.651C93.8438 160.672 93.5616 160.669 93.2812 160.642L84.5356 159.801L77.1876 158.5C75.4358 158.189 73.9808 156.972 73.3667 155.302L72.8027 153.769C71.9788 151.529 72.8529 149.019 74.8899 147.775L77.5538 146.149C78.2139 145.746 78.9585 145.502 79.729 145.435L84.9575 144.983C85.1969 144.963 85.4375 144.959 85.6775 144.973L90.9364 145.279C91.5038 145.312 92.0614 145.441 92.5853 145.661L94.6966 146.549C95.1619 146.745 95.6542 146.869 96.1566 146.918L104.132 147.684C104.906 147.759 105.652 148.013 106.31 148.426L110.433 151.012C111.645 151.773 111.69 153.523 110.518 154.344L104.938 158.254Z" fill="#37B883"/>
<path d="M114.511 132.26L116.538 132.862C117.329 133.097 118.167 133.132 118.975 132.965L124.216 131.879C124.531 131.814 124.839 131.719 125.135 131.594L132.113 128.67L137.448 125.84C139.082 124.974 140.104 123.277 140.106 121.428L140.108 119.655C140.11 117.484 138.711 115.56 136.646 114.892L133.964 114.024C133.164 113.766 132.311 113.713 131.484 113.871L127.294 114.674C127.025 114.726 126.761 114.8 126.504 114.894L122.485 116.377C121.88 116.601 121.324 116.939 120.847 117.374L119.648 118.468C119.225 118.854 118.739 119.164 118.211 119.386L112.211 121.9C111.406 122.238 110.704 122.779 110.174 123.472L107.628 126.796C106.821 127.85 107.246 129.383 108.48 129.872L114.511 132.26Z" fill="#37B883"/>
<path d="M116.812 151.178C117.513 151.217 118.214 151.109 118.87 150.859L122.603 149.439C123.113 149.245 123.588 148.969 124.009 148.621L129.211 144.326L137.378 138.577C137.928 138.19 138.549 137.918 139.206 137.777L141.139 137.363C143.18 136.925 144.593 135.06 144.464 132.977V132.977C144.326 130.746 142.471 129.01 140.236 129.019L137.284 129.031C136.591 129.034 135.906 129.18 135.272 129.462L131.202 131.273C130.453 131.606 129.797 132.118 129.293 132.764L126.869 135.868C125.834 137.193 124.202 137.91 122.526 137.774L122.001 137.732C120.943 137.647 119.886 137.9 118.982 138.455L113.826 141.621C112.996 142.13 112.333 142.871 111.919 143.751L109.901 148.036C109.297 149.319 110.182 150.805 111.598 150.885L116.812 151.178Z" fill="#006622"/>
<path d="M51.3426 323.742C51.3693 324.094 51.4332 324.442 51.5331 324.78L52.9085 329.436C53.1494 330.251 53.1783 331.115 52.9926 331.944L50.3727 343.651C50.2991 343.98 50.1923 344.3 50.0541 344.608L43.8555 358.403L36.6714 371.02C35.7453 372.646 33.9886 373.619 32.1187 373.542L21.6097 373.105C19.5171 373.018 17.7004 371.636 17.0582 369.643L13.8214 359.596C13.556 358.772 13.509 357.893 13.6848 357.046L15.6862 347.404C15.7445 347.123 15.827 346.848 15.9326 346.581L19.4499 337.692C19.6985 337.064 20.0719 336.492 20.5475 336.012L23.952 332.577C24.3738 332.151 24.7156 331.653 24.9611 331.107L30.661 318.422C31.2079 317.204 32.2187 316.256 33.4684 315.788L47.768 310.434C49.0157 309.967 50.3628 310.827 50.4636 312.156L51.3426 323.742Z" fill="#228B22"/>
<path d="M157.317 327.983C156.773 327.883 156.267 327.636 155.852 327.27L150.614 322.642C150.114 322.201 149.691 321.679 149.363 321.099L143.129 310.072C142.906 309.679 142.64 309.311 142.334 308.977L126.359 291.5L114.141 275.287C113.272 274.134 112.848 272.707 112.946 271.268L114.466 249C114.489 248.667 114.539 248.337 114.617 248.013L120 225.5L122 205L122.611 187.223C122.638 186.416 122.503 185.612 122.212 184.858L95.3254 115.14C95.0112 114.325 95.819 113.528 96.6298 113.852L107 118L126.072 184.991C126.262 185.659 126.334 186.354 126.287 187.046L124.707 210L123.74 224.515C123.718 224.851 123.667 225.185 123.589 225.512L118.323 247.533C118.245 247.857 118.195 248.187 118.172 248.52L116.661 270.669C116.558 272.18 117.03 273.674 117.982 274.852L131.065 291.02L146.217 308.67C146.405 308.89 146.578 309.123 146.732 309.367L153.123 319.449C153.544 320.115 154.093 320.69 154.737 321.144L160.147 324.953C160.635 325.296 160.924 325.854 160.924 326.45V326.45C160.924 327.595 159.886 328.459 158.76 328.25L157.317 327.983Z" fill="#47342B"/>
<path d="M161.146 126.735C161.067 125.248 162.25 124 163.738 124V124C165.119 124 166.258 125.08 166.331 126.458L168.8 172.762V221.525L170.1 246.277L171.4 271.03L174.677 342.909C174.834 346.364 171.521 348.932 168.214 347.917L167.261 347.624C165.101 346.961 163.654 344.931 163.732 342.672L166.2 271.03L163.6 221.525V172.762L161.146 126.735Z" fill="#47342B"/>
<path d="M192.207 251.754L184.632 252.704C183.746 252.815 182.907 253.161 182.2 253.706L169.057 263.841L153.61 277.021C153.241 277.336 152.92 277.703 152.656 278.11L143.066 292.946C142.383 294.002 142.123 295.277 142.338 296.516L145.184 312.896C145.337 313.778 145.725 314.604 146.306 315.285L153.565 323.793C154.629 325.04 156.237 325.687 157.869 325.523L174.825 323.819C175.526 323.749 176.204 323.531 176.815 323.18L191.83 314.558C192.344 314.262 192.802 313.877 193.182 313.422L196.538 309.392C196.952 308.895 197.266 308.321 197.461 307.704L199.741 300.521C199.812 300.294 199.901 300.072 200.004 299.858L209.765 279.65C210.184 278.783 210.343 277.814 210.225 276.859L207.037 251.195C206.895 250.055 205.823 249.268 204.693 249.475L192.207 251.754Z" fill="#228B22"/>
<path d="M226.255 262.061C226.657 260.728 225.84 259.334 224.48 259.034V259.034C223.257 258.763 222.033 259.481 221.672 260.68L213.073 289.222L205.344 319.753C205.234 320.188 205.066 320.606 204.844 320.996L196.792 335.167C196.505 335.671 196.309 336.221 196.211 336.792L193.687 351.5L192.168 358.635C191.893 359.924 192.71 361.193 193.997 361.478V361.478C195.298 361.766 196.585 360.938 196.863 359.634L198.374 352.536L202.33 336.613C202.443 336.159 202.619 335.723 202.853 335.318L210.479 322.113C210.735 321.67 210.921 321.191 211.031 320.692L217.76 290.259L226.255 262.061Z" fill="#47342B"/>
<path d="M103.357 295.57C102.864 294.633 101.608 294.435 100.849 295.173V295.173C100.346 295.663 100.225 296.427 100.553 297.048L109.07 313.204L114.474 325.739C114.648 326.141 114.873 326.519 115.145 326.862L119.745 332.676L124.754 339.006L134.424 351.06C135.032 351.817 136.159 351.886 136.855 351.209V351.209C137.462 350.618 137.521 349.662 136.991 349.001L127.123 336.7L117.514 324.557C117.242 324.213 117.016 323.836 116.843 323.434L111.438 310.898L103.357 295.57Z" fill="#47342B"/>
<path d="M116.254 241.048C116.537 242.113 117.874 242.46 118.639 241.667V241.667C118.982 241.311 119.114 240.801 118.987 240.323L116.466 230.823L115.482 223.775C115.376 223.018 115.098 222.295 114.669 221.663L113.077 219.313L110.834 216.002L107.08 210.618C106.496 209.78 105.292 209.685 104.583 210.42V210.42C104.045 210.978 103.977 211.838 104.42 212.473L108.539 218.382L112.375 224.042C112.804 224.675 113.082 225.398 113.187 226.155L114.172 233.202L116.254 241.048Z" fill="#47342B"/>
<path d="M216.765 279.745C217.189 280.773 218.528 281.027 219.3 280.227V280.227C219.725 279.785 219.849 279.134 219.614 278.567L211.833 259.742C211.67 259.348 211.558 258.936 211.5 258.514L210.6 251.977C210.495 251.218 210.217 250.493 209.788 249.858L208.168 247.464L205.896 244.104L202.1 238.649C201.505 237.796 200.279 237.698 199.557 238.447V238.447C199.01 239.014 198.94 239.888 199.39 240.535L203.561 246.527L207.453 252.28C207.882 252.915 208.16 253.64 208.264 254.399L209.165 260.936C209.223 261.358 209.334 261.771 209.497 262.164L216.765 279.745Z" fill="#47342B"/>
<path d="M220.475 271.489C220.781 272.568 222.141 272.909 222.92 272.102V272.102C223.279 271.729 223.413 271.194 223.272 270.696L219.979 259.084C219.883 258.748 219.753 258.422 219.589 258.112L215.037 249.5L213.702 246L211.908 240.766C211.757 240.327 211.547 239.911 211.282 239.53L207.884 234.649C207.29 233.796 206.064 233.698 205.342 234.447V234.447C204.795 235.014 204.725 235.888 205.175 236.535L208.965 241.98C209.218 242.343 209.421 242.738 209.57 243.154L212.581 251.585C212.661 251.81 212.758 252.028 212.869 252.239L217.254 260.534C217.417 260.844 217.548 261.17 217.644 261.507L220.475 271.489Z" fill="#47342B"/>
<path d="M93.8472 234.363C93.0869 233.713 93.3776 232.476 94.3476 232.233V232.233C94.734 232.137 95.1434 232.233 95.4462 232.491L106.886 242.266L112.19 248.067C113.033 248.989 113.5 250.192 113.5 251.441L113.5 254.86L113.5 264.64C113.5 265.209 113.597 265.774 113.788 266.311L115.878 272.207C116.174 273.043 115.686 273.952 114.826 274.168V274.168C114.074 274.356 113.302 273.942 113.043 273.212L110.857 267.045C110.667 266.508 110.57 265.943 110.57 265.374L110.57 252.175C110.57 250.926 110.103 249.723 109.26 248.801L103.956 243L93.8472 234.363Z" fill="#47342B"/>
<path d="M52.8248 309.738C51.984 309.074 50.7402 309.431 50.3794 310.44V310.44C50.1527 311.073 50.3558 311.781 50.884 312.197L67.2874 325.14C67.6844 325.453 68.1265 325.704 68.5988 325.885L100.874 338.225C101.541 338.48 102.146 338.875 102.647 339.384L109.035 345.856C109.374 346.199 109.759 346.491 110.181 346.723L117.941 351L130.798 356.496C131.694 356.879 132.728 356.428 133.057 355.51V355.51C133.346 354.701 132.983 353.803 132.213 353.422L118.324 346.562C118.069 346.436 117.826 346.289 117.596 346.122L103.537 335.89C103.18 335.631 102.792 335.42 102.38 335.263L69.7125 322.772C69.2402 322.592 68.7981 322.341 68.4011 322.027L52.8248 309.738Z" fill="#47342B"/>
<path d="M181.704 144.075C182.232 143.483 183.17 143.52 183.649 144.152V144.152C184.014 144.633 183.987 145.304 183.585 145.754L180.148 149.606C179.933 149.847 179.695 150.066 179.438 150.261L174.978 153.644C174.724 153.836 174.49 154.052 174.278 154.288L172.331 156.457L170.066 158.982L166.187 163.199C165.654 163.779 164.725 163.735 164.249 163.107V163.107C163.879 162.62 163.912 161.937 164.326 161.487L168.513 156.934L172.725 152.241C172.937 152.004 173.172 151.789 173.425 151.597L177.886 148.214C178.143 148.019 178.38 147.799 178.595 147.559L181.704 144.075Z" fill="#47342B"/>
<path d="M22.571 94.7842C20.7109 94.0064 19.5 92.1875 19.5 90.1713V78.7752C19.5 77.6269 19.8953 76.5135 20.6194 75.6222L25.3411 69.8109C25.7757 69.2761 26.3161 68.8368 26.9285 68.5208L38.939 62.3218C40.5241 61.5037 42.425 61.592 43.9275 62.5536L54 69L67.0682 76.4676C67.6824 76.8185 68.2151 77.2958 68.6312 77.8679L78.8778 91.957C79.6005 92.9507 80.6638 93.6435 81.8648 93.9032L97.3975 97.2616C98.1234 97.4186 98.8052 97.7352 99.3934 98.1886L120.518 114.473C121.234 115.024 120.91 116.166 120.012 116.259L99.5744 118.388C98.8663 118.462 98.1506 118.384 97.4752 118.158L91.7697 116.257C91.2599 116.087 90.726 116 90.1886 116H86.0139C85.0268 116 84.0617 115.708 83.2404 115.16L75.2596 109.84C74.4383 109.292 73.4732 109 72.4861 109H65.0642C64.6892 109 64.3155 108.958 63.95 108.874L47.4187 105.096C47.1401 105.032 46.8674 104.945 46.6038 104.834L22.571 94.7842Z" fill="#006622"/>
<path d="M224.069 57.0408C224.679 56.6866 225.372 56.5 226.077 56.5H239.881C241.2 56.5 242.158 57.754 241.811 59.0262L238.558 70.9528C238.209 72.2331 237.248 73.2569 235.992 73.6857L217.5 80L196.5 88L174.804 98.1247C174.274 98.3719 173.697 98.5 173.113 98.5H147.241C143.424 98.5 141.776 93.6625 144.799 91.332L159.103 80.3057C159.367 80.1027 159.654 79.9333 159.96 79.8015L181.5 70.5L195.884 65.7053C196.292 65.5693 196.719 65.5 197.149 65.5H208.423C209.128 65.5 209.821 65.3134 210.431 64.9592L224.069 57.0408Z" fill="#006622"/>
<path d="M150.743 15.1838C151.243 14.7326 151.828 14.3869 152.464 14.1674L164.786 9.91862C165.582 9.644 166.435 9.57505 167.265 9.71819L179.19 11.7741C180.048 11.9221 180.853 12.2918 181.525 12.8466L190.869 20.5659C191.608 21.1758 192.155 21.9848 192.447 22.8969L194.588 29.5865C195.384 32.0764 197.965 33.5322 200.508 32.9267L201.829 32.6122C204.439 31.9908 207.074 33.5399 207.8 36.1225L210.263 44.8794C210.722 46.5132 210.322 48.2686 209.199 49.5413L204.82 54.5045C203.981 55.4553 202.774 56 201.506 56V56C200.231 56 199.019 56.5502 198.179 57.5093L197.026 58.8279C196.358 59.5912 195.938 60.5396 195.821 61.5473L194.689 71.3648C194.566 72.4269 194.106 73.4217 193.377 74.2033L180.907 87.5635C180.637 87.8535 180.333 88.1102 180.001 88.3283L141.59 113.612C141.198 113.869 140.773 114.071 140.326 114.21L120.543 120.364C119.238 120.77 117.824 120.625 116.63 119.961L116.428 119.849C114.918 119.01 113.082 119.01 111.572 119.849L110.633 120.371C109.89 120.783 109.054 121 108.204 121H103.804C102.062 121 100.446 120.094 99.5378 118.607L96.2336 113.2C95.7538 112.415 95.5 111.513 95.5 110.593V101.677C95.5 100.589 95.8548 99.5304 96.5107 98.6624L111.854 78.3552C112.28 77.7915 112.581 77.1439 112.739 76.4551L120.148 44.0385C120.377 43.0372 120.909 42.1306 121.671 41.4421L150.743 15.1838Z" fill="#228B22"/>
<path d="M105 0H112.5L127.5 13.5L131 28.5L134 39.5L137.5 50L134 67L125.5 87.5L105.441 114.898C105.179 115.255 104.714 115.398 104.297 115.249L98.3454 113.123C98.1224 113.044 97.9349 112.888 97.8163 112.683L87 94L84.5 79.5L78.5 72V62.5L72.5 47V32L81.5 18.5V10L90 2H98L105 0Z" fill="#37B883"/>
<path d="M186.577 95.0585C186.855 94.3618 187.287 93.7367 187.84 93.2297L192.006 89.4107C192.657 88.8142 193.454 88.4006 194.317 88.212L208.472 85.1155C208.823 85.0387 209.181 85 209.54 85H226.92C227.305 85 227.69 85.0446 228.065 85.1329L250.401 90.3885C252.025 90.7706 253.352 91.9377 253.937 93.4999L259.346 107.923C260.046 109.79 259.57 111.896 258.133 113.28L247.763 123.265C247.26 123.75 246.661 124.123 246.004 124.362L231.328 129.699C230.78 129.898 230.202 130 229.619 130H224.963C224.327 130 223.697 129.879 223.106 129.642L217.394 127.358C216.803 127.121 216.173 127 215.537 127H197.486C196.835 127 196.19 126.873 195.588 126.626L178.834 119.752C177.819 119.336 177.329 118.179 177.736 117.159L186.577 95.0585Z" fill="#228B22"/>
<path d="M200.584 221.488L197.151 214.705C196.75 213.913 196.568 213.029 196.622 212.143L197.599 196.121C197.621 195.759 197.682 195.401 197.782 195.052L203.039 176.651C203.146 176.277 203.296 175.916 203.487 175.577L215.949 153.379C216.767 151.923 218.258 150.971 219.923 150.842L237.541 149.477C239.516 149.324 241.394 150.351 242.332 152.095L250.051 166.461C250.383 167.079 250.581 167.76 250.633 168.46L251.905 185.717C251.949 186.304 251.888 186.893 251.726 187.458L250.281 192.517C250.105 193.134 249.811 193.711 249.417 194.217L244.784 200.161C244.639 200.347 244.507 200.543 244.389 200.748L233.23 220.215C232.753 221.046 232.048 221.723 231.198 222.165L208.397 234.014C207.37 234.548 206.107 234.102 205.642 233.042L200.584 221.488Z" fill="#228B22"/>
<path d="M166.918 95.7222C167.627 96.2318 168.19 96.9183 168.551 97.7132L172.202 105.744C172.716 106.874 172.79 108.155 172.412 109.337L169 120L166.481 132.176C166.23 133.39 164.945 134.086 163.791 133.632L153.114 129.438C152.382 129.15 151.728 128.694 151.205 128.106L144.832 120.937C144.286 120.322 143.9 119.581 143.708 118.782L141.42 109.248C141.148 108.118 141.279 106.929 141.79 105.885L149.399 90.3205C150.759 87.5387 154.295 86.6493 156.809 88.4565L166.918 95.7222Z" fill="#006622"/>
<path d="M82.0062 131.541C82.566 130.896 83.2818 130.405 84.0854 130.114L89.0855 128.309C90.153 127.924 91.3198 127.913 92.3943 128.278L99.404 130.664L107.071 132.466C108.32 132.76 108.973 134.136 108.412 135.289L105.779 140.695C105.424 141.423 104.898 142.053 104.246 142.533L99.6365 145.924C99.0099 146.385 98.2844 146.693 97.5177 146.824L91.4255 147.867C90.3775 148.047 89.2996 147.888 88.3483 147.413L80.0844 143.287C77.1623 141.828 76.4006 138.005 78.5405 135.537L82.0062 131.541Z" fill="#228B22"/>
<path d="M174.243 202.65L176.184 203.225C176.973 203.459 177.811 203.485 178.621 203.302L183.648 202.166C183.966 202.094 184.276 201.991 184.576 201.857L191.322 198.847L196.42 195.981C198.044 195.068 199.058 193.32 199.052 191.442L199.046 189.638C199.039 187.476 197.687 185.587 195.682 184.938L193.085 184.099C192.288 183.841 191.435 183.796 190.607 183.97L186.597 184.812C186.325 184.869 186.059 184.949 185.799 185.051L181.955 186.567C181.344 186.808 180.783 187.168 180.305 187.628L179.196 188.693C178.771 189.101 178.282 189.431 177.749 189.669L172.011 192.229C171.201 192.591 170.496 193.164 169.966 193.89L167.53 197.233C166.748 198.307 167.156 199.826 168.356 200.305L174.243 202.65Z" fill="#37B883"/>
<path d="M156.388 207.876C155.605 208.091 154.775 208.065 153.979 207.799L150.028 206.48C149.283 206.231 148.593 205.78 148.018 205.167L142.757 199.556L134.213 192.267C133.463 191.627 132.576 191.241 131.664 191.158L130.94 191.092C128.051 190.828 125.915 187.671 126.464 184.479L127.025 181.219C127.375 179.184 128.757 177.645 130.551 177.292L136.132 176.193C136.952 176.031 137.808 176.129 138.61 176.475L142.703 178.245C143.779 178.71 144.693 179.596 145.274 180.738L147.089 184.301C148.209 186.501 150.472 187.611 152.54 186.975L153.076 186.811C154.314 186.431 155.666 186.669 156.803 187.468L161.884 191.037C162.975 191.804 163.776 193.02 164.106 194.414L166.149 203.022C166.417 204.151 165.857 205.266 164.888 205.533L156.388 207.876Z" fill="#006622"/>
<path d="M156.474 195.792C155.746 195.357 154.918 195.118 154.069 195.098L147.075 194.937C145.948 194.912 144.841 195.273 143.937 195.963L136.528 201.611L128.009 206.894C126.916 207.572 126.718 209.093 127.604 210.012L133.118 215.736C133.677 216.316 134.369 216.749 135.134 216.997L142.107 219.262C142.841 219.5 143.622 219.562 144.387 219.442L152.294 218.206C153.34 218.042 154.31 217.547 155.065 216.793L164.145 207.718C166.47 205.395 166.02 201.506 163.235 199.839L156.474 195.792Z" fill="#228B22"/>
<path d="M196.16 198.364C196.991 198.632 197.737 199.114 198.324 199.761L204.252 206.293C205.087 207.212 205.549 208.409 205.55 209.65L205.557 220.846L206.877 233.209C207.008 234.442 205.998 235.497 204.76 235.417L193.312 234.684C192.527 234.634 191.765 234.399 191.088 233.998L182.83 229.118C182.122 228.699 181.528 228.113 181.101 227.409L176.011 219.03C175.407 218.037 175.169 216.865 175.336 215.715L177.829 198.57C178.274 195.506 181.369 193.579 184.315 194.532L196.16 198.364Z" fill="#006622"/>
<path d="M189.997 249.393C190.808 249.503 191.633 249.411 192.401 249.127L196.283 247.688C197.177 247.357 197.957 246.778 198.533 246.018L204.136 238.617C204.537 238.087 204.828 237.483 204.993 236.84L205.438 235.106C205.695 234.1 205.141 233.064 204.161 232.722L201.998 231.965C201.329 231.731 200.619 231.642 199.914 231.703L195.638 232.075C194.928 232.136 194.239 232.349 193.618 232.699L189.317 235.12C188.501 235.579 187.831 236.258 187.382 237.08L182.689 245.669C182.017 246.9 182.787 248.423 184.177 248.61L189.997 249.393Z" fill="#37B883"/>
<path d="M178.585 278.334C179.369 278.407 180.16 278.294 180.893 278.004L190.29 274.277C191.139 273.941 191.879 273.378 192.431 272.65L199.87 262.84C200.018 262.644 200.152 262.438 200.27 262.222L206.576 250.717C207.184 249.608 206.622 248.22 205.415 247.846L200.08 246.191C199.401 245.98 198.686 245.917 197.98 246.005L188.408 247.198C187.746 247.28 187.107 247.494 186.528 247.828L176.478 253.624C175.736 254.052 175.116 254.664 174.679 255.4L166.007 269.984C164.13 273.14 166.183 277.176 169.84 277.517L178.585 278.334Z" fill="#006622"/>
<path d="M102.968 195.606C102.294 195.992 101.719 196.529 101.289 197.176L96.2974 204.677C95.8072 205.414 95.5213 206.268 95.4689 207.151L94.7906 218.589L93.203 230.217C93.013 231.608 94.2788 232.757 95.6455 232.433L102.486 230.814C103.305 230.619 104.063 230.221 104.688 229.656L110.862 224.071C111.345 223.634 111.739 223.107 112.02 222.518L116.512 213.114C116.87 212.365 117.036 211.538 116.994 210.709L116.276 196.359C116.089 192.633 112.036 190.417 108.798 192.269L102.968 195.606Z" fill="#37B883"/>
<path d="M138.983 267.85C138.041 268.179 137.022 268.219 136.057 267.964L127.827 265.79C127.358 265.666 126.91 265.475 126.496 265.222L116.443 259.077C115.822 258.697 115.291 258.186 114.888 257.579L109.75 249.854C109.099 248.875 109.429 247.548 110.463 246.988L117.916 242.953L124.569 239.734C126.151 238.969 128.02 239.091 129.49 240.055L134.752 243.509C135.247 243.834 135.795 244.068 136.372 244.201L140.374 245.125C141.43 245.368 142.377 245.948 143.075 246.776L148.825 253.604C149.584 254.506 150 255.646 150 256.825L150 260.451C150 262.577 148.656 264.47 146.65 265.171L138.983 267.85Z" fill="#228B22"/>
<path d="M61.077 168.334L61.1331 157.595C61.1399 156.29 62.3743 155.341 63.6371 155.67L72.5162 157.983C73.7942 158.315 74.8255 159.258 75.2722 160.5L80.0662 173.838C80.1382 174.038 80.2261 174.232 80.329 174.419L88.9537 190.034C89.062 190.23 89.1537 190.435 89.2277 190.647L94.8311 206.656C94.982 207.088 95.058 207.542 95.0556 207.999L94.9218 233.617C94.9168 234.576 93.696 234.979 93.1213 234.212L81.0598 218.103C80.9151 217.91 80.7531 217.73 80.5759 217.566L70.3513 208.097C69.7952 207.582 69.3969 206.919 69.2028 206.187L65.1158 190.766C65.0388 190.476 64.9295 190.195 64.7897 189.929L61.6014 183.865C61.3025 183.297 61.1449 182.665 61.1419 182.023L61.077 168.334Z" fill="#006622"/>
<path d="M25.3018 285.692C26.1549 285.505 27.042 285.545 27.8747 285.808L36.2873 288.463C37.471 288.836 38.4735 289.637 39.0997 290.709L44.7476 300.375L52.1176 310.389C52.8527 311.388 52.511 312.808 51.4022 313.363L41.1442 318.499C40.4407 318.851 39.6641 319.032 38.8775 319.028L29.2857 318.973C28.4631 318.968 27.6543 318.761 26.9311 318.369L18.3119 313.696C17.2904 313.142 16.4936 312.25 16.0586 311.173L9.5719 295.108C8.41256 292.236 10.1152 289.012 13.1401 288.351L25.3018 285.692Z" fill="#006622"/>
<path d="M70.6917 325.17C71.4663 324.796 72.3244 324.628 73.1829 324.683L80.1575 325.125C81.3191 325.198 82.4187 325.675 83.2666 326.472L89.9888 332.794L97.9332 338.9C98.9405 339.674 98.9801 341.179 98.0149 342.005L91.7117 347.4C91.1011 347.922 90.3737 348.29 89.5908 348.471L82.3239 350.158C81.5537 350.336 80.7522 350.33 79.985 350.139L72.2744 348.218C71.2165 347.954 70.2737 347.352 69.5896 346.503L61.4749 336.432C59.4557 333.926 60.2956 330.193 63.1934 328.793L70.6917 325.17Z" fill="#006622"/>
<path d="M170 135L178.5 129H187.5L201.5 135L226.5 136.5L250.485 135.393C254.3 135.217 256.896 139.209 255.188 142.624L249 155L221 165H190.5L178.5 159.5V150.5L171.5 144.5L170 135Z" fill="#37B883"/>
<path d="M94.4049 232.247C95.0886 232.656 95.0426 233.661 94.3244 234.006L88.9456 236.59L78.9864 247.604L69.4422 258.194L64.4626 269.208L61.9728 280.646L54.0884 287H44.9592L35 274.715L44.9592 247.604L57.8231 241.674L69.4422 236.59L76.0816 230.236L83.966 226L94.4049 232.247Z" fill="#228B22"/>
<path d="M68.3463 214.575C69.4708 214.106 70.7278 214.064 71.8811 214.457L78.1031 216.574C78.4411 216.69 78.7659 216.84 79.0718 217.025L87.2782 221.968C88.1968 222.521 88.9131 223.355 89.3215 224.347L92.325 231.639C92.5486 232.182 92.2586 232.8 91.6981 232.974L71.4978 239.274C71.0862 239.403 70.6597 239.477 70.229 239.496L49.8336 240.394C49.2123 240.421 48.5914 240.332 48.0026 240.132L36.7952 236.317C34.7049 235.605 33.3288 233.607 33.4097 231.4L33.5157 228.51C33.5985 226.253 35.1845 224.331 37.3852 223.822L50.2827 220.837L59.628 218.209L68.3463 214.575Z" fill="#37B883"/>
<path d="M201.871 278.065C202.7 278.427 203.441 278.967 204.025 279.636L208.604 284.88C209.362 285.749 209.818 286.792 209.9 287.847L210.561 296.338L212.181 305.379C212.404 306.623 211.322 307.59 209.978 307.347L202.561 306.009C201.716 305.856 200.899 305.518 200.181 305.023L194.133 300.854C193.463 300.392 192.898 299.806 192.481 299.142L188.308 292.483C187.744 291.585 187.476 290.58 187.54 289.606L188.265 278.578C188.471 275.439 191.921 273.726 195.176 275.146L201.871 278.065Z" fill="#37B883"/>
<path d="M241.803 271.943C242.568 271.187 242.996 270.154 242.988 269.077L242.963 265.333C242.954 264.107 241.854 263.174 240.643 263.366L230.997 264.899C230.383 264.996 229.8 265.236 229.295 265.599L219.423 272.696C219.142 272.898 218.889 273.135 218.669 273.403L211.33 282.347C210.754 283.047 210.435 283.924 210.425 284.831L210.324 293.511L210.427 308.502C210.433 309.341 211.407 309.803 212.058 309.275L223.321 300.148C223.747 299.802 224.097 299.373 224.35 298.885L227.889 292.056C228.069 291.709 228.299 291.39 228.572 291.11L234.91 284.601C235.641 283.85 236.047 282.841 236.04 281.791L236.023 279.348C236.016 278.271 236.443 277.238 237.208 276.482L241.803 271.943Z" fill="#006622"/>
<path d="M230.098 289.482C228.958 289.415 227.761 289.783 226.721 290.52L222.199 293.727C221.891 293.946 221.6 294.195 221.333 294.469L215.54 300.395C214.721 301.234 214.143 302.281 213.894 303.381L212.508 309.494C212.372 310.094 212.751 310.596 213.326 310.575L230.437 309.944C230.847 309.929 231.262 309.86 231.673 309.739L244.831 305.843C247.311 305.109 249.185 302.628 249.185 300.079L249.185 293.225C249.185 291.002 247.617 289.385 245.472 289.395V289.395L237.474 289.918L230.098 289.482Z" fill="#37B883"/>
<path d="M149.77 356C145.685 356 143.571 351.123 146.365 348.142V348.142C147.198 347.253 148.346 346.725 149.564 346.671L163.332 346.065L171.168 346.685C172.412 346.784 173.575 347.345 174.428 348.257L176.761 350.756L182.802 357.227C183.591 358.072 184.648 358.617 185.794 358.77L203 361.07L247.788 369.54C250.149 369.987 251.859 372.05 251.859 374.453L251.859 380.712C251.859 384.081 248.594 386.486 245.376 385.487L196.5 370.31L178.96 366.925C177.561 366.655 176.343 365.8 175.613 364.576L171.954 358.439C171.052 356.927 169.421 356 167.66 356L158 356L149.77 356Z" fill="#47342B"/>
<path d="M130.266 311.323C130.036 312.065 129.983 312.85 130.11 313.616L131.581 322.506C131.725 323.379 132.099 324.198 132.663 324.879L139.973 333.702L146.748 343.285C147.559 344.432 149.268 344.408 150.046 343.238L153.94 337.387C154.407 336.685 154.689 335.877 154.76 335.038L155.462 326.742C155.517 326.092 155.444 325.438 155.248 324.817L152.114 314.877C151.864 314.085 151.421 313.368 150.825 312.79L140.507 302.792C137.828 300.196 133.352 301.341 132.25 304.905L130.266 311.323Z" fill="#37B883"/>
<path d="M205.894 339.55C205.429 340.434 204.712 341.159 203.832 341.631L196.333 345.658C195.906 345.887 195.448 346.053 194.973 346.151L183.431 348.52C182.717 348.666 181.98 348.655 181.272 348.487L172.245 346.346C171.101 346.075 170.436 344.88 170.81 343.765L173.503 335.729L176.17 328.837C176.804 327.197 178.253 326.011 179.986 325.713L186.189 324.646C186.772 324.546 187.333 324.343 187.845 324.047L191.401 321.99C192.339 321.448 193.427 321.225 194.502 321.354L203.365 322.421C204.535 322.562 205.617 323.112 206.422 323.973L208.896 326.624C210.347 328.177 210.657 330.478 209.669 332.36L205.894 339.55Z" fill="#228B22"/>
<path d="M82.1346 320.28C81.4154 320.082 80.766 319.686 80.2597 319.138L73.7467 312.089C72.8611 311.131 73.1158 309.595 74.2633 308.973L82.3316 304.604C83.4929 303.975 84.8897 303.96 86.0644 304.564L98.6705 311.041C98.8599 311.138 99.0567 311.22 99.259 311.286L116.22 316.814C116.433 316.884 116.64 316.971 116.838 317.075L131.86 324.953C132.264 325.165 132.63 325.445 132.94 325.781L150.325 344.598C150.976 345.302 150.359 346.43 149.415 346.261L129.922 342.775C129.476 342.695 129.047 342.54 128.653 342.317L117.002 335.711C116.735 335.56 116.452 335.44 116.158 335.354L102.187 331.241C101.494 331.037 100.869 330.649 100.378 330.119L95.1909 324.504C94.6847 323.956 94.0353 323.561 93.3161 323.363L82.1346 320.28Z" fill="#006622"/>
<path d="M159.527 343.64C160.336 343.426 161.034 344.242 160.698 345.008L158.8 349.343L158.325 361.758L157.889 373.677L160.637 383.083L165.227 391.23L163.568 399.685L157.659 405.203L144.551 404.088L136.298 382.324L141.409 371.105L146.175 361.131L147.027 353.428L149.834 346.202L159.527 343.64Z" fill="#228B22"/>
<path d="M119.426 353.496C119.684 352.305 120.367 351.249 121.348 350.527L126.64 346.629C126.927 346.417 127.237 346.236 127.563 346.091L136.307 342.177C137.286 341.739 138.379 341.627 139.427 341.858L147.128 343.557C147.701 343.684 148.043 344.274 147.866 344.834L141.502 365.014C141.372 365.426 141.19 365.818 140.959 366.183L130.049 383.438C129.716 383.963 129.289 384.422 128.788 384.791L119.256 391.812C117.478 393.122 115.052 393.11 113.287 391.784L110.974 390.046C109.169 388.689 108.497 386.29 109.336 384.193L114.251 371.901L117.43 362.728L119.426 353.496Z" fill="#37B883"/>
<path d="M113.273 252.838C113.674 252.334 113.974 251.758 114.157 251.141L115.896 245.259C116.012 244.868 116.079 244.464 116.097 244.056L116.458 235.657C116.484 235.064 115.99 234.58 115.398 234.616L108.098 235.066C107.344 235.112 106.611 235.329 105.953 235.699L96.7028 240.905C95.827 241.398 95.12 242.144 94.6742 243.044L87.2964 257.949C86.9889 258.57 86.8139 259.248 86.7826 259.941L86.3136 270.306C86.2204 272.366 87.4014 274.272 89.2877 275.106L92.5772 276.559C94.4382 277.381 96.6118 276.994 98.0742 275.58L104.07 269.78C104.652 269.218 105.088 268.523 105.342 267.755L107.864 260.124C108.05 259.564 108.333 259.041 108.7 258.579L113.273 252.838Z" fill="#37B883"/>
<path d="M235.872 240.408C235.036 241.294 233.905 241.845 232.692 241.956L226.147 242.555C225.791 242.588 225.433 242.582 225.079 242.539L215.571 241.366C214.506 241.235 213.513 240.765 212.736 240.026L207.023 234.589C206.597 234.184 206.611 233.502 207.051 233.114L222.935 219.133C223.259 218.848 223.618 218.607 224.003 218.414L242.265 209.288C242.821 209.01 243.425 208.838 244.044 208.781L255.834 207.701C258.033 207.5 260.103 208.765 260.928 210.813L262.008 213.496C262.852 215.591 262.186 217.992 260.384 219.353L249.82 227.332L242.355 233.539L235.872 240.408Z" fill="#37B883"/>
<path d="M67.8069 328.972C66.1826 328.406 64.9636 327.044 64.5795 325.367L63.812 322.017C63.7249 321.637 63.6826 321.248 63.6859 320.858L63.7512 313.109C63.7586 312.237 63.9943 311.381 64.4349 310.627L68.5678 303.56C68.8343 303.105 69.409 302.935 69.8805 303.172L82.1966 309.37C82.7637 309.655 83.2713 310.046 83.6922 310.521L92.1195 320.037C92.6744 320.664 93.0632 321.42 93.2501 322.236L95.1007 330.315C95.4988 332.053 94.9411 333.872 93.637 335.088L91.0317 337.517C89.3538 339.082 86.8263 339.304 84.9013 338.056L78.4697 333.886L73.058 330.881C72.8082 330.742 72.547 330.625 72.2773 330.531L67.8069 328.972Z" fill="#37B883"/>
<path d="M35.5757 293.719C34.3465 292.515 33.8221 290.765 34.1875 289.084L34.9175 285.725C35.0003 285.344 35.1274 284.974 35.2961 284.623L38.6502 277.637C39.028 276.85 39.6052 276.176 40.3244 275.681L47.0701 271.042C47.505 270.743 48.0975 270.834 48.4234 271.249L56.9351 282.095C57.327 282.595 57.6203 283.164 57.7991 283.774L61.3802 295.97C61.616 296.773 61.6464 297.623 61.4686 298.44L59.7082 306.54C59.3294 308.282 58.0513 309.691 56.3537 310.237L52.9626 311.329C50.7786 312.031 48.3966 311.158 47.1851 309.209L43.1373 302.7L39.5168 297.679C39.3497 297.447 39.1631 297.23 38.9589 297.031L35.5757 293.719Z" fill="#37B883"/>
<path d="M119.202 308.334C119.987 308.407 120.778 308.294 121.511 308.004L130.908 304.277C131.756 303.941 132.497 303.378 133.049 302.65L140.487 292.84C140.636 292.644 140.77 292.438 140.888 292.222L147.194 280.717C147.801 279.608 147.24 278.22 146.032 277.846L140.698 276.191C140.019 275.98 139.303 275.917 138.598 276.005L129.026 277.198C128.363 277.28 127.724 277.494 127.146 277.828L117.096 283.624C116.354 284.052 115.734 284.664 115.296 285.4L106.625 299.984C104.748 303.14 106.801 307.176 110.458 307.517L119.202 308.334Z" fill="#006622"/>
<path d="M79.8069 300.972C78.1826 300.406 76.9636 299.044 76.5795 297.367L75.812 294.017C75.7249 293.637 75.6826 293.248 75.6859 292.858L75.7512 285.109C75.7586 284.237 75.9943 283.381 76.4349 282.627L80.5678 275.56C80.8343 275.105 81.409 274.935 81.8805 275.172L94.1966 281.37C94.7637 281.655 95.2713 282.046 95.6922 282.521L104.119 292.037C104.674 292.664 105.063 293.42 105.25 294.236L107.101 302.315C107.499 304.053 106.941 305.872 105.637 307.088L103.032 309.517C101.354 311.082 98.8263 311.304 96.9013 310.056L90.4697 305.886L85.058 302.881C84.8082 302.742 84.547 302.625 84.2773 302.531L79.8069 300.972Z" fill="#37B883"/>
</svg>
