<svg width="228" height="451" viewBox="0 0 228 451" fill="none" xmlns="http://www.w3.org/2000/svg">
<path d="M49.9998 72.5L57.4998 74L54.9998 83L47.4998 92.5L41.9998 95.5V83L49.9998 72.5Z" fill="#006622"/>
<path d="M17.7695 87.8996C17.0013 87.7262 16.7258 86.774 17.2827 86.2171L21.647 81.8528C22.2075 81.2923 22.8932 80.8731 23.6475 80.6298L37.2512 76.2415C37.7472 76.0815 38.2651 76 38.7863 76H43.9998C46.7612 76 48.9998 78.2386 48.9998 81V81.2581C48.9998 82.0737 48.8003 82.8768 48.4187 83.5976L45.0632 89.9358C44.7165 90.5905 44.0364 91 43.2956 91H32.0573C31.6867 91 31.3174 90.9588 30.9559 90.8772L17.7695 87.8996Z" fill="#228B22"/>
<path d="M52.9998 32.5L55.2685 38.2827L44.9997 90.4999L39.5089 109.56L32.3249 131.275L6.5 262.5L0.999672 261L8.99968 212.5L28.0562 130.492L35.2401 108.778L42.1168 91.2798C42.5252 90.2406 42.8302 89.1637 43.0275 88.0647L52.9998 32.5Z" fill="#47342B"/>
<path d="M41.8741 68.7616C42.2593 67.4298 43.0938 66.2725 44.2358 65.4864L48.1223 62.811C48.7748 62.3619 49.5098 62.0464 50.2848 61.8827L55.6131 60.7576C56.5245 60.5651 57.4682 60.5875 58.3694 60.823L61.2373 61.5722C61.8954 61.7442 62.578 61.803 63.2558 61.7461L65.3465 61.5706C66.5626 61.4685 67.781 61.7397 68.839 62.348L70.6298 63.3776C71.0921 63.6435 71.5878 63.8465 72.1038 63.9813L78.3033 65.601L79.326 66.0186C80.4175 66.4644 81.6161 66.5787 82.7722 66.3472L83.3566 66.2302C85.3206 65.837 87.3513 66.4498 88.77 67.8638L91.9356 71.0189C92.4564 71.538 92.8774 72.1485 93.1775 72.8199L95.6259 78.2965L96.545 80.2044C96.9786 81.1045 97.6301 81.882 98.4404 82.4665L99.525 83.2488C100.452 83.9174 101.169 84.8369 101.591 85.899L102 86.9281L98.9054 86.9281C97.7941 86.9281 96.7047 86.6195 95.7585 86.0367L93.5665 84.6864C93.0329 84.3577 92.451 84.1146 91.8421 83.966L87.0519 82.7971C86.5022 82.6629 85.9743 82.4517 85.4837 82.1696L83.339 80.9365C82.5315 80.4722 81.627 80.2023 80.6971 80.1482L72.6983 79.6825C72.3854 79.6643 72.0745 79.6216 71.7684 79.5548L65.9998 78.2965L62.3019 77.2133C61.7521 77.0523 61.2282 76.8133 60.7462 76.5038L57.5168 74.4297C57.1726 74.2086 56.8068 74.0234 56.4249 73.8768L53.355 72.6982C51.8645 72.1259 50.2074 72.1713 48.7505 72.8243L39.4998 76.9705L41.8741 68.7616Z" fill="#228B22"/>
<path d="M54.0761 83.7738C54.9929 82.9535 56.1799 82.5 57.4101 82.5H62.5234C62.8402 82.5 63.1564 82.4699 63.4676 82.41L74.7646 80.2375C75.5754 80.0816 76.4122 80.1289 77.2003 80.3752L82.944 82.1701C83.6394 82.3874 84.374 82.4501 85.0962 82.3538L88.7352 81.8686C90.4536 81.6395 92.1681 82.3168 93.2658 83.6586L94.6257 85.3206C95.4954 86.3835 96.7963 87 98.1697 87C99.9041 87 101.49 87.9799 102.265 89.5313L102.472 89.9443C102.819 90.6385 103 91.4041 103 92.1803V95.7662C103 96.2528 103.071 96.7368 103.211 97.2029L103.952 99.6752C104.305 100.851 104.213 102.114 103.694 103.226L101.555 107.809C101.191 108.59 100.631 109.263 99.9306 109.764L95.3036 113.069C94.4556 113.674 93.4395 114 92.3974 114H88.2954C87.4457 114 86.61 113.783 85.8672 113.371L83.6323 112.129C82.8895 111.717 82.0538 111.5 81.2041 111.5H78.5136C77.5265 111.5 76.5615 111.208 75.7401 110.66L72.2594 108.34C71.438 107.792 70.473 107.5 69.4859 107.5H66.8796C65.374 107.5 63.9485 106.822 62.999 105.653L59.1799 100.952C58.4332 100.034 57.3123 99.5 56.1283 99.5C55.0856 99.5 54.0855 99.0858 53.3482 98.3484L45.9998 91L54.0761 83.7738Z" fill="#37B883"/>
<path d="M43.5 92.5L47.6565 91.253C48.2158 91.0852 48.7967 91 49.3806 91H49.9123C51.85 91 53.6684 91.9358 54.7947 93.5126L55.1566 94.0192C55.3842 94.3378 55.6594 94.6196 55.9727 94.8545C56.9341 95.5756 57.5 96.7073 57.5 97.9092V98.1103C57.5 99.5929 58.2779 100.967 59.5491 101.729L61.18 102.708C62.046 103.228 62.7668 103.957 63.2757 104.83L65.3715 108.422C65.7861 109.133 66.3424 109.751 67.0059 110.238L71.8441 113.786C72.885 114.549 73.5 115.763 73.5 117.053C73.5 117.989 73.8236 118.896 74.416 119.62L77.2428 123.074C77.7387 123.681 78.3863 124.145 79.1197 124.42C80.8522 125.07 82 126.726 82 128.576V128.63C82 129.205 81.8904 129.774 81.6769 130.308L81.3536 131.116C81.12 131.7 81 132.323 81 132.952V133.586C81 134.491 80.6403 135.36 80 136L79.8718 136.128C79.3136 136.686 79 137.444 79 138.233C79 139.322 78.405 140.325 77.4487 140.846L74.8431 142.267C73.9618 142.748 72.9739 143 71.97 143H63.3403C62.7828 143 62.2281 142.922 61.692 142.769L54.0465 140.585C52.7226 140.206 51.569 139.384 50.7794 138.256L49.4804 136.401C48.8396 135.485 47.9557 134.767 46.9286 134.327L45.1365 133.558C42.9304 132.613 41.5 130.444 41.5 128.044V127.262C41.5 126.112 41.1692 124.985 40.5471 124.018L39.2122 121.941C37.8777 119.865 37.9503 117.184 39.3951 115.184L42.3641 111.073C43.1025 110.05 43.5 108.821 43.5 107.56V92.5Z" fill="#228B22"/>
<path d="M16.8192 24.3944C15.8717 21.7416 18.7724 19.3636 21.1879 20.8129L26.1831 23.81C26.3934 23.9362 26.5875 24.0877 26.7609 24.2611L31.097 28.5972C31.3631 28.8634 31.677 29.077 32.0221 29.2271L42.7346 33.8847C42.911 33.9614 43.0795 34.0549 43.238 34.1638L49.9497 38.7781C50.6207 39.2394 51.0754 39.9537 51.2093 40.757L52.4998 48.5L40.9998 46L32.2341 43.6933C31.7521 43.5664 31.3094 43.3215 30.9458 42.9806L23.4998 36L19.3285 30.9018C19.111 30.6359 18.9407 30.3346 18.8251 30.0111L16.8192 24.3944Z" fill="#006622"/>
<path d="M26.9998 12.2645C26.9998 10.6063 28.5581 9.38958 30.1668 9.79175C30.7072 9.92685 31.277 9.8812 31.789 9.66177L36.6352 7.5848C37.5156 7.20751 38.5021 7.15863 39.4154 7.44705L46.2823 9.61554C47.0743 9.86563 47.9244 9.86301 48.7148 9.60804L59.6399 6.08382C61.5595 5.46461 63.6397 6.37139 64.4927 8.19911L65.315 9.96114C66.0263 11.4854 65.708 13.2917 64.5187 14.4811L61.8102 17.1895C61.6039 17.3959 61.4207 17.6242 61.264 17.8704L51.6251 33.0173C51.2167 33.6591 50.9998 34.4041 50.9998 35.1648V41.5L31.3501 25.2891C31.1173 25.097 30.8635 24.9319 30.5935 24.7969L28.083 23.5416C27.3767 23.1885 26.7907 22.6341 26.3989 21.9485L26.2004 21.6011C25.4646 20.3134 25.5194 18.7205 26.3421 17.4864C26.7709 16.8432 26.9998 16.0875 26.9998 15.3144V12.2645Z" fill="#37B883"/>
<path d="M49.0669 43.6716C49.0223 43.2253 49.0278 42.7754 49.0835 42.3303L49.851 36.1907C49.9492 35.4047 50.2022 34.6459 50.5952 33.9582L53.297 29.2298C53.7592 28.4211 54.4033 27.731 55.1783 27.2143L57.6446 25.5701C58.2106 25.1928 58.7083 24.722 59.1164 24.1778L60.3752 22.4994C61.1075 21.5231 62.12 20.7932 63.2778 20.4073L65.2375 19.7541C65.7434 19.5855 66.2246 19.3501 66.6683 19.0543L70.8353 16.2763C71.6013 15.7656 72.4746 15.4381 73.3875 15.319L82.9743 14.0685C83.3239 14.0229 83.6688 13.9466 84.0051 13.8404L91.2794 11.5433C92.4015 11.1889 93.603 11.1724 94.7345 11.4956L95.036 11.5818C95.9966 11.8562 97.0106 11.8865 97.9859 11.6698L99.7634 11.2747C100.579 11.0936 101.423 11.0846 102.242 11.2484L109.499 12.6998C110.206 12.8413 110.536 13.6628 110.122 14.2539L108.695 16.2927C107.921 17.3985 106.796 18.211 105.504 18.5989L104.079 19.0262C103.045 19.3363 101.947 19.3618 100.9 19.1L98.1948 18.4238C97.0878 18.147 95.9248 18.1917 94.8422 18.5525L93.3435 19.0521C92.4598 19.3466 91.6569 19.8429 90.9982 20.5016L86.2527 25.2471C85.4348 26.0649 84.3981 26.6289 83.2672 26.8713L79.0295 27.7793C78.3482 27.9253 77.6976 28.1889 77.1067 28.5582L74.6051 30.1216C74.203 30.373 73.7724 30.5758 73.3225 30.7257L70.3806 31.7064C69.7968 31.901 69.2465 32.1842 68.7489 32.5461L59.3901 39.3525C58.8014 39.7806 58.2956 40.3122 57.8973 40.9214L49.9998 53L49.0669 43.6716Z" fill="#228B22"/>
<path d="M4.86612 38.948C4.47863 37.4686 5.82761 36.1193 7.30719 36.5065L19.1335 39.6013L25.4319 41.4686C25.9595 41.625 26.5094 41.6933 27.0592 41.6706L32.214 41.4579L42.4141 42.4257C42.8072 42.463 43.1945 42.5467 43.5679 42.6751L45.6874 43.4039C46.8844 43.8156 47.8807 44.6659 48.4753 45.7833L51.621 51.6944L45.9203 54.3404C44.9574 54.7873 43.8772 54.9162 42.8361 54.7083L38.4303 53.8285L33.7522 52.9335C33.3755 52.8614 32.9917 52.8329 32.6084 52.8486L26.997 53.078C26.3486 53.1045 25.7013 53.0046 25.0911 52.7837L20.5111 51.126L12.5882 48.0507L8.42534 45.9284C7.15446 45.2805 6.22083 44.1206 5.85941 42.7407L4.86612 38.948Z" fill="#37B883"/>
<path d="M51.2165 49.4843C51.4426 48.8152 51.8977 48.2473 52.5015 47.8807L63.1158 41.4357C63.5851 41.1507 64.1237 41 64.6728 41H76.417C77.8826 41 78.8504 42.5242 78.2271 43.8506L76.3384 47.8699C76.1593 48.2512 75.9018 48.5905 75.5827 48.8657L64.6777 58.2717C64.133 58.7415 63.4376 59 62.7183 59H52.1808C50.1278 59 48.6814 56.9842 49.3388 55.0393L51.2165 49.4843Z" fill="#006622"/>
<path d="M51.2719 1.5787C52.0154 0.622717 53.2609 0.207573 54.4293 0.526235L57.2434 1.29372C57.7393 1.42897 58.2617 1.43452 58.7603 1.30985L63.1522 0.211879C63.7058 0.0735003 64.2873 0.0958328 64.8285 0.276257L68.0379 1.34605C68.3438 1.44802 68.6313 1.59863 68.8892 1.7921L72.0151 4.1365C72.335 4.37641 72.6996 4.54996 73.0875 4.64693L78.5 6L82.9283 7.77131C83.3055 7.9222 83.6481 8.14813 83.9354 8.43542L86.302 10.802C86.9637 11.4637 86.9637 12.5363 86.302 13.198V13.198C86.1038 13.3962 85.8594 13.5422 85.5909 13.6227L81.4217 14.8735C81.1421 14.9574 80.8517 15 80.5597 15H76.297C76.0995 15 75.9024 15.0195 75.7087 15.0582L73.7699 15.446C73.5902 15.4819 73.4141 15.5342 73.244 15.6023L71.4956 16.3017C71.1676 16.4329 70.8654 16.6209 70.6028 16.8572L65.9998 21L51.4998 32L45.2943 21.4981C45.0999 21.1691 44.9701 20.8059 44.912 20.4281L43.3105 10.0184C43.1232 8.80052 43.6996 7.59188 44.764 6.97097L48.4992 4.79202C48.8298 4.59912 49.1205 4.34472 49.3556 4.04254L51.2719 1.5787Z" fill="#006622"/>
<path d="M29.5 174.695L36 171.695L46.2416 170.514C47.5983 170.357 48.7093 171.576 48.428 172.912L47 179.695L43.5 184.695L36 187.195L23 189.195L24 180.195L29.5 174.695Z" fill="#006622"/>
<path d="M38.4998 119.195L44.9998 116.195L55.2414 115.014C56.598 114.857 57.7091 116.076 57.4278 117.412L55.9998 124.195L52.4998 129.195L44.9998 131.695L31.9998 133.695L32.9998 124.695L38.4998 119.195Z" fill="#006622"/>
<path d="M16.4721 155.944L19.6884 162.571L20.8379 177.825L11.7203 176.991L6.58732 174.073L3.23579 166.79L0.657266 157.631C0.123017 155.734 1.53286 153.845 3.50399 153.818L8.11446 153.755L16.4721 155.944Z" fill="#006622"/>
<path d="M9.68968 139.973C9.88956 139.023 10.4277 138.179 11.2039 137.597L15.5998 134.3C17.022 133.233 18.9775 133.233 20.3998 134.3L25.0648 137.799C25.6753 138.257 26.1421 138.88 26.4101 139.594L27.4998 142.5L30.7531 151.331C30.9163 151.773 30.9998 152.242 30.9998 152.713V160.351C30.9998 160.781 30.9304 161.208 30.7945 161.616L29.1838 166.448C29.0617 166.814 28.8873 167.161 28.666 167.477L21.9998 177L13.6 167.667C13.2048 167.228 12.9117 166.706 12.7419 166.141L9.99976 157L8.1875 148.845C8.06377 148.288 8.06055 147.711 8.17805 147.153L9.68968 139.973Z" fill="#37B883"/>
<path d="M7.74999 117.736C7.53154 117.3 7.47962 116.8 7.60398 116.329L9.25295 110.081C9.52672 109.044 10.57 108.407 11.6176 108.639L16.1827 109.646C16.5178 109.72 16.8283 109.879 17.0842 110.107L18.7814 111.623C18.8871 111.718 18.9824 111.823 19.0659 111.938L22.7321 116.973C22.8047 117.073 22.8863 117.166 22.976 117.25L26.4566 120.536C26.6776 120.745 26.8482 121.001 26.9553 121.286L28.987 126.68C29.1234 127.042 29.1518 127.436 29.0688 127.814L28.0635 132.39L21.4319 131.211C21.1964 131.169 20.9704 131.086 20.7644 130.964L14.878 127.485C14.7063 127.384 14.5508 127.257 14.4166 127.11L10.2262 122.507C10.1031 122.372 9.99922 122.22 9.9173 122.057L7.74999 117.736Z" fill="#228B22"/>
<path d="M11.9658 68.188C11.174 67.9109 11.0548 66.8408 11.7661 66.3962L20.5257 60.9214C21.4805 60.3247 22.6088 60.0676 23.7279 60.192L39.42 61.9356C39.8054 61.9784 40.1844 62.0659 40.5495 62.1963L44.7861 63.7093C46.1884 64.2101 47.2945 65.3099 47.8034 66.7093L48.3106 68.1041C48.7529 69.3204 48.7063 70.6608 48.1807 71.8435L47 74.5L43.5 82L30.3733 74.7074C30.1249 74.5694 29.8651 74.4528 29.5969 74.3589L11.9658 68.188Z" fill="#37B883"/>
<path d="M22.6046 88.2188C22.9205 88.074 23.2591 87.9852 23.6054 87.9564L34.4684 87.0511C34.8733 87.0174 35.2808 87.0662 35.6662 87.1947L42.9947 89.6375C43.6949 89.871 44.2845 90.3543 44.6507 90.9952L45.2315 92.0116C45.7585 92.9339 45.7585 94.0661 45.2315 94.9884L44.5327 96.2114C44.2388 96.7256 43.7993 97.1413 43.2696 97.4062L41.3181 98.382C40.5606 98.7607 40.082 99.535 40.082 100.382C40.082 101.086 39.7507 101.749 39.1876 102.171L35.0913 105.243C34.4458 105.727 33.6326 105.931 32.8351 105.808L28.3414 105.117C27.8432 105.04 27.3337 105.09 26.86 105.263L23.6494 106.43C22.6747 106.784 21.5861 106.61 20.7707 105.97L15.611 101.916C15.2627 101.642 14.9793 101.295 14.7812 100.898L11.082 93.5L22.6046 88.2188Z" fill="#006622"/>
<path d="M19.4824 175.656L27.9533 189.161C28.1925 189.542 28.4821 189.89 28.8143 190.194L41.0797 201.413C41.5071 201.804 41.8633 202.266 42.1324 202.779L44.4698 207.233C45.3507 208.912 47.1054 209.948 49.0009 209.908L50.3301 209.881C52.0877 209.844 53.7353 210.734 54.6695 212.223L56.2265 214.705C57.0764 216.06 58.5232 216.927 60.1189 217.037L65.6881 217.42L71.1973 217.579C71.9509 217.601 72.6997 217.452 73.3876 217.143L80.945 213.754C81.7804 213.38 82.4969 212.783 83.0164 212.029L85.5421 208.362C86.0212 207.667 86.7282 207.161 87.5409 206.931C88.5088 206.658 89.3196 205.994 89.779 205.1L94.1834 196.522C94.7863 195.348 94.9005 193.984 94.5012 192.726L91.0573 181.875C90.7116 180.786 90.0032 179.848 89.0501 179.218L78.2562 172.078C77.6029 171.646 76.8572 171.373 76.0793 171.282L66.8332 170.2C66.442 170.154 66.0467 170.154 65.6555 170.201L62.8306 170.541C61.6055 170.688 60.3693 170.377 59.3597 169.667L57.9313 168.663C57.0332 168.032 55.9523 167.714 54.8556 167.758L43.6711 168.208C43.2285 168.226 42.7902 168.303 42.3678 168.436L19.4824 175.656Z" fill="#228B22"/>
<path d="M100.678 224.158C100.605 223.449 100.684 222.733 100.91 222.057L100.977 221.857C101.642 219.87 100.997 217.68 99.3627 216.369L97.4887 214.867C96.6253 214.175 95.5568 213.789 94.4505 213.769L90.2293 213.694C89.9239 213.688 89.6198 213.654 89.3209 213.591L87.8895 213.291C86.2852 212.954 85.1924 211.462 85.3544 209.831V209.831C85.4901 208.465 84.7416 207.163 83.4923 206.593L77.338 203.785C76.0881 203.214 74.6586 203.183 73.3853 203.699L70.1732 205C68.8881 205.521 67.8768 206.551 67.3809 207.846L66.187 210.964C65.6164 212.454 65.7912 214.127 66.6575 215.467L68.2732 217.966C68.4337 218.214 68.6158 218.447 68.8175 218.663L72.496 222.603C73.0462 223.192 73.7308 223.64 74.4913 223.907L81.5764 226.399L87.2894 228.296C87.947 228.514 88.6428 228.593 89.3326 228.528L95.8783 227.913C96.1984 227.883 96.5206 227.883 96.8405 227.915L101.111 228.339L100.678 224.158Z" fill="#37B883"/>
<path d="M134.954 207.345C135.491 207.285 136.034 207.37 136.526 207.593L144.537 211.217L149.067 213.663C149.909 214.118 150.484 214.947 150.614 215.894L151.695 223.759C151.807 224.569 150.953 225.163 150.233 224.777L142.316 220.536C142.118 220.431 141.91 220.348 141.694 220.288L131.326 217.438C131.065 217.366 130.821 217.242 130.609 217.073L128.499 215.391C128.14 215.104 127.851 214.739 127.655 214.324L126.712 212.322C126.263 211.369 126.347 210.25 126.933 209.374L126.973 209.314C127.464 208.581 128.253 208.101 129.13 208.002L134.954 207.345Z" fill="#006622"/>
<path d="M155.422 187.411C156.753 186.973 158.208 187.135 159.41 187.856V187.856C162.012 189.417 162.543 192.964 160.512 195.218L155.534 200.742C154.987 201.348 154.598 202.079 154.399 202.87L153.974 204.56C153.669 205.77 152.924 206.822 151.883 207.511L139.502 215.702C139.165 215.924 138.857 216.187 138.583 216.484L131.4 224.281C130.825 224.906 130.017 225.265 129.168 225.273V225.273C128.019 225.285 126.959 224.655 126.42 223.639L126.23 223.282C125.486 221.88 125.708 220.161 126.783 218.994L132.893 212.362C133.285 211.937 133.6 211.447 133.824 210.914L139.338 197.812C139.839 196.621 140.782 195.671 141.968 195.159L144.702 193.981C145.47 193.65 146.143 193.132 146.659 192.473L148.023 190.733C148.631 189.956 149.457 189.376 150.394 189.068L155.422 187.411Z" fill="#228B22"/>
<path d="M122.676 173.804C124.066 173.744 125.419 174.267 126.408 175.247L130.823 179.62C131.191 179.985 131.5 180.404 131.739 180.863L134.145 185.482C135.129 187.374 134.806 189.681 133.34 191.23L131.205 193.485C130.392 194.343 129.909 195.462 129.843 196.642L129.688 199.397C129.616 200.681 128.906 201.843 127.796 202.493V202.493C126.075 203.501 125.413 205.659 126.273 207.459L126.831 208.626C127.153 209.299 127.32 210.036 127.32 210.782L127.32 212.991C127.32 213.525 127.406 214.056 127.574 214.562L128.502 217.367C129.155 219.339 128.521 221.509 126.908 222.819L126.249 223.355L120.915 219.036C119.978 218.277 118.799 217.883 117.595 217.925L106.633 218.304C104.389 218.382 102.435 216.783 102.068 214.567V214.567C101.753 212.664 102.694 210.773 104.403 209.877L105.934 209.075C108.133 207.922 108.408 204.883 106.451 203.355V203.355C105.838 202.876 105.407 202.202 105.228 201.445L104.557 198.589C104.245 197.265 104.486 195.871 105.225 194.729L108.178 190.164C109.001 188.891 109.203 187.315 108.726 185.876L108.255 184.454C107.945 183.517 107.919 182.509 108.181 181.557L109.199 177.854C109.775 175.759 111.636 174.276 113.806 174.183L122.676 173.804Z" fill="#37B883"/>
<path d="M3.0001 258.776L33.5001 254.5L44.6795 249.093L62.8655 239.979L86.9511 231.522L114.602 221.818L127.392 221.818L154.36 224.009L154.36 227.201L127.392 225.009L114.602 225.253L86.9511 236.5L62.8655 245.5L47.0001 254.5L37.3192 258.776L10.6573 264.313L1.96057 262.177L3.0001 258.776Z" fill="#47342B"/>
<path d="M170.814 216.748C171.779 216.356 172.842 216.274 173.855 216.515L212.042 225.593C213.391 225.913 214.546 226.78 215.232 227.985L222.575 240.897C223.428 242.395 223.448 244.227 222.629 245.744L222.231 246.481C221.338 248.135 219.594 249.148 217.715 249.104L214.521 249.03C213.244 249 212.027 248.483 211.119 247.583L207.134 243.636C206.403 242.912 205.467 242.432 204.454 242.259L197.174 241.02C196.469 240.9 195.797 240.63 195.205 240.228L176.653 227.634C175.94 227.15 175.113 226.858 174.253 226.788L162.126 225.794L152.866 226.143C151.748 226.185 151.415 224.639 152.452 224.217L170.814 216.748Z" fill="#228B22"/>
<path d="M163.261 182.351C163.732 181.623 164.844 181.799 165.067 182.637L165.83 185.507C166.116 186.584 166.753 187.534 167.641 188.207L169.158 189.357C170.067 190.047 170.713 191.026 170.988 192.133L172.656 198.826C172.739 199.16 172.857 199.485 173.007 199.795L175.824 205.619C176.769 207.573 176.346 209.914 174.775 211.413L174.194 211.968C173.539 212.594 173.065 213.386 172.825 214.26L172.676 214.802C172.408 215.777 171.851 216.648 171.077 217.3L165.856 221.7C165.191 222.26 164.391 222.638 163.536 222.795L149.004 225.462L152.805 220.696C153.422 219.921 153.796 218.98 153.878 217.992L154.3 212.91C154.383 211.923 154.756 210.982 155.374 210.207L155.871 209.584C156.477 208.823 156.849 207.903 156.94 206.934L157.54 200.54C157.584 200.066 157.696 199.6 157.873 199.158L158.898 196.582C159.151 195.946 159.271 195.265 159.25 194.581L159.123 190.379C159.092 189.364 159.371 188.364 159.923 187.512L163.261 182.351Z" fill="#37B883"/>
<path d="M127.5 222.5L133.164 226.38L136.783 242.424L143.298 252.771L146.62 271.297L147.329 288.504L144.064 292.645L137.75 289.875L135.175 278.992L136.245 270.055L132.21 257.487L123 239.5L127.5 222.5Z" fill="#006622"/>
<path d="M152.95 224L152.965 230.948L149.497 237.617L147.301 248.616L139.159 253.852L136.043 248.618L135.072 243.103L136.043 239L139.196 236.185L144.153 229.485L152.95 224Z" fill="#37B883"/>
<path d="M151.603 225.917L159.301 225.915C159.979 225.915 160.65 226.052 161.273 226.32L183.725 235.952L198.108 243.34C198.549 243.566 198.954 243.857 199.31 244.202L199.358 244.249C200.841 245.692 201.283 247.9 200.468 249.802L199.616 251.792L197.583 255.852C196.865 257.286 195.502 258.288 193.919 258.547L188.726 259.396C187.782 259.551 186.814 259.431 185.936 259.052L179.202 256.142C178.479 255.83 177.84 255.351 177.338 254.745L173.731 250.398C173.309 249.89 172.791 249.47 172.207 249.163L168.762 247.355C168.178 247.048 167.66 246.629 167.238 246.121L165.316 243.803C164.568 242.902 163.42 242.434 162.255 242.555V242.555C161.054 242.68 159.873 242.178 159.13 241.226L157.402 239.015C157.244 238.812 157.102 238.598 156.977 238.374L155.146 235.094L151.603 225.917Z" fill="#006622"/>
<path d="M77.0074 222.257C77.7548 221.622 78.6726 221.22 79.6464 221.102L84.3832 220.53C85.5378 220.391 86.705 220.658 87.6838 221.286L91.8376 223.953L96.7358 227.366C97.3727 227.81 97.2829 228.779 96.5753 229.098L89.6748 232.212C88.4229 232.777 86.9938 232.802 85.7229 232.281L83.6692 231.44C83.1105 231.211 82.5149 231.085 81.9113 231.068L79.5161 231.003C77.9397 230.959 76.4874 230.137 75.6395 228.807V228.807C74.3628 226.805 74.7593 224.168 76.5682 222.63L77.0074 222.257Z" fill="#006622"/>
<path d="M97.396 208.749C98.3099 208.371 99.3157 208.272 100.286 208.465L106.147 209.632C107.297 209.861 108.329 210.486 109.064 211.399L112.818 216.059L117.125 221.842C117.586 222.462 117.2 223.349 116.433 223.433L107.157 224.459C105.779 224.611 104.4 224.184 103.348 223.28L101.065 221.317C100.603 220.92 100.073 220.611 99.5001 220.404L96.5447 219.339C94.9797 218.776 93.7976 217.47 93.3913 215.857L93.2033 215.111C92.5973 212.706 93.8466 210.219 96.1384 209.27L97.396 208.749Z" fill="#006622"/>
<path d="M98.725 253.472C99.6196 251.914 99.6094 249.995 98.6982 248.447L97.9053 247.099C97.2134 245.923 97.032 244.516 97.4032 243.203L99.3503 236.316C99.6988 235.083 100.507 234.031 101.608 233.377L106.006 230.765L116.031 223.642C116.454 223.341 117.038 223.414 117.373 223.811L119.191 225.958C119.811 226.69 120.628 227.229 121.545 227.509L123.514 228.111C124.905 228.537 126.042 229.547 126.628 230.878L128.88 235.995C129.161 236.633 129.305 237.321 129.304 238.018L129.292 245.465C129.291 245.827 129.33 246.187 129.407 246.54L130.66 252.277C130.887 253.316 130.776 254.4 130.345 255.372L126.377 264.312C126.197 264.717 125.963 265.098 125.683 265.442L121.845 270.151C121.136 271.02 120.156 271.626 119.062 271.871L109.924 273.919C109.014 274.123 108.066 274.068 107.186 273.762L100.678 271.495C99.2736 271.005 98.1598 269.916 97.6392 268.523L95.483 262.754C94.9618 261.359 95.0892 259.805 95.8304 258.514L98.725 253.472Z" fill="#37B883"/>
<path d="M91.6886 242.813C92.9511 241.92 93.7295 240.494 93.7971 238.949L93.8752 237.166C93.926 236.006 94.3791 234.9 95.1568 234.037L99.9041 228.771C100.553 228.051 101.398 227.535 102.335 227.286L106.683 226.132L114.936 224.642C115.396 224.559 115.852 224.806 116.034 225.236L117.664 229.086C117.855 229.539 118.113 229.961 118.428 230.339L119.548 231.683C120.46 232.776 120.862 234.206 120.654 235.614L119.906 240.693C119.82 241.276 119.631 241.839 119.349 242.356L115.941 248.609C115.796 248.876 115.675 249.156 115.58 249.445L113.81 254.847C113.526 255.713 113.011 256.485 112.32 257.08L105.579 262.88C105.261 263.154 104.911 263.386 104.535 263.572L100.232 265.701C99.1292 266.247 97.8636 266.367 96.6776 266.038L90.5951 264.35C89.5454 264.058 88.6195 263.432 87.9583 262.566L85.058 258.768C84.1876 257.628 83.8485 256.17 84.127 254.763L85.2591 249.044C85.5081 247.786 86.2306 246.672 87.2773 245.932L91.6886 242.813Z" fill="#006622"/>
<g filter="url(#filter0_d)">
<path d="M154 225L141.5 224L127.371 229.088L114.284 235.848L105.469 244.147L104.495 250.443L111.276 251.444L114.429 247.563L119.963 247.55L125.008 241.341L131.374 242.004L134.211 238.512L137.981 236.421L143.959 231.614L154 225Z" fill="#228B22"/>
</g>
<path d="M76 336.141L81.7769 331.545L91.0995 330.099L102.654 324.715L115.851 328.193L114.866 334.298L111.322 338.763L107.055 342.375L101.08 339.815L90.1159 340.013L76 336.141Z" fill="#37B883"/>
<path d="M82.666 271.292C82.4175 272.272 81.8781 273.153 81.1188 273.819L72.0542 281.779C71.1565 282.568 70.0063 283.008 68.8117 283.022L57.5617 283.15L44.2066 282.791C43.4436 282.77 42.9839 281.937 43.3736 281.28L52.6327 265.684C53.3577 264.463 54.5676 263.608 55.9607 263.332L62.8685 261.964C63.4781 261.843 64.0598 261.61 64.5839 261.276L70.9568 257.215C72.3692 256.315 74.1382 256.182 75.6693 256.86L81.392 259.396C83.6207 260.384 84.8124 262.834 84.2128 265.197L82.666 271.292Z" fill="#006622"/>
<path d="M52.0292 433.589C51.5062 432.697 51.273 431.664 51.3617 430.633L53.1027 410.405C53.1467 409.895 53.2689 409.394 53.4652 408.92L59.8986 393.396C60.1302 392.837 60.4614 392.325 60.8761 391.884L81.6133 369.844C82.1573 369.266 83.1259 369.522 83.3133 370.293L91.5804 404.324C91.8518 405.441 91.73 406.617 91.2354 407.655L83.0946 424.737C82.9504 425.039 82.837 425.356 82.756 425.681L79.5734 438.478C79.1664 440.115 77.9615 441.436 76.3691 441.992L64.1319 446.264C61.8758 447.051 59.3779 446.132 58.1699 444.07L52.0292 433.589Z" fill="#006622"/>
<path d="M52.0292 433.589C51.5062 432.697 51.273 431.664 51.3617 430.633L53.1027 410.405C53.1467 409.895 53.2689 409.394 53.4652 408.92L59.8986 393.396C60.1302 392.837 60.4614 392.325 60.8761 391.884L81.6133 369.844C82.1573 369.266 83.1259 369.522 83.3133 370.293L91.5804 404.324C91.8518 405.441 91.73 406.617 91.2354 407.655L83.0946 424.737C82.9504 425.039 82.837 425.356 82.756 425.681L79.5734 438.478C79.1664 440.115 77.9615 441.436 76.3691 441.992L64.1319 446.264C61.8758 447.051 59.3779 446.132 58.1699 444.07L52.0292 433.589Z" fill="#006622"/>
<path d="M43.5514 286.07C44.0257 286.683 44.6362 287.165 45.3335 287.478L47.3262 288.372L51.1578 290.548C52.0997 291.083 53.1978 291.269 54.2782 291.076L58.1482 290.385C58.7065 290.286 59.2737 290.286 59.8247 290.388L62.7821 290.931C63.2432 291.016 63.6848 291.18 64.089 291.417V291.417C65.1606 292.044 66.4598 292.142 67.6449 291.684L76.9321 288.095C77.6265 287.827 78.2599 287.402 78.7859 286.852L82.377 283.096C83.3845 282.043 83.9254 280.606 83.8627 279.151L83.7965 277.613C83.7087 275.574 82.4558 273.832 80.6142 273.188L78.6962 272.518C78.4323 272.426 78.1605 272.357 77.8837 272.314L72.2753 271.44C71.631 271.34 70.969 271.376 70.3286 271.546L61.8366 273.806L54.9385 275.745C54.4427 275.884 53.968 276.102 53.5314 276.391L46.7523 280.882C46.5497 281.016 46.3385 281.135 46.1205 281.238L41.5016 283.422L43.5514 286.07Z" fill="#37B883"/>
<path d="M125.26 379.483C124.872 379.608 124.465 379.654 124.065 379.618L101.667 377.616L87.3141 375.561C86.438 375.436 85.6753 374.925 85.2321 374.168L76.1864 358.714C75.7646 357.994 76.3892 357.08 77.2234 357.198L101.51 360.612C101.674 360.635 101.839 360.644 102.005 360.64L129.313 359.9C129.517 359.895 129.72 359.921 129.914 359.977L137.502 362.173C137.888 362.284 138.245 362.474 138.551 362.73L143.629 366.979C144.634 367.819 144.943 369.241 144.388 370.469L143.446 372.554C143.082 373.359 142.391 373.976 141.553 374.246L125.26 379.483Z" fill="#006622"/>
<path d="M87.4991 337.425C88.5845 337.667 89.7245 337.523 90.7333 337.017L114.594 325.026C115.927 324.355 116.91 323.113 117.272 321.639L119.773 311.466C120.141 309.97 119.801 308.395 118.857 307.219C117.739 305.827 115.947 305.207 114.211 305.611L113.432 305.793C112.066 306.111 110.885 307.007 110.181 308.259L108.787 310.738C108.222 311.742 107.345 312.525 106.3 312.958L102.394 314.577C101.659 314.881 101.003 315.36 100.48 315.975L90.4278 327.781C89.7971 328.522 88.975 329.064 88.06 329.342L80.2343 331.719L74.8624 332.59C73.7811 332.765 73.7101 334.344 74.7728 334.581L87.4991 337.425Z" fill="#228B22"/>
<path d="M134.001 353.091C135.226 353.857 136.082 355.098 136.354 356.501L136.588 357.709C137.188 360.805 134.823 363.588 131.675 363.49L122.644 363.209C121.79 363.183 120.95 363.374 120.205 363.765L118.231 364.801C117.09 365.399 115.745 365.522 114.483 365.143L98.0229 360.197C97.6149 360.074 97.1946 360.003 96.7721 359.985L84.8692 359.479C83.8422 359.435 82.8678 358.961 82.1871 358.173C81.3228 357.173 81.0483 355.805 81.4677 354.589L81.6173 354.155C82.2337 352.368 83.9463 351.214 85.8627 351.296L95.8848 351.722C96.4917 351.748 97.0948 351.664 97.6646 351.474L112.996 346.358C114.265 345.935 115.668 346.046 116.887 346.666L120.227 348.367C121.014 348.767 121.887 348.96 122.757 348.924L125.481 348.812C126.505 348.77 127.528 349.044 128.411 349.595L134.001 353.091Z" fill="#228B22"/>
<path d="M9.84522 259.063L20.1343 262.724L28.4331 269.825L46.6566 284.11L60.9999 303.5L76.9484 333.527L77.8995 348.262L79.6244 380.189L76.7142 382.034L74.9893 350.107L73.0382 335.372L58.0897 306.345L43.5 288.5L26.5 277L17.5 272.825L-0.499818 271.67L-0.499819 260L9.84522 259.063Z" fill="#47342B"/>
<path d="M144.483 379.715C144.758 379.793 144.99 379.982 145.122 380.235L147.803 385.36C149.039 387.722 148.253 390.576 146.006 391.884L135.5 398L122.5 403.46L113.015 406.054C111.739 406.403 110.36 406.226 109.184 405.562L106.282 403.924C105.559 403.517 104.742 403.318 103.924 403.351C102.294 403.418 100.734 402.562 99.8941 401.138L93.059 389.559L83.9851 372.826L90.5605 375.436C91.5398 375.824 92.6067 375.903 93.6124 375.659L99.3299 374.277C100.336 374.033 101.403 374.112 102.382 374.5L103.44 374.92C104.401 375.302 105.448 375.384 106.438 375.157L113.552 373.522C114.038 373.41 114.541 373.372 115.043 373.41L119.357 373.735L134.039 376.744L144.483 379.715Z" fill="#37B883"/>
<path d="M103.94 317.462C103.86 318.462 103.495 319.413 102.893 320.194L96.9714 327.874C96.2575 328.799 95.2513 329.434 94.1275 329.667L85.3969 331.478L74.9821 333.214C74.2328 333.338 73.6301 332.571 73.9016 331.837L79.029 317.991C79.5141 316.682 80.5022 315.643 81.7587 315.122L86.7127 313.067C87.2647 312.838 87.771 312.506 88.2068 312.088L92.3896 308.077C93.5827 306.933 95.2512 306.483 96.8414 306.876L100.495 307.779C102.874 308.367 104.489 310.674 104.285 313.193L103.94 317.462Z" fill="#006622"/>
<path d="M31.5562 315.976C33.4964 316.494 35.5612 315.791 36.7945 314.192L37.9055 312.752C38.8516 311.525 40.3072 310.805 41.8487 310.8L50.2725 310.774C51.5521 310.77 52.7824 311.26 53.7089 312.143L58.7121 316.911L71.2562 327.177C71.3584 327.26 71.4429 327.363 71.5049 327.48L73.5414 331.315C74.6753 333.45 74.1222 336.1 72.2279 337.609L69.1413 340.068L62.8078 346.401C62.2458 346.963 61.5593 347.383 60.805 347.626L52.9081 350.176C52.5144 350.303 52.1377 350.479 51.7867 350.699L46.237 354.181C45.2227 354.818 44.0162 355.069 42.8367 354.888L31.5123 353.157C31.0623 353.089 30.624 352.958 30.2097 352.77L23.0166 349.499C22.0814 349.074 21.3011 348.368 20.7822 347.478L14.1353 336.083C13.7219 335.374 13.489 334.573 13.4572 333.75L13.0808 323.994C13.0224 322.479 13.6494 321.017 14.7864 320.016L20.2037 315.247C21.458 314.143 23.1754 313.738 24.7824 314.167L31.5562 315.976Z" fill="#228B22"/>
<path d="M30.7698 382.302C31.9997 381.739 32.9485 380.696 33.3985 379.414L35.8848 372.331C36.2204 371.375 36.8364 370.544 37.6516 369.949L50.4203 360.616C51.4008 359.899 52.6078 359.567 53.8154 359.682L61.69 360.429L79.1297 360.416C79.7604 360.415 80.2339 360.997 80.1092 361.618L78.9801 367.25C78.7868 368.214 78.8796 369.214 79.2469 370.125L80.8522 374.111C81.3684 375.393 81.3361 376.831 80.7631 378.086L75.571 389.46C75.3584 389.926 75.076 390.356 74.7336 390.735L64.8473 401.691C64.6712 401.886 64.5107 402.095 64.3673 402.316L57.5169 412.853C57.0821 413.522 56.4943 414.076 55.8026 414.47L39.9667 423.48C39.6272 423.673 39.2664 423.825 38.8915 423.934L28.8914 426.826C27.6319 427.19 26.2797 427.04 25.1276 426.409L14.4469 420.557C13.3627 419.963 12.5355 418.986 12.1251 417.815L8.5916 407.73C8.13641 406.431 8.23191 405.002 8.85571 403.778L15.6641 390.413C16.1754 389.409 17.0087 388.609 18.0291 388.141L30.7698 382.302Z" fill="#228B22"/>
<path d="M81.2524 354.942L75.1694 372.374L59.4805 374.887L48.0627 384.42L27.3512 389.9L8.03844 391.691L3.27918 387.351L6.18819 378.452L17.1708 364.238L27.2475 365.305L41.2412 359.114L62.0521 357.454L81.2524 354.942Z" fill="#006622"/>
<path d="M79.159 367.205C81.9181 367.092 84.3187 369.233 84.5208 371.987L84.8736 376.792C84.9429 377.737 84.742 378.673 84.2942 379.492L74.0276 398.265L65.9317 413.391C65.7027 413.819 65.4105 414.208 65.0644 414.547L64.9592 414.65C63.4463 416.132 61.1197 416.452 59.1836 415.445L57.1421 414.382L52.816 411.794C51.4493 410.976 50.5268 409.579 50.3246 408.02L49.5252 401.856C49.4071 400.945 49.5416 400.028 49.9141 399.204L53.2321 391.864C53.5505 391.159 54.0333 390.544 54.6414 390.069L59.3497 386.389C59.8612 385.989 60.285 385.49 60.5967 384.92L62.6393 381.185C62.951 380.615 63.3748 380.115 63.8864 379.716L66.3363 377.801C67.3275 377.026 67.8619 375.806 67.7683 374.532C67.6717 373.216 68.2446 371.962 69.2927 371.194L71.5854 369.513C71.7949 369.359 72.0168 369.223 72.249 369.105L74.7632 367.828C75.3876 367.51 76.0769 367.331 76.7852 367.302L79.159 367.205Z" fill="#37B883"/>
<path d="M76.3394 338L72.8666 345.81L64.0778 352.069L55.1013 363.644L39.7145 366.634L37.4676 359.648L38.7216 353.109L41.1713 347.11L48.6629 346.803L59.8 341.037L76.3394 338Z" fill="#37B883"/>
<path d="M52.7601 297.567C52.2859 297.035 51.9311 296.407 51.7192 295.727L51.6567 295.526C51.0341 293.525 49.2304 292.125 47.1381 292.018L44.7395 291.895C43.6344 291.839 42.5418 292.15 41.6328 292.781L38.1646 295.189C37.9137 295.363 37.6468 295.513 37.3677 295.637L36.0308 296.23C34.5324 296.895 32.7739 296.324 31.9514 294.906C31.2623 293.718 29.8941 293.1 28.5473 293.368L21.9127 294.689C20.5653 294.957 19.3876 295.768 18.6562 296.931L16.8114 299.865C16.0733 301.039 15.8557 302.466 16.2106 303.806L17.0652 307.033C17.4736 308.576 18.5937 309.831 20.0801 310.411L22.852 311.493C23.1273 311.601 23.4116 311.684 23.7015 311.741L28.9892 312.786C29.7802 312.942 30.5971 312.905 31.3705 312.677L38.5754 310.556L44.3186 308.753C44.9797 308.545 45.5904 308.203 46.1121 307.747L51.0619 303.42C51.304 303.208 51.5659 303.02 51.844 302.859L55.5563 300.706L52.7601 297.567Z" fill="#37B883"/>
<path d="M36.4565 307.362C36.6911 306.409 37.2008 305.547 37.922 304.882L41.4298 301.648C42.2849 300.859 43.3881 300.394 44.5494 300.331L49.4781 300.065L55.4479 299.97C56.2242 299.957 56.7178 300.796 56.3305 301.469L52.5536 308.03C51.8684 309.22 50.7237 310.076 49.3883 310.397L47.2304 310.915C46.6433 311.056 46.0866 311.302 45.5873 311.642L43.6057 312.989C42.3015 313.876 40.6425 314.058 39.1771 313.475C36.9709 312.598 35.7505 310.227 36.3185 307.921L36.4565 307.362Z" fill="#006622"/>
<path d="M17.5914 285.023C18.166 285.71 18.9149 286.231 19.7595 286.53L25.423 288.534C26.4322 288.891 27.5295 288.914 28.5533 288.601L33.8778 286.973L39.8298 284.907C40.5996 284.64 40.7439 283.614 40.0776 283.145L32.8492 278.056C31.834 277.341 30.5894 277.03 29.3573 277.182L26.3794 277.551C25.8311 277.618 25.2753 277.595 24.7347 277.481L21.5098 276.801C20.0519 276.494 18.5351 276.906 17.4331 277.909C15.5954 279.581 15.4029 282.405 16.9967 284.312L17.5914 285.023Z" fill="#228B22"/>
<defs>
<filter id="filter0_d" x="91" y="201.863" width="74" height="77.6906" filterUnits="userSpaceOnUse" color-interpolation-filters="sRGB">
<feFlood flood-opacity="0" result="BackgroundImageFix"/>
<feColorMatrix in="SourceAlpha" type="matrix" values="0 0 0 0 0 0 0 0 0 0 0 0 0 0 0 0 0 0 127 0"/>
<feOffset dy="4"/>
<feGaussianBlur stdDeviation="5.5"/>
<feColorMatrix type="matrix" values="0 0 0 0 0 0 0 0 0 0 0 0 0 0 0 0 0 0 0.25 0"/>
<feBlend mode="normal" in2="BackgroundImageFix" result="effect1_dropShadow"/>
<feBlend mode="normal" in="SourceGraphic" in2="effect1_dropShadow" result="shape"/>
</filter>
</defs>
</svg>
