<svg width="252" height="420" viewBox="0 0 252 420" fill="none" xmlns="http://www.w3.org/2000/svg">
<g filter="url(#filter0_d)">
<path d="M190.938 109.135C191.58 108.401 191.444 107.272 190.647 106.71C189.959 106.225 189.016 106.338 188.462 106.972L178.971 117.835L169.856 130.765L164.554 136.852L159.252 142.939L149.18 154.659C148.548 155.396 148.687 156.517 149.48 157.076C150.173 157.565 151.124 157.447 151.676 156.804L161.954 144.844L172.558 132.669L181.673 119.739L190.938 109.135Z" fill="#47342B"/>
<path d="M157.872 161.116L154.971 168.149C154.662 168.898 154.175 169.561 153.553 170.081L140.435 181.028C140.195 181.229 139.937 181.406 139.664 181.558L121.426 191.715L102.254 200.275C100.579 201.023 98.6282 200.793 97.1724 199.676L85.2091 190.5C83.4508 189.151 82.79 186.806 83.5855 184.738L89.075 170.466C89.3719 169.694 89.8556 169.008 90.4828 168.469L101.197 159.261C101.399 159.087 101.614 158.93 101.841 158.791L113.509 151.633C114.045 151.305 114.637 151.08 115.256 150.971L122.51 149.693C123.059 149.596 123.588 149.408 124.075 149.137L142.366 138.951C143.11 138.537 143.947 138.319 144.799 138.319L162.279 138.319C163.629 138.319 164.591 139.628 164.188 140.916L157.872 161.116Z" fill="#228B22"/>
<path d="M106.938 158.254L104.755 159.517C104.101 159.896 103.369 160.121 102.615 160.176L96.1247 160.651C95.8438 160.672 95.5616 160.669 95.2812 160.642L86.5356 159.801L79.1876 158.5C77.4358 158.189 75.9808 156.972 75.3667 155.302L74.8027 153.769C73.9788 151.529 74.8529 149.019 76.8899 147.775L79.5538 146.149C80.2139 145.746 80.9585 145.502 81.729 145.435L86.9575 144.983C87.1969 144.963 87.4376 144.959 87.6775 144.973L92.9364 145.279C93.5038 145.312 94.0614 145.441 94.5853 145.661L96.6966 146.549C97.1619 146.745 97.6542 146.869 98.1566 146.918L106.132 147.684C106.906 147.759 107.652 148.013 108.31 148.426L112.433 151.012C113.645 151.773 113.69 153.523 112.518 154.344L106.938 158.254Z" fill="#37B883"/>
<path d="M116.511 132.26L118.538 132.862C119.329 133.097 120.167 133.132 120.975 132.965L126.216 131.879C126.531 131.814 126.839 131.719 127.135 131.594L134.113 128.67L139.448 125.84C141.082 124.974 142.104 123.277 142.106 121.428L142.108 119.655C142.11 117.484 140.711 115.56 138.646 114.892L135.964 114.024C135.164 113.766 134.311 113.713 133.484 113.871L129.294 114.674C129.025 114.726 128.761 114.8 128.504 114.894L124.485 116.377C123.88 116.601 123.324 116.939 122.847 117.374L121.648 118.468C121.225 118.854 120.739 119.164 120.211 119.386L114.211 121.9C113.406 122.238 112.704 122.779 112.174 123.472L109.628 126.796C108.821 127.85 109.246 129.383 110.48 129.872L116.511 132.26Z" fill="#37B883"/>
<path d="M118.812 151.178C119.513 151.217 120.214 151.109 120.87 150.859L124.603 149.439C125.113 149.245 125.588 148.969 126.009 148.621L131.211 144.326L139.378 138.577C139.928 138.19 140.549 137.918 141.206 137.777L143.139 137.363C145.18 136.925 146.593 135.06 146.464 132.977C146.326 130.746 144.471 129.01 142.236 129.019L139.284 129.031C138.591 129.034 137.906 129.18 137.272 129.462L133.202 131.273C132.453 131.606 131.797 132.118 131.293 132.764L128.869 135.868C127.834 137.193 126.202 137.91 124.526 137.774L124.001 137.732C122.943 137.647 121.886 137.9 120.982 138.455L115.826 141.621C114.996 142.13 114.333 142.871 113.919 143.751L111.901 148.036C111.297 149.319 112.182 150.805 113.598 150.885L118.812 151.178Z" fill="#006622"/>
<path d="M53.3426 323.742C53.3693 324.094 53.4332 324.442 53.5331 324.78L54.9085 329.436C55.1494 330.251 55.1783 331.115 54.9926 331.944L52.3727 343.651C52.2991 343.98 52.1923 344.3 52.0541 344.608L45.8555 358.403L38.6714 371.02C37.7453 372.646 35.9886 373.619 34.1187 373.542L23.6097 373.105C21.5171 373.018 19.7004 371.636 19.0582 369.643L15.8214 359.596C15.556 358.772 15.509 357.893 15.6848 357.046L17.6862 347.404C17.7445 347.123 17.827 346.848 17.9326 346.581L21.4499 337.692C21.6985 337.064 22.0719 336.492 22.5475 336.012L25.952 332.577C26.3738 332.151 26.7156 331.653 26.9611 331.107L32.661 318.422C33.2079 317.204 34.2187 316.256 35.4684 315.788L49.768 310.434C51.0157 309.967 52.3628 310.827 52.4636 312.156L53.3426 323.742Z" fill="#228B22"/>
<path d="M159.317 327.983C158.773 327.883 158.267 327.636 157.852 327.27L152.614 322.642C152.114 322.201 151.691 321.679 151.363 321.099L145.129 310.072C144.906 309.679 144.64 309.311 144.334 308.977L128.359 291.5L116.141 275.287C115.272 274.134 114.848 272.707 114.946 271.268L116.466 249C116.489 248.667 116.539 248.337 116.617 248.013L122 225.5L124 205L124.611 187.223C124.638 186.416 124.503 185.612 124.212 184.858L97.3254 115.14C97.0112 114.325 97.819 113.528 98.6298 113.852L109 118L128.072 184.991C128.262 185.659 128.334 186.354 128.287 187.046L126.707 210L125.74 224.515C125.718 224.851 125.667 225.185 125.589 225.512L120.323 247.533C120.245 247.857 120.195 248.187 120.172 248.52L118.661 270.669C118.558 272.18 119.03 273.674 119.982 274.852L133.065 291.02L148.217 308.67C148.405 308.89 148.578 309.123 148.732 309.367L155.123 319.449C155.544 320.115 156.093 320.69 156.736 321.144L162.147 324.953C162.635 325.296 162.924 325.854 162.924 326.45C162.924 327.595 161.886 328.459 160.76 328.25L159.317 327.983Z" fill="#47342B"/>
<path d="M163.146 126.735C163.067 125.248 164.25 124 165.738 124V124C167.119 124 168.258 125.08 168.331 126.458L170.8 172.762V221.525L172.1 246.277L173.4 271.03L176.677 342.909C176.834 346.364 173.521 348.932 170.214 347.917L169.261 347.624C167.101 346.961 165.654 344.931 165.732 342.672L168.2 271.03L165.6 221.525V172.762L163.146 126.735Z" fill="#47342B"/>
<path d="M194.207 251.754L186.632 252.704C185.746 252.815 184.907 253.161 184.2 253.706L171.057 263.841L155.61 277.021C155.241 277.336 154.92 277.703 154.656 278.11L145.066 292.946C144.383 294.002 144.123 295.277 144.338 296.516L147.184 312.896C147.337 313.778 147.725 314.604 148.306 315.285L155.565 323.793C156.629 325.04 158.237 325.687 159.869 325.523L176.825 323.819C177.526 323.749 178.204 323.531 178.815 323.18L193.83 314.558C194.344 314.262 194.802 313.877 195.182 313.422L198.538 309.392C198.952 308.895 199.266 308.321 199.461 307.704L201.741 300.521C201.813 300.294 201.901 300.072 202.004 299.858L211.765 279.65C212.184 278.783 212.343 277.814 212.225 276.859L209.037 251.195C208.895 250.055 207.823 249.268 206.693 249.475L194.207 251.754Z" fill="#228B22"/>
<path d="M228.255 262.061C228.657 260.728 227.84 259.334 226.48 259.034V259.034C225.257 258.763 224.033 259.481 223.672 260.68L215.073 289.222L207.344 319.753C207.234 320.188 207.066 320.606 206.844 320.996L198.792 335.167C198.505 335.671 198.309 336.221 198.211 336.792L195.687 351.5L194.168 358.635C193.893 359.924 194.71 361.193 195.997 361.478V361.478C197.298 361.766 198.585 360.938 198.863 359.634L200.374 352.536L204.33 336.613C204.443 336.159 204.619 335.723 204.853 335.318L212.479 322.113C212.735 321.67 212.921 321.191 213.031 320.692L219.76 290.259L228.255 262.061Z" fill="#47342B"/>
<path d="M105.357 295.57C104.864 294.633 103.608 294.435 102.849 295.173C102.346 295.663 102.225 296.427 102.553 297.048L111.07 313.204L116.474 325.739C116.648 326.141 116.873 326.519 117.145 326.862L121.745 332.676L126.754 339.006L136.424 351.06C137.032 351.817 138.159 351.886 138.855 351.209C139.462 350.618 139.521 349.662 138.991 349.001L129.123 336.7L119.514 324.557C119.242 324.213 119.016 323.836 118.843 323.434L113.438 310.898L105.357 295.57Z" fill="#47342B"/>
<path d="M118.254 241.048C118.537 242.113 119.874 242.46 120.639 241.667C120.982 241.311 121.114 240.801 120.987 240.323L118.466 230.823L117.482 223.775C117.376 223.018 117.098 222.295 116.669 221.663L115.077 219.313L112.834 216.002L109.08 210.618C108.496 209.78 107.292 209.685 106.583 210.42C106.045 210.978 105.977 211.838 106.42 212.473L110.539 218.382L114.375 224.042C114.804 224.675 115.082 225.398 115.187 226.155L116.172 233.202L118.254 241.048Z" fill="#47342B"/>
<path d="M218.765 279.745C219.189 280.773 220.528 281.027 221.3 280.227C221.725 279.785 221.849 279.134 221.614 278.567L213.833 259.742C213.67 259.348 213.558 258.936 213.5 258.514L212.6 251.977C212.495 251.218 212.217 250.493 211.788 249.858L210.168 247.464L207.896 244.104L204.1 238.649C203.505 237.796 202.279 237.698 201.557 238.447C201.01 239.014 200.94 239.888 201.39 240.535L205.561 246.527L209.453 252.28C209.882 252.915 210.16 253.64 210.264 254.399L211.165 260.936C211.223 261.358 211.334 261.771 211.497 262.164L218.765 279.745Z" fill="#47342B"/>
<path d="M222.475 271.489C222.781 272.568 224.141 272.909 224.92 272.102C225.279 271.729 225.413 271.194 225.272 270.696L221.979 259.084C221.883 258.748 221.753 258.422 221.589 258.112L217.037 249.5L215.702 246L213.908 240.766C213.757 240.327 213.547 239.911 213.282 239.53L209.884 234.649C209.29 233.796 208.064 233.698 207.342 234.447C206.795 235.014 206.725 235.888 207.175 236.535L210.965 241.98C211.218 242.343 211.421 242.738 211.57 243.154L214.581 251.585C214.661 251.81 214.758 252.028 214.869 252.239L219.254 260.534C219.417 260.844 219.548 261.17 219.644 261.507L222.475 271.489Z" fill="#47342B"/>
<path d="M95.8472 234.363C95.0869 233.713 95.3776 232.476 96.3476 232.233C96.734 232.137 97.1434 232.233 97.4462 232.491L108.886 242.266L114.19 248.067C115.033 248.989 115.5 250.192 115.5 251.441L115.5 254.86L115.5 264.64C115.5 265.209 115.597 265.774 115.788 266.311L117.878 272.207C118.174 273.043 117.686 273.952 116.826 274.168C116.074 274.356 115.302 273.942 115.043 273.212L112.857 267.045C112.667 266.508 112.57 265.943 112.57 265.374L112.57 252.175C112.57 250.926 112.103 249.723 111.26 248.801L105.956 243L95.8472 234.363Z" fill="#47342B"/>
<path d="M54.8248 309.738C53.984 309.074 52.7402 309.431 52.3794 310.44C52.1527 311.073 52.3558 311.781 52.884 312.197L69.2874 325.14C69.6844 325.453 70.1265 325.704 70.5988 325.885L102.874 338.225C103.541 338.48 104.146 338.875 104.647 339.384L111.035 345.856C111.374 346.199 111.759 346.491 112.181 346.723L119.941 351L132.798 356.496C133.694 356.879 134.728 356.428 135.057 355.51C135.346 354.701 134.983 353.803 134.213 353.422L120.324 346.562C120.069 346.436 119.826 346.289 119.596 346.122L105.537 335.89C105.18 335.631 104.792 335.42 104.38 335.263L71.7125 322.772C71.2402 322.592 70.7981 322.341 70.4011 322.027L54.8248 309.738Z" fill="#47342B"/>
<path d="M183.704 144.075C184.232 143.483 185.17 143.52 185.649 144.152C186.014 144.633 185.987 145.304 185.585 145.754L182.148 149.606C181.933 149.847 181.695 150.066 181.438 150.261L176.978 153.644C176.724 153.836 176.49 154.052 176.278 154.288L174.331 156.457L172.066 158.982L168.187 163.199C167.654 163.779 166.725 163.735 166.249 163.107C165.879 162.62 165.912 161.937 166.326 161.487L170.513 156.934L174.725 152.241C174.937 152.004 175.172 151.789 175.425 151.597L179.886 148.214C180.143 148.019 180.38 147.799 180.595 147.559L183.704 144.075Z" fill="#47342B"/>
<path d="M24.571 94.7842C22.7109 94.0064 21.5 92.1875 21.5 90.1713V78.7752C21.5 77.6269 21.8953 76.5135 22.6194 75.6222L27.3411 69.8109C27.7757 69.2761 28.3161 68.8368 28.9285 68.5208L40.939 62.3218C42.5241 61.5037 44.425 61.592 45.9275 62.5536L56 69L69.0682 76.4676C69.6824 76.8185 70.2151 77.2958 70.6312 77.8679L80.8778 91.957C81.6005 92.9507 82.6638 93.6435 83.8648 93.9032L99.3975 97.2616C100.123 97.4186 100.805 97.7352 101.393 98.1886L122.518 114.473C123.234 115.024 122.91 116.166 122.012 116.259L101.574 118.388C100.866 118.462 100.151 118.384 99.4752 118.158L93.7698 116.257C93.2599 116.087 92.726 116 92.1886 116H88.0139C87.0268 116 86.0617 115.708 85.2404 115.16L77.2596 109.84C76.4383 109.292 75.4732 109 74.4861 109H67.0642C66.6892 109 66.3155 108.958 65.95 108.874L49.4187 105.096C49.1401 105.032 48.8674 104.945 48.6038 104.834L24.571 94.7842Z" fill="#006622"/>
<path d="M226.069 57.0408C226.679 56.6866 227.372 56.5 228.077 56.5H241.882C243.2 56.5 244.158 57.754 243.811 59.0262L240.558 70.9528C240.209 72.2331 239.248 73.2569 237.992 73.6857L219.5 80L198.5 88L176.804 98.1247C176.274 98.3719 175.697 98.5 175.113 98.5H149.241C145.424 98.5 143.776 93.6625 146.799 91.332L161.103 80.3057C161.367 80.1027 161.654 79.9333 161.96 79.8015L183.5 70.5L197.884 65.7053C198.292 65.5693 198.719 65.5 199.149 65.5H210.423C211.128 65.5 211.821 65.3134 212.431 64.9592L226.069 57.0408Z" fill="#006622"/>
<path d="M152.743 15.1838C153.243 14.7326 153.828 14.3869 154.464 14.1674L166.786 9.91862C167.582 9.644 168.435 9.57505 169.265 9.71819L181.19 11.7741C182.048 11.9221 182.853 12.2918 183.525 12.8466L192.869 20.5659C193.608 21.1758 194.155 21.9848 194.447 22.8969L196.588 29.5865C197.384 32.0764 199.965 33.5322 202.508 32.9267L203.829 32.6122C206.439 31.9908 209.074 33.5399 209.8 36.1225L212.263 44.8794C212.722 46.5132 212.322 48.2686 211.199 49.5413L206.82 54.5045C205.981 55.4553 204.774 56 203.506 56C202.231 56 201.019 56.5502 200.179 57.5093L199.026 58.8279C198.358 59.5912 197.938 60.5396 197.821 61.5473L196.689 71.3648C196.566 72.4269 196.106 73.4217 195.377 74.2033L182.907 87.5635C182.637 87.8535 182.333 88.1102 182.001 88.3283L143.59 113.612C143.198 113.869 142.773 114.071 142.326 114.21L122.543 120.364C121.238 120.77 119.824 120.625 118.63 119.961L118.428 119.849C116.918 119.01 115.082 119.01 113.572 119.849L112.633 120.371C111.89 120.783 111.054 121 110.204 121H105.804C104.062 121 102.446 120.094 101.538 118.607L98.2336 113.2C97.7538 112.415 97.5 111.513 97.5 110.593V101.677C97.5 100.589 97.8548 99.5304 98.5107 98.6624L113.854 78.3552C114.28 77.7915 114.581 77.1439 114.739 76.4551L122.148 44.0385C122.377 43.0372 122.909 42.1306 123.671 41.4421L152.743 15.1838Z" fill="#228B22"/>
<path d="M107 0H114.5L129.5 13.5L133 28.5L136 39.5L139.5 50L136 67L127.5 87.5L107.441 114.898C107.179 115.255 106.714 115.398 106.297 115.249L100.345 113.123C100.122 113.044 99.9349 112.888 99.8163 112.683L89 94L86.5 79.5L80.5 72V62.5L74.5 47V32L83.5 18.5V10L92 2H100L107 0Z" fill="#37B883"/>
<path d="M188.577 95.0585C188.855 94.3618 189.287 93.7367 189.84 93.2297L194.006 89.4107C194.657 88.8142 195.454 88.4006 196.317 88.212L210.472 85.1155C210.823 85.0387 211.181 85 211.54 85H228.92C229.305 85 229.69 85.0446 230.065 85.1329L252.401 90.3885C254.025 90.7706 255.352 91.9377 255.937 93.4999L261.346 107.923C262.046 109.79 261.57 111.896 260.133 113.28L249.763 123.265C249.26 123.75 248.661 124.123 248.004 124.362L233.328 129.699C232.78 129.898 232.202 130 231.619 130H226.963C226.327 130 225.697 129.879 225.106 129.642L219.394 127.358C218.803 127.121 218.173 127 217.537 127H199.486C198.835 127 198.19 126.873 197.588 126.626L180.834 119.752C179.819 119.336 179.329 118.179 179.736 117.159L188.577 95.0585Z" fill="#228B22"/>
<path d="M202.584 221.488L199.151 214.705C198.75 213.913 198.568 213.029 198.622 212.143L199.599 196.121C199.621 195.759 199.682 195.401 199.782 195.052L205.039 176.651C205.146 176.277 205.296 175.916 205.487 175.577L217.949 153.379C218.767 151.923 220.258 150.971 221.923 150.842L239.541 149.477C241.516 149.324 243.394 150.351 244.332 152.095L252.051 166.461C252.383 167.079 252.581 167.76 252.633 168.46L253.905 185.717C253.949 186.304 253.888 186.893 253.726 187.458L252.281 192.517C252.105 193.134 251.811 193.711 251.417 194.217L246.784 200.161C246.639 200.347 246.507 200.543 246.389 200.748L235.23 220.215C234.753 221.046 234.048 221.723 233.198 222.165L210.397 234.014C209.37 234.548 208.107 234.102 207.642 233.042L202.584 221.488Z" fill="#228B22"/>
<path d="M168.918 95.7222C169.627 96.2318 170.19 96.9183 170.551 97.7132L174.202 105.744C174.716 106.874 174.79 108.155 174.412 109.337L171 120L168.481 132.176C168.23 133.39 166.945 134.086 165.791 133.632L155.114 129.438C154.382 129.15 153.728 128.694 153.205 128.106L146.832 120.937C146.286 120.322 145.9 119.581 145.708 118.782L143.42 109.248C143.148 108.118 143.279 106.929 143.79 105.885L151.399 90.3205C152.759 87.5387 156.295 86.6493 158.809 88.4565L168.918 95.7222Z" fill="#006622"/>
<path d="M84.0062 131.541C84.566 130.896 85.2818 130.405 86.0854 130.114L91.0855 128.309C92.153 127.924 93.3198 127.913 94.3943 128.278L101.404 130.664L109.071 132.466C110.32 132.76 110.973 134.136 110.412 135.289L107.779 140.695C107.424 141.423 106.898 142.053 106.246 142.533L101.637 145.924C101.01 146.385 100.284 146.693 99.5177 146.824L93.4255 147.867C92.3775 148.047 91.2996 147.888 90.3483 147.413L82.0844 143.287C79.1623 141.828 78.4006 138.005 80.5405 135.537L84.0062 131.541Z" fill="#228B22"/>
<path d="M176.243 202.65L178.184 203.225C178.973 203.459 179.811 203.485 180.621 203.302L185.648 202.166C185.966 202.094 186.276 201.991 186.576 201.857L193.322 198.847L198.42 195.981C200.044 195.068 201.058 193.32 201.052 191.442L201.046 189.638C201.039 187.476 199.687 185.587 197.682 184.938L195.085 184.099C194.288 183.841 193.435 183.796 192.607 183.97L188.597 184.812C188.325 184.869 188.059 184.949 187.799 185.051L183.955 186.567C183.344 186.808 182.783 187.168 182.305 187.628L181.196 188.693C180.771 189.101 180.282 189.431 179.749 189.669L174.011 192.229C173.201 192.591 172.496 193.164 171.966 193.89L169.53 197.233C168.748 198.307 169.156 199.826 170.356 200.305L176.243 202.65Z" fill="#37B883"/>
<path d="M158.388 207.876C157.605 208.091 156.775 208.065 155.979 207.799L152.028 206.48C151.283 206.231 150.593 205.78 150.018 205.167L144.757 199.556L136.213 192.267C135.463 191.627 134.576 191.241 133.664 191.158L132.94 191.092C130.051 190.828 127.915 187.671 128.464 184.479L129.025 181.219C129.375 179.184 130.757 177.645 132.551 177.292L138.132 176.193C138.952 176.031 139.808 176.129 140.61 176.475L144.703 178.245C145.779 178.71 146.693 179.596 147.274 180.738L149.089 184.301C150.209 186.501 152.472 187.611 154.54 186.975L155.076 186.811C156.314 186.431 157.666 186.669 158.803 187.468L163.884 191.037C164.975 191.804 165.776 193.02 166.106 194.414L168.149 203.022C168.417 204.151 167.857 205.266 166.888 205.533L158.388 207.876Z" fill="#006622"/>
<path d="M158.474 195.792C157.746 195.357 156.918 195.118 156.069 195.098L149.075 194.937C147.948 194.912 146.841 195.273 145.937 195.963L138.528 201.611L130.009 206.894C128.916 207.572 128.718 209.093 129.604 210.012L135.118 215.736C135.677 216.316 136.369 216.749 137.134 216.997L144.107 219.262C144.841 219.5 145.622 219.562 146.387 219.442L154.294 218.206C155.34 218.042 156.31 217.547 157.065 216.793L166.145 207.718C168.47 205.395 168.02 201.506 165.235 199.839L158.474 195.792Z" fill="#228B22"/>
<path d="M198.16 198.364C198.991 198.632 199.737 199.114 200.324 199.761L206.252 206.293C207.087 207.212 207.549 208.409 207.55 209.65L207.557 220.846L208.877 233.209C209.008 234.442 207.998 235.497 206.76 235.417L195.312 234.684C194.527 234.634 193.765 234.399 193.088 233.998L184.83 229.118C184.122 228.699 183.528 228.113 183.101 227.409L178.011 219.03C177.407 218.037 177.169 216.865 177.336 215.715L179.829 198.57C180.274 195.506 183.369 193.579 186.315 194.532L198.16 198.364Z" fill="#006622"/>
<path d="M191.997 249.393C192.808 249.503 193.633 249.411 194.401 249.127L198.283 247.688C199.177 247.357 199.957 246.778 200.533 246.018L206.136 238.617C206.537 238.087 206.828 237.483 206.993 236.84L207.438 235.106C207.695 234.1 207.141 233.064 206.161 232.722L203.998 231.965C203.329 231.731 202.619 231.642 201.914 231.703L197.638 232.075C196.928 232.136 196.239 232.349 195.618 232.699L191.317 235.12C190.501 235.579 189.831 236.258 189.382 237.08L184.689 245.669C184.017 246.9 184.787 248.423 186.177 248.61L191.997 249.393Z" fill="#37B883"/>
<path d="M180.585 278.334C181.369 278.407 182.16 278.294 182.893 278.004L192.29 274.277C193.139 273.941 193.879 273.378 194.431 272.65L201.87 262.84C202.018 262.644 202.152 262.438 202.27 262.222L208.576 250.717C209.184 249.608 208.622 248.22 207.415 247.846L202.08 246.191C201.401 245.98 200.686 245.917 199.98 246.005L190.408 247.198C189.746 247.28 189.107 247.494 188.528 247.828L178.478 253.624C177.736 254.052 177.116 254.664 176.679 255.4L168.007 269.984C166.13 273.14 168.183 277.176 171.84 277.517L180.585 278.334Z" fill="#006622"/>
<path d="M104.968 195.606C104.294 195.992 103.719 196.529 103.289 197.176L98.2974 204.677C97.8072 205.414 97.5213 206.268 97.4689 207.151L96.7906 218.589L95.203 230.217C95.013 231.608 96.2788 232.757 97.6455 232.433L104.486 230.814C105.305 230.619 106.063 230.221 106.688 229.656L112.862 224.071C113.345 223.634 113.739 223.107 114.02 222.518L118.512 213.114C118.87 212.365 119.036 211.538 118.994 210.709L118.276 196.359C118.089 192.633 114.036 190.417 110.798 192.269L104.968 195.606Z" fill="#37B883"/>
<path d="M140.983 267.85C140.041 268.179 139.022 268.219 138.057 267.964L129.827 265.79C129.358 265.666 128.91 265.475 128.496 265.222L118.443 259.077C117.822 258.697 117.291 258.186 116.888 257.579L111.75 249.854C111.099 248.875 111.429 247.548 112.463 246.988L119.916 242.953L126.569 239.734C128.151 238.969 130.02 239.091 131.49 240.055L136.752 243.509C137.247 243.834 137.795 244.068 138.372 244.201L142.374 245.125C143.43 245.368 144.377 245.948 145.075 246.776L150.825 253.604C151.584 254.506 152 255.646 152 256.825L152 260.451C152 262.577 150.656 264.47 148.65 265.171L140.983 267.85Z" fill="#228B22"/>
<path d="M63.077 168.334L63.1331 157.595C63.1399 156.29 64.3743 155.341 65.6371 155.67L74.5162 157.983C75.7942 158.315 76.8255 159.258 77.2722 160.5L82.0662 173.838C82.1382 174.038 82.2261 174.232 82.329 174.419L90.9537 190.034C91.062 190.23 91.1537 190.435 91.2277 190.647L96.8311 206.656C96.982 207.088 97.058 207.542 97.0556 207.999L96.9218 233.617C96.9168 234.576 95.696 234.979 95.1213 234.212L83.0598 218.103C82.9151 217.91 82.7531 217.73 82.5759 217.566L72.3513 208.097C71.7952 207.582 71.3969 206.919 71.2028 206.187L67.1158 190.766C67.0388 190.476 66.9295 190.195 66.7897 189.929L63.6014 183.865C63.3025 183.297 63.1449 182.665 63.1419 182.023L63.077 168.334Z" fill="#006622"/>
<path d="M27.3018 285.692C28.1549 285.505 29.042 285.545 29.8747 285.808L38.2873 288.463C39.471 288.836 40.4735 289.637 41.0997 290.709L46.7476 300.375L54.1176 310.389C54.8527 311.388 54.511 312.808 53.4021 313.363L43.1442 318.499C42.4407 318.851 41.6641 319.032 40.8775 319.028L31.2857 318.973C30.4631 318.968 29.6543 318.761 28.9311 318.369L20.3119 313.696C19.2904 313.142 18.4936 312.25 18.0586 311.173L11.5719 295.108C10.4126 292.236 12.1152 289.012 15.1401 288.351L27.3018 285.692Z" fill="#006622"/>
<path d="M72.6917 325.17C73.4663 324.796 74.3244 324.628 75.1829 324.683L82.1575 325.125C83.3191 325.198 84.4187 325.675 85.2666 326.472L91.9888 332.794L99.9332 338.9C100.941 339.674 100.98 341.179 100.015 342.005L93.7117 347.4C93.1011 347.922 92.3737 348.29 91.5908 348.471L84.3239 350.158C83.5537 350.336 82.7522 350.33 81.985 350.139L74.2744 348.218C73.2165 347.954 72.2737 347.352 71.5896 346.503L63.4749 336.432C61.4557 333.926 62.2956 330.193 65.1934 328.793L72.6917 325.17Z" fill="#006622"/>
<path d="M172 135L180.5 129H189.5L203.5 135L228.5 136.5L252.485 135.393C256.3 135.217 258.896 139.209 257.188 142.624L251 155L223 165H192.5L180.5 159.5V150.5L173.5 144.5L172 135Z" fill="#37B883"/>
<path d="M96.4049 232.247C97.0886 232.656 97.0426 233.661 96.3244 234.006L90.9456 236.59L80.9864 247.604L71.4422 258.194L66.4626 269.208L63.9728 280.646L56.0884 287H46.9592L37 274.715L46.9592 247.604L59.8231 241.674L71.4422 236.59L78.0816 230.236L85.966 226L96.4049 232.247Z" fill="#228B22"/>
<path d="M70.3463 214.575C71.4708 214.106 72.7278 214.064 73.8811 214.457L80.1031 216.574C80.4411 216.69 80.7659 216.84 81.0718 217.025L89.2782 221.968C90.1968 222.521 90.9131 223.355 91.3215 224.347L94.325 231.639C94.5486 232.182 94.2586 232.8 93.6981 232.974L73.4978 239.274C73.0862 239.403 72.6597 239.477 72.229 239.496L51.8336 240.394C51.2123 240.421 50.5914 240.332 50.0026 240.132L38.7952 236.317C36.7049 235.605 35.3288 233.607 35.4097 231.4L35.5157 228.51C35.5985 226.253 37.1845 224.331 39.3852 223.822L52.2827 220.837L61.628 218.209L70.3463 214.575Z" fill="#37B883"/>
<path d="M203.871 278.065C204.7 278.427 205.441 278.967 206.025 279.636L210.604 284.88C211.362 285.749 211.818 286.792 211.9 287.847L212.561 296.338L214.181 305.379C214.404 306.623 213.322 307.59 211.978 307.347L204.561 306.009C203.716 305.856 202.899 305.518 202.181 305.023L196.133 300.854C195.463 300.392 194.898 299.806 194.481 299.142L190.308 292.483C189.744 291.585 189.476 290.58 189.54 289.606L190.265 278.578C190.471 275.439 193.921 273.726 197.176 275.146L203.871 278.065Z" fill="#37B883"/>
<path d="M243.803 271.943C244.568 271.187 244.996 270.154 244.988 269.077L244.963 265.333C244.954 264.107 243.854 263.174 242.643 263.366L232.997 264.899C232.383 264.996 231.8 265.236 231.295 265.599L221.423 272.696C221.142 272.898 220.889 273.135 220.669 273.403L213.33 282.347C212.754 283.047 212.435 283.924 212.425 284.831L212.324 293.511L212.427 308.502C212.433 309.341 213.407 309.803 214.058 309.275L225.321 300.148C225.747 299.802 226.097 299.373 226.35 298.885L229.889 292.056C230.069 291.709 230.299 291.39 230.572 291.11L236.91 284.601C237.641 283.85 238.047 282.841 238.04 281.791L238.023 279.348C238.016 278.271 238.443 277.238 239.208 276.482L243.803 271.943Z" fill="#006622"/>
<path d="M232.098 289.482C230.958 289.415 229.761 289.783 228.721 290.52L224.199 293.727C223.891 293.946 223.6 294.195 223.333 294.469L217.54 300.395C216.721 301.234 216.143 302.281 215.894 303.381L214.508 309.494C214.372 310.094 214.751 310.596 215.326 310.575L232.437 309.944C232.847 309.929 233.262 309.86 233.673 309.739L246.831 305.843C249.311 305.109 251.185 302.628 251.185 300.079L251.185 293.225C251.185 291.002 249.617 289.385 247.472 289.395V289.395L239.474 289.918L232.098 289.482Z" fill="#37B883"/>
<path d="M151.77 356C147.685 356 145.571 351.123 148.365 348.142V348.142C149.198 347.253 150.346 346.725 151.564 346.671L165.332 346.065L173.168 346.685C174.412 346.784 175.575 347.345 176.428 348.257L178.761 350.756L184.802 357.227C185.591 358.072 186.648 358.617 187.794 358.77L205 361.07L249.788 369.54C252.149 369.987 253.859 372.05 253.859 374.453L253.859 380.712C253.859 384.081 250.594 386.486 247.376 385.487L198.5 370.31L180.96 366.925C179.561 366.655 178.343 365.8 177.613 364.576L173.954 358.439C173.052 356.927 171.421 356 169.66 356L160 356L151.77 356Z" fill="#47342B"/>
<path d="M132.266 311.323C132.036 312.065 131.983 312.85 132.11 313.616L133.581 322.506C133.725 323.379 134.099 324.198 134.663 324.879L141.973 333.702L148.748 343.285C149.559 344.432 151.268 344.408 152.046 343.238L155.94 337.387C156.407 336.685 156.689 335.877 156.76 335.038L157.462 326.742C157.517 326.092 157.444 325.438 157.248 324.817L154.114 314.877C153.864 314.085 153.421 313.368 152.825 312.79L142.507 302.792C139.828 300.196 135.352 301.341 134.25 304.905L132.266 311.323Z" fill="#37B883"/>
<path d="M207.894 339.55C207.429 340.434 206.712 341.159 205.832 341.631L198.333 345.658C197.906 345.887 197.448 346.053 196.973 346.151L185.431 348.52C184.717 348.666 183.98 348.655 183.272 348.487L174.245 346.346C173.101 346.075 172.436 344.88 172.81 343.765L175.503 335.729L178.17 328.837C178.804 327.197 180.253 326.011 181.986 325.713L188.189 324.646C188.772 324.546 189.333 324.343 189.845 324.047L193.401 321.99C194.339 321.448 195.427 321.225 196.502 321.354L205.365 322.421C206.535 322.562 207.617 323.112 208.422 323.973L210.896 326.624C212.347 328.177 212.657 330.478 211.669 332.36L207.894 339.55Z" fill="#228B22"/>
<path d="M84.1346 320.28C83.4154 320.082 82.766 319.686 82.2597 319.138L75.7467 312.089C74.8611 311.131 75.1158 309.595 76.2633 308.973L84.3316 304.604C85.4929 303.975 86.8897 303.96 88.0644 304.564L100.671 311.041C100.86 311.138 101.057 311.22 101.259 311.286L118.22 316.814C118.433 316.884 118.64 316.971 118.838 317.075L133.86 324.953C134.264 325.165 134.63 325.445 134.94 325.781L152.325 344.598C152.976 345.302 152.359 346.43 151.415 346.261L131.922 342.775C131.476 342.695 131.047 342.54 130.653 342.317L119.002 335.711C118.735 335.56 118.452 335.44 118.158 335.354L104.187 331.241C103.494 331.037 102.869 330.649 102.378 330.119L97.1909 324.504C96.6847 323.956 96.0353 323.561 95.3161 323.363L84.1346 320.28Z" fill="#006622"/>
<path d="M161.527 343.64C162.336 343.426 163.034 344.242 162.698 345.008L160.8 349.343L160.325 361.758L159.889 373.677L162.637 383.083L167.227 391.23L165.568 399.685L159.659 405.203L146.551 404.088L138.298 382.324L143.409 371.105L148.175 361.131L149.027 353.428L151.834 346.202L161.527 343.64Z" fill="#228B22"/>
<path d="M121.426 353.496C121.684 352.305 122.367 351.249 123.348 350.527L128.64 346.629C128.927 346.417 129.237 346.236 129.563 346.091L138.307 342.177C139.286 341.739 140.379 341.627 141.427 341.858L149.128 343.557C149.701 343.684 150.043 344.274 149.866 344.834L143.502 365.014C143.372 365.426 143.19 365.818 142.959 366.183L132.049 383.438C131.716 383.963 131.289 384.422 130.788 384.791L121.256 391.812C119.478 393.122 117.052 393.11 115.287 391.784L112.974 390.046C111.169 388.689 110.497 386.29 111.336 384.193L116.251 371.901L119.43 362.728L121.426 353.496Z" fill="#37B883"/>
<path d="M115.273 252.838C115.674 252.334 115.974 251.758 116.157 251.141L117.896 245.259C118.012 244.868 118.079 244.464 118.097 244.056L118.458 235.657C118.484 235.064 117.99 234.58 117.398 234.616L110.098 235.066C109.344 235.112 108.611 235.329 107.953 235.699L98.7028 240.905C97.827 241.398 97.12 242.144 96.6742 243.044L89.2964 257.949C88.9889 258.57 88.8139 259.248 88.7825 259.941L88.3136 270.306C88.2204 272.366 89.4014 274.272 91.2877 275.106L94.5772 276.559C96.4382 277.381 98.6118 276.994 100.074 275.58L106.07 269.78C106.652 269.218 107.088 268.523 107.342 267.755L109.864 260.124C110.05 259.564 110.333 259.041 110.7 258.579L115.273 252.838Z" fill="#37B883"/>
<path d="M237.872 240.408C237.036 241.294 235.905 241.845 234.692 241.956L228.147 242.555C227.791 242.588 227.433 242.582 227.079 242.539L217.571 241.366C216.506 241.235 215.513 240.765 214.736 240.026L209.023 234.589C208.597 234.184 208.611 233.502 209.051 233.114L224.935 219.133C225.259 218.848 225.618 218.607 226.003 218.414L244.265 209.288C244.821 209.01 245.425 208.838 246.044 208.781L257.834 207.701C260.033 207.5 262.103 208.765 262.928 210.813L264.008 213.496C264.852 215.591 264.186 217.992 262.384 219.353L251.82 227.332L244.355 233.539L237.872 240.408Z" fill="#37B883"/>
<path d="M69.8069 328.972C68.1826 328.406 66.9636 327.044 66.5795 325.367L65.812 322.017C65.725 321.637 65.6826 321.248 65.6859 320.858L65.7512 313.109C65.7586 312.237 65.9943 311.381 66.4349 310.627L70.5678 303.56C70.8343 303.105 71.409 302.935 71.8805 303.172L84.1966 309.37C84.7637 309.655 85.2713 310.046 85.6922 310.521L94.1195 320.037C94.6744 320.664 95.0632 321.42 95.2501 322.236L97.1007 330.315C97.4988 332.053 96.9411 333.872 95.637 335.088L93.0317 337.517C91.3538 339.082 88.8263 339.304 86.9013 338.056L80.4697 333.886L75.058 330.881C74.8082 330.742 74.547 330.625 74.2773 330.531L69.8069 328.972Z" fill="#37B883"/>
<path d="M37.5757 293.719C36.3465 292.515 35.8221 290.765 36.1875 289.084L36.9175 285.725C37.0003 285.344 37.1274 284.974 37.2961 284.623L40.6502 277.637C41.028 276.85 41.6052 276.176 42.3244 275.681L49.0701 271.042C49.505 270.743 50.0975 270.834 50.4234 271.249L58.9351 282.095C59.327 282.595 59.6203 283.164 59.7991 283.774L63.3802 295.97C63.616 296.773 63.6464 297.623 63.4686 298.44L61.7082 306.54C61.3294 308.282 60.0513 309.691 58.3537 310.237L54.9626 311.329C52.7786 312.031 50.3966 311.158 49.1851 309.209L45.1373 302.7L41.5168 297.679C41.3497 297.447 41.1631 297.23 40.9589 297.031L37.5757 293.719Z" fill="#37B883"/>
<path d="M121.202 308.334C121.987 308.407 122.778 308.294 123.511 308.004L132.908 304.277C133.756 303.941 134.497 303.378 135.049 302.65L142.487 292.84C142.636 292.644 142.77 292.438 142.888 292.222L149.194 280.717C149.801 279.608 149.24 278.22 148.032 277.846L142.698 276.191C142.019 275.98 141.303 275.917 140.598 276.005L131.026 277.198C130.363 277.28 129.724 277.494 129.146 277.828L119.096 283.624C118.354 284.052 117.734 284.664 117.296 285.4L108.625 299.984C106.748 303.14 108.801 307.176 112.458 307.517L121.202 308.334Z" fill="#006622"/>
<path d="M81.8069 300.972C80.1826 300.406 78.9636 299.044 78.5795 297.367L77.812 294.017C77.7249 293.637 77.6826 293.248 77.6859 292.858L77.7512 285.109C77.7586 284.237 77.9943 283.381 78.4349 282.627L82.5678 275.56C82.8343 275.105 83.409 274.935 83.8805 275.172L96.1966 281.37C96.7637 281.655 97.2713 282.046 97.6922 282.521L106.119 292.037C106.674 292.664 107.063 293.42 107.25 294.236L109.101 302.315C109.499 304.053 108.941 305.872 107.637 307.088L105.032 309.517C103.354 311.082 100.826 311.304 98.9013 310.056L92.4697 305.886L87.058 302.881C86.8082 302.742 86.547 302.625 86.2773 302.531L81.8069 300.972Z" fill="#37B883"/>
</g>
<defs>
<filter id="filter0_d" x="0.0585938" y="0" width="273.227" height="419.222" filterUnits="userSpaceOnUse" color-interpolation-filters="sRGB">
<feFlood flood-opacity="0" result="BackgroundImageFix"/>
<feColorMatrix in="SourceAlpha" type="matrix" values="0 0 0 0 0 0 0 0 0 0 0 0 0 0 0 0 0 0 127 0"/>
<feOffset dy="4"/>
<feGaussianBlur stdDeviation="2"/>
<feColorMatrix type="matrix" values="0 0 0 0 0 0 0 0 0 0 0 0 0 0 0 0 0 0 0.25 0"/>
<feBlend mode="normal" in2="BackgroundImageFix" result="effect1_dropShadow"/>
<feBlend mode="normal" in="SourceGraphic" in2="effect1_dropShadow" result="shape"/>
</filter>
</defs>
</svg>
