<svg width="191" height="451" viewBox="0 0 191 451" fill="none" xmlns="http://www.w3.org/2000/svg">
<path d="M50 72.5L57.5 74L55 83L47.5 92.5L42 95.5V83L50 72.5Z" fill="#006622"/>
<path d="M39 55.9083C39 55.3161 39.1753 54.737 39.5038 54.2442L42.1094 50.3359C42.6658 49.5013 43.6025 49 44.6056 49H51C52.6569 49 54 50.3431 54 52V53.1307C54 53.376 53.9699 53.6203 53.9104 53.8583L52.0681 61.2276C51.7342 62.5631 50.5343 63.5 49.1577 63.5H42C40.3431 63.5 39 62.1569 39 60.5V55.9083Z" fill="#006622"/>
<path d="M17.7698 87.8996C17.0016 87.7262 16.726 86.774 17.2829 86.2171L21.6472 81.8528C22.2077 81.2923 22.8934 80.8731 23.6478 80.6298L37.2515 76.2415C37.7474 76.0815 38.2654 76 38.7865 76H44C46.7614 76 49 78.2386 49 81V81.2581C49 82.0737 48.8005 82.8768 48.4189 83.5976L45.0634 89.9358C44.7168 90.5905 44.0367 91 43.2958 91H32.0575C31.687 91 31.3176 90.9588 30.9562 90.8772L17.7698 87.8996Z" fill="#228B22"/>
<path d="M44.8855 61.4995C44.9434 60.7412 45.7027 60.2424 46.4216 60.4905V60.4905C46.9207 60.6626 47.2408 61.1499 47.2006 61.6762L45.1326 88.7626C45.0444 89.9178 44.8384 91.061 44.5177 92.1744L39.5092 109.56L30.9968 129.687C30.5503 130.743 30.2116 131.841 29.9862 132.965L4.42196 260.397C4.2094 261.456 3.04779 262.024 2.0812 261.541V261.541C1.43832 261.219 1.07976 260.516 1.19673 259.807L9 212.5L27.7251 131.918C27.9456 130.969 28.2473 130.041 28.6267 129.144L37.2404 108.778L42.2489 91.3917C42.5696 90.2783 42.7757 89.1351 42.8639 87.9799L44.8855 61.4995Z" fill="#47342B"/>
<path d="M41.8743 68.7616C42.2595 67.4298 43.094 66.2725 44.236 65.4864L48.1226 62.811C48.775 62.3619 49.51 62.0464 50.285 61.8827L55.6134 60.7576C56.5248 60.5651 57.4684 60.5875 58.3697 60.823L61.2376 61.5722C61.8957 61.7442 62.5783 61.803 63.2561 61.7461L65.3467 61.5706C66.5629 61.4685 67.7812 61.7397 68.8392 62.348L70.63 63.3776C71.0923 63.6435 71.588 63.8465 72.104 63.9813L78.3035 65.601L79.3263 66.0186C80.4178 66.4644 81.6164 66.5787 82.7724 66.3472L83.3568 66.2302C85.3209 65.837 87.3516 66.4498 88.7703 67.8638L91.9358 71.0189C92.4567 71.538 92.8777 72.1485 93.1778 72.8199L95.6261 78.2965L96.5452 80.2044C96.9788 81.1045 97.6303 81.882 98.4406 82.4665L99.5252 83.2488C100.452 83.9174 101.169 84.8369 101.591 85.899L102 86.9281L98.9056 86.9281C97.7944 86.9281 96.7049 86.6195 95.7588 86.0367L93.5668 84.6864C93.0331 84.3577 92.4513 84.1146 91.8424 83.966L87.0522 82.7971C86.5025 82.6629 85.9745 82.4517 85.484 82.1696L83.3392 80.9365C82.5317 80.4722 81.6272 80.2023 80.6973 80.1482L72.6985 79.6825C72.3857 79.6643 72.0748 79.6216 71.7686 79.5548L66 78.2965L62.3021 77.2133C61.7524 77.0523 61.2285 76.8133 60.7465 76.5038L57.517 74.4297C57.1729 74.2086 56.807 74.0234 56.4251 73.8768L53.3552 72.6982C51.8647 72.1259 50.2077 72.1713 48.7508 72.8243L39.5 76.9705L41.8743 68.7616Z" fill="#228B22"/>
<path d="M54.0763 83.7738C54.9931 82.9535 56.1801 82.5 57.4103 82.5H62.5236C62.8405 82.5 63.1566 82.4699 63.4678 82.41L74.7649 80.2375C75.5757 80.0816 76.4124 80.1289 77.2005 80.3752L82.9442 82.1701C83.6397 82.3874 84.3742 82.4501 85.0964 82.3538L88.7355 81.8686C90.4539 81.6395 92.1683 82.3168 93.2661 83.6586L94.6259 85.3206C95.4956 86.3835 96.7965 87 98.1699 87C99.9044 87 101.49 87.9799 102.266 89.5313L102.472 89.9443C102.819 90.6385 103 91.4041 103 92.1803V95.7662C103 96.2528 103.071 96.7368 103.211 97.2029L103.953 99.6752C104.305 100.851 104.213 102.114 103.694 103.226L101.556 107.809C101.191 108.59 100.632 109.263 99.9309 109.764L95.3039 113.069C94.4559 113.674 93.4398 114 92.3977 114H88.2956C87.4459 114 86.6102 113.783 85.8674 113.371L83.6326 112.129C82.8898 111.717 82.0541 111.5 81.2044 111.5H78.5139C77.5268 111.5 76.5617 111.208 75.7404 110.66L72.2596 108.34C71.4383 107.792 70.4732 107.5 69.4861 107.5H66.8799C65.3742 107.5 63.9487 106.822 62.9993 105.653L59.1801 100.952C58.4335 100.034 57.3126 99.5 56.1286 99.5C55.0858 99.5 54.0858 99.0858 53.3484 98.3484L46 91L54.0763 83.7738Z" fill="#37B883"/>
<path d="M39.5 107.5L43.6565 106.253C44.2158 106.085 44.7967 106 45.3806 106H45.9123C47.85 106 49.6684 106.936 50.7947 108.513L51.1566 109.019C51.3842 109.338 51.6594 109.62 51.9727 109.855C52.9341 110.576 53.5 111.707 53.5 112.909V113.11C53.5 114.593 54.2779 115.967 55.5491 116.729L57.18 117.708C58.046 118.228 58.7668 118.957 59.2757 119.83L61.3715 123.422C61.7861 124.133 62.3424 124.751 63.0059 125.238L67.8441 128.786C68.885 129.549 69.5 130.763 69.5 132.053C69.5 132.989 69.8236 133.896 70.416 134.62L73.2428 138.074C73.7387 138.681 74.3863 139.145 75.1197 139.42C76.8522 140.07 78 141.726 78 143.576V143.63C78 144.205 77.8904 144.774 77.6769 145.308L77.3536 146.116C77.12 146.7 77 147.323 77 147.952V148.586C77 149.491 76.6403 150.36 76 151L75.8718 151.128C75.3136 151.686 75 152.444 75 153.233C75 154.322 74.405 155.325 73.4487 155.846L70.8431 157.267C69.9618 157.748 68.9739 158 67.97 158H59.3403C58.7828 158 58.2281 157.922 57.692 157.769L50.0465 155.585C48.7226 155.206 47.569 154.384 46.7794 153.256L45.4804 151.401C44.8396 150.485 43.9557 149.767 42.9286 149.327L41.1365 148.558C38.9304 147.613 37.5 145.444 37.5 143.044V142.262C37.5 141.112 37.1692 139.985 36.5471 139.018L35.2122 136.941C33.8777 134.865 33.9503 132.184 35.3951 130.184L38.3641 126.073C39.1025 125.05 39.5 123.821 39.5 122.56V107.5Z" fill="#228B22"/>
<path d="M16.8194 24.3944C15.872 21.7416 18.7726 19.3636 21.1881 20.8129L26.1833 23.81C26.3936 23.9362 26.5877 24.0877 26.7611 24.2611L31.0972 28.5972C31.3634 28.8634 31.6772 29.077 32.0224 29.2271L42.7348 33.8847C42.9112 33.9614 43.0798 34.0549 43.2383 34.1638L50.1715 38.9304C50.7091 39.3 51.1116 39.8349 51.3179 40.4538L54 48.5L41 46L32.2344 43.6933C31.7524 43.5664 31.3096 43.3215 30.946 42.9806L23.5 36L19.3287 30.9018C19.1112 30.6359 18.9409 30.3346 18.8254 30.0111L16.8194 24.3944Z" fill="#006622"/>
<path d="M12 33.0133C12 31.4839 13.6468 30.5204 14.98 31.2698L25.6364 37.2599L31.2562 40.6621C31.727 40.9471 32.2416 41.1524 32.7792 41.2698L37.8197 42.37L47.4418 45.8905C47.8126 46.0262 48.1661 46.2053 48.4947 46.4241L50.3604 47.6662C51.4141 48.3676 52.1625 49.4426 52.4546 50.6742L54 57.1894L47.8149 58.3048C46.7702 58.4932 45.6926 58.3441 44.7382 57.8793L40.699 55.9119L36.4003 53.8609C36.0541 53.6957 35.6901 53.5709 35.3154 53.489L29.8289 52.2892C29.1949 52.1506 28.594 51.8899 28.0597 51.5216L24.0492 48.7577L17.1639 43.7753L13.6746 40.6676C12.6093 39.7189 12 38.3603 12 36.9338V33.0133Z" fill="#37B883"/>
<path d="M27 12.2645C27 10.6063 28.5583 9.38958 30.167 9.79175C30.7074 9.92685 31.2772 9.8812 31.7892 9.66177L36.6355 7.5848C37.5158 7.20751 38.5023 7.15863 39.4157 7.44705L46.2825 9.61554C47.0745 9.86563 47.9247 9.86301 48.7151 9.60804L59.6402 6.08382C61.5597 5.46461 63.64 6.37139 64.4929 8.19911L65.3152 9.96114C66.0265 11.4854 65.7083 13.2917 64.5189 14.4811L61.8105 17.1895C61.6041 17.3959 61.421 17.6242 61.2643 17.8704L51.6254 33.0173C51.2169 33.6591 51 34.4041 51 35.1648V41.5L31.3504 25.2891C31.1175 25.097 30.8637 24.9319 30.5937 24.7969L28.0832 23.5416C27.3769 23.1885 26.7909 22.6341 26.3991 21.9485L26.2007 21.6011C25.4648 20.3134 25.5197 18.7205 26.3424 17.4864C26.7712 16.8432 27 16.0875 27 15.3144V12.2645Z" fill="#37B883"/>
<path d="M49.0672 43.6716C49.0225 43.2253 49.0281 42.7754 49.0837 42.3303L49.8512 36.1907C49.9495 35.4047 50.2024 34.6459 50.5954 33.9582L53.2973 29.2298C53.7594 28.4211 54.4035 27.731 55.1785 27.2143L57.6449 25.5701C58.2108 25.1928 58.7085 24.722 59.1167 24.1778L60.3754 22.4994C61.1077 21.5231 62.1203 20.7932 63.2781 20.4073L65.2377 19.7541C65.7437 19.5855 66.2248 19.3501 66.6686 19.0543L70.8356 16.2763C71.6016 15.7656 72.4748 15.4381 73.3877 15.319L82.9746 14.0685C83.3242 14.0229 83.6691 13.9466 84.0053 13.8404L91.2796 11.5433C92.4017 11.1889 93.6033 11.1724 94.7347 11.4956L95.0362 11.5818C95.9968 11.8562 97.0108 11.8865 97.9861 11.6698L99.7636 11.2747C100.579 11.0936 101.423 11.0846 102.242 11.2484L109.499 12.6998C110.207 12.8413 110.536 13.6628 110.122 14.2539L108.695 16.2927C107.921 17.3985 106.797 18.211 105.504 18.5989L104.079 19.0262C103.046 19.3363 101.947 19.3618 100.9 19.1L98.195 18.4238C97.088 18.147 95.925 18.1917 94.8425 18.5525L93.3437 19.0521C92.4601 19.3466 91.6571 19.8429 90.9984 20.5016L86.2529 25.2471C85.4351 26.0649 84.3983 26.6289 83.2674 26.8713L79.0298 27.7793C78.3485 27.9253 77.6978 28.1889 77.1069 28.5582L74.6054 30.1216C74.2032 30.373 73.7727 30.5758 73.3227 30.7257L70.3808 31.7064C69.7971 31.901 69.2467 32.1842 68.7491 32.5461L59.3903 39.3525C58.8017 39.7806 58.2959 40.3122 57.8975 40.9214L50.0001 53L49.0672 43.6716Z" fill="#228B22"/>
<path d="M51.2721 1.5787C52.0157 0.622717 53.2611 0.207573 54.4295 0.526235L57.2436 1.29372C57.7395 1.42897 58.2619 1.43452 58.7606 1.30985L63.1525 0.211879C63.706 0.0735003 64.2875 0.0958328 64.8288 0.276257L68.0382 1.34605C68.344 1.44802 68.6315 1.59863 68.8895 1.7921L71.7 3.9C72.2193 4.28947 72.8509 4.5 73.5 4.5H77.2574C78.053 4.5 78.8161 4.18393 79.3787 3.62132L81.3515 1.64853C82.2619 0.73807 83.7381 0.738072 84.6485 1.64853C85.4344 2.43435 85.5563 3.6656 84.9398 4.59027L84.4826 5.27604C84.1674 5.74894 83.7243 6.12255 83.2049 6.35338L80.0709 7.74627C79.6943 7.91363 79.3563 8.15677 79.0778 8.46053L74.8918 13.0272C74.3235 13.6471 73.5212 14 72.6803 14H71.831C71.2872 14 70.7537 14.1478 70.2875 14.4275L69.301 15.0194C68.7794 15.3324 68.3652 15.7966 68.1134 16.3504L66.3645 20.1981C66.1265 20.7216 65.7431 21.1658 65.2598 21.4776L53.7063 28.9314C52.0733 29.9849 49.8849 29.2316 49.2465 27.3961L43.3399 10.4148C42.8559 9.02334 43.454 7.48633 44.7511 6.78785L48.4428 4.80004C48.8102 4.60219 49.1323 4.32986 49.3885 4.00045L51.2721 1.5787Z" fill="#006622"/>
<path d="M29 158.5L35.5 155.5L48.5 154L46.5 163.5L43 168.5L35.5 171L22.5 173L23.5 164L29 158.5Z" fill="#006622"/>
<path d="M17.7733 160.838L20.0455 167.846L19.082 183.112L10.1662 181.03L5.48436 177.432L3.16857 169.756L1.34651 156.461L9.79694 157.519L17.7733 160.838Z" fill="#006622"/>
<path d="M10 138.5L18 132.5L26 138.5L27.5 142.5L31 152V161L29 167L22 177L13 167L10 157L8 148L10 138.5Z" fill="#37B883"/>
<path d="M7.41124 117.06L9.74313 108.225L16.6941 109.758L18.9406 111.765L22.8415 117.123L26.7927 120.853L29.1963 127.235L28.0638 132.39L21.0761 131.148L14.6193 127.332L10.041 122.303L7.41124 117.06Z" fill="#228B22"/>
<path d="M12.9658 68.188C12.174 67.9109 12.0548 66.8408 12.7661 66.3962L21.5257 60.9214C22.4805 60.3247 23.6088 60.0676 24.7279 60.192L40.42 61.9356C40.8054 61.9784 41.1844 62.0659 41.5495 62.1963L45.7861 63.7093C47.1884 64.2101 48.2945 65.3099 48.8034 66.7093L49.3106 68.1041C49.7529 69.3204 49.7063 70.6608 49.1807 71.8435L48 74.5L44.5 82L31.3733 74.7074C31.1249 74.5694 30.8651 74.4528 30.5969 74.3589L12.9658 68.188Z" fill="#37B883"/>
<path d="M22.6048 88.2188C22.9207 88.074 23.2594 87.9852 23.6057 87.9564L34.4686 87.0511C34.8735 87.0174 35.281 87.0662 35.6664 87.1947L42.9949 89.6375C43.6951 89.871 44.2847 90.3543 44.6509 90.9952L45.2318 92.0116C45.7588 92.9339 45.7588 94.0661 45.2318 94.9884L44.5329 96.2114C44.2391 96.7256 43.7996 97.1413 43.2698 97.4062L41.3183 98.382C40.5608 98.7607 40.0823 99.535 40.0823 100.382C40.0823 101.086 39.7509 101.749 39.1878 102.171L35.0915 105.243C34.4461 105.727 33.6328 105.931 32.8354 105.808L28.3416 105.117C27.8434 105.04 27.334 105.09 26.8602 105.263L23.6496 106.43C22.675 106.784 21.5864 106.61 20.7709 105.97L15.6112 101.916C15.2629 101.642 14.9795 101.295 14.7814 100.898L11.0823 93.5L22.6048 88.2188Z" fill="#006622"/>
<path d="M41 98.4932L27.4934 95.5333L11 93.4932" stroke="#8A6351"/>
<path d="M19.4824 175.656L27.9533 189.161C28.1925 189.542 28.4821 189.89 28.8143 190.194L41.0797 201.413C41.5071 201.804 41.8633 202.266 42.1324 202.779L44.4698 207.233C45.3507 208.912 47.1054 209.948 49.0009 209.908L50.3301 209.881C52.0877 209.844 53.7353 210.734 54.6695 212.223L56.2265 214.705C57.0764 216.06 58.5232 216.927 60.1189 217.037L65.6881 217.42L71.1973 217.579C71.9509 217.601 72.6997 217.452 73.3876 217.143L80.945 213.754C81.7804 213.38 82.4969 212.783 83.0164 212.029L85.5421 208.362C86.0212 207.667 86.7282 207.161 87.5409 206.931V206.931C88.5088 206.658 89.3196 205.994 89.779 205.1L94.1834 196.522C94.7863 195.348 94.9005 193.984 94.5012 192.726L91.0573 181.875C90.7116 180.786 90.0032 179.848 89.0501 179.218L78.2562 172.078C77.6029 171.646 76.8572 171.373 76.0793 171.282L66.8333 170.2C66.442 170.154 66.0467 170.154 65.6555 170.201L62.8306 170.541C61.6055 170.688 60.3693 170.377 59.3597 169.667L57.9313 168.663C57.0332 168.032 55.9523 167.714 54.8556 167.758L43.6711 168.208C43.2285 168.226 42.7902 168.303 42.3678 168.436L19.4824 175.656Z" fill="#228B22"/>
<path d="M62.6783 222.158C62.6049 221.449 62.6839 220.733 62.9101 220.057L62.9769 219.857C63.6417 217.87 62.9973 215.68 61.3627 214.369L59.4887 212.867C58.6253 212.175 57.5568 211.789 56.4505 211.769L52.2293 211.694C51.9239 211.688 51.6198 211.654 51.3209 211.591L49.8895 211.291C48.2852 210.954 47.1924 209.462 47.3544 207.831C47.4901 206.465 46.7416 205.163 45.4923 204.593L39.338 201.785C38.0881 201.214 36.6586 201.183 35.3853 201.699L32.1732 203C30.8881 203.521 29.8768 204.551 29.3809 205.846L28.187 208.964C27.6164 210.454 27.7912 212.127 28.6575 213.467L30.2732 215.966C30.4337 216.214 30.6158 216.447 30.8175 216.663L34.496 220.603C35.0462 221.192 35.7308 221.64 36.4913 221.907L43.5764 224.399L49.2894 226.296C49.947 226.514 50.6428 226.593 51.3326 226.528L57.8783 225.913C58.1984 225.883 58.5206 225.883 58.8405 225.915L63.1112 226.339L62.6783 222.158Z" fill="#37B883"/>
<path d="M118.885 214.538C119.422 214.477 119.965 214.563 120.457 214.786L128.468 218.41L132.998 220.856C133.84 221.31 134.415 222.139 134.545 223.087L135.626 230.951C135.738 231.761 134.884 232.355 134.164 231.969L126.246 227.729C126.049 227.623 125.841 227.54 125.625 227.481L115.257 224.631C114.996 224.559 114.752 224.435 114.54 224.266L112.43 222.583C112.071 222.297 111.782 221.932 111.586 221.516L110.643 219.514C110.194 218.561 110.277 217.442 110.864 216.566L110.904 216.506C111.395 215.773 112.184 215.293 113.061 215.194L118.885 214.538Z" fill="#006622"/>
<path d="M133.698 217.228C134.663 216.836 135.725 216.754 136.738 216.995L174.926 226.073C176.275 226.394 177.43 227.26 178.115 228.465L185.459 241.377C186.311 242.875 186.332 244.707 185.513 246.224L185.115 246.961C184.222 248.615 182.477 249.628 180.599 249.584L177.405 249.51C176.128 249.48 174.91 248.963 174.003 248.064L170.017 244.116C169.287 243.392 168.351 242.912 167.338 242.739L160.058 241.5C159.353 241.38 158.681 241.11 158.089 240.708L139.537 228.114C138.823 227.63 137.997 227.339 137.137 227.268L125.01 226.274L115.75 226.623C114.632 226.665 114.299 225.119 115.336 224.697L133.698 217.228Z" fill="#228B22"/>
<path d="M110.356 175.926C111.415 175.008 112.82 174.595 114.207 174.796C117.21 175.231 119.069 178.299 118.065 181.162L115.606 188.18C115.336 188.95 115.258 189.774 115.38 190.581L115.641 192.304C115.827 193.538 115.546 194.796 114.851 195.833L106.592 208.169C106.367 208.504 106.184 208.866 106.046 209.245L102.43 219.211C102.141 220.009 101.534 220.652 100.755 220.988C99.6987 221.442 98.4775 221.27 97.5883 220.541L97.2758 220.285C96.0482 219.279 95.589 217.608 96.1304 216.116L99.206 207.64C99.4033 207.096 99.5047 206.523 99.5059 205.944L99.5343 191.729C99.5369 190.437 100.039 189.197 100.936 188.267L103.003 186.125C103.584 185.523 104.005 184.785 104.227 183.978L104.813 181.846C105.074 180.894 105.612 180.041 106.358 179.394L110.356 175.926Z" fill="#228B22"/>
<path d="M84.6757 171.804C86.0665 171.744 87.4191 172.267 88.4081 173.247L92.823 177.62C93.1909 177.985 93.4999 178.404 93.739 178.863L96.1445 183.482C97.1295 185.374 96.8065 187.681 95.3402 189.23L93.2047 191.485C92.3917 192.343 91.9092 193.462 91.8429 194.642L91.6881 197.397C91.616 198.681 90.9057 199.843 89.7962 200.493C88.0751 201.501 87.4132 203.659 88.2732 205.459L88.8312 206.626C89.1528 207.299 89.3198 208.036 89.3199 208.782L89.3202 210.991C89.3202 211.525 89.4058 212.056 89.5736 212.562L90.5022 215.367C91.1551 217.339 90.5207 219.509 88.9085 220.819L88.2487 221.355L82.9146 217.036C81.9781 216.277 80.7993 215.883 79.595 215.925L68.633 216.304C66.3886 216.382 64.4349 214.783 64.0679 212.567C63.7526 210.664 64.6942 208.773 66.4032 207.877L67.9342 207.075C70.1334 205.922 70.4082 202.883 68.4514 201.355C67.8381 200.876 67.4067 200.202 67.2285 199.445L66.5566 196.589C66.245 195.265 66.4865 193.871 67.2254 192.729L70.178 188.164C71.0009 186.891 71.2025 185.315 70.7263 183.876L70.2554 182.454C69.9451 181.517 69.9192 180.509 70.1808 179.557L71.1989 175.854C71.7746 173.759 73.6365 172.276 75.8064 172.183L84.6757 171.804Z" fill="#37B883"/>
<path d="M125.261 180.351C125.732 179.623 126.844 179.799 127.067 180.637L127.83 183.507C128.116 184.584 128.753 185.534 129.641 186.207L131.158 187.357C132.067 188.047 132.713 189.026 132.988 190.133L134.656 196.826C134.739 197.16 134.857 197.485 135.007 197.795L137.824 203.619C138.769 205.573 138.346 207.914 136.775 209.413L136.194 209.968C135.539 210.594 135.065 211.386 134.825 212.26L134.676 212.802C134.408 213.777 133.851 214.648 133.077 215.3L127.856 219.7C127.191 220.26 126.391 220.638 125.536 220.795L111.004 223.462L114.805 218.696C115.422 217.921 115.796 216.98 115.878 215.992L116.3 210.91C116.383 209.923 116.756 208.982 117.374 208.207L117.871 207.584C118.477 206.823 118.849 205.903 118.94 204.934L119.54 198.54C119.584 198.066 119.696 197.6 119.873 197.158L120.898 194.582C121.151 193.946 121.271 193.265 121.25 192.581L121.123 188.379C121.092 187.364 121.371 186.364 121.923 185.512L125.261 180.351Z" fill="#37B883"/>
<path d="M114.706 236.406L123.542 247.65L126.194 258.75L127.92 273.225L126.185 285.193L121.835 289.701L117.459 284.869L118.785 280.048L115.855 275.613L117.976 267.899L114.082 263.199L115.275 258.86L114.889 254.605L115.43 246.976L114.706 236.406Z" fill="#228B22"/>
<path d="M104.376 226.825C105.108 224.162 107.859 222.597 110.522 223.329L113.401 224.121C114.353 224.382 115.206 224.92 115.853 225.665L127.856 239.502L137.675 250.619C137.982 250.967 138.235 251.358 138.427 251.78C139.226 253.539 138.862 255.608 137.509 256.988L136.15 258.375L133.212 261.035C132.022 262.112 130.387 262.553 128.817 262.219L124.425 261.285C123.487 261.086 122.627 260.621 121.946 259.947L117.319 255.364C116.759 254.809 116.339 254.131 116.091 253.383L114.515 248.624C114.308 247.997 113.978 247.418 113.546 246.919L111.312 244.345C110.88 243.846 110.55 243.267 110.343 242.64L109.497 240.087C109.16 239.068 108.335 238.284 107.299 238C106.231 237.706 105.39 236.883 105.072 235.821L104.342 233.377C104.269 233.131 104.214 232.88 104.179 232.627L103.853 230.252C103.761 229.582 103.806 228.899 103.985 228.246L104.376 226.825Z" fill="#37B883"/>
<path d="M90.7917 221.536L99.2894 226.464L100.002 242.735L104.234 253.751L104.284 272.432L102.189 289.487L98.5859 293.163L93.3306 289.644L92.7387 278.592L95.1241 269.914L93.4835 257.018L91.8063 240.482L90.7917 221.536Z" fill="#006622"/>
<path d="M83.8503 227.924L89.1902 233.022L91.891 242.061L98.7984 252.775L97.1487 266.322L90.9657 266.178L86.06 263.274L81.9014 259.538L83.6242 253.271L81.9356 242.436L83.8503 227.924Z" fill="#37B883"/>
<path d="M-0.803414 258.584L5.39095 253.027L13.6943 245.457L30.639 236.632L53.1321 228.547L78.9558 219.319L90.5546 220.685L115.906 223.253L116.36 225.201L91.0088 222.632L79.4101 221.267L53.5864 230.495L31.0933 238.58L14.1486 247.404L6.92185 255.003L6.46479 264.211L-1.73094 261.958L-0.803414 258.584Z" fill="#47342B"/>
<path d="M39.0074 220.257C39.7548 219.622 40.6726 219.22 41.6464 219.102L46.3832 218.53C47.5378 218.391 48.705 218.658 49.6838 219.286L53.8376 221.953L58.7358 225.366C59.3727 225.81 59.2829 226.779 58.5753 227.098L51.6748 230.212C50.4229 230.777 48.9938 230.802 47.7229 230.281L45.6692 229.44C45.1105 229.211 44.5149 229.085 43.9113 229.068L41.5161 229.003C39.9397 228.959 38.4874 228.137 37.6395 226.807V226.807C36.3628 224.805 36.7593 222.168 38.5682 220.63L39.0074 220.257Z" fill="#006622"/>
<path d="M69.253 206.169C70.3781 205.686 71.6415 205.632 72.8036 206.018L75.5293 206.924C76.8744 207.37 77.9667 208.367 78.5344 209.666L80.3367 213.789L82.6967 219.802C82.9422 220.428 82.5134 221.112 81.8435 221.165L75.7744 221.638C74.0027 221.776 72.2908 220.963 71.2778 219.503L70.7099 218.684C70.2843 218.071 69.7267 217.561 69.0781 217.191L68.093 216.629C66.5672 215.759 65.6097 214.153 65.5705 212.397L65.5431 211.169C65.4977 209.131 66.6945 207.269 68.5676 206.464L69.253 206.169Z" fill="#006622"/>
<path d="M57.8981 251.882C58.922 250.251 58.9186 248.177 57.8892 246.55L57.2274 245.504C56.4411 244.261 56.242 242.735 56.683 241.332L58.8132 234.554C59.1982 233.329 60.0395 232.299 61.163 231.678L66.0771 228.959L77.1209 221.675C77.5311 221.404 78.0771 221.472 78.409 221.834L80.4723 224.087C81.108 224.781 81.9268 225.282 82.8344 225.531L85.2493 226.195C86.658 226.582 87.8268 227.566 88.4486 228.888L90.8184 233.926C91.139 234.608 91.3014 235.353 91.2937 236.106L91.2184 243.426C91.2143 243.819 91.2565 244.21 91.3438 244.592L92.6156 250.156C92.8701 251.269 92.7358 252.436 92.235 253.462L87.8927 262.362C87.6943 262.769 87.4416 263.146 87.1415 263.485L82.8168 268.366C82.1093 269.165 81.1649 269.716 80.1216 269.94L69.7348 272.165C68.89 272.346 68.0126 272.305 67.1883 272.046L59.8156 269.728C58.3807 269.278 57.2251 268.205 56.669 266.807L54.449 261.227C53.8593 259.745 54.0121 258.071 54.8603 256.72L57.8981 251.882Z" fill="#228B22"/>
<path d="M76 336.141L81.7769 331.545L91.0995 330.099L102.654 324.715L115.851 328.193L114.866 334.298L111.322 338.763L107.055 342.375L101.08 339.815L90.1159 340.013L76 336.141Z" fill="#37B883"/>
<path d="M82.666 268.292C82.4175 269.272 81.8781 270.153 81.1188 270.819L72.0542 278.779C71.1565 279.568 70.0063 280.008 68.8117 280.022L57.5617 280.15L44.2066 279.791C43.4436 279.77 42.9839 278.937 43.3736 278.28L52.6327 262.684C53.3577 261.463 54.5677 260.608 55.9607 260.332L62.8685 258.964C63.4781 258.843 64.0598 258.61 64.5839 258.276L70.9568 254.215C72.3691 253.315 74.1382 253.182 75.6693 253.86L81.392 256.396C83.6207 257.384 84.8124 259.834 84.2128 262.197L82.666 268.292Z" fill="#006622"/>
<path d="M52.0292 433.589C51.5062 432.697 51.273 431.664 51.3617 430.633L53.1027 410.405C53.1467 409.895 53.2689 409.394 53.4652 408.92L59.8986 393.396C60.1302 392.837 60.4614 392.325 60.8761 391.884L81.6133 369.844C82.1573 369.266 83.1259 369.522 83.3133 370.293L91.5804 404.324C91.8518 405.441 91.73 406.617 91.2354 407.655L83.0946 424.737C82.9504 425.039 82.837 425.356 82.756 425.681L79.5734 438.478C79.1664 440.115 77.9615 441.436 76.3691 441.992L64.1319 446.264C61.8758 447.051 59.3779 446.132 58.1699 444.07L52.0292 433.589Z" fill="#006622"/>
<path d="M52.0292 433.589C51.5062 432.697 51.273 431.664 51.3617 430.633L53.1027 410.405C53.1467 409.895 53.2689 409.394 53.4652 408.92L59.8986 393.396C60.1302 392.837 60.4614 392.325 60.8761 391.884L81.6133 369.844C82.1573 369.266 83.1259 369.522 83.3133 370.293L91.5804 404.324C91.8518 405.441 91.73 406.617 91.2354 407.655L83.0946 424.737C82.9504 425.039 82.837 425.356 82.756 425.681L79.5734 438.478C79.1664 440.115 77.9615 441.436 76.3691 441.992L64.1319 446.264C61.8758 447.051 59.3779 446.132 58.1699 444.07L52.0292 433.589Z" fill="#006622"/>
<path d="M46.6013 284.913C47.1058 285.399 47.505 285.993 47.7725 286.657L48.1412 287.571C48.9299 289.528 50.7973 290.744 52.8264 290.621L57.3698 290.345C57.7484 290.322 58.1238 290.253 58.4885 290.138L63.3051 288.628C63.9401 288.429 64.6047 288.367 65.2586 288.446L68.5922 288.85C69.0979 288.911 69.5897 289.058 70.0489 289.283V289.283C71.4737 289.984 73.1472 289.89 74.5183 289.034L82.166 284.256C82.9945 283.739 83.6641 282.978 84.091 282.069L86.3802 277.196C86.982 275.915 87.0566 274.438 86.5864 273.115L85.0241 268.722C84.4856 267.208 83.2926 266.064 81.809 265.64L78.1646 264.599C77.8882 264.52 77.6053 264.467 77.3192 264.441L71.0801 263.869C70.2959 263.797 69.5038 263.927 68.7716 264.248L60.8286 267.729L54.5043 270.641C53.8777 270.929 53.3132 271.352 52.8471 271.881L47.6741 277.756C47.4579 278.001 47.2198 278.224 46.9633 278.422L43.0163 281.466L46.6013 284.913Z" fill="#37B883"/>
<path d="M125.26 379.483C124.872 379.608 124.466 379.654 124.065 379.618L101.667 377.616L87.3144 375.561C86.4382 375.436 85.6755 374.925 85.2323 374.168L76.1866 358.714C75.7649 357.994 76.3895 357.08 77.2237 357.198L101.51 360.612C101.674 360.635 101.84 360.644 102.006 360.64L129.313 359.9C129.517 359.895 129.72 359.921 129.915 359.977L137.503 362.173C137.889 362.284 138.246 362.474 138.552 362.73L143.629 366.979C144.634 367.819 144.943 369.241 144.388 370.469L143.446 372.554C143.082 373.359 142.391 373.976 141.553 374.246L125.26 379.483Z" fill="#006622"/>
<path d="M87.4991 337.425C88.5845 337.667 89.7245 337.523 90.7333 337.017L114.594 325.026C115.927 324.355 116.91 323.113 117.272 321.639L119.773 311.466C120.141 309.97 119.801 308.395 118.857 307.219V307.219C117.739 305.827 115.947 305.207 114.211 305.611L113.432 305.793C112.066 306.111 110.885 307.007 110.181 308.259L108.787 310.738C108.222 311.742 107.345 312.525 106.3 312.958L102.394 314.577C101.659 314.881 101.002 315.36 100.48 315.975L90.4278 327.781C89.7971 328.522 88.975 329.064 88.06 329.342L80.2343 331.719L74.8624 332.59C73.7811 332.765 73.7101 334.344 74.7728 334.581L87.4991 337.425Z" fill="#228B22"/>
<path d="M134.001 353.091C135.227 353.857 136.083 355.098 136.354 356.501L136.588 357.709C137.188 360.805 134.823 363.588 131.675 363.49L122.644 363.209C121.79 363.183 120.951 363.374 120.205 363.765L118.231 364.801C117.09 365.399 115.745 365.522 114.483 365.143L98.0232 360.197C97.6152 360.074 97.1949 360.003 96.7723 359.985L84.8694 359.479C83.8424 359.435 82.868 358.961 82.1874 358.173V358.173C81.3231 357.173 81.0485 355.805 81.468 354.589L81.6175 354.155C82.234 352.368 83.9465 351.214 85.863 351.296L95.885 351.722C96.492 351.748 97.095 351.664 97.6648 351.474L112.996 346.358C114.265 345.935 115.668 346.046 116.887 346.666L120.227 348.367C121.015 348.767 121.887 348.96 122.758 348.924L125.481 348.812C126.506 348.77 127.529 349.044 128.411 349.595L134.001 353.091Z" fill="#228B22"/>
<path d="M3.76917 257.754L12.0203 262.708L30.4999 267.881L46.3089 283.696L60 303.5L75.7731 333.004L78.7415 346.46L85.6699 375.723L83.7774 376.922L76.8491 347.66L73.8807 334.204L58.1075 304.7L44.4164 284.896L28.6075 269.081L10.5073 265.122L-0.162665 267.881L-0.162697 257.916L3.76917 257.754Z" fill="#47342B"/>
<path d="M144.483 379.715C144.758 379.793 144.99 379.982 145.122 380.235L147.803 385.36C149.039 387.722 148.253 390.576 146.006 391.884L135.5 398L122.5 403.46L113.015 406.055C111.739 406.403 110.361 406.226 109.184 405.562L106.282 403.925C105.56 403.517 104.742 403.318 103.925 403.351V403.351C102.294 403.418 100.735 402.562 99.8943 401.138L93.0593 389.559L83.9853 372.826L90.5607 375.436C91.54 375.824 92.607 375.903 93.6126 375.659L99.3302 374.277C100.336 374.033 101.403 374.112 102.382 374.5L103.44 374.92C104.402 375.302 105.448 375.384 106.438 375.157L113.552 373.522C114.038 373.41 114.541 373.372 115.044 373.41L119.357 373.735L134.04 376.744L144.483 379.715Z" fill="#37B883"/>
<path d="M103.94 317.462C103.86 318.462 103.495 319.413 102.893 320.194L96.9714 327.874C96.2575 328.799 95.2513 329.434 94.1275 329.667L85.3969 331.478L74.9821 333.214C74.2328 333.338 73.6301 332.571 73.9016 331.837L79.029 317.991C79.5141 316.682 80.5022 315.643 81.7587 315.122L86.7127 313.067C87.2647 312.838 87.771 312.506 88.2068 312.088L92.3896 308.077C93.5827 306.933 95.2512 306.483 96.8414 306.876L100.495 307.779C102.874 308.367 104.489 310.674 104.285 313.193L103.94 317.462Z" fill="#006622"/>
<path d="M31.5562 315.976C33.4964 316.494 35.5612 315.791 36.7945 314.192L37.9055 312.752C38.8516 311.525 40.3072 310.805 41.8487 310.8L50.2725 310.774C51.5521 310.77 52.7824 311.26 53.7089 312.143L58.7121 316.911L71.2562 327.177C71.3584 327.26 71.4429 327.363 71.5049 327.48L73.5414 331.315C74.6753 333.45 74.1222 336.1 72.2279 337.609L69.1413 340.068L62.8078 346.401C62.2458 346.963 61.5593 347.383 60.805 347.626L52.9081 350.176C52.5144 350.303 52.1377 350.479 51.7867 350.699L46.237 354.181C45.2227 354.818 44.0162 355.069 42.8367 354.888L31.5123 353.157C31.0623 353.089 30.624 352.958 30.2097 352.77L23.0166 349.499C22.0814 349.074 21.3011 348.368 20.7822 347.478L14.1353 336.083C13.7219 335.374 13.489 334.573 13.4572 333.75L13.0808 323.994C13.0224 322.479 13.6494 321.017 14.7864 320.016L20.2037 315.247C21.458 314.143 23.1754 313.738 24.7824 314.167L31.5562 315.976Z" fill="#228B22"/>
<path d="M30.7698 382.302C31.9997 381.739 32.9485 380.696 33.3985 379.414L35.8848 372.331C36.2204 371.375 36.8364 370.544 37.6516 369.949L50.4203 360.616C51.4008 359.899 52.6078 359.567 53.8154 359.682L61.69 360.429L79.1297 360.416C79.7604 360.415 80.2339 360.997 80.1092 361.618L78.9801 367.25C78.7868 368.214 78.8796 369.214 79.2469 370.125L80.8522 374.111C81.3684 375.393 81.3361 376.831 80.7631 378.086L75.571 389.46C75.3584 389.926 75.076 390.356 74.7336 390.735L64.8473 401.691C64.6712 401.886 64.5107 402.095 64.3673 402.316L57.5169 412.853C57.0821 413.522 56.4943 414.076 55.8026 414.47L39.9667 423.48C39.6272 423.673 39.2664 423.825 38.8915 423.934L28.8914 426.826C27.6319 427.19 26.2797 427.04 25.1276 426.409L14.4469 420.557C13.3627 419.963 12.5355 418.986 12.1251 417.815L8.59159 407.73C8.13641 406.431 8.23191 405.002 8.85571 403.778L15.6641 390.413C16.1754 389.409 17.0087 388.609 18.0291 388.141L30.7698 382.302Z" fill="#228B22"/>
<path d="M81.2524 354.942L75.1694 372.374L59.4805 374.887L48.0627 384.42L27.3512 389.9L8.03844 391.691L3.27918 387.351L6.18819 378.452L17.1708 364.238L27.2475 365.305L41.2412 359.114L62.0521 357.454L81.2524 354.942Z" fill="#006622"/>
<path d="M79.159 367.205C81.9181 367.092 84.3187 369.233 84.5208 371.987L84.8736 376.792C84.9429 377.737 84.742 378.673 84.2942 379.492L74.0276 398.265L65.9317 413.391C65.7027 413.819 65.4105 414.208 65.0644 414.547L64.9592 414.65C63.4463 416.132 61.1197 416.452 59.1836 415.445L57.1421 414.382L52.816 411.794C51.4493 410.976 50.5268 409.579 50.3246 408.02L49.5252 401.856C49.4071 400.945 49.5416 400.028 49.9141 399.204L53.2321 391.864C53.5505 391.159 54.0333 390.544 54.6414 390.069L59.3497 386.389C59.8612 385.989 60.285 385.49 60.5967 384.92L62.6393 381.185C62.951 380.615 63.3748 380.115 63.8864 379.716L66.3363 377.801C67.3275 377.026 67.8619 375.806 67.7683 374.532V374.532C67.6717 373.216 68.2446 371.962 69.2927 371.194L71.5854 369.513C71.7949 369.359 72.0168 369.223 72.249 369.105L74.7632 367.828C75.3876 367.51 76.0769 367.331 76.7852 367.302L79.159 367.205Z" fill="#37B883"/>
<path d="M76.3394 338L72.8666 345.81L64.0778 352.069L55.1013 363.644L39.7145 366.634L37.4676 359.648L38.7216 353.109L41.1713 347.11L48.6629 346.803L59.8 341.037L76.3394 338Z" fill="#37B883"/>
<path d="M52.7601 297.567C52.2859 297.035 51.9311 296.407 51.7192 295.727L51.6567 295.526C51.0341 293.525 49.2304 292.125 47.1381 292.018L44.7395 291.895C43.6344 291.839 42.5418 292.15 41.6328 292.781L38.1646 295.189C37.9137 295.363 37.6468 295.513 37.3677 295.637L36.0308 296.23C34.5324 296.895 32.7739 296.324 31.9514 294.906V294.906C31.2623 293.718 29.8941 293.1 28.5473 293.368L21.9127 294.689C20.5653 294.957 19.3876 295.768 18.6562 296.931L16.8114 299.865C16.0733 301.039 15.8557 302.466 16.2106 303.807L17.0652 307.034C17.4736 308.576 18.5937 309.831 20.0801 310.411L22.852 311.493C23.1273 311.601 23.4116 311.684 23.7015 311.741L28.9892 312.786C29.7802 312.942 30.5971 312.905 31.3705 312.677L38.5754 310.556L44.3186 308.753C44.9797 308.545 45.5904 308.203 46.1121 307.747L51.0619 303.42C51.304 303.208 51.5659 303.02 51.844 302.859L55.5563 300.706L52.7601 297.567Z" fill="#37B883"/>
<path d="M36.4565 307.362C36.6911 306.409 37.2008 305.547 37.922 304.882L41.4298 301.648C42.2849 300.859 43.3881 300.394 44.5494 300.331L49.4781 300.065L55.4479 299.97C56.2242 299.957 56.7178 300.796 56.3305 301.469L52.5536 308.03C51.8684 309.22 50.7237 310.076 49.3883 310.397L47.2304 310.915C46.6433 311.056 46.0866 311.302 45.5873 311.642L43.6057 312.989C42.3015 313.876 40.6425 314.058 39.1771 313.475V313.475C36.9709 312.598 35.7505 310.227 36.3185 307.921L36.4565 307.362Z" fill="#006622"/>
<path d="M55.2707 261.359C54.3809 261.464 53.5356 261.806 52.8233 262.349L48.0473 265.994C47.1962 266.643 46.576 267.549 46.278 268.577L44.728 273.925L43.2004 280.037C43.0028 280.827 43.7829 281.51 44.5401 281.209L52.7545 277.942C53.9081 277.484 54.8498 276.612 55.3964 275.497L56.7174 272.803C56.9607 272.307 57.2845 271.855 57.6756 271.465L60.0089 269.137C61.0638 268.085 61.5487 266.59 61.3122 265.119V265.119C60.9177 262.665 58.6592 260.959 56.1915 261.25L55.2707 261.359Z" fill="#228B22"/>
</svg>
