<svg width="258" height="434" viewBox="0 0 258 434" fill="none" xmlns="http://www.w3.org/2000/svg">
<g filter="url(#filter0_d)">
<path d="M196.938 115.135C197.58 114.401 197.444 113.272 196.647 112.71C195.959 112.225 195.016 112.338 194.462 112.972L184.971 123.835L175.856 136.765L170.554 142.852L165.252 148.939L155.18 160.659C154.548 161.396 154.687 162.517 155.48 163.076C156.173 163.565 157.124 163.447 157.676 162.804L167.954 150.844L178.558 138.669L187.673 125.739L196.938 115.135Z" fill="#47342B"/>
<path d="M163.872 167.116L160.971 174.149C160.662 174.898 160.175 175.561 159.553 176.081L146.435 187.028C146.195 187.229 145.937 187.406 145.664 187.558L127.426 197.715L108.254 206.275C106.579 207.023 104.628 206.793 103.172 205.676L91.2091 196.5C89.4508 195.151 88.79 192.806 89.5855 190.738L95.075 176.466C95.3719 175.694 95.8556 175.008 96.4828 174.469L107.197 165.261C107.399 165.087 107.614 164.93 107.841 164.791L119.509 157.633C120.045 157.305 120.637 157.08 121.256 156.971L128.51 155.693C129.059 155.596 129.588 155.408 130.075 155.137L148.366 144.951C149.11 144.537 149.947 144.319 150.799 144.319L168.279 144.319C169.629 144.319 170.591 145.628 170.188 146.916L163.872 167.116Z" fill="#228B22"/>
<path d="M59.3426 329.742C59.3693 330.094 59.4332 330.442 59.5331 330.78L60.9085 335.436C61.1494 336.251 61.1783 337.115 60.9926 337.944L58.3727 349.651C58.2991 349.98 58.1923 350.3 58.0541 350.608L51.8555 364.403L44.6714 377.02C43.7453 378.646 41.9886 379.619 40.1187 379.542L29.6097 379.105C27.5171 379.018 25.7004 377.636 25.0582 375.643L21.8214 365.596C21.556 364.772 21.509 363.893 21.6848 363.046L23.6862 353.404C23.7445 353.123 23.827 352.848 23.9326 352.581L27.4499 343.692C27.6985 343.064 28.0719 342.492 28.5475 342.012L31.952 338.577C32.3738 338.151 32.7156 337.653 32.9611 337.107L38.661 324.422C39.2079 323.204 40.2187 322.256 41.4684 321.788L55.768 316.434C57.0157 315.967 58.3628 316.827 58.4636 318.156L59.3426 329.742Z" fill="#228B22"/>
<path d="M164.486 334.829L158.435 329.484C158.052 329.147 157.714 328.761 157.43 328.338L150.794 318.48L134.359 297.5L122.002 281.103C121.218 280.063 120.794 278.795 120.794 277.492L120.794 257.13C120.794 256.711 120.838 256.293 120.925 255.884L126.206 231.02L128 214L128.953 193.035C128.984 192.35 128.898 191.665 128.698 191.009L118 156L106.812 121.989C106.483 120.988 107.724 120.225 108.469 120.969L112 124.5L133.987 190.879C134.233 191.619 134.331 192.4 134.278 193.178L132.707 216L131.74 230.515C131.718 230.851 131.667 231.185 131.589 231.512L126.379 253.297C126.264 253.777 126.209 254.27 126.215 254.763L126.476 276.937C126.492 278.286 126.962 279.591 127.811 280.64L141.065 297.02L154.444 314.926C154.481 314.975 154.515 315.022 154.551 315.073C155.112 315.869 160.163 322.99 163.761 326.457C166.224 328.831 176 337 176 337L174 342.5L164.486 334.829Z" fill="#47342B"/>
<path d="M112.113 149.407L110.649 151.461C110.211 152.077 109.638 152.585 108.975 152.947L103.264 156.068C103.017 156.203 102.759 156.317 102.492 156.408L94.1839 159.265L86.9569 161.125C85.234 161.568 83.4054 161.062 82.1549 159.797L81.0064 158.635C79.3287 156.938 79.0846 154.291 80.4236 152.315L82.1746 149.732C82.6085 149.091 83.185 148.56 83.8588 148.181L88.4306 145.604C88.64 145.486 88.8576 145.383 89.0818 145.297L93.9948 143.396C94.5249 143.191 95.086 143.078 95.6541 143.062L97.9437 142.996C98.4482 142.981 98.9477 142.89 99.425 142.726L107.002 140.121C107.737 139.868 108.521 139.79 109.292 139.893L117.103 140.94L112.113 149.407Z" fill="#37B883"/>
<path d="M125.076 143.875L127.142 144.328C127.948 144.505 128.785 144.479 129.579 144.254L134.728 142.791C135.038 142.703 135.338 142.586 135.624 142.44L142.372 139.017L147.488 135.809C149.054 134.826 149.951 133.06 149.819 131.216L149.692 129.447C149.537 127.282 148.003 125.464 145.894 124.947L143.156 124.277C142.339 124.077 141.485 124.086 140.672 124.304L136.551 125.409C136.287 125.479 136.028 125.572 135.779 125.685L131.879 127.456C131.291 127.722 130.761 128.1 130.317 128.569L129.2 129.746C128.807 130.162 128.344 130.507 127.834 130.766L122.031 133.709C121.253 134.103 120.592 134.695 120.114 135.424L116.363 141.136L125.076 143.875Z" fill="#37B883"/>
<path d="M169.146 132.735C169.067 131.248 170.25 130 171.738 130V130C173.119 130 174.258 131.08 174.331 132.458L176.8 178.762V227.525L178.1 252.277L179.4 277.03L183 356L171.6 352.5L174.2 277.03L171.6 227.525V178.762L169.146 132.735Z" fill="#47342B"/>
<path d="M120.739 146.141C121.311 146.548 121.963 146.829 122.651 146.967L126.567 147.752C127.102 147.86 127.651 147.879 128.193 147.808L134.883 146.941L144.857 146.423C145.528 146.388 146.199 146.489 146.83 146.719L148.687 147.397C150.648 148.112 152.837 147.287 153.837 145.454V145.454C154.907 143.492 154.262 141.035 152.365 139.853L149.859 138.292C149.271 137.925 148.613 137.685 147.927 137.586L143.517 136.952C142.706 136.835 141.878 136.919 141.107 137.198L137.403 138.535C135.821 139.106 134.058 138.843 132.711 137.837L132.289 137.521C131.44 136.886 130.41 136.538 129.349 136.526L123.299 136.461C122.326 136.451 121.37 136.725 120.55 137.25L114.064 141.4L120.739 146.141Z" fill="#006622"/>
<path d="M200.207 257.754L192.632 258.704C191.746 258.815 190.907 259.161 190.2 259.706L177.057 269.841L161.61 283.021C161.241 283.336 160.92 283.703 160.656 284.11L151.066 298.946C150.383 300.002 150.123 301.277 150.338 302.516L153.184 318.896C153.337 319.778 153.725 320.604 154.306 321.285L161.565 329.793C162.629 331.04 164.237 331.687 165.869 331.523L182.825 329.819C183.526 329.749 184.204 329.531 184.815 329.18L199.83 320.558C200.344 320.262 200.802 319.877 201.182 319.422L204.538 315.392C204.952 314.895 205.266 314.321 205.461 313.704L207.741 306.521C207.813 306.294 207.901 306.072 208.004 305.858L217.765 285.65C218.184 284.783 218.343 283.814 218.225 282.859L215.037 257.195C214.895 256.055 213.823 255.268 212.693 255.475L200.207 257.754Z" fill="#228B22"/>
<path d="M230.621 280.374C231.162 278.605 230.683 276.683 229.375 275.375L228 274L221.073 295.223L213.344 325.753C213.233 326.188 213.065 326.606 212.844 326.996L204.791 341.167C204.505 341.671 204.309 342.221 204.211 342.792L201.687 357.5L200.168 364.635C199.893 365.924 200.71 367.193 201.997 367.478V367.478C203.298 367.766 204.585 366.938 204.862 365.634L206.373 358.536L210.33 342.613C210.443 342.159 210.618 341.723 210.852 341.318L218.479 328.113C218.734 327.67 218.921 327.191 219.031 326.692L225.76 296.259L230.621 280.374Z" fill="#47342B"/>
<path d="M111.357 301.57C110.864 300.633 109.608 300.435 108.849 301.173C108.346 301.663 108.225 302.427 108.553 303.048L117.07 319.204L122.474 331.739C122.648 332.141 122.873 332.519 123.145 332.862L127.745 338.676L132.754 345.006L142.424 357.06C143.032 357.817 144.159 357.886 144.855 357.209C145.462 356.618 145.521 355.662 144.991 355.001L135.123 342.7L125.514 330.557C125.242 330.213 125.016 329.836 124.843 329.434L119.438 316.898L111.357 301.57Z" fill="#47342B"/>
<path d="M124.254 247.048C124.537 248.113 125.874 248.46 126.639 247.667C126.982 247.311 127.114 246.801 126.987 246.323L124.466 236.823L123.482 229.775C123.376 229.018 123.098 228.295 122.669 227.663L121.077 225.313L118.834 222.002L115.08 216.618C114.496 215.78 113.292 215.685 112.583 216.42C112.045 216.978 111.977 217.838 112.42 218.473L116.539 224.382L120.375 230.042C120.804 230.675 121.082 231.398 121.187 232.155L122.172 239.202L124.254 247.048Z" fill="#47342B"/>
<path d="M228.475 277.489C228.781 278.568 230.141 278.909 230.92 278.102C231.279 277.729 231.413 277.194 231.272 276.696L227.979 265.084C227.883 264.748 227.753 264.422 227.589 264.112L223.037 255.5L221.702 252L219.908 246.766C219.757 246.327 219.547 245.911 219.282 245.53L215.884 240.649C215.29 239.796 214.064 239.698 213.342 240.447C212.795 241.014 212.725 241.888 213.175 242.535L216.965 247.98C217.218 248.343 217.421 248.738 217.57 249.154L220.581 257.585C220.661 257.81 220.758 258.028 220.869 258.239L225.254 266.534C225.417 266.844 225.548 267.17 225.644 267.507L228.475 277.489Z" fill="#47342B"/>
<path d="M101.847 240.363C101.087 239.713 101.378 238.476 102.348 238.233C102.734 238.137 103.143 238.233 103.446 238.491L114.886 248.266L120.19 254.067C121.033 254.989 121.5 256.192 121.5 257.441L121.5 260.86L121.5 270.64C121.5 271.209 121.597 271.774 121.788 272.311L123.878 278.207C124.174 279.043 123.686 279.952 122.826 280.168C122.074 280.356 121.302 279.942 121.043 279.212L118.857 273.045C118.667 272.508 118.57 271.943 118.57 271.374L118.57 258.175C118.57 256.926 118.103 255.723 117.26 254.801L111.956 249L101.847 240.363Z" fill="#47342B"/>
<path d="M60.8249 315.738C59.984 315.074 58.7403 315.431 58.3795 316.44V316.44C58.1528 317.073 58.3559 317.781 58.8841 318.197L75.2875 331.14C75.6845 331.453 76.1266 331.704 76.5989 331.885L109.229 344.361C109.665 344.528 110.076 344.755 110.449 345.035L117.545 350.373L125.941 355L138.167 360.226C139.373 360.742 140.757 360.071 141.1 358.805V358.805C141.37 357.808 140.897 356.761 139.972 356.303L125.941 349.373L111 341.5L77.7126 328.772C77.2403 328.592 76.7982 328.341 76.4012 328.027L60.8249 315.738Z" fill="#47342B"/>
<path d="M189.704 150.075C190.232 149.483 191.17 149.52 191.649 150.152C192.014 150.633 191.987 151.304 191.585 151.754L188.148 155.606C187.933 155.847 187.695 156.066 187.438 156.261L182.978 159.644C182.724 159.836 182.49 160.052 182.278 160.288L180.331 162.457L178.066 164.982L174.187 169.199C173.654 169.779 172.725 169.735 172.249 169.107C171.879 168.62 171.912 167.937 172.326 167.487L176.513 162.934L180.725 158.241C180.937 158.004 181.172 157.789 181.425 157.597L185.886 154.214C186.143 154.019 186.38 153.799 186.595 153.559L189.704 150.075Z" fill="#47342B"/>
<path d="M30.571 100.784C28.7109 100.006 27.5 98.1875 27.5 96.1713V84.7752C27.5 83.6269 27.8953 82.5135 28.6194 81.6222L33.3411 75.8109C33.7757 75.2761 34.3161 74.8368 34.9285 74.5208L46.939 68.3218C48.5241 67.5037 50.425 67.592 51.9275 68.5536L62 75L75.0682 82.4676C75.6824 82.8185 76.2151 83.2958 76.6312 83.8679L86.8778 97.957C87.6005 98.9507 88.6638 99.6435 89.8648 99.9032L105.397 103.262C106.123 103.419 106.805 103.735 107.393 104.189L128.518 120.473C129.234 121.024 128.91 122.166 128.012 122.259L107.574 124.388C106.866 124.462 106.151 124.384 105.475 124.158L99.7698 122.257C99.2599 122.087 98.726 122 98.1886 122H94.0139C93.0268 122 92.0617 121.708 91.2404 121.16L83.2596 115.84C82.4383 115.292 81.4732 115 80.4861 115H73.0642C72.6892 115 72.3155 114.958 71.95 114.874L55.4187 111.096C55.1401 111.032 54.8674 110.945 54.6038 110.834L30.571 100.784Z" fill="#006622"/>
<path d="M232.069 63.0408C232.679 62.6866 233.372 62.5 234.077 62.5H247.882C249.2 62.5 250.158 63.754 249.811 65.0262L246.558 76.9528C246.209 78.2331 245.248 79.2569 243.992 79.6857L225.5 86L204.5 94L182.804 104.125C182.274 104.372 181.697 104.5 181.113 104.5H155.241C151.424 104.5 149.776 99.6625 152.799 97.332L167.103 86.3057C167.367 86.1027 167.654 85.9333 167.96 85.8015L189.5 76.5L203.884 71.7053C204.292 71.5693 204.719 71.5 205.149 71.5H216.423C217.128 71.5 217.821 71.3134 218.431 70.9592L232.069 63.0408Z" fill="#006622"/>
<path d="M158.743 21.1838C159.243 20.7326 159.828 20.3869 160.464 20.1674L172.786 15.9186C173.582 15.644 174.435 15.5751 175.265 15.7182L187.19 17.7741C188.048 17.9221 188.853 18.2918 189.525 18.8466L198.869 26.5659C199.608 27.1758 200.155 27.9848 200.447 28.8969L202.588 35.5865C203.384 38.0764 205.965 39.5322 208.508 38.9267L209.829 38.6122C212.439 37.9908 215.074 39.5399 215.8 42.1225L218.263 50.8794C218.722 52.5132 218.322 54.2686 217.199 55.5413L212.82 60.5045C211.981 61.4553 210.774 62 209.506 62C208.231 62 207.019 62.5502 206.179 63.5093L205.026 64.8279C204.358 65.5912 203.938 66.5396 203.821 67.5473L202.689 77.3648C202.566 78.4269 202.106 79.4217 201.377 80.2033L188.907 93.5635C188.637 93.8535 188.333 94.1102 188.001 94.3283L149.59 119.612C149.198 119.869 148.773 120.071 148.326 120.21L128.543 126.364C127.238 126.77 125.824 126.625 124.63 125.961L124.428 125.849C122.918 125.01 121.082 125.01 119.572 125.849L118.633 126.371C117.89 126.783 117.054 127 116.204 127H111.804C110.062 127 108.446 126.094 107.538 124.607L104.234 119.2C103.754 118.415 103.5 117.513 103.5 116.593V107.677C103.5 106.589 103.855 105.53 104.511 104.662L119.854 84.3552C120.28 83.7915 120.581 83.1439 120.739 82.4551L128.148 50.0385C128.377 49.0372 128.909 48.1306 129.671 47.4421L158.743 21.1838Z" fill="#228B22"/>
<path d="M113 6H120.5L135.5 19.5L139 34.5L142 45.5L145.5 56L142 73L133.5 93.5L113.441 120.898C113.179 121.255 112.714 121.398 112.297 121.249L106.345 119.123C106.122 119.044 105.935 118.888 105.816 118.683L95 100L92.5 85.5L86.5 78V68.5L80.5 53V38L89.5 24.5V16L98 8H106L113 6Z" fill="#37B883"/>
<path d="M194.577 101.058C194.855 100.362 195.287 99.7367 195.84 99.2297L200.006 95.4107C200.657 94.8142 201.454 94.4006 202.317 94.212L216.472 91.1155C216.823 91.0387 217.181 91 217.54 91H234.92C235.305 91 235.69 91.0446 236.065 91.1329L258.401 96.3885C260.025 96.7706 261.352 97.9377 261.937 99.4999L267.346 113.923C268.046 115.79 267.57 117.896 266.133 119.28L255.763 129.265C255.26 129.75 254.661 130.123 254.004 130.362L239.328 135.699C238.78 135.898 238.202 136 237.619 136H232.963C232.327 136 231.697 135.879 231.106 135.642L225.394 133.358C224.803 133.121 224.173 133 223.537 133H205.486C204.835 133 204.19 132.873 203.588 132.626L186.834 125.752C185.819 125.336 185.329 124.179 185.736 123.159L194.577 101.058Z" fill="#228B22"/>
<path d="M208.584 227.488L205.151 220.705C204.75 219.913 204.568 219.029 204.622 218.143L205.599 202.121C205.621 201.759 205.682 201.401 205.782 201.052L211.039 182.651C211.146 182.277 211.296 181.916 211.487 181.577L223.949 159.379C224.767 157.923 226.258 156.971 227.923 156.842L245.541 155.477C247.516 155.324 249.394 156.351 250.332 158.095L258.051 172.461C258.383 173.079 258.581 173.76 258.633 174.46L259.905 191.717C259.949 192.304 259.888 192.893 259.726 193.458L258.281 198.517C258.105 199.134 257.811 199.711 257.417 200.217L252.784 206.161C252.639 206.347 252.507 206.543 252.389 206.748L241.23 226.215C240.753 227.046 240.048 227.723 239.198 228.165L216.397 240.014C215.37 240.548 214.107 240.102 213.642 239.042L208.584 227.488Z" fill="#228B22"/>
<path d="M174.918 101.722C175.627 102.232 176.19 102.918 176.551 103.713L180.202 111.744C180.716 112.874 180.79 114.155 180.412 115.337L177 126L174.481 138.176C174.23 139.39 172.945 140.086 171.791 139.632L161.114 135.438C160.382 135.15 159.728 134.694 159.205 134.106L152.832 126.937C152.286 126.322 151.9 125.581 151.708 124.782L149.42 115.248C149.148 114.118 149.279 112.929 149.79 111.885L157.399 96.3205C158.759 93.5387 162.295 92.6493 164.809 94.4565L174.918 101.722Z" fill="#006622"/>
<path d="M90.1212 133.5C90.7512 133.169 91.4446 132.976 92.1551 132.935L97.7568 132.608C98.7585 132.55 99.7546 132.794 100.616 133.309L107.081 137.179L115.165 141.114C115.769 141.408 115.917 142.201 115.461 142.693L111.288 147.197C110.723 147.807 110.015 148.266 109.227 148.533L104.106 150.271C103.429 150.501 102.71 150.583 101.998 150.511L94.1699 149.722L86.7828 148.279C86.2642 148.178 85.765 147.995 85.3036 147.737L79.3352 144.404C77.2552 143.243 77.2938 140.237 79.4029 139.129L90.1212 133.5Z" fill="#228B22"/>
<path d="M182.243 208.65L184.184 209.225C184.973 209.459 185.811 209.485 186.621 209.302L191.648 208.166C191.966 208.094 192.276 207.991 192.576 207.857L199.322 204.847L204.42 201.981C206.044 201.068 207.058 199.32 207.052 197.442L207.046 195.638C207.039 193.476 205.687 191.587 203.682 190.938L201.085 190.099C200.288 189.841 199.435 189.796 198.607 189.97L194.597 190.812C194.325 190.869 194.059 190.949 193.799 191.051L189.955 192.567C189.344 192.808 188.783 193.168 188.305 193.628L187.196 194.693C186.771 195.101 186.282 195.431 185.749 195.669L180.011 198.229C179.201 198.591 178.496 199.164 177.966 199.89L175.53 203.233C174.748 204.307 175.156 205.826 176.356 206.305L182.243 208.65Z" fill="#37B883"/>
<path d="M190.046 131.531L191.304 133.117C191.816 133.761 192.487 134.265 193.255 134.581L198.021 136.54C198.322 136.664 198.636 136.758 198.958 136.821L206.209 138.235L212.028 138.82C213.882 139.007 215.716 138.159 216.79 136.619L217.822 135.14C219.059 133.366 219.038 131.043 217.77 129.36L216.129 127.18C215.624 126.511 214.951 125.984 214.174 125.65L210.409 124.034C210.154 123.925 209.89 123.837 209.619 123.772L205.602 122.802C204.964 122.648 204.297 122.621 203.641 122.722L202.122 122.956C201.54 123.046 200.95 123.035 200.377 122.923L194.21 121.721C193.34 121.551 192.433 121.614 191.582 121.904L186.423 123.664C185.794 123.879 185.525 124.618 185.878 125.158L190.046 131.531Z" fill="#006622"/>
<path d="M164.388 213.876C163.605 214.091 162.775 214.065 161.979 213.799L158.028 212.48C157.283 212.231 156.593 211.78 156.018 211.167L150.757 205.556L142.213 198.267C141.463 197.627 140.576 197.241 139.664 197.158L138.94 197.092C136.051 196.828 133.915 193.671 134.464 190.479L135.025 187.219C135.375 185.184 136.757 183.645 138.551 183.292L144.132 182.193C144.952 182.031 145.808 182.129 146.61 182.475L150.703 184.245C151.779 184.71 152.693 185.596 153.274 186.738L155.089 190.301C156.209 192.501 158.472 193.611 160.54 192.975L161.076 192.811C162.314 192.431 163.666 192.669 164.803 193.468L169.884 197.037C170.975 197.804 171.776 199.02 172.106 200.414L174.149 209.022C174.417 210.151 173.857 211.266 172.888 211.533L164.388 213.876Z" fill="#006622"/>
<path d="M164.474 201.792C163.746 201.357 162.918 201.118 162.069 201.098L155.075 200.937C153.948 200.912 152.841 201.273 151.937 201.963L144.528 207.611L136.009 212.894C134.916 213.572 134.718 215.093 135.604 216.012L141.118 221.736C141.677 222.316 142.369 222.749 143.134 222.997L150.107 225.262C150.841 225.5 151.622 225.562 152.387 225.442L160.294 224.206C161.34 224.042 162.31 223.547 163.065 222.793L172.145 213.718C174.47 211.395 174.02 207.506 171.235 205.839L164.474 201.792Z" fill="#228B22"/>
<path d="M204.16 204.364C204.991 204.632 205.737 205.114 206.324 205.761L212.252 212.293C213.087 213.212 213.549 214.409 213.55 215.65L213.557 226.846L214.877 239.209C215.008 240.442 213.998 241.497 212.76 241.417L201.312 240.684C200.527 240.634 199.765 240.399 199.088 239.998L190.83 235.118C190.122 234.699 189.528 234.113 189.101 233.409L184.011 225.03C183.407 224.037 183.169 222.865 183.336 221.715L185.829 204.57C186.274 201.506 189.369 199.579 192.315 200.532L204.16 204.364Z" fill="#006622"/>
<path d="M197.997 255.393C198.808 255.503 199.633 255.411 200.401 255.127L204.283 253.688C205.177 253.357 205.957 252.778 206.533 252.018L212.136 244.617C212.537 244.087 212.828 243.483 212.993 242.84L213.438 241.106C213.695 240.1 213.141 239.064 212.161 238.722L209.998 237.965C209.329 237.731 208.619 237.642 207.914 237.703L203.638 238.075C202.928 238.136 202.239 238.349 201.618 238.699L197.317 241.12C196.501 241.579 195.831 242.258 195.382 243.08L190.689 251.669C190.017 252.9 190.787 254.423 192.177 254.61L197.997 255.393Z" fill="#37B883"/>
<path d="M186.585 284.334C187.369 284.407 188.16 284.294 188.893 284.004L198.29 280.277C199.139 279.941 199.879 279.378 200.431 278.65L207.87 268.84C208.018 268.644 208.152 268.438 208.27 268.222L214.576 256.717C215.184 255.608 214.622 254.22 213.415 253.846L208.08 252.191C207.401 251.98 206.686 251.917 205.98 252.005L196.408 253.198C195.746 253.28 195.107 253.494 194.528 253.828L184.478 259.624C183.736 260.052 183.116 260.664 182.679 261.4L174.007 275.984C172.13 279.14 174.183 283.176 177.84 283.517L186.585 284.334Z" fill="#006622"/>
<path d="M110.968 201.606C110.294 201.992 109.719 202.529 109.289 203.176L104.297 210.677C103.807 211.414 103.521 212.268 103.469 213.151L102.791 224.589L101.203 236.217C101.013 237.608 102.279 238.757 103.645 238.433L110.486 236.814C111.305 236.619 112.063 236.221 112.688 235.656L118.862 230.071C119.345 229.634 119.739 229.107 120.02 228.518L124.512 219.114C124.87 218.365 125.036 217.538 124.994 216.709L124.276 202.359C124.089 198.633 120.036 196.417 116.798 198.269L110.968 201.606Z" fill="#37B883"/>
<path d="M146.983 273.85C146.041 274.179 145.022 274.219 144.057 273.964L135.827 271.79C135.358 271.666 134.91 271.475 134.496 271.222L124.443 265.077C123.822 264.697 123.291 264.186 122.888 263.579L117.75 255.854C117.099 254.875 117.429 253.548 118.463 252.988L125.916 248.953L132.569 245.734C134.151 244.969 136.02 245.091 137.49 246.055L142.752 249.509C143.247 249.834 143.795 250.068 144.372 250.201L148.374 251.125C149.43 251.368 150.377 251.948 151.075 252.776L156.825 259.604C157.584 260.506 158 261.646 158 262.825L158 266.451C158 268.577 156.656 270.47 154.65 271.171L146.983 273.85Z" fill="#228B22"/>
<path d="M69.077 174.334L69.1331 163.595C69.1399 162.29 70.3743 161.341 71.6371 161.67L80.5162 163.983C81.7942 164.315 82.8255 165.258 83.2722 166.5L88.0662 179.838C88.1382 180.038 88.2261 180.232 88.329 180.419L96.9537 196.034C97.062 196.23 97.1537 196.435 97.2277 196.647L102.831 212.656C102.982 213.088 103.058 213.542 103.056 213.999L102.922 239.617C102.917 240.576 101.696 240.979 101.121 240.212L89.0598 224.103C88.9151 223.91 88.7531 223.73 88.5759 223.566L78.3513 214.097C77.7952 213.582 77.3969 212.919 77.2028 212.187L73.1158 196.766C73.0388 196.476 72.9295 196.195 72.7897 195.929L69.6014 189.865C69.3025 189.297 69.1449 188.665 69.1419 188.023L69.077 174.334Z" fill="#006622"/>
<path d="M33.3018 291.692C34.1549 291.505 35.042 291.545 35.8747 291.808L44.2873 294.463C45.471 294.836 46.4735 295.637 47.0997 296.709L52.7476 306.375L60.1176 316.389C60.8527 317.388 60.511 318.808 59.4021 319.363L49.1442 324.499C48.4407 324.851 47.6641 325.032 46.8775 325.028L37.2857 324.973C36.4631 324.968 35.6543 324.761 34.9311 324.369L26.3119 319.696C25.2904 319.142 24.4936 318.25 24.0586 317.173L17.5719 301.108C16.4126 298.236 18.1152 295.012 21.1401 294.351L33.3018 291.692Z" fill="#006622"/>
<path d="M78.6917 331.17C79.4663 330.796 80.3244 330.628 81.1829 330.683L88.1575 331.125C89.3191 331.198 90.4187 331.675 91.2666 332.472L97.9888 338.794L105.933 344.9C106.941 345.674 106.98 347.179 106.015 348.005L99.7117 353.4C99.1011 353.922 98.3737 354.29 97.5908 354.471L90.3239 356.158C89.5537 356.336 88.7522 356.33 87.985 356.139L80.2744 354.218C79.2165 353.954 78.2737 353.352 77.5896 352.503L69.4749 342.432C67.4557 339.926 68.2956 336.193 71.1934 334.793L78.6917 331.17Z" fill="#006622"/>
<path d="M178 141L186.5 135H195.5L209.5 141L234.5 142.5L258.485 141.393C262.3 141.217 264.896 145.209 263.188 148.624L257 161L229 171H198.5L186.5 165.5V156.5L179.5 150.5L178 141Z" fill="#37B883"/>
<path d="M102.405 238.247C103.089 238.656 103.043 239.661 102.324 240.006L96.9456 242.59L86.9864 253.604L77.4422 264.194L72.4626 275.208L69.9728 286.646L62.0884 293H52.9592L43 280.715L52.9592 253.604L65.8231 247.674L77.4422 242.59L84.0816 236.236L91.966 232L102.405 238.247Z" fill="#228B22"/>
<path d="M76.3463 220.575C77.4708 220.106 78.7278 220.064 79.8811 220.457L86.1031 222.574C86.4411 222.69 86.7659 222.84 87.0718 223.025L95.2782 227.968C96.1968 228.521 96.9131 229.355 97.3215 230.347L100.325 237.639C100.549 238.182 100.259 238.8 99.6981 238.974L79.4978 245.274C79.0862 245.403 78.6597 245.477 78.229 245.496L57.8336 246.394C57.2123 246.421 56.5914 246.332 56.0026 246.132L44.7952 242.317C42.7049 241.605 41.3288 239.607 41.4097 237.4L41.5157 234.51C41.5985 232.253 43.1845 230.331 45.3852 229.822L58.2827 226.837L67.628 224.209L76.3463 220.575Z" fill="#37B883"/>
<path d="M209.871 284.065C210.7 284.427 211.441 284.967 212.025 285.636L216.604 290.88C217.362 291.749 217.818 292.792 217.9 293.847L218.561 302.338L220.181 311.379C220.404 312.623 219.322 313.59 217.978 313.347L210.561 312.009C209.716 311.856 208.899 311.518 208.181 311.023L202.133 306.854C201.463 306.392 200.898 305.806 200.481 305.142L196.308 298.483C195.744 297.585 195.476 296.58 195.54 295.606L196.265 284.578C196.471 281.439 199.921 279.726 203.176 281.146L209.871 284.065Z" fill="#37B883"/>
<path d="M249.803 277.943C250.568 277.187 250.996 276.154 250.988 275.077L250.963 271.333C250.954 270.107 249.854 269.174 248.643 269.366L238.997 270.899C238.383 270.996 237.8 271.236 237.295 271.599L227.423 278.696C227.142 278.898 226.889 279.135 226.669 279.403L219.33 288.347C218.754 289.047 218.435 289.924 218.425 290.831L218.324 299.511L218.427 314.502C218.433 315.341 219.407 315.803 220.058 315.275L231.321 306.148C231.747 305.802 232.097 305.373 232.35 304.885L235.889 298.056C236.069 297.709 236.299 297.39 236.572 297.11L242.91 290.601C243.641 289.85 244.047 288.841 244.04 287.791L244.023 285.348C244.016 284.271 244.443 283.238 245.208 282.482L249.803 277.943Z" fill="#006622"/>
<path d="M238.098 295.482C236.958 295.415 235.761 295.783 234.721 296.52L230.199 299.727C229.891 299.946 229.6 300.195 229.333 300.469L223.54 306.395C222.721 307.234 222.143 308.281 221.894 309.381L220.508 315.494C220.372 316.094 220.751 316.596 221.326 316.575L238.437 315.944C238.847 315.929 239.262 315.86 239.673 315.739L252.831 311.843C255.311 311.109 257.185 308.628 257.185 306.079L257.185 299.225C257.185 297.002 255.617 295.385 253.472 295.395L245.474 295.918L238.098 295.482Z" fill="#37B883"/>
<path d="M157.77 362C153.685 362 151.571 357.123 154.365 354.142V354.142C155.198 353.253 156.346 352.725 157.564 352.671L171.332 352.065L179.168 352.685C180.412 352.784 181.575 353.345 182.428 354.257L184.761 356.756L190.802 363.227C191.591 364.072 192.648 364.617 193.794 364.77L211 367.07L259.859 376.31L259.859 393.5L204.5 376.31L186.96 372.925C185.561 372.655 184.343 371.8 183.613 370.576L179.954 364.439C179.052 362.927 177.421 362 175.66 362L166 362L157.77 362Z" fill="#47342B"/>
<path d="M138.266 317.323C138.036 318.065 137.983 318.85 138.11 319.616L139.581 328.506C139.725 329.379 140.099 330.198 140.663 330.879L147.973 339.702L154.748 349.285C155.559 350.432 157.268 350.408 158.046 349.238L161.94 343.387C162.407 342.685 162.689 341.877 162.76 341.038L163.462 332.742C163.517 332.092 163.444 331.438 163.248 330.817L160.114 320.877C159.864 320.085 159.421 319.368 158.825 318.79L148.507 308.792C145.828 306.196 141.352 307.341 140.25 310.905L138.266 317.323Z" fill="#37B883"/>
<path d="M213.894 345.55C213.429 346.434 212.712 347.159 211.832 347.631L204.333 351.658C203.906 351.887 203.448 352.053 202.973 352.151L191.431 354.52C190.717 354.666 189.98 354.655 189.272 354.487L180.245 352.346C179.101 352.075 178.436 350.88 178.81 349.765L181.503 341.729L184.17 334.837C184.804 333.197 186.253 332.011 187.986 331.713L194.189 330.646C194.772 330.546 195.333 330.343 195.845 330.047L199.401 327.99C200.339 327.448 201.427 327.225 202.502 327.354L211.365 328.421C212.535 328.562 213.617 329.112 214.422 329.973L216.896 332.624C218.347 334.177 218.657 336.478 217.669 338.36L213.894 345.55Z" fill="#228B22"/>
<path d="M90.1346 326.28C89.4154 326.082 88.766 325.686 88.2597 325.138L81.7467 318.089C80.8611 317.131 81.1158 315.595 82.2633 314.973L90.3316 310.604C91.4929 309.975 92.8897 309.96 94.0644 310.564L106.671 317.041C106.86 317.138 107.057 317.22 107.259 317.286L124.22 322.814C124.433 322.884 124.64 322.971 124.838 323.075L139.86 330.953C140.264 331.165 140.63 331.445 140.94 331.781L158.325 350.598C158.976 351.302 158.359 352.43 157.415 352.261L137.922 348.775C137.476 348.695 137.047 348.54 136.653 348.317L125.002 341.711C124.735 341.56 124.452 341.44 124.158 341.354L110.187 337.241C109.494 337.037 108.869 336.649 108.378 336.119L103.191 330.504C102.685 329.956 102.035 329.561 101.316 329.363L90.1346 326.28Z" fill="#006622"/>
<path d="M156.39 351.711C157.199 351.498 157.897 352.313 157.562 353.079L155.663 357.414L155.188 369.829L154.752 381.748L157.501 391.154L162.09 399.301L160.432 407.756L154.522 413.274L141.414 412.159L133.161 390.395L138.273 379.176L143.038 369.202L143.891 361.499L146.698 354.273L156.39 351.711Z" fill="#228B22"/>
<path d="M127.426 359.496C127.684 358.305 128.367 357.249 129.348 356.527L134.64 352.629C134.927 352.417 135.237 352.236 135.563 352.091L144.307 348.177C145.286 347.739 146.379 347.627 147.427 347.858L155.128 349.557C155.701 349.684 156.043 350.274 155.866 350.834L149.502 371.014C149.372 371.426 149.19 371.818 148.959 372.183L138.049 389.438C137.716 389.963 137.289 390.422 136.788 390.791L127.256 397.812C125.478 399.122 123.052 399.11 121.287 397.784L118.974 396.046C117.169 394.689 116.497 392.29 117.336 390.193L122.251 377.901L125.43 368.728L127.426 359.496Z" fill="#37B883"/>
<path d="M121.273 258.838C121.674 258.334 121.974 257.758 122.157 257.141L123.896 251.259C124.012 250.868 124.079 250.464 124.097 250.056L124.458 241.657C124.484 241.064 123.99 240.58 123.398 240.616L116.098 241.066C115.344 241.112 114.611 241.329 113.953 241.699L104.703 246.905C103.827 247.398 103.12 248.144 102.674 249.044L95.2964 263.949C94.9889 264.57 94.8139 265.248 94.7825 265.941L94.3136 276.306C94.2204 278.366 95.4014 280.272 97.2877 281.106L100.577 282.559C102.438 283.381 104.612 282.994 106.074 281.58L112.07 275.78C112.652 275.218 113.088 274.523 113.342 273.755L115.864 266.124C116.05 265.564 116.333 265.041 116.7 264.579L121.273 258.838Z" fill="#37B883"/>
<path d="M243.872 246.408C243.036 247.294 241.905 247.845 240.692 247.956L234.147 248.555C233.791 248.588 233.433 248.582 233.079 248.539L223.571 247.366C222.506 247.235 221.513 246.765 220.736 246.026L215.023 240.589C214.597 240.184 214.611 239.502 215.051 239.114L230.935 225.133C231.259 224.848 231.618 224.607 232.003 224.414L250.265 215.288C250.821 215.01 251.425 214.838 252.044 214.781L263.834 213.701C266.033 213.5 268.103 214.765 268.928 216.813L270.008 219.496C270.852 221.591 270.186 223.992 268.384 225.353L257.82 233.332L250.355 239.539L243.872 246.408Z" fill="#37B883"/>
<path d="M75.8069 334.972C74.1826 334.406 72.9636 333.044 72.5795 331.367L71.812 328.017C71.725 327.637 71.6826 327.248 71.6859 326.858L71.7512 319.109C71.7586 318.237 71.9943 317.381 72.4349 316.627L76.5678 309.56C76.8343 309.105 77.409 308.935 77.8805 309.172L90.1966 315.37C90.7637 315.655 91.2713 316.046 91.6922 316.521L100.119 326.037C100.674 326.664 101.063 327.42 101.25 328.236L103.101 336.315C103.499 338.053 102.941 339.872 101.637 341.088L99.0317 343.517C97.3538 345.082 94.8263 345.304 92.9013 344.056L86.4697 339.886L81.058 336.881C80.8082 336.742 80.547 336.625 80.2773 336.531L75.8069 334.972Z" fill="#37B883"/>
<path d="M43.5757 299.719C42.3465 298.515 41.8221 296.765 42.1875 295.084L42.9175 291.725C43.0003 291.344 43.1274 290.974 43.2961 290.623L46.6502 283.637C47.028 282.85 47.6052 282.176 48.3244 281.681L55.0701 277.042C55.505 276.743 56.0975 276.834 56.4234 277.249L64.9351 288.095C65.327 288.595 65.6203 289.164 65.7991 289.774L69.3802 301.97C69.616 302.773 69.6464 303.623 69.4686 304.44L67.7082 312.54C67.3294 314.282 66.0513 315.691 64.3537 316.237L60.9626 317.329C58.7786 318.031 56.3966 317.158 55.1851 315.209L51.1373 308.7L47.5168 303.679C47.3497 303.447 47.1631 303.23 46.9589 303.031L43.5757 299.719Z" fill="#37B883"/>
<path d="M127.202 314.334C127.987 314.407 128.778 314.294 129.511 314.004L138.908 310.277C139.756 309.941 140.497 309.378 141.049 308.65L148.487 298.84C148.636 298.644 148.77 298.438 148.888 298.222L155.194 286.717C155.801 285.608 155.24 284.22 154.032 283.846L148.698 282.191C148.019 281.98 147.303 281.917 146.598 282.005L137.026 283.198C136.363 283.28 135.724 283.494 135.146 283.828L125.096 289.624C124.354 290.052 123.734 290.664 123.296 291.4L114.625 305.984C112.748 309.14 114.801 313.176 118.458 313.517L127.202 314.334Z" fill="#006622"/>
<path d="M87.8069 306.972C86.1826 306.406 84.9636 305.044 84.5795 303.367L83.812 300.017C83.725 299.637 83.6826 299.248 83.6859 298.858L83.7512 291.109C83.7586 290.237 83.9943 289.381 84.4349 288.627L88.5678 281.56C88.8343 281.105 89.409 280.935 89.8805 281.172L102.197 287.37C102.764 287.655 103.271 288.046 103.692 288.521L112.119 298.037C112.674 298.664 113.063 299.42 113.25 300.236L115.101 308.315C115.499 310.053 114.941 311.872 113.637 313.088L111.032 315.517C109.354 317.082 106.826 317.304 104.901 316.056L98.4697 311.886L93.058 308.881C92.8082 308.742 92.547 308.625 92.2773 308.531L87.8069 306.972Z" fill="#37B883"/>
</g>
<defs>
<filter id="filter0_d" x="0.0585938" y="0" width="285.227" height="433.293" filterUnits="userSpaceOnUse" color-interpolation-filters="sRGB">
<feFlood flood-opacity="0" result="BackgroundImageFix"/>
<feColorMatrix in="SourceAlpha" type="matrix" values="0 0 0 0 0 0 0 0 0 0 0 0 0 0 0 0 0 0 127 0"/>
<feOffset dy="4"/>
<feGaussianBlur stdDeviation="5"/>
<feColorMatrix type="matrix" values="0 0 0 0 0 0 0 0 0 0 0 0 0 0 0 0 0 0 0.25 0"/>
<feBlend mode="normal" in2="BackgroundImageFix" result="effect1_dropShadow"/>
<feBlend mode="normal" in="SourceGraphic" in2="effect1_dropShadow" result="shape"/>
</filter>
</defs>
</svg>
