<?xml version="1.0" encoding="utf-8" standalone="no"?>
<!DOCTYPE svg PUBLIC "-//W3C//DTD SVG 1.1//EN"
  "http://www.w3.org/Graphics/SVG/1.1/DTD/svg11.dtd">
<!-- Created with matplotlib (https://matplotlib.org/) -->
<svg height="432pt" version="1.1" viewBox="0 0 720 432" width="720pt" xmlns="http://www.w3.org/2000/svg" xmlns:xlink="http://www.w3.org/1999/xlink">
 <defs>
  <style type="text/css">
*{stroke-linecap:butt;stroke-linejoin:round;}
  </style>
 </defs>
 <g id="figure_1">
  <g id="patch_1">
   <path d="M 0 432 
L 720 432 
L 720 0 
L 0 0 
z
" style="fill:#ffffff;"/>
  </g>
  <g id="axes_1">
   <g id="patch_2">
    <path d="M 36.425 392.2 
L 709.2 392.2 
L 709.2 20.8 
L 36.425 20.8 
z
" style="fill:#ffffff;"/>
   </g>
   <g id="matplotlib.axis_1">
    <g id="xtick_1">
     <g id="line2d_1">
      <path clip-path="url(#peb67f66960)" d="M 55.885434 392.2 
L 55.885434 20.8 
" style="fill:none;stroke:#808080;stroke-linecap:round;stroke-opacity:0.2;"/>
     </g>
     <g id="text_1">
      <!-- 2020-01-20 -->
      <defs>
       <path d="M 50.34375 8.453125 
L 50.34375 0 
L 3.03125 0 
Q 2.9375 3.171875 4.046875 6.109375 
Q 5.859375 10.9375 9.828125 15.625 
Q 13.8125 20.3125 21.34375 26.46875 
Q 33.015625 36.03125 37.109375 41.625 
Q 41.21875 47.21875 41.21875 52.203125 
Q 41.21875 57.421875 37.46875 61 
Q 33.734375 64.59375 27.734375 64.59375 
Q 21.390625 64.59375 17.578125 60.78125 
Q 13.765625 56.984375 13.71875 50.25 
L 4.6875 51.171875 
Q 5.609375 61.28125 11.65625 66.578125 
Q 17.71875 71.875 27.9375 71.875 
Q 38.234375 71.875 44.234375 66.15625 
Q 50.25 60.453125 50.25 52 
Q 50.25 47.703125 48.484375 43.546875 
Q 46.734375 39.40625 42.65625 34.8125 
Q 38.578125 30.21875 29.109375 22.21875 
Q 21.1875 15.578125 18.9375 13.203125 
Q 16.703125 10.84375 15.234375 8.453125 
z
" id="ArialMT-50"/>
       <path d="M 4.15625 35.296875 
Q 4.15625 48 6.765625 55.734375 
Q 9.375 63.484375 14.515625 67.671875 
Q 19.671875 71.875 27.484375 71.875 
Q 33.25 71.875 37.59375 69.546875 
Q 41.9375 67.234375 44.765625 62.859375 
Q 47.609375 58.5 49.21875 52.21875 
Q 50.828125 45.953125 50.828125 35.296875 
Q 50.828125 22.703125 48.234375 14.96875 
Q 45.65625 7.234375 40.5 3 
Q 35.359375 -1.21875 27.484375 -1.21875 
Q 17.140625 -1.21875 11.234375 6.203125 
Q 4.15625 15.140625 4.15625 35.296875 
z
M 13.1875 35.296875 
Q 13.1875 17.671875 17.3125 11.828125 
Q 21.4375 6 27.484375 6 
Q 33.546875 6 37.671875 11.859375 
Q 41.796875 17.71875 41.796875 35.296875 
Q 41.796875 52.984375 37.671875 58.78125 
Q 33.546875 64.59375 27.390625 64.59375 
Q 21.34375 64.59375 17.71875 59.46875 
Q 13.1875 52.9375 13.1875 35.296875 
z
" id="ArialMT-48"/>
       <path d="M 3.171875 21.484375 
L 3.171875 30.328125 
L 30.171875 30.328125 
L 30.171875 21.484375 
z
" id="ArialMT-45"/>
       <path d="M 37.25 0 
L 28.46875 0 
L 28.46875 56 
Q 25.296875 52.984375 20.140625 49.953125 
Q 14.984375 46.921875 10.890625 45.40625 
L 10.890625 53.90625 
Q 18.265625 57.375 23.78125 62.296875 
Q 29.296875 67.234375 31.59375 71.875 
L 37.25 71.875 
z
" id="ArialMT-49"/>
      </defs>
      <g style="fill:#262626;" transform="translate(30.311996 406.357812)scale(0.1 -0.1)">
       <use xlink:href="#ArialMT-50"/>
       <use x="55.615234" xlink:href="#ArialMT-48"/>
       <use x="111.230469" xlink:href="#ArialMT-50"/>
       <use x="166.845703" xlink:href="#ArialMT-48"/>
       <use x="222.460938" xlink:href="#ArialMT-45"/>
       <use x="255.761719" xlink:href="#ArialMT-48"/>
       <use x="311.376953" xlink:href="#ArialMT-49"/>
       <use x="366.992188" xlink:href="#ArialMT-45"/>
       <use x="400.292969" xlink:href="#ArialMT-50"/>
       <use x="455.908203" xlink:href="#ArialMT-48"/>
      </g>
     </g>
    </g>
    <g id="xtick_2">
     <g id="line2d_2">
      <path clip-path="url(#peb67f66960)" d="M 133.727169 392.2 
L 133.727169 20.8 
" style="fill:none;stroke:#808080;stroke-linecap:round;stroke-opacity:0.2;"/>
     </g>
     <g id="text_2">
      <!-- 2020-02-03 -->
      <defs>
       <path d="M 4.203125 18.890625 
L 12.984375 20.0625 
Q 14.5 12.59375 18.140625 9.296875 
Q 21.78125 6 27 6 
Q 33.203125 6 37.46875 10.296875 
Q 41.75 14.59375 41.75 20.953125 
Q 41.75 27 37.796875 30.921875 
Q 33.84375 34.859375 27.734375 34.859375 
Q 25.25 34.859375 21.53125 33.890625 
L 22.515625 41.609375 
Q 23.390625 41.5 23.921875 41.5 
Q 29.546875 41.5 34.03125 44.421875 
Q 38.53125 47.359375 38.53125 53.46875 
Q 38.53125 58.296875 35.25 61.46875 
Q 31.984375 64.65625 26.8125 64.65625 
Q 21.6875 64.65625 18.265625 61.421875 
Q 14.84375 58.203125 13.875 51.765625 
L 5.078125 53.328125 
Q 6.6875 62.15625 12.390625 67.015625 
Q 18.109375 71.875 26.609375 71.875 
Q 32.46875 71.875 37.390625 69.359375 
Q 42.328125 66.84375 44.9375 62.5 
Q 47.5625 58.15625 47.5625 53.265625 
Q 47.5625 48.640625 45.0625 44.828125 
Q 42.578125 41.015625 37.703125 38.765625 
Q 44.046875 37.3125 47.5625 32.6875 
Q 51.078125 28.078125 51.078125 21.140625 
Q 51.078125 11.765625 44.234375 5.25 
Q 37.40625 -1.265625 26.953125 -1.265625 
Q 17.53125 -1.265625 11.296875 4.34375 
Q 5.078125 9.96875 4.203125 18.890625 
z
" id="ArialMT-51"/>
      </defs>
      <g style="fill:#262626;" transform="translate(108.153732 406.357812)scale(0.1 -0.1)">
       <use xlink:href="#ArialMT-50"/>
       <use x="55.615234" xlink:href="#ArialMT-48"/>
       <use x="111.230469" xlink:href="#ArialMT-50"/>
       <use x="166.845703" xlink:href="#ArialMT-48"/>
       <use x="222.460938" xlink:href="#ArialMT-45"/>
       <use x="255.761719" xlink:href="#ArialMT-48"/>
       <use x="311.376953" xlink:href="#ArialMT-50"/>
       <use x="366.992188" xlink:href="#ArialMT-45"/>
       <use x="400.292969" xlink:href="#ArialMT-48"/>
       <use x="455.908203" xlink:href="#ArialMT-51"/>
      </g>
     </g>
    </g>
    <g id="xtick_3">
     <g id="line2d_3">
      <path clip-path="url(#peb67f66960)" d="M 211.568905 392.2 
L 211.568905 20.8 
" style="fill:none;stroke:#808080;stroke-linecap:round;stroke-opacity:0.2;"/>
     </g>
     <g id="text_3">
      <!-- 2020-02-17 -->
      <defs>
       <path d="M 4.734375 62.203125 
L 4.734375 70.65625 
L 51.078125 70.65625 
L 51.078125 63.8125 
Q 44.234375 56.546875 37.515625 44.484375 
Q 30.8125 32.421875 27.15625 19.671875 
Q 24.515625 10.6875 23.78125 0 
L 14.75 0 
Q 14.890625 8.453125 18.0625 20.40625 
Q 21.234375 32.375 27.171875 43.484375 
Q 33.109375 54.59375 39.796875 62.203125 
z
" id="ArialMT-55"/>
      </defs>
      <g style="fill:#262626;" transform="translate(185.995467 406.357812)scale(0.1 -0.1)">
       <use xlink:href="#ArialMT-50"/>
       <use x="55.615234" xlink:href="#ArialMT-48"/>
       <use x="111.230469" xlink:href="#ArialMT-50"/>
       <use x="166.845703" xlink:href="#ArialMT-48"/>
       <use x="222.460938" xlink:href="#ArialMT-45"/>
       <use x="255.761719" xlink:href="#ArialMT-48"/>
       <use x="311.376953" xlink:href="#ArialMT-50"/>
       <use x="366.992188" xlink:href="#ArialMT-45"/>
       <use x="400.292969" xlink:href="#ArialMT-49"/>
       <use x="455.908203" xlink:href="#ArialMT-55"/>
      </g>
     </g>
    </g>
    <g id="xtick_4">
     <g id="line2d_4">
      <path clip-path="url(#peb67f66960)" d="M 289.41064 392.2 
L 289.41064 20.8 
" style="fill:none;stroke:#808080;stroke-linecap:round;stroke-opacity:0.2;"/>
     </g>
     <g id="text_4">
      <!-- 2020-03-02 -->
      <g style="fill:#262626;" transform="translate(263.837203 406.357812)scale(0.1 -0.1)">
       <use xlink:href="#ArialMT-50"/>
       <use x="55.615234" xlink:href="#ArialMT-48"/>
       <use x="111.230469" xlink:href="#ArialMT-50"/>
       <use x="166.845703" xlink:href="#ArialMT-48"/>
       <use x="222.460938" xlink:href="#ArialMT-45"/>
       <use x="255.761719" xlink:href="#ArialMT-48"/>
       <use x="311.376953" xlink:href="#ArialMT-51"/>
       <use x="366.992188" xlink:href="#ArialMT-45"/>
       <use x="400.292969" xlink:href="#ArialMT-48"/>
       <use x="455.908203" xlink:href="#ArialMT-50"/>
      </g>
     </g>
    </g>
    <g id="xtick_5">
     <g id="line2d_5">
      <path clip-path="url(#peb67f66960)" d="M 367.252376 392.2 
L 367.252376 20.8 
" style="fill:none;stroke:#808080;stroke-linecap:round;stroke-opacity:0.2;"/>
     </g>
     <g id="text_5">
      <!-- 2020-03-16 -->
      <defs>
       <path d="M 49.75 54.046875 
L 41.015625 53.375 
Q 39.84375 58.546875 37.703125 60.890625 
Q 34.125 64.65625 28.90625 64.65625 
Q 24.703125 64.65625 21.53125 62.3125 
Q 17.390625 59.28125 14.984375 53.46875 
Q 12.59375 47.65625 12.5 36.921875 
Q 15.671875 41.75 20.265625 44.09375 
Q 24.859375 46.4375 29.890625 46.4375 
Q 38.671875 46.4375 44.84375 39.96875 
Q 51.03125 33.5 51.03125 23.25 
Q 51.03125 16.5 48.125 10.71875 
Q 45.21875 4.9375 40.140625 1.859375 
Q 35.0625 -1.21875 28.609375 -1.21875 
Q 17.625 -1.21875 10.6875 6.859375 
Q 3.765625 14.9375 3.765625 33.5 
Q 3.765625 54.25 11.421875 63.671875 
Q 18.109375 71.875 29.4375 71.875 
Q 37.890625 71.875 43.28125 67.140625 
Q 48.6875 62.40625 49.75 54.046875 
z
M 13.875 23.1875 
Q 13.875 18.65625 15.796875 14.5 
Q 17.71875 10.359375 21.1875 8.171875 
Q 24.65625 6 28.46875 6 
Q 34.03125 6 38.03125 10.484375 
Q 42.046875 14.984375 42.046875 22.703125 
Q 42.046875 30.125 38.078125 34.390625 
Q 34.125 38.671875 28.125 38.671875 
Q 22.171875 38.671875 18.015625 34.390625 
Q 13.875 30.125 13.875 23.1875 
z
" id="ArialMT-54"/>
      </defs>
      <g style="fill:#262626;" transform="translate(341.678939 406.357812)scale(0.1 -0.1)">
       <use xlink:href="#ArialMT-50"/>
       <use x="55.615234" xlink:href="#ArialMT-48"/>
       <use x="111.230469" xlink:href="#ArialMT-50"/>
       <use x="166.845703" xlink:href="#ArialMT-48"/>
       <use x="222.460938" xlink:href="#ArialMT-45"/>
       <use x="255.761719" xlink:href="#ArialMT-48"/>
       <use x="311.376953" xlink:href="#ArialMT-51"/>
       <use x="366.992188" xlink:href="#ArialMT-45"/>
       <use x="400.292969" xlink:href="#ArialMT-49"/>
       <use x="455.908203" xlink:href="#ArialMT-54"/>
      </g>
     </g>
    </g>
    <g id="xtick_6">
     <g id="line2d_6">
      <path clip-path="url(#peb67f66960)" d="M 445.094112 392.2 
L 445.094112 20.8 
" style="fill:none;stroke:#808080;stroke-linecap:round;stroke-opacity:0.2;"/>
     </g>
     <g id="text_6">
      <!-- 2020-03-30 -->
      <g style="fill:#262626;" transform="translate(419.520674 406.357812)scale(0.1 -0.1)">
       <use xlink:href="#ArialMT-50"/>
       <use x="55.615234" xlink:href="#ArialMT-48"/>
       <use x="111.230469" xlink:href="#ArialMT-50"/>
       <use x="166.845703" xlink:href="#ArialMT-48"/>
       <use x="222.460938" xlink:href="#ArialMT-45"/>
       <use x="255.761719" xlink:href="#ArialMT-48"/>
       <use x="311.376953" xlink:href="#ArialMT-51"/>
       <use x="366.992188" xlink:href="#ArialMT-45"/>
       <use x="400.292969" xlink:href="#ArialMT-51"/>
       <use x="455.908203" xlink:href="#ArialMT-48"/>
      </g>
     </g>
    </g>
    <g id="xtick_7">
     <g id="line2d_7">
      <path clip-path="url(#peb67f66960)" d="M 522.935847 392.2 
L 522.935847 20.8 
" style="fill:none;stroke:#808080;stroke-linecap:round;stroke-opacity:0.2;"/>
     </g>
     <g id="text_7">
      <!-- 2020-04-13 -->
      <defs>
       <path d="M 32.328125 0 
L 32.328125 17.140625 
L 1.265625 17.140625 
L 1.265625 25.203125 
L 33.9375 71.578125 
L 41.109375 71.578125 
L 41.109375 25.203125 
L 50.78125 25.203125 
L 50.78125 17.140625 
L 41.109375 17.140625 
L 41.109375 0 
z
M 32.328125 25.203125 
L 32.328125 57.46875 
L 9.90625 25.203125 
z
" id="ArialMT-52"/>
      </defs>
      <g style="fill:#262626;" transform="translate(497.36241 406.357812)scale(0.1 -0.1)">
       <use xlink:href="#ArialMT-50"/>
       <use x="55.615234" xlink:href="#ArialMT-48"/>
       <use x="111.230469" xlink:href="#ArialMT-50"/>
       <use x="166.845703" xlink:href="#ArialMT-48"/>
       <use x="222.460938" xlink:href="#ArialMT-45"/>
       <use x="255.761719" xlink:href="#ArialMT-48"/>
       <use x="311.376953" xlink:href="#ArialMT-52"/>
       <use x="366.992188" xlink:href="#ArialMT-45"/>
       <use x="400.292969" xlink:href="#ArialMT-49"/>
       <use x="455.908203" xlink:href="#ArialMT-51"/>
      </g>
     </g>
    </g>
    <g id="xtick_8">
     <g id="line2d_8">
      <path clip-path="url(#peb67f66960)" d="M 600.777583 392.2 
L 600.777583 20.8 
" style="fill:none;stroke:#808080;stroke-linecap:round;stroke-opacity:0.2;"/>
     </g>
     <g id="text_8">
      <!-- 2020-04-27 -->
      <g style="fill:#262626;" transform="translate(575.204145 406.357812)scale(0.1 -0.1)">
       <use xlink:href="#ArialMT-50"/>
       <use x="55.615234" xlink:href="#ArialMT-48"/>
       <use x="111.230469" xlink:href="#ArialMT-50"/>
       <use x="166.845703" xlink:href="#ArialMT-48"/>
       <use x="222.460938" xlink:href="#ArialMT-45"/>
       <use x="255.761719" xlink:href="#ArialMT-48"/>
       <use x="311.376953" xlink:href="#ArialMT-52"/>
       <use x="366.992188" xlink:href="#ArialMT-45"/>
       <use x="400.292969" xlink:href="#ArialMT-50"/>
       <use x="455.908203" xlink:href="#ArialMT-55"/>
      </g>
     </g>
    </g>
    <g id="xtick_9">
     <g id="line2d_9">
      <path clip-path="url(#peb67f66960)" d="M 678.619318 392.2 
L 678.619318 20.8 
" style="fill:none;stroke:#808080;stroke-linecap:round;stroke-opacity:0.2;"/>
     </g>
     <g id="text_9">
      <!-- 2020-05-11 -->
      <defs>
       <path d="M 4.15625 18.75 
L 13.375 19.53125 
Q 14.40625 12.796875 18.140625 9.390625 
Q 21.875 6 27.15625 6 
Q 33.5 6 37.890625 10.78125 
Q 42.28125 15.578125 42.28125 23.484375 
Q 42.28125 31 38.0625 35.34375 
Q 33.84375 39.703125 27 39.703125 
Q 22.75 39.703125 19.328125 37.765625 
Q 15.921875 35.84375 13.96875 32.765625 
L 5.71875 33.84375 
L 12.640625 70.609375 
L 48.25 70.609375 
L 48.25 62.203125 
L 19.671875 62.203125 
L 15.828125 42.96875 
Q 22.265625 47.46875 29.34375 47.46875 
Q 38.71875 47.46875 45.15625 40.96875 
Q 51.609375 34.46875 51.609375 24.265625 
Q 51.609375 14.546875 45.953125 7.46875 
Q 39.0625 -1.21875 27.15625 -1.21875 
Q 17.390625 -1.21875 11.203125 4.25 
Q 5.03125 9.71875 4.15625 18.75 
z
" id="ArialMT-53"/>
      </defs>
      <g style="fill:#262626;" transform="translate(653.414631 406.357812)scale(0.1 -0.1)">
       <use xlink:href="#ArialMT-50"/>
       <use x="55.615234" xlink:href="#ArialMT-48"/>
       <use x="111.230469" xlink:href="#ArialMT-50"/>
       <use x="166.845703" xlink:href="#ArialMT-48"/>
       <use x="222.460938" xlink:href="#ArialMT-45"/>
       <use x="255.761719" xlink:href="#ArialMT-48"/>
       <use x="311.376953" xlink:href="#ArialMT-53"/>
       <use x="366.992188" xlink:href="#ArialMT-45"/>
       <use x="400.292969" xlink:href="#ArialMT-49"/>
       <use x="448.533203" xlink:href="#ArialMT-49"/>
      </g>
     </g>
    </g>
    <g id="text_10">
     <!-- Date -->
     <defs>
      <path d="M 7.71875 0 
L 7.71875 71.578125 
L 32.375 71.578125 
Q 40.71875 71.578125 45.125 70.5625 
Q 51.265625 69.140625 55.609375 65.4375 
Q 61.28125 60.640625 64.078125 53.1875 
Q 66.890625 45.75 66.890625 36.1875 
Q 66.890625 28.03125 64.984375 21.734375 
Q 63.09375 15.4375 60.109375 11.296875 
Q 57.125 7.171875 53.578125 4.796875 
Q 50.046875 2.4375 45.046875 1.21875 
Q 40.046875 0 33.546875 0 
z
M 17.1875 8.453125 
L 32.46875 8.453125 
Q 39.546875 8.453125 43.578125 9.765625 
Q 47.609375 11.078125 50 13.484375 
Q 53.375 16.84375 55.25 22.53125 
Q 57.125 28.21875 57.125 36.328125 
Q 57.125 47.5625 53.4375 53.59375 
Q 49.75 59.625 44.484375 61.671875 
Q 40.671875 63.140625 32.234375 63.140625 
L 17.1875 63.140625 
z
" id="ArialMT-68"/>
      <path d="M 40.4375 6.390625 
Q 35.546875 2.25 31.03125 0.53125 
Q 26.515625 -1.171875 21.34375 -1.171875 
Q 12.796875 -1.171875 8.203125 3 
Q 3.609375 7.171875 3.609375 13.671875 
Q 3.609375 17.484375 5.34375 20.625 
Q 7.078125 23.78125 9.890625 25.6875 
Q 12.703125 27.59375 16.21875 28.5625 
Q 18.796875 29.25 24.03125 29.890625 
Q 34.671875 31.15625 39.703125 32.90625 
Q 39.75 34.71875 39.75 35.203125 
Q 39.75 40.578125 37.25 42.78125 
Q 33.890625 45.75 27.25 45.75 
Q 21.046875 45.75 18.09375 43.578125 
Q 15.140625 41.40625 13.71875 35.890625 
L 5.125 37.0625 
Q 6.296875 42.578125 8.984375 45.96875 
Q 11.671875 49.359375 16.75 51.1875 
Q 21.828125 53.03125 28.515625 53.03125 
Q 35.15625 53.03125 39.296875 51.46875 
Q 43.453125 49.90625 45.40625 47.53125 
Q 47.359375 45.171875 48.140625 41.546875 
Q 48.578125 39.3125 48.578125 33.453125 
L 48.578125 21.734375 
Q 48.578125 9.46875 49.140625 6.21875 
Q 49.703125 2.984375 51.375 0 
L 42.1875 0 
Q 40.828125 2.734375 40.4375 6.390625 
z
M 39.703125 26.03125 
Q 34.90625 24.078125 25.34375 22.703125 
Q 19.921875 21.921875 17.671875 20.9375 
Q 15.4375 19.96875 14.203125 18.09375 
Q 12.984375 16.21875 12.984375 13.921875 
Q 12.984375 10.40625 15.640625 8.0625 
Q 18.3125 5.71875 23.4375 5.71875 
Q 28.515625 5.71875 32.46875 7.9375 
Q 36.421875 10.15625 38.28125 14.015625 
Q 39.703125 17 39.703125 22.796875 
z
" id="ArialMT-97"/>
      <path d="M 25.78125 7.859375 
L 27.046875 0.09375 
Q 23.34375 -0.6875 20.40625 -0.6875 
Q 15.625 -0.6875 12.984375 0.828125 
Q 10.359375 2.34375 9.28125 4.8125 
Q 8.203125 7.28125 8.203125 15.1875 
L 8.203125 45.015625 
L 1.765625 45.015625 
L 1.765625 51.859375 
L 8.203125 51.859375 
L 8.203125 64.703125 
L 16.9375 69.96875 
L 16.9375 51.859375 
L 25.78125 51.859375 
L 25.78125 45.015625 
L 16.9375 45.015625 
L 16.9375 14.703125 
Q 16.9375 10.9375 17.40625 9.859375 
Q 17.875 8.796875 18.921875 8.15625 
Q 19.96875 7.515625 21.921875 7.515625 
Q 23.390625 7.515625 25.78125 7.859375 
z
" id="ArialMT-116"/>
      <path d="M 42.09375 16.703125 
L 51.171875 15.578125 
Q 49.03125 7.625 43.21875 3.21875 
Q 37.40625 -1.171875 28.375 -1.171875 
Q 17 -1.171875 10.328125 5.828125 
Q 3.65625 12.84375 3.65625 25.484375 
Q 3.65625 38.578125 10.390625 45.796875 
Q 17.140625 53.03125 27.875 53.03125 
Q 38.28125 53.03125 44.875 45.953125 
Q 51.46875 38.875 51.46875 26.03125 
Q 51.46875 25.25 51.421875 23.6875 
L 12.75 23.6875 
Q 13.234375 15.140625 17.578125 10.59375 
Q 21.921875 6.0625 28.421875 6.0625 
Q 33.25 6.0625 36.671875 8.59375 
Q 40.09375 11.140625 42.09375 16.703125 
z
M 13.234375 30.90625 
L 42.1875 30.90625 
Q 41.609375 37.453125 38.875 40.71875 
Q 34.671875 45.796875 27.984375 45.796875 
Q 21.921875 45.796875 17.796875 41.75 
Q 13.671875 37.703125 13.234375 30.90625 
z
" id="ArialMT-101"/>
     </defs>
     <g style="fill:#262626;" transform="translate(362.251563 419.503125)scale(0.1 -0.1)">
      <use xlink:href="#ArialMT-68"/>
      <use x="72.216797" xlink:href="#ArialMT-97"/>
      <use x="127.832031" xlink:href="#ArialMT-116"/>
      <use x="155.615234" xlink:href="#ArialMT-101"/>
     </g>
    </g>
   </g>
   <g id="matplotlib.axis_2">
    <g id="ytick_1">
     <g id="line2d_10">
      <path clip-path="url(#peb67f66960)" d="M 36.425 374.506744 
L 709.2 374.506744 
" style="fill:none;stroke:#808080;stroke-linecap:round;stroke-opacity:0.2;"/>
     </g>
     <g id="text_11">
      <!-- 0 -->
      <g style="fill:#262626;" transform="translate(23.864062 378.08565)scale(0.1 -0.1)">
       <use xlink:href="#ArialMT-48"/>
      </g>
     </g>
    </g>
    <g id="ytick_2">
     <g id="line2d_11">
      <path clip-path="url(#peb67f66960)" d="M 36.425 294.477189 
L 709.2 294.477189 
" style="fill:none;stroke:#808080;stroke-linecap:round;stroke-opacity:0.2;"/>
     </g>
     <g id="text_12">
      <!-- 1 -->
      <g style="fill:#262626;" transform="translate(23.864062 298.056095)scale(0.1 -0.1)">
       <use xlink:href="#ArialMT-49"/>
      </g>
     </g>
    </g>
    <g id="ytick_3">
     <g id="line2d_12">
      <path clip-path="url(#peb67f66960)" d="M 36.425 214.447634 
L 709.2 214.447634 
" style="fill:none;stroke:#808080;stroke-linecap:round;stroke-opacity:0.2;"/>
     </g>
     <g id="text_13">
      <!-- 2 -->
      <g style="fill:#262626;" transform="translate(23.864062 218.02654)scale(0.1 -0.1)">
       <use xlink:href="#ArialMT-50"/>
      </g>
     </g>
    </g>
    <g id="ytick_4">
     <g id="line2d_13">
      <path clip-path="url(#peb67f66960)" d="M 36.425 134.418079 
L 709.2 134.418079 
" style="fill:none;stroke:#808080;stroke-linecap:round;stroke-opacity:0.2;"/>
     </g>
     <g id="text_14">
      <!-- 3 -->
      <g style="fill:#262626;" transform="translate(23.864062 137.996985)scale(0.1 -0.1)">
       <use xlink:href="#ArialMT-51"/>
      </g>
     </g>
    </g>
    <g id="ytick_5">
     <g id="line2d_14">
      <path clip-path="url(#peb67f66960)" d="M 36.425 54.388524 
L 709.2 54.388524 
" style="fill:none;stroke:#808080;stroke-linecap:round;stroke-opacity:0.2;"/>
     </g>
     <g id="text_15">
      <!-- 4 -->
      <g style="fill:#262626;" transform="translate(23.864062 57.96743)scale(0.1 -0.1)">
       <use xlink:href="#ArialMT-52"/>
      </g>
     </g>
    </g>
    <g id="text_16">
     <!-- Cases (per 1 million) -->
     <defs>
      <path d="M 58.796875 25.09375 
L 68.265625 22.703125 
Q 65.28125 11.03125 57.546875 4.90625 
Q 49.8125 -1.21875 38.625 -1.21875 
Q 27.046875 -1.21875 19.796875 3.484375 
Q 12.546875 8.203125 8.765625 17.140625 
Q 4.984375 26.078125 4.984375 36.328125 
Q 4.984375 47.515625 9.25 55.828125 
Q 13.53125 64.15625 21.40625 68.46875 
Q 29.296875 72.796875 38.765625 72.796875 
Q 49.515625 72.796875 56.828125 67.328125 
Q 64.15625 61.859375 67.046875 51.953125 
L 57.71875 49.75 
Q 55.21875 57.5625 50.484375 61.125 
Q 45.75 64.703125 38.578125 64.703125 
Q 30.328125 64.703125 24.78125 60.734375 
Q 19.234375 56.78125 16.984375 50.109375 
Q 14.75 43.453125 14.75 36.375 
Q 14.75 27.25 17.40625 20.4375 
Q 20.0625 13.625 25.671875 10.25 
Q 31.296875 6.890625 37.84375 6.890625 
Q 45.796875 6.890625 51.3125 11.46875 
Q 56.84375 16.0625 58.796875 25.09375 
z
" id="ArialMT-67"/>
      <path d="M 3.078125 15.484375 
L 11.765625 16.84375 
Q 12.5 11.625 15.84375 8.84375 
Q 19.1875 6.0625 25.203125 6.0625 
Q 31.25 6.0625 34.171875 8.515625 
Q 37.109375 10.984375 37.109375 14.3125 
Q 37.109375 17.28125 34.515625 19 
Q 32.71875 20.171875 25.53125 21.96875 
Q 15.875 24.421875 12.140625 26.203125 
Q 8.40625 27.984375 6.46875 31.125 
Q 4.546875 34.28125 4.546875 38.09375 
Q 4.546875 41.546875 6.125 44.5 
Q 7.71875 47.46875 10.453125 49.421875 
Q 12.5 50.921875 16.03125 51.96875 
Q 19.578125 53.03125 23.640625 53.03125 
Q 29.734375 53.03125 34.34375 51.265625 
Q 38.96875 49.515625 41.15625 46.5 
Q 43.359375 43.5 44.1875 38.484375 
L 35.59375 37.3125 
Q 35.015625 41.3125 32.203125 43.546875 
Q 29.390625 45.796875 24.265625 45.796875 
Q 18.21875 45.796875 15.625 43.796875 
Q 13.03125 41.796875 13.03125 39.109375 
Q 13.03125 37.40625 14.109375 36.03125 
Q 15.1875 34.625 17.484375 33.6875 
Q 18.796875 33.203125 25.25 31.453125 
Q 34.578125 28.953125 38.25 27.359375 
Q 41.9375 25.78125 44.03125 22.75 
Q 46.140625 19.734375 46.140625 15.234375 
Q 46.140625 10.84375 43.578125 6.953125 
Q 41.015625 3.078125 36.171875 0.953125 
Q 31.34375 -1.171875 25.25 -1.171875 
Q 15.140625 -1.171875 9.84375 3.03125 
Q 4.546875 7.234375 3.078125 15.484375 
z
" id="ArialMT-115"/>
      <path id="ArialMT-32"/>
      <path d="M 23.390625 -21.046875 
Q 16.109375 -11.859375 11.078125 0.4375 
Q 6.0625 12.75 6.0625 25.921875 
Q 6.0625 37.546875 9.8125 48.1875 
Q 14.203125 60.546875 23.390625 72.796875 
L 29.6875 72.796875 
Q 23.78125 62.640625 21.875 58.296875 
Q 18.890625 51.5625 17.1875 44.234375 
Q 15.09375 35.109375 15.09375 25.875 
Q 15.09375 2.390625 29.6875 -21.046875 
z
" id="ArialMT-40"/>
      <path d="M 6.59375 -19.875 
L 6.59375 51.859375 
L 14.59375 51.859375 
L 14.59375 45.125 
Q 17.4375 49.078125 21 51.046875 
Q 24.5625 53.03125 29.640625 53.03125 
Q 36.28125 53.03125 41.359375 49.609375 
Q 46.4375 46.1875 49.015625 39.953125 
Q 51.609375 33.734375 51.609375 26.3125 
Q 51.609375 18.359375 48.75 11.984375 
Q 45.90625 5.609375 40.453125 2.21875 
Q 35.015625 -1.171875 29 -1.171875 
Q 24.609375 -1.171875 21.109375 0.6875 
Q 17.625 2.546875 15.375 5.375 
L 15.375 -19.875 
z
M 14.546875 25.640625 
Q 14.546875 15.625 18.59375 10.84375 
Q 22.65625 6.0625 28.421875 6.0625 
Q 34.28125 6.0625 38.453125 11.015625 
Q 42.625 15.96875 42.625 26.375 
Q 42.625 36.28125 38.546875 41.203125 
Q 34.46875 46.140625 28.8125 46.140625 
Q 23.1875 46.140625 18.859375 40.890625 
Q 14.546875 35.640625 14.546875 25.640625 
z
" id="ArialMT-112"/>
      <path d="M 6.5 0 
L 6.5 51.859375 
L 14.40625 51.859375 
L 14.40625 44 
Q 17.4375 49.515625 20 51.265625 
Q 22.5625 53.03125 25.640625 53.03125 
Q 30.078125 53.03125 34.671875 50.203125 
L 31.640625 42.046875 
Q 28.421875 43.953125 25.203125 43.953125 
Q 22.3125 43.953125 20.015625 42.21875 
Q 17.71875 40.484375 16.75 37.40625 
Q 15.28125 32.71875 15.28125 27.15625 
L 15.28125 0 
z
" id="ArialMT-114"/>
      <path d="M 6.59375 0 
L 6.59375 51.859375 
L 14.453125 51.859375 
L 14.453125 44.578125 
Q 16.890625 48.390625 20.9375 50.703125 
Q 25 53.03125 30.171875 53.03125 
Q 35.9375 53.03125 39.625 50.640625 
Q 43.3125 48.25 44.828125 43.953125 
Q 50.984375 53.03125 60.84375 53.03125 
Q 68.5625 53.03125 72.703125 48.75 
Q 76.859375 44.484375 76.859375 35.59375 
L 76.859375 0 
L 68.109375 0 
L 68.109375 32.671875 
Q 68.109375 37.9375 67.25 40.25 
Q 66.40625 42.578125 64.15625 43.984375 
Q 61.921875 45.40625 58.890625 45.40625 
Q 53.421875 45.40625 49.796875 41.765625 
Q 46.1875 38.140625 46.1875 30.125 
L 46.1875 0 
L 37.40625 0 
L 37.40625 33.6875 
Q 37.40625 39.546875 35.25 42.46875 
Q 33.109375 45.40625 28.21875 45.40625 
Q 24.515625 45.40625 21.359375 43.453125 
Q 18.21875 41.5 16.796875 37.734375 
Q 15.375 33.984375 15.375 26.90625 
L 15.375 0 
z
" id="ArialMT-109"/>
      <path d="M 6.640625 61.46875 
L 6.640625 71.578125 
L 15.4375 71.578125 
L 15.4375 61.46875 
z
M 6.640625 0 
L 6.640625 51.859375 
L 15.4375 51.859375 
L 15.4375 0 
z
" id="ArialMT-105"/>
      <path d="M 6.390625 0 
L 6.390625 71.578125 
L 15.1875 71.578125 
L 15.1875 0 
z
" id="ArialMT-108"/>
      <path d="M 3.328125 25.921875 
Q 3.328125 40.328125 11.328125 47.265625 
Q 18.015625 53.03125 27.640625 53.03125 
Q 38.328125 53.03125 45.109375 46.015625 
Q 51.90625 39.015625 51.90625 26.65625 
Q 51.90625 16.65625 48.90625 10.90625 
Q 45.90625 5.171875 40.15625 2 
Q 34.421875 -1.171875 27.640625 -1.171875 
Q 16.75 -1.171875 10.03125 5.8125 
Q 3.328125 12.796875 3.328125 25.921875 
z
M 12.359375 25.921875 
Q 12.359375 15.96875 16.703125 11.015625 
Q 21.046875 6.0625 27.640625 6.0625 
Q 34.1875 6.0625 38.53125 11.03125 
Q 42.875 16.015625 42.875 26.21875 
Q 42.875 35.84375 38.5 40.796875 
Q 34.125 45.75 27.640625 45.75 
Q 21.046875 45.75 16.703125 40.8125 
Q 12.359375 35.890625 12.359375 25.921875 
z
" id="ArialMT-111"/>
      <path d="M 6.59375 0 
L 6.59375 51.859375 
L 14.5 51.859375 
L 14.5 44.484375 
Q 20.21875 53.03125 31 53.03125 
Q 35.6875 53.03125 39.625 51.34375 
Q 43.5625 49.65625 45.515625 46.921875 
Q 47.46875 44.1875 48.25 40.4375 
Q 48.734375 37.984375 48.734375 31.890625 
L 48.734375 0 
L 39.9375 0 
L 39.9375 31.546875 
Q 39.9375 36.921875 38.90625 39.578125 
Q 37.890625 42.234375 35.28125 43.8125 
Q 32.671875 45.40625 29.15625 45.40625 
Q 23.53125 45.40625 19.453125 41.84375 
Q 15.375 38.28125 15.375 28.328125 
L 15.375 0 
z
" id="ArialMT-110"/>
      <path d="M 12.359375 -21.046875 
L 6.0625 -21.046875 
Q 20.65625 2.390625 20.65625 25.875 
Q 20.65625 35.0625 18.5625 44.09375 
Q 16.890625 51.421875 13.921875 58.15625 
Q 12.015625 62.546875 6.0625 72.796875 
L 12.359375 72.796875 
Q 21.53125 60.546875 25.921875 48.1875 
Q 29.6875 37.546875 29.6875 25.921875 
Q 29.6875 12.75 24.625 0.4375 
Q 19.578125 -11.859375 12.359375 -21.046875 
z
" id="ArialMT-41"/>
     </defs>
     <g style="fill:#262626;" transform="translate(17.759375 252.344531)rotate(-90)scale(0.1 -0.1)">
      <use xlink:href="#ArialMT-67"/>
      <use x="72.216797" xlink:href="#ArialMT-97"/>
      <use x="127.832031" xlink:href="#ArialMT-115"/>
      <use x="177.832031" xlink:href="#ArialMT-101"/>
      <use x="233.447266" xlink:href="#ArialMT-115"/>
      <use x="283.447266" xlink:href="#ArialMT-32"/>
      <use x="311.230469" xlink:href="#ArialMT-40"/>
      <use x="344.53125" xlink:href="#ArialMT-112"/>
      <use x="400.146484" xlink:href="#ArialMT-101"/>
      <use x="455.761719" xlink:href="#ArialMT-114"/>
      <use x="489.0625" xlink:href="#ArialMT-32"/>
      <use x="516.845703" xlink:href="#ArialMT-49"/>
      <use x="572.460938" xlink:href="#ArialMT-32"/>
      <use x="600.244141" xlink:href="#ArialMT-109"/>
      <use x="683.544922" xlink:href="#ArialMT-105"/>
      <use x="705.761719" xlink:href="#ArialMT-108"/>
      <use x="727.978516" xlink:href="#ArialMT-108"/>
      <use x="750.195312" xlink:href="#ArialMT-105"/>
      <use x="772.412109" xlink:href="#ArialMT-111"/>
      <use x="828.027344" xlink:href="#ArialMT-110"/>
      <use x="883.642578" xlink:href="#ArialMT-41"/>
     </g>
    </g>
    <g id="text_17">
     <!-- 1e6 -->
     <g style="fill:#262626;" transform="translate(36.425 17.8)scale(0.1 -0.1)">
      <use xlink:href="#ArialMT-49"/>
      <use x="55.615234" xlink:href="#ArialMT-101"/>
      <use x="111.230469" xlink:href="#ArialMT-54"/>
     </g>
    </g>
   </g>
   <g id="PolyCollection_1">
    <defs>
     <path d="M 67.005682 -57.873524 
L 67.005682 -56.681818 
L 72.565806 -56.810747 
L 78.12593 -57.161185 
L 83.686054 -57.181965 
L 89.246178 -57.252521 
L 94.806302 -57.075185 
L 100.366426 -57.083585 
L 105.92655 -57.10277 
L 111.486674 -57.452623 
L 117.046798 -57.94158 
L 122.606921 -58.127657 
L 128.167045 -58.402609 
L 133.727169 -58.309083 
L 139.287293 -58.465437 
L 144.847417 -58.678342 
L 150.407541 -59.175371 
L 155.967665 -59.741968 
L 161.527789 -60.237607 
L 167.087913 -60.431174 
L 172.648037 -60.359235 
L 178.208161 -60.533922 
L 183.768285 -60.738789 
L 189.328409 -61.316365 
L 194.888533 -61.998737 
L 200.448657 -62.439142 
L 206.008781 -62.706698 
L 211.568905 -62.716859 
L 217.129029 -62.646536 
L 222.689153 -62.58945 
L 228.249277 -62.835534 
L 233.809401 -63.262271 
L 239.369525 -63.443967 
L 244.929649 -63.403244 
L 250.489773 -63.230819 
L 256.049897 -63.139005 
L 261.610021 -63.093594 
L 267.170145 -63.482311 
L 272.730269 -63.87978 
L 278.290393 -64.012535 
L 283.850517 -64.09377 
L 289.41064 -63.941045 
L 294.970764 -64.046408 
L 300.530888 -64.173147 
L 306.091012 -64.654547 
L 311.651136 -65.223431 
L 317.21126 -65.556112 
L 322.771384 -65.695147 
L 328.331508 -65.873322 
L 333.891632 -66.282327 
L 339.451756 -66.709865 
L 345.01188 -67.514073 
L 350.572004 -68.451846 
L 356.132128 -69.226347 
L 361.692252 -70.472278 
L 367.252376 -71.469374 
L 372.8125 -72.66797 
L 378.372624 -73.885121 
L 383.932748 -76.254254 
L 389.492872 -78.762215 
L 395.052996 -81.000026 
L 400.61312 -84.107641 
L 406.173244 -87.020944 
L 411.733368 -90.066374 
L 417.293492 -94.55356 
L 422.853616 -99.44029 
L 428.41374 -104.447193 
L 433.973864 -109.229556 
L 439.533988 -114.73117 
L 445.094112 -119.972997 
L 450.654236 -125.436994 
L 456.21436 -131.543074 
L 461.774483 -137.919216 
L 467.334607 -144.307859 
L 472.894731 -150.611953 
L 478.454855 -156.763067 
L 484.014979 -162.479417 
L 489.575103 -168.989104 
L 495.135227 -175.61167 
L 500.695351 -182.446647 
L 506.255475 -189.418702 
L 511.815599 -196.430943 
L 517.375723 -203.197212 
L 522.935847 -209.722249 
L 528.495971 -215.934838 
L 534.056095 -222.177622 
L 539.616219 -228.832429 
L 545.176343 -235.529234 
L 550.736467 -241.999031 
L 556.296591 -248.299308 
L 561.856715 -254.353396 
L 567.416839 -260.565786 
L 572.976963 -266.835856 
L 578.537087 -273.420009 
L 584.097211 -280.105265 
L 589.657335 -286.62009 
L 595.217459 -292.889931 
L 600.777583 -298.997366 
L 606.337707 -305.176504 
L 611.897831 -311.485237 
L 617.457955 -318.076952 
L 623.018079 -324.751815 
L 628.578202 -331.239804 
L 634.138326 -337.528948 
L 639.69845 -343.577241 
L 645.258574 -349.829046 
L 650.818698 -355.777349 
L 656.378822 -361.78879 
L 661.938946 -367.570617 
L 667.49907 -373.178568 
L 673.059194 -378.309522 
L 678.619318 -383.176151 
L 678.619318 -394.318182 
L 678.619318 -394.318182 
L 673.059194 -387.023132 
L 667.49907 -379.350385 
L 661.938946 -372.171005 
L 656.378822 -364.833968 
L 650.818698 -357.631807 
L 645.258574 -351.150122 
L 639.69845 -344.800951 
L 634.138326 -338.789278 
L 628.578202 -332.484438 
L 623.018079 -325.968259 
L 617.457955 -319.357364 
L 611.897831 -312.743805 
L 606.337707 -306.433686 
L 600.777583 -300.258864 
L 595.217459 -294.109864 
L 589.657335 -287.897193 
L 584.097211 -281.40177 
L 578.537087 -274.663806 
L 572.976963 -268.059787 
L 567.416839 -261.825928 
L 561.856715 -255.55108 
L 556.296591 -249.545322 
L 550.736467 -243.204521 
L 545.176343 -236.769334 
L 539.616219 -230.079472 
L 534.056095 -223.471139 
L 528.495971 -217.213184 
L 522.935847 -210.960227 
L 517.375723 -204.41134 
L 511.815599 -197.650857 
L 506.255475 -190.638016 
L 500.695351 -183.67876 
L 495.135227 -176.84338 
L 489.575103 -170.243873 
L 484.014979 -163.822621 
L 478.454855 -157.898967 
L 472.894731 -151.936812 
L 467.334607 -145.666708 
L 461.774483 -139.173112 
L 456.21436 -132.738995 
L 450.654236 -126.701155 
L 445.094112 -121.219224 
L 439.533988 -115.985345 
L 433.973864 -110.470874 
L 428.41374 -105.663283 
L 422.853616 -100.795717 
L 417.293492 -95.84218 
L 411.733368 -91.258156 
L 406.173244 -88.254141 
L 400.61312 -85.427777 
L 395.052996 -82.281495 
L 389.492872 -80.042353 
L 383.932748 -77.516891 
L 378.372624 -75.159469 
L 372.8125 -73.903708 
L 367.252376 -72.700387 
L 361.692252 -71.681853 
L 356.132128 -70.451996 
L 350.572004 -69.675227 
L 345.01188 -68.844004 
L 339.451756 -67.954343 
L 333.891632 -67.489888 
L 328.331508 -67.161831 
L 322.771384 -66.972113 
L 317.21126 -66.804566 
L 311.651136 -66.446703 
L 306.091012 -65.898544 
L 300.530888 -65.421498 
L 294.970764 -65.372761 
L 289.41064 -65.203171 
L 283.850517 -65.352943 
L 278.290393 -65.324096 
L 272.730269 -65.104917 
L 267.170145 -64.672847 
L 261.610021 -64.349457 
L 256.049897 -64.370326 
L 250.489773 -64.435329 
L 244.929649 -64.752852 
L 239.369525 -64.72495 
L 233.809401 -64.499404 
L 228.249277 -64.14713 
L 222.689153 -63.836952 
L 217.129029 -63.819104 
L 211.568905 -63.927306 
L 206.008781 -63.973546 
L 200.448657 -63.647039 
L 194.888533 -63.209442 
L 189.328409 -62.507668 
L 183.768285 -62.001036 
L 178.208161 -61.739701 
L 172.648037 -61.624481 
L 167.087913 -61.641032 
L 161.527789 -61.429064 
L 155.967665 -60.966716 
L 150.407541 -60.449415 
L 144.847417 -59.877121 
L 139.287293 -59.751679 
L 133.727169 -59.608998 
L 128.167045 -59.626409 
L 122.606921 -59.403298 
L 117.046798 -59.147045 
L 111.486674 -58.739936 
L 105.92655 -58.342175 
L 100.366426 -58.291798 
L 94.806302 -58.317608 
L 89.246178 -58.504184 
L 83.686054 -58.495934 
L 78.12593 -58.380573 
L 72.565806 -58.081301 
L 67.005682 -57.873524 
z
" id="md52da8d836" style="stroke:#0072b2;stroke-opacity:0.2;"/>
    </defs>
    <g clip-path="url(#peb67f66960)">
     <use style="fill:#0072b2;fill-opacity:0.2;stroke:#0072b2;stroke-opacity:0.2;" x="0" xlink:href="#md52da8d836" y="432"/>
    </g>
   </g>
   <g id="line2d_15">
    <defs>
     <path d="M 0 1.5 
C 0.397805 1.5 0.77937 1.341951 1.06066 1.06066 
C 1.341951 0.77937 1.5 0.397805 1.5 0 
C 1.5 -0.397805 1.341951 -0.77937 1.06066 -1.06066 
C 0.77937 -1.341951 0.397805 -1.5 0 -1.5 
C -0.397805 -1.5 -0.77937 -1.341951 -1.06066 -1.06066 
C -1.341951 -0.77937 -1.5 -0.397805 -1.5 0 
C -1.5 0.397805 -1.341951 0.77937 -1.06066 1.06066 
C -0.77937 1.341951 -0.397805 1.5 0 1.5 
z
" id="m9ca324e324" style="stroke:#1a1a1a;"/>
    </defs>
    <g clip-path="url(#peb67f66960)">
     <use style="fill:#1a1a1a;stroke:#1a1a1a;" x="67.005682" xlink:href="#m9ca324e324" y="374.462328"/>
     <use style="fill:#1a1a1a;stroke:#1a1a1a;" x="72.565806" xlink:href="#m9ca324e324" y="374.454405"/>
     <use style="fill:#1a1a1a;stroke:#1a1a1a;" x="78.12593" xlink:href="#m9ca324e324" y="374.431436"/>
     <use style="fill:#1a1a1a;stroke:#1a1a1a;" x="83.686054" xlink:href="#m9ca324e324" y="374.391982"/>
     <use style="fill:#1a1a1a;stroke:#1a1a1a;" x="89.246178" xlink:href="#m9ca324e324" y="374.337241"/>
     <use style="fill:#1a1a1a;stroke:#1a1a1a;" x="94.806302" xlink:href="#m9ca324e324" y="374.272498"/>
     <use style="fill:#1a1a1a;stroke:#1a1a1a;" x="100.366426" xlink:href="#m9ca324e324" y="374.060339"/>
     <use style="fill:#1a1a1a;stroke:#1a1a1a;" x="105.92655" xlink:href="#m9ca324e324" y="374.013282"/>
     <use style="fill:#1a1a1a;stroke:#1a1a1a;" x="111.486674" xlink:href="#m9ca324e324" y="373.847781"/>
     <use style="fill:#1a1a1a;stroke:#1a1a1a;" x="117.046798" xlink:href="#m9ca324e324" y="373.712291"/>
     <use style="fill:#1a1a1a;stroke:#1a1a1a;" x="122.606921" xlink:href="#m9ca324e324" y="373.543348"/>
     <use style="fill:#1a1a1a;stroke:#1a1a1a;" x="128.167045" xlink:href="#m9ca324e324" y="373.163288"/>
     <use style="fill:#1a1a1a;stroke:#1a1a1a;" x="133.727169" xlink:href="#m9ca324e324" y="372.915676"/>
     <use style="fill:#1a1a1a;stroke:#1a1a1a;" x="139.287293" xlink:href="#m9ca324e324" y="372.594678"/>
     <use style="fill:#1a1a1a;stroke:#1a1a1a;" x="144.847417" xlink:href="#m9ca324e324" y="372.295127"/>
     <use style="fill:#1a1a1a;stroke:#1a1a1a;" x="150.407541" xlink:href="#m9ca324e324" y="372.042314"/>
     <use style="fill:#1a1a1a;stroke:#1a1a1a;" x="155.967665" xlink:href="#m9ca324e324" y="371.754448"/>
     <use style="fill:#1a1a1a;stroke:#1a1a1a;" x="161.527789" xlink:href="#m9ca324e324" y="371.536047"/>
     <use style="fill:#1a1a1a;stroke:#1a1a1a;" x="167.087913" xlink:href="#m9ca324e324" y="371.293557"/>
     <use style="fill:#1a1a1a;stroke:#1a1a1a;" x="172.648037" xlink:href="#m9ca324e324" y="371.08452"/>
     <use style="fill:#1a1a1a;stroke:#1a1a1a;" x="178.208161" xlink:href="#m9ca324e324" y="370.92126"/>
     <use style="fill:#1a1a1a;stroke:#1a1a1a;" x="183.768285" xlink:href="#m9ca324e324" y="370.887728"/>
     <use style="fill:#1a1a1a;stroke:#1a1a1a;" x="189.328409" xlink:href="#m9ca324e324" y="369.67552"/>
     <use style="fill:#1a1a1a;stroke:#1a1a1a;" x="194.888533" xlink:href="#m9ca324e324" y="369.153967"/>
     <use style="fill:#1a1a1a;stroke:#1a1a1a;" x="200.448657" xlink:href="#m9ca324e324" y="368.982304"/>
     <use style="fill:#1a1a1a;stroke:#1a1a1a;" x="206.008781" xlink:href="#m9ca324e324" y="368.806719"/>
     <use style="fill:#1a1a1a;stroke:#1a1a1a;" x="211.568905" xlink:href="#m9ca324e324" y="368.643939"/>
     <use style="fill:#1a1a1a;stroke:#1a1a1a;" x="217.129029" xlink:href="#m9ca324e324" y="368.493643"/>
     <use style="fill:#1a1a1a;stroke:#1a1a1a;" x="222.689153" xlink:href="#m9ca324e324" y="368.453389"/>
     <use style="fill:#1a1a1a;stroke:#1a1a1a;" x="228.249277" xlink:href="#m9ca324e324" y="368.408732"/>
     <use style="fill:#1a1a1a;stroke:#1a1a1a;" x="233.809401" xlink:href="#m9ca324e324" y="368.358954"/>
     <use style="fill:#1a1a1a;stroke:#1a1a1a;" x="239.369525" xlink:href="#m9ca324e324" y="368.218662"/>
     <use style="fill:#1a1a1a;stroke:#1a1a1a;" x="244.929649" xlink:href="#m9ca324e324" y="368.18777"/>
     <use style="fill:#1a1a1a;stroke:#1a1a1a;" x="250.489773" xlink:href="#m9ca324e324" y="368.139513"/>
     <use style="fill:#1a1a1a;stroke:#1a1a1a;" x="256.049897" xlink:href="#m9ca324e324" y="368.071888"/>
     <use style="fill:#1a1a1a;stroke:#1a1a1a;" x="261.610021" xlink:href="#m9ca324e324" y="367.993299"/>
     <use style="fill:#1a1a1a;stroke:#1a1a1a;" x="267.170145" xlink:href="#m9ca324e324" y="367.884618"/>
     <use style="fill:#1a1a1a;stroke:#1a1a1a;" x="272.730269" xlink:href="#m9ca324e324" y="367.775298"/>
     <use style="fill:#1a1a1a;stroke:#1a1a1a;" x="278.290393" xlink:href="#m9ca324e324" y="367.623322"/>
     <use style="fill:#1a1a1a;stroke:#1a1a1a;" x="283.850517" xlink:href="#m9ca324e324" y="367.434612"/>
     <use style="fill:#1a1a1a;stroke:#1a1a1a;" x="289.41064" xlink:href="#m9ca324e324" y="367.279595"/>
     <use style="fill:#1a1a1a;stroke:#1a1a1a;" x="294.970764" xlink:href="#m9ca324e324" y="367.0768"/>
     <use style="fill:#1a1a1a;stroke:#1a1a1a;" x="300.530888" xlink:href="#m9ca324e324" y="366.894333"/>
     <use style="fill:#1a1a1a;stroke:#1a1a1a;" x="306.091012" xlink:href="#m9ca324e324" y="366.672971"/>
     <use style="fill:#1a1a1a;stroke:#1a1a1a;" x="311.651136" xlink:href="#m9ca324e324" y="366.359655"/>
     <use style="fill:#1a1a1a;stroke:#1a1a1a;" x="317.21126" xlink:href="#m9ca324e324" y="366.035856"/>
     <use style="fill:#1a1a1a;stroke:#1a1a1a;" x="322.771384" xlink:href="#m9ca324e324" y="365.717818"/>
     <use style="fill:#1a1a1a;stroke:#1a1a1a;" x="328.331508" xlink:href="#m9ca324e324" y="365.416187"/>
     <use style="fill:#1a1a1a;stroke:#1a1a1a;" x="333.891632" xlink:href="#m9ca324e324" y="365.013638"/>
     <use style="fill:#1a1a1a;stroke:#1a1a1a;" x="339.451756" xlink:href="#m9ca324e324" y="364.433024"/>
     <use style="fill:#1a1a1a;stroke:#1a1a1a;" x="345.01188" xlink:href="#m9ca324e324" y="364.234791"/>
     <use style="fill:#1a1a1a;stroke:#1a1a1a;" x="350.572004" xlink:href="#m9ca324e324" y="362.884932"/>
     <use style="fill:#1a1a1a;stroke:#1a1a1a;" x="356.132128" xlink:href="#m9ca324e324" y="362.01285"/>
     <use style="fill:#1a1a1a;stroke:#1a1a1a;" x="361.692252" xlink:href="#m9ca324e324" y="361.104515"/>
     <use style="fill:#1a1a1a;stroke:#1a1a1a;" x="367.252376" xlink:href="#m9ca324e324" y="359.973137"/>
     <use style="fill:#1a1a1a;stroke:#1a1a1a;" x="372.8125" xlink:href="#m9ca324e324" y="358.731878"/>
     <use style="fill:#1a1a1a;stroke:#1a1a1a;" x="378.372624" xlink:href="#m9ca324e324" y="357.312714"/>
     <use style="fill:#1a1a1a;stroke:#1a1a1a;" x="383.932748" xlink:href="#m9ca324e324" y="355.090294"/>
     <use style="fill:#1a1a1a;stroke:#1a1a1a;" x="389.492872" xlink:href="#m9ca324e324" y="352.718938"/>
     <use style="fill:#1a1a1a;stroke:#1a1a1a;" x="395.052996" xlink:href="#m9ca324e324" y="350.133343"/>
     <use style="fill:#1a1a1a;stroke:#1a1a1a;" x="400.61312" xlink:href="#m9ca324e324" y="347.535343"/>
     <use style="fill:#1a1a1a;stroke:#1a1a1a;" x="406.173244" xlink:href="#m9ca324e324" y="344.233004"/>
     <use style="fill:#1a1a1a;stroke:#1a1a1a;" x="411.733368" xlink:href="#m9ca324e324" y="341.048068"/>
     <use style="fill:#1a1a1a;stroke:#1a1a1a;" x="417.293492" xlink:href="#m9ca324e324" y="337.07508"/>
     <use style="fill:#1a1a1a;stroke:#1a1a1a;" x="422.853616" xlink:href="#m9ca324e324" y="332.115009"/>
     <use style="fill:#1a1a1a;stroke:#1a1a1a;" x="428.41374" xlink:href="#m9ca324e324" y="327.015365"/>
     <use style="fill:#1a1a1a;stroke:#1a1a1a;" x="433.973864" xlink:href="#m9ca324e324" y="321.621293"/>
     <use style="fill:#1a1a1a;stroke:#1a1a1a;" x="439.533988" xlink:href="#m9ca324e324" y="316.862656"/>
     <use style="fill:#1a1a1a;stroke:#1a1a1a;" x="445.094112" xlink:href="#m9ca324e324" y="311.884418"/>
     <use style="fill:#1a1a1a;stroke:#1a1a1a;" x="450.654236" xlink:href="#m9ca324e324" y="305.872757"/>
     <use style="fill:#1a1a1a;stroke:#1a1a1a;" x="456.21436" xlink:href="#m9ca324e324" y="299.86814"/>
     <use style="fill:#1a1a1a;stroke:#1a1a1a;" x="461.774483" xlink:href="#m9ca324e324" y="293.400151"/>
     <use style="fill:#1a1a1a;stroke:#1a1a1a;" x="467.334607" xlink:href="#m9ca324e324" y="286.804275"/>
     <use style="fill:#1a1a1a;stroke:#1a1a1a;" x="472.894731" xlink:href="#m9ca324e324" y="280.387266"/>
     <use style="fill:#1a1a1a;stroke:#1a1a1a;" x="478.454855" xlink:href="#m9ca324e324" y="274.490848"/>
     <use style="fill:#1a1a1a;stroke:#1a1a1a;" x="484.014979" xlink:href="#m9ca324e324" y="268.753529"/>
     <use style="fill:#1a1a1a;stroke:#1a1a1a;" x="489.575103" xlink:href="#m9ca324e324" y="262.750432"/>
     <use style="fill:#1a1a1a;stroke:#1a1a1a;" x="495.135227" xlink:href="#m9ca324e324" y="256.046997"/>
     <use style="fill:#1a1a1a;stroke:#1a1a1a;" x="500.695351" xlink:href="#m9ca324e324" y="249.217435"/>
     <use style="fill:#1a1a1a;stroke:#1a1a1a;" x="506.255475" xlink:href="#m9ca324e324" y="241.823424"/>
     <use style="fill:#1a1a1a;stroke:#1a1a1a;" x="511.815599" xlink:href="#m9ca324e324" y="235.573436"/>
     <use style="fill:#1a1a1a;stroke:#1a1a1a;" x="517.375723" xlink:href="#m9ca324e324" y="227.639386"/>
     <use style="fill:#1a1a1a;stroke:#1a1a1a;" x="522.935847" xlink:href="#m9ca324e324" y="222.035076"/>
     <use style="fill:#1a1a1a;stroke:#1a1a1a;" x="528.495971" xlink:href="#m9ca324e324" y="216.401876"/>
     <use style="fill:#1a1a1a;stroke:#1a1a1a;" x="534.056095" xlink:href="#m9ca324e324" y="210.005514"/>
     <use style="fill:#1a1a1a;stroke:#1a1a1a;" x="539.616219" xlink:href="#m9ca324e324" y="202.293386"/>
     <use style="fill:#1a1a1a;stroke:#1a1a1a;" x="545.176343" xlink:href="#m9ca324e324" y="195.262709"/>
     <use style="fill:#1a1a1a;stroke:#1a1a1a;" x="550.736467" xlink:href="#m9ca324e324" y="189.051135"/>
     <use style="fill:#1a1a1a;stroke:#1a1a1a;" x="556.296591" xlink:href="#m9ca324e324" y="182.364266"/>
     <use style="fill:#1a1a1a;stroke:#1a1a1a;" x="561.856715" xlink:href="#m9ca324e324" y="176.685929"/>
     <use style="fill:#1a1a1a;stroke:#1a1a1a;" x="567.416839" xlink:href="#m9ca324e324" y="170.497403"/>
     <use style="fill:#1a1a1a;stroke:#1a1a1a;" x="572.976963" xlink:href="#m9ca324e324" y="164.44989"/>
     <use style="fill:#1a1a1a;stroke:#1a1a1a;" x="578.537087" xlink:href="#m9ca324e324" y="157.742933"/>
     <use style="fill:#1a1a1a;stroke:#1a1a1a;" x="584.097211" xlink:href="#m9ca324e324" y="150.754112"/>
     <use style="fill:#1a1a1a;stroke:#1a1a1a;" x="589.657335" xlink:href="#m9ca324e324" y="143.930392"/>
     <use style="fill:#1a1a1a;stroke:#1a1a1a;" x="595.217459" xlink:href="#m9ca324e324" y="138.016768"/>
     <use style="fill:#1a1a1a;stroke:#1a1a1a;" x="600.777583" xlink:href="#m9ca324e324" y="132.519618"/>
     <use style="fill:#1a1a1a;stroke:#1a1a1a;" x="606.337707" xlink:href="#m9ca324e324" y="126.640007"/>
     <use style="fill:#1a1a1a;stroke:#1a1a1a;" x="611.897831" xlink:href="#m9ca324e324" y="120.630027"/>
     <use style="fill:#1a1a1a;stroke:#1a1a1a;" x="617.457955" xlink:href="#m9ca324e324" y="113.862248"/>
     <use style="fill:#1a1a1a;stroke:#1a1a1a;" x="623.018079" xlink:href="#m9ca324e324" y="106.905759"/>
     <use style="fill:#1a1a1a;stroke:#1a1a1a;" x="628.578202" xlink:href="#m9ca324e324" y="100.218009"/>
     <use style="fill:#1a1a1a;stroke:#1a1a1a;" x="634.138326" xlink:href="#m9ca324e324" y="93.864783"/>
     <use style="fill:#1a1a1a;stroke:#1a1a1a;" x="639.69845" xlink:href="#m9ca324e324" y="87.756447"/>
    </g>
   </g>
   <g id="line2d_16">
    <path clip-path="url(#peb67f66960)" d="M 67.005682 374.740224 
L 72.565806 374.538601 
L 78.12593 374.247214 
L 83.686054 374.155393 
L 89.246178 374.105454 
L 94.806302 374.297578 
L 100.366426 374.296975 
L 105.92655 374.268939 
L 111.486674 373.909449 
L 117.046798 373.460196 
L 122.606921 373.210508 
L 128.167045 373.00909 
L 133.727169 373.049734 
L 139.287293 372.897653 
L 144.847417 372.718137 
L 150.407541 372.207169 
L 155.967665 371.606436 
L 161.527789 371.194464 
L 167.087913 370.982241 
L 172.648037 371.01208 
L 178.208161 370.849193 
L 183.768285 370.619314 
L 189.328409 370.057981 
L 194.888533 369.406886 
L 200.448657 368.956895 
L 206.008781 368.706653 
L 211.568905 368.698475 
L 217.129029 368.758572 
L 222.689153 368.791234 
L 228.249277 368.492444 
L 233.809401 368.10389 
L 239.369525 367.914547 
L 244.929649 367.924953 
L 250.489773 368.177421 
L 256.049897 368.225483 
L 261.610021 368.246111 
L 267.170145 367.935285 
L 272.730269 367.531891 
L 278.290393 367.328063 
L 283.850517 367.323983 
L 289.41064 367.413289 
L 294.970764 367.309869 
L 300.530888 367.179016 
L 306.091012 366.716708 
L 311.651136 366.164638 
L 317.21126 365.812132 
L 322.771384 365.659376 
L 328.331508 365.479732 
L 333.891632 365.107362 
L 339.451756 364.707559 
L 345.01188 363.861266 
L 350.572004 362.92521 
L 356.132128 362.18872 
L 361.692252 360.93476 
L 367.252376 359.922863 
L 372.8125 358.71824 
L 378.372624 357.486182 
L 383.932748 355.095389 
L 389.492872 352.614833 
L 395.052996 350.333842 
L 400.61312 347.239178 
L 406.173244 344.386577 
L 411.733368 341.34125 
L 417.293492 336.791735 
L 422.853616 331.910766 
L 428.41374 326.940034 
L 433.973864 322.168868 
L 439.533988 316.658074 
L 445.094112 311.389344 
L 450.654236 305.927888 
L 456.21436 299.875348 
L 461.774483 293.491355 
L 467.334607 287.017598 
L 472.894731 280.743407 
L 478.454855 274.668964 
L 484.014979 268.836584 
L 489.575103 262.324829 
L 495.135227 255.78564 
L 500.695351 248.914997 
L 506.255475 241.954591 
L 511.815599 234.981268 
L 517.375723 228.207693 
L 522.935847 221.676181 
L 528.495971 215.43498 
L 534.056095 209.166344 
L 539.616219 202.566255 
L 545.176343 195.876403 
L 550.736467 189.386116 
L 556.296591 183.095577 
L 561.856715 177.047102 
L 567.416839 170.8059 
L 572.976963 164.537265 
L 578.537087 157.937176 
L 584.097211 151.247324 
L 589.657335 144.757036 
L 595.217459 138.466498 
L 600.777583 132.418022 
L 606.337707 126.176821 
L 611.897831 119.908185 
L 617.457955 113.308096 
L 623.018079 106.618244 
L 628.578202 100.127957 
L 634.138326 93.837418 
L 639.69845 87.788943 
L 645.258574 81.547741 
L 650.818698 75.279106 
L 656.378822 68.679017 
L 661.938946 61.989165 
L 667.49907 55.498877 
L 673.059194 49.208339 
L 678.619318 43.159863 
" style="fill:none;stroke:#0072b2;stroke-linecap:round;stroke-width:1.5;"/>
   </g>
   <g id="patch_3">
    <path d="M 36.425 392.2 
L 36.425 20.8 
" style="fill:none;stroke:#cccccc;stroke-linecap:square;stroke-linejoin:miter;stroke-width:0.8;"/>
   </g>
   <g id="patch_4">
    <path d="M 709.2 392.2 
L 709.2 20.8 
" style="fill:none;stroke:#cccccc;stroke-linecap:square;stroke-linejoin:miter;stroke-width:0.8;"/>
   </g>
   <g id="patch_5">
    <path d="M 36.425 392.2 
L 709.2 392.2 
" style="fill:none;stroke:#cccccc;stroke-linecap:square;stroke-linejoin:miter;stroke-width:0.8;"/>
   </g>
   <g id="patch_6">
    <path d="M 36.425 20.8 
L 709.2 20.8 
" style="fill:none;stroke:#cccccc;stroke-linecap:square;stroke-linejoin:miter;stroke-width:0.8;"/>
   </g>
   <g id="text_18">
    <!-- Predicted Global Cases -->
    <defs>
     <path d="M 7.71875 0 
L 7.71875 71.578125 
L 34.71875 71.578125 
Q 41.84375 71.578125 45.609375 70.90625 
Q 50.875 70.015625 54.4375 67.546875 
Q 58.015625 65.09375 60.1875 60.640625 
Q 62.359375 56.203125 62.359375 50.875 
Q 62.359375 41.75 56.546875 35.421875 
Q 50.734375 29.109375 35.546875 29.109375 
L 17.1875 29.109375 
L 17.1875 0 
z
M 17.1875 37.546875 
L 35.6875 37.546875 
Q 44.875 37.546875 48.734375 40.96875 
Q 52.59375 44.390625 52.59375 50.59375 
Q 52.59375 55.078125 50.3125 58.265625 
Q 48.046875 61.46875 44.34375 62.5 
Q 41.9375 63.140625 35.5 63.140625 
L 17.1875 63.140625 
z
" id="ArialMT-80"/>
     <path d="M 40.234375 0 
L 40.234375 6.546875 
Q 35.296875 -1.171875 25.734375 -1.171875 
Q 19.53125 -1.171875 14.328125 2.25 
Q 9.125 5.671875 6.265625 11.796875 
Q 3.421875 17.921875 3.421875 25.875 
Q 3.421875 33.640625 6 39.96875 
Q 8.59375 46.296875 13.765625 49.65625 
Q 18.953125 53.03125 25.34375 53.03125 
Q 30.03125 53.03125 33.6875 51.046875 
Q 37.359375 49.078125 39.65625 45.90625 
L 39.65625 71.578125 
L 48.390625 71.578125 
L 48.390625 0 
z
M 12.453125 25.875 
Q 12.453125 15.921875 16.640625 10.984375 
Q 20.84375 6.0625 26.5625 6.0625 
Q 32.328125 6.0625 36.34375 10.765625 
Q 40.375 15.484375 40.375 25.140625 
Q 40.375 35.796875 36.265625 40.765625 
Q 32.171875 45.75 26.171875 45.75 
Q 20.3125 45.75 16.375 40.96875 
Q 12.453125 36.1875 12.453125 25.875 
z
" id="ArialMT-100"/>
     <path d="M 40.4375 19 
L 49.078125 17.875 
Q 47.65625 8.9375 41.8125 3.875 
Q 35.984375 -1.171875 27.484375 -1.171875 
Q 16.84375 -1.171875 10.375 5.78125 
Q 3.90625 12.75 3.90625 25.734375 
Q 3.90625 34.125 6.6875 40.421875 
Q 9.46875 46.734375 15.15625 49.875 
Q 20.84375 53.03125 27.546875 53.03125 
Q 35.984375 53.03125 41.359375 48.75 
Q 46.734375 44.484375 48.25 36.625 
L 39.703125 35.296875 
Q 38.484375 40.53125 35.375 43.15625 
Q 32.28125 45.796875 27.875 45.796875 
Q 21.234375 45.796875 17.078125 41.03125 
Q 12.9375 36.28125 12.9375 25.984375 
Q 12.9375 15.53125 16.9375 10.796875 
Q 20.953125 6.0625 27.390625 6.0625 
Q 32.5625 6.0625 36.03125 9.234375 
Q 39.5 12.40625 40.4375 19 
z
" id="ArialMT-99"/>
     <path d="M 41.21875 28.078125 
L 41.21875 36.46875 
L 71.53125 36.53125 
L 71.53125 9.96875 
Q 64.546875 4.390625 57.125 1.578125 
Q 49.703125 -1.21875 41.890625 -1.21875 
Q 31.34375 -1.21875 22.71875 3.296875 
Q 14.109375 7.8125 9.71875 16.359375 
Q 5.328125 24.90625 5.328125 35.453125 
Q 5.328125 45.90625 9.6875 54.953125 
Q 14.0625 64.015625 22.265625 68.40625 
Q 30.46875 72.796875 41.15625 72.796875 
Q 48.921875 72.796875 55.1875 70.28125 
Q 61.46875 67.78125 65.03125 63.28125 
Q 68.609375 58.796875 70.453125 51.5625 
L 61.921875 49.21875 
Q 60.296875 54.6875 57.90625 57.8125 
Q 55.515625 60.9375 51.0625 62.8125 
Q 46.625 64.703125 41.21875 64.703125 
Q 34.71875 64.703125 29.984375 62.71875 
Q 25.25 60.75 22.34375 57.515625 
Q 19.4375 54.296875 17.828125 50.4375 
Q 15.09375 43.796875 15.09375 36.03125 
Q 15.09375 26.46875 18.390625 20.015625 
Q 21.6875 13.578125 27.984375 10.453125 
Q 34.28125 7.328125 41.359375 7.328125 
Q 47.515625 7.328125 53.375 9.6875 
Q 59.234375 12.0625 62.25 14.75 
L 62.25 28.078125 
z
" id="ArialMT-71"/>
     <path d="M 14.703125 0 
L 6.546875 0 
L 6.546875 71.578125 
L 15.328125 71.578125 
L 15.328125 46.046875 
Q 20.90625 53.03125 29.546875 53.03125 
Q 34.328125 53.03125 38.59375 51.09375 
Q 42.875 49.171875 45.625 45.671875 
Q 48.390625 42.1875 49.953125 37.25 
Q 51.515625 32.328125 51.515625 26.703125 
Q 51.515625 13.375 44.921875 6.09375 
Q 38.328125 -1.171875 29.109375 -1.171875 
Q 19.921875 -1.171875 14.703125 6.5 
z
M 14.59375 26.3125 
Q 14.59375 17 17.140625 12.84375 
Q 21.296875 6.0625 28.375 6.0625 
Q 34.125 6.0625 38.328125 11.0625 
Q 42.53125 16.0625 42.53125 25.984375 
Q 42.53125 36.140625 38.5 40.96875 
Q 34.46875 45.796875 28.765625 45.796875 
Q 23 45.796875 18.796875 40.796875 
Q 14.59375 35.796875 14.59375 26.3125 
z
" id="ArialMT-98"/>
    </defs>
    <g style="fill:#262626;" transform="translate(309.783438 14.8)scale(0.12 -0.12)">
     <use xlink:href="#ArialMT-80"/>
     <use x="66.699219" xlink:href="#ArialMT-114"/>
     <use x="100" xlink:href="#ArialMT-101"/>
     <use x="155.615234" xlink:href="#ArialMT-100"/>
     <use x="211.230469" xlink:href="#ArialMT-105"/>
     <use x="233.447266" xlink:href="#ArialMT-99"/>
     <use x="283.447266" xlink:href="#ArialMT-116"/>
     <use x="311.230469" xlink:href="#ArialMT-101"/>
     <use x="366.845703" xlink:href="#ArialMT-100"/>
     <use x="422.460938" xlink:href="#ArialMT-32"/>
     <use x="450.244141" xlink:href="#ArialMT-71"/>
     <use x="528.027344" xlink:href="#ArialMT-108"/>
     <use x="550.244141" xlink:href="#ArialMT-111"/>
     <use x="605.859375" xlink:href="#ArialMT-98"/>
     <use x="661.474609" xlink:href="#ArialMT-97"/>
     <use x="717.089844" xlink:href="#ArialMT-108"/>
     <use x="739.306641" xlink:href="#ArialMT-32"/>
     <use x="767.089844" xlink:href="#ArialMT-67"/>
     <use x="839.306641" xlink:href="#ArialMT-97"/>
     <use x="894.921875" xlink:href="#ArialMT-115"/>
     <use x="944.921875" xlink:href="#ArialMT-101"/>
     <use x="1000.537109" xlink:href="#ArialMT-115"/>
    </g>
   </g>
  </g>
 </g>
 <defs>
  <clipPath id="peb67f66960">
   <rect height="371.4" width="672.775" x="36.425" y="20.8"/>
  </clipPath>
 </defs>
</svg>
