<?xml version="1.0" encoding="utf-8" standalone="no"?>
<!DOCTYPE svg PUBLIC "-//W3C//DTD SVG 1.1//EN"
  "http://www.w3.org/Graphics/SVG/1.1/DTD/svg11.dtd">
<!-- Created with matplotlib (https://matplotlib.org/) -->
<svg height="432pt" version="1.1" viewBox="0 0 720 432" width="720pt" xmlns="http://www.w3.org/2000/svg" xmlns:xlink="http://www.w3.org/1999/xlink">
 <defs>
  <style type="text/css">
*{stroke-linecap:butt;stroke-linejoin:round;}
  </style>
 </defs>
 <g id="figure_1">
  <g id="patch_1">
   <path d="M 0 432 
L 720 432 
L 720 0 
L 0 0 
z
" style="fill:#ffffff;"/>
  </g>
  <g id="axes_1">
   <g id="patch_2">
    <path d="M 63.925 392.2 
L 709.2 392.2 
L 709.2 10.8 
L 63.925 10.8 
z
" style="fill:#ffffff;"/>
   </g>
   <g id="matplotlib.axis_1">
    <g id="xtick_1">
     <g id="line2d_1">
      <path clip-path="url(#p5fe6e01188)" d="M 82.589979 392.2 
L 82.589979 10.8 
" style="fill:none;stroke:#808080;stroke-linecap:round;stroke-opacity:0.2;"/>
     </g>
     <g id="text_1">
      <!-- 2020-01-20 -->
      <defs>
       <path d="M 50.34375 8.453125 
L 50.34375 0 
L 3.03125 0 
Q 2.9375 3.171875 4.046875 6.109375 
Q 5.859375 10.9375 9.828125 15.625 
Q 13.8125 20.3125 21.34375 26.46875 
Q 33.015625 36.03125 37.109375 41.625 
Q 41.21875 47.21875 41.21875 52.203125 
Q 41.21875 57.421875 37.46875 61 
Q 33.734375 64.59375 27.734375 64.59375 
Q 21.390625 64.59375 17.578125 60.78125 
Q 13.765625 56.984375 13.71875 50.25 
L 4.6875 51.171875 
Q 5.609375 61.28125 11.65625 66.578125 
Q 17.71875 71.875 27.9375 71.875 
Q 38.234375 71.875 44.234375 66.15625 
Q 50.25 60.453125 50.25 52 
Q 50.25 47.703125 48.484375 43.546875 
Q 46.734375 39.40625 42.65625 34.8125 
Q 38.578125 30.21875 29.109375 22.21875 
Q 21.1875 15.578125 18.9375 13.203125 
Q 16.703125 10.84375 15.234375 8.453125 
z
" id="ArialMT-50"/>
       <path d="M 4.15625 35.296875 
Q 4.15625 48 6.765625 55.734375 
Q 9.375 63.484375 14.515625 67.671875 
Q 19.671875 71.875 27.484375 71.875 
Q 33.25 71.875 37.59375 69.546875 
Q 41.9375 67.234375 44.765625 62.859375 
Q 47.609375 58.5 49.21875 52.21875 
Q 50.828125 45.953125 50.828125 35.296875 
Q 50.828125 22.703125 48.234375 14.96875 
Q 45.65625 7.234375 40.5 3 
Q 35.359375 -1.21875 27.484375 -1.21875 
Q 17.140625 -1.21875 11.234375 6.203125 
Q 4.15625 15.140625 4.15625 35.296875 
z
M 13.1875 35.296875 
Q 13.1875 17.671875 17.3125 11.828125 
Q 21.4375 6 27.484375 6 
Q 33.546875 6 37.671875 11.859375 
Q 41.796875 17.71875 41.796875 35.296875 
Q 41.796875 52.984375 37.671875 58.78125 
Q 33.546875 64.59375 27.390625 64.59375 
Q 21.34375 64.59375 17.71875 59.46875 
Q 13.1875 52.9375 13.1875 35.296875 
z
" id="ArialMT-48"/>
       <path d="M 3.171875 21.484375 
L 3.171875 30.328125 
L 30.171875 30.328125 
L 30.171875 21.484375 
z
" id="ArialMT-45"/>
       <path d="M 37.25 0 
L 28.46875 0 
L 28.46875 56 
Q 25.296875 52.984375 20.140625 49.953125 
Q 14.984375 46.921875 10.890625 45.40625 
L 10.890625 53.90625 
Q 18.265625 57.375 23.78125 62.296875 
Q 29.296875 67.234375 31.59375 71.875 
L 37.25 71.875 
z
" id="ArialMT-49"/>
      </defs>
      <g style="fill:#262626;" transform="translate(57.016542 406.357812)scale(0.1 -0.1)">
       <use xlink:href="#ArialMT-50"/>
       <use x="55.615234" xlink:href="#ArialMT-48"/>
       <use x="111.230469" xlink:href="#ArialMT-50"/>
       <use x="166.845703" xlink:href="#ArialMT-48"/>
       <use x="222.460938" xlink:href="#ArialMT-45"/>
       <use x="255.761719" xlink:href="#ArialMT-48"/>
       <use x="311.376953" xlink:href="#ArialMT-49"/>
       <use x="366.992188" xlink:href="#ArialMT-45"/>
       <use x="400.292969" xlink:href="#ArialMT-50"/>
       <use x="455.908203" xlink:href="#ArialMT-48"/>
      </g>
     </g>
    </g>
    <g id="xtick_2">
     <g id="line2d_2">
      <path clip-path="url(#p5fe6e01188)" d="M 157.249897 392.2 
L 157.249897 10.8 
" style="fill:none;stroke:#808080;stroke-linecap:round;stroke-opacity:0.2;"/>
     </g>
     <g id="text_2">
      <!-- 2020-02-03 -->
      <defs>
       <path d="M 4.203125 18.890625 
L 12.984375 20.0625 
Q 14.5 12.59375 18.140625 9.296875 
Q 21.78125 6 27 6 
Q 33.203125 6 37.46875 10.296875 
Q 41.75 14.59375 41.75 20.953125 
Q 41.75 27 37.796875 30.921875 
Q 33.84375 34.859375 27.734375 34.859375 
Q 25.25 34.859375 21.53125 33.890625 
L 22.515625 41.609375 
Q 23.390625 41.5 23.921875 41.5 
Q 29.546875 41.5 34.03125 44.421875 
Q 38.53125 47.359375 38.53125 53.46875 
Q 38.53125 58.296875 35.25 61.46875 
Q 31.984375 64.65625 26.8125 64.65625 
Q 21.6875 64.65625 18.265625 61.421875 
Q 14.84375 58.203125 13.875 51.765625 
L 5.078125 53.328125 
Q 6.6875 62.15625 12.390625 67.015625 
Q 18.109375 71.875 26.609375 71.875 
Q 32.46875 71.875 37.390625 69.359375 
Q 42.328125 66.84375 44.9375 62.5 
Q 47.5625 58.15625 47.5625 53.265625 
Q 47.5625 48.640625 45.0625 44.828125 
Q 42.578125 41.015625 37.703125 38.765625 
Q 44.046875 37.3125 47.5625 32.6875 
Q 51.078125 28.078125 51.078125 21.140625 
Q 51.078125 11.765625 44.234375 5.25 
Q 37.40625 -1.265625 26.953125 -1.265625 
Q 17.53125 -1.265625 11.296875 4.34375 
Q 5.078125 9.96875 4.203125 18.890625 
z
" id="ArialMT-51"/>
      </defs>
      <g style="fill:#262626;" transform="translate(131.676459 406.357812)scale(0.1 -0.1)">
       <use xlink:href="#ArialMT-50"/>
       <use x="55.615234" xlink:href="#ArialMT-48"/>
       <use x="111.230469" xlink:href="#ArialMT-50"/>
       <use x="166.845703" xlink:href="#ArialMT-48"/>
       <use x="222.460938" xlink:href="#ArialMT-45"/>
       <use x="255.761719" xlink:href="#ArialMT-48"/>
       <use x="311.376953" xlink:href="#ArialMT-50"/>
       <use x="366.992188" xlink:href="#ArialMT-45"/>
       <use x="400.292969" xlink:href="#ArialMT-48"/>
       <use x="455.908203" xlink:href="#ArialMT-51"/>
      </g>
     </g>
    </g>
    <g id="xtick_3">
     <g id="line2d_3">
      <path clip-path="url(#p5fe6e01188)" d="M 231.909814 392.2 
L 231.909814 10.8 
" style="fill:none;stroke:#808080;stroke-linecap:round;stroke-opacity:0.2;"/>
     </g>
     <g id="text_3">
      <!-- 2020-02-17 -->
      <defs>
       <path d="M 4.734375 62.203125 
L 4.734375 70.65625 
L 51.078125 70.65625 
L 51.078125 63.8125 
Q 44.234375 56.546875 37.515625 44.484375 
Q 30.8125 32.421875 27.15625 19.671875 
Q 24.515625 10.6875 23.78125 0 
L 14.75 0 
Q 14.890625 8.453125 18.0625 20.40625 
Q 21.234375 32.375 27.171875 43.484375 
Q 33.109375 54.59375 39.796875 62.203125 
z
" id="ArialMT-55"/>
      </defs>
      <g style="fill:#262626;" transform="translate(206.336377 406.357812)scale(0.1 -0.1)">
       <use xlink:href="#ArialMT-50"/>
       <use x="55.615234" xlink:href="#ArialMT-48"/>
       <use x="111.230469" xlink:href="#ArialMT-50"/>
       <use x="166.845703" xlink:href="#ArialMT-48"/>
       <use x="222.460938" xlink:href="#ArialMT-45"/>
       <use x="255.761719" xlink:href="#ArialMT-48"/>
       <use x="311.376953" xlink:href="#ArialMT-50"/>
       <use x="366.992188" xlink:href="#ArialMT-45"/>
       <use x="400.292969" xlink:href="#ArialMT-49"/>
       <use x="455.908203" xlink:href="#ArialMT-55"/>
      </g>
     </g>
    </g>
    <g id="xtick_4">
     <g id="line2d_4">
      <path clip-path="url(#p5fe6e01188)" d="M 306.569731 392.2 
L 306.569731 10.8 
" style="fill:none;stroke:#808080;stroke-linecap:round;stroke-opacity:0.2;"/>
     </g>
     <g id="text_4">
      <!-- 2020-03-02 -->
      <g style="fill:#262626;" transform="translate(280.996294 406.357812)scale(0.1 -0.1)">
       <use xlink:href="#ArialMT-50"/>
       <use x="55.615234" xlink:href="#ArialMT-48"/>
       <use x="111.230469" xlink:href="#ArialMT-50"/>
       <use x="166.845703" xlink:href="#ArialMT-48"/>
       <use x="222.460938" xlink:href="#ArialMT-45"/>
       <use x="255.761719" xlink:href="#ArialMT-48"/>
       <use x="311.376953" xlink:href="#ArialMT-51"/>
       <use x="366.992188" xlink:href="#ArialMT-45"/>
       <use x="400.292969" xlink:href="#ArialMT-48"/>
       <use x="455.908203" xlink:href="#ArialMT-50"/>
      </g>
     </g>
    </g>
    <g id="xtick_5">
     <g id="line2d_5">
      <path clip-path="url(#p5fe6e01188)" d="M 381.229649 392.2 
L 381.229649 10.8 
" style="fill:none;stroke:#808080;stroke-linecap:round;stroke-opacity:0.2;"/>
     </g>
     <g id="text_5">
      <!-- 2020-03-16 -->
      <defs>
       <path d="M 49.75 54.046875 
L 41.015625 53.375 
Q 39.84375 58.546875 37.703125 60.890625 
Q 34.125 64.65625 28.90625 64.65625 
Q 24.703125 64.65625 21.53125 62.3125 
Q 17.390625 59.28125 14.984375 53.46875 
Q 12.59375 47.65625 12.5 36.921875 
Q 15.671875 41.75 20.265625 44.09375 
Q 24.859375 46.4375 29.890625 46.4375 
Q 38.671875 46.4375 44.84375 39.96875 
Q 51.03125 33.5 51.03125 23.25 
Q 51.03125 16.5 48.125 10.71875 
Q 45.21875 4.9375 40.140625 1.859375 
Q 35.0625 -1.21875 28.609375 -1.21875 
Q 17.625 -1.21875 10.6875 6.859375 
Q 3.765625 14.9375 3.765625 33.5 
Q 3.765625 54.25 11.421875 63.671875 
Q 18.109375 71.875 29.4375 71.875 
Q 37.890625 71.875 43.28125 67.140625 
Q 48.6875 62.40625 49.75 54.046875 
z
M 13.875 23.1875 
Q 13.875 18.65625 15.796875 14.5 
Q 17.71875 10.359375 21.1875 8.171875 
Q 24.65625 6 28.46875 6 
Q 34.03125 6 38.03125 10.484375 
Q 42.046875 14.984375 42.046875 22.703125 
Q 42.046875 30.125 38.078125 34.390625 
Q 34.125 38.671875 28.125 38.671875 
Q 22.171875 38.671875 18.015625 34.390625 
Q 13.875 30.125 13.875 23.1875 
z
" id="ArialMT-54"/>
      </defs>
      <g style="fill:#262626;" transform="translate(355.656211 406.357812)scale(0.1 -0.1)">
       <use xlink:href="#ArialMT-50"/>
       <use x="55.615234" xlink:href="#ArialMT-48"/>
       <use x="111.230469" xlink:href="#ArialMT-50"/>
       <use x="166.845703" xlink:href="#ArialMT-48"/>
       <use x="222.460938" xlink:href="#ArialMT-45"/>
       <use x="255.761719" xlink:href="#ArialMT-48"/>
       <use x="311.376953" xlink:href="#ArialMT-51"/>
       <use x="366.992188" xlink:href="#ArialMT-45"/>
       <use x="400.292969" xlink:href="#ArialMT-49"/>
       <use x="455.908203" xlink:href="#ArialMT-54"/>
      </g>
     </g>
    </g>
    <g id="xtick_6">
     <g id="line2d_6">
      <path clip-path="url(#p5fe6e01188)" d="M 455.889566 392.2 
L 455.889566 10.8 
" style="fill:none;stroke:#808080;stroke-linecap:round;stroke-opacity:0.2;"/>
     </g>
     <g id="text_6">
      <!-- 2020-03-30 -->
      <g style="fill:#262626;" transform="translate(430.316129 406.357812)scale(0.1 -0.1)">
       <use xlink:href="#ArialMT-50"/>
       <use x="55.615234" xlink:href="#ArialMT-48"/>
       <use x="111.230469" xlink:href="#ArialMT-50"/>
       <use x="166.845703" xlink:href="#ArialMT-48"/>
       <use x="222.460938" xlink:href="#ArialMT-45"/>
       <use x="255.761719" xlink:href="#ArialMT-48"/>
       <use x="311.376953" xlink:href="#ArialMT-51"/>
       <use x="366.992188" xlink:href="#ArialMT-45"/>
       <use x="400.292969" xlink:href="#ArialMT-51"/>
       <use x="455.908203" xlink:href="#ArialMT-48"/>
      </g>
     </g>
    </g>
    <g id="xtick_7">
     <g id="line2d_7">
      <path clip-path="url(#p5fe6e01188)" d="M 530.549483 392.2 
L 530.549483 10.8 
" style="fill:none;stroke:#808080;stroke-linecap:round;stroke-opacity:0.2;"/>
     </g>
     <g id="text_7">
      <!-- 2020-04-13 -->
      <defs>
       <path d="M 32.328125 0 
L 32.328125 17.140625 
L 1.265625 17.140625 
L 1.265625 25.203125 
L 33.9375 71.578125 
L 41.109375 71.578125 
L 41.109375 25.203125 
L 50.78125 25.203125 
L 50.78125 17.140625 
L 41.109375 17.140625 
L 41.109375 0 
z
M 32.328125 25.203125 
L 32.328125 57.46875 
L 9.90625 25.203125 
z
" id="ArialMT-52"/>
      </defs>
      <g style="fill:#262626;" transform="translate(504.976046 406.357812)scale(0.1 -0.1)">
       <use xlink:href="#ArialMT-50"/>
       <use x="55.615234" xlink:href="#ArialMT-48"/>
       <use x="111.230469" xlink:href="#ArialMT-50"/>
       <use x="166.845703" xlink:href="#ArialMT-48"/>
       <use x="222.460938" xlink:href="#ArialMT-45"/>
       <use x="255.761719" xlink:href="#ArialMT-48"/>
       <use x="311.376953" xlink:href="#ArialMT-52"/>
       <use x="366.992188" xlink:href="#ArialMT-45"/>
       <use x="400.292969" xlink:href="#ArialMT-49"/>
       <use x="455.908203" xlink:href="#ArialMT-51"/>
      </g>
     </g>
    </g>
    <g id="xtick_8">
     <g id="line2d_8">
      <path clip-path="url(#p5fe6e01188)" d="M 605.209401 392.2 
L 605.209401 10.8 
" style="fill:none;stroke:#808080;stroke-linecap:round;stroke-opacity:0.2;"/>
     </g>
     <g id="text_8">
      <!-- 2020-04-27 -->
      <g style="fill:#262626;" transform="translate(579.635963 406.357812)scale(0.1 -0.1)">
       <use xlink:href="#ArialMT-50"/>
       <use x="55.615234" xlink:href="#ArialMT-48"/>
       <use x="111.230469" xlink:href="#ArialMT-50"/>
       <use x="166.845703" xlink:href="#ArialMT-48"/>
       <use x="222.460938" xlink:href="#ArialMT-45"/>
       <use x="255.761719" xlink:href="#ArialMT-48"/>
       <use x="311.376953" xlink:href="#ArialMT-52"/>
       <use x="366.992188" xlink:href="#ArialMT-45"/>
       <use x="400.292969" xlink:href="#ArialMT-50"/>
       <use x="455.908203" xlink:href="#ArialMT-55"/>
      </g>
     </g>
    </g>
    <g id="xtick_9">
     <g id="line2d_9">
      <path clip-path="url(#p5fe6e01188)" d="M 679.869318 392.2 
L 679.869318 10.8 
" style="fill:none;stroke:#808080;stroke-linecap:round;stroke-opacity:0.2;"/>
     </g>
     <g id="text_9">
      <!-- 2020-05-11 -->
      <defs>
       <path d="M 4.15625 18.75 
L 13.375 19.53125 
Q 14.40625 12.796875 18.140625 9.390625 
Q 21.875 6 27.15625 6 
Q 33.5 6 37.890625 10.78125 
Q 42.28125 15.578125 42.28125 23.484375 
Q 42.28125 31 38.0625 35.34375 
Q 33.84375 39.703125 27 39.703125 
Q 22.75 39.703125 19.328125 37.765625 
Q 15.921875 35.84375 13.96875 32.765625 
L 5.71875 33.84375 
L 12.640625 70.609375 
L 48.25 70.609375 
L 48.25 62.203125 
L 19.671875 62.203125 
L 15.828125 42.96875 
Q 22.265625 47.46875 29.34375 47.46875 
Q 38.71875 47.46875 45.15625 40.96875 
Q 51.609375 34.46875 51.609375 24.265625 
Q 51.609375 14.546875 45.953125 7.46875 
Q 39.0625 -1.21875 27.15625 -1.21875 
Q 17.390625 -1.21875 11.203125 4.25 
Q 5.03125 9.71875 4.15625 18.75 
z
" id="ArialMT-53"/>
      </defs>
      <g style="fill:#262626;" transform="translate(654.664631 406.357812)scale(0.1 -0.1)">
       <use xlink:href="#ArialMT-50"/>
       <use x="55.615234" xlink:href="#ArialMT-48"/>
       <use x="111.230469" xlink:href="#ArialMT-50"/>
       <use x="166.845703" xlink:href="#ArialMT-48"/>
       <use x="222.460938" xlink:href="#ArialMT-45"/>
       <use x="255.761719" xlink:href="#ArialMT-48"/>
       <use x="311.376953" xlink:href="#ArialMT-53"/>
       <use x="366.992188" xlink:href="#ArialMT-45"/>
       <use x="400.292969" xlink:href="#ArialMT-49"/>
       <use x="448.533203" xlink:href="#ArialMT-49"/>
      </g>
     </g>
    </g>
    <g id="text_10">
     <!-- Date -->
     <defs>
      <path d="M 7.71875 0 
L 7.71875 71.578125 
L 32.375 71.578125 
Q 40.71875 71.578125 45.125 70.5625 
Q 51.265625 69.140625 55.609375 65.4375 
Q 61.28125 60.640625 64.078125 53.1875 
Q 66.890625 45.75 66.890625 36.1875 
Q 66.890625 28.03125 64.984375 21.734375 
Q 63.09375 15.4375 60.109375 11.296875 
Q 57.125 7.171875 53.578125 4.796875 
Q 50.046875 2.4375 45.046875 1.21875 
Q 40.046875 0 33.546875 0 
z
M 17.1875 8.453125 
L 32.46875 8.453125 
Q 39.546875 8.453125 43.578125 9.765625 
Q 47.609375 11.078125 50 13.484375 
Q 53.375 16.84375 55.25 22.53125 
Q 57.125 28.21875 57.125 36.328125 
Q 57.125 47.5625 53.4375 53.59375 
Q 49.75 59.625 44.484375 61.671875 
Q 40.671875 63.140625 32.234375 63.140625 
L 17.1875 63.140625 
z
" id="ArialMT-68"/>
      <path d="M 40.4375 6.390625 
Q 35.546875 2.25 31.03125 0.53125 
Q 26.515625 -1.171875 21.34375 -1.171875 
Q 12.796875 -1.171875 8.203125 3 
Q 3.609375 7.171875 3.609375 13.671875 
Q 3.609375 17.484375 5.34375 20.625 
Q 7.078125 23.78125 9.890625 25.6875 
Q 12.703125 27.59375 16.21875 28.5625 
Q 18.796875 29.25 24.03125 29.890625 
Q 34.671875 31.15625 39.703125 32.90625 
Q 39.75 34.71875 39.75 35.203125 
Q 39.75 40.578125 37.25 42.78125 
Q 33.890625 45.75 27.25 45.75 
Q 21.046875 45.75 18.09375 43.578125 
Q 15.140625 41.40625 13.71875 35.890625 
L 5.125 37.0625 
Q 6.296875 42.578125 8.984375 45.96875 
Q 11.671875 49.359375 16.75 51.1875 
Q 21.828125 53.03125 28.515625 53.03125 
Q 35.15625 53.03125 39.296875 51.46875 
Q 43.453125 49.90625 45.40625 47.53125 
Q 47.359375 45.171875 48.140625 41.546875 
Q 48.578125 39.3125 48.578125 33.453125 
L 48.578125 21.734375 
Q 48.578125 9.46875 49.140625 6.21875 
Q 49.703125 2.984375 51.375 0 
L 42.1875 0 
Q 40.828125 2.734375 40.4375 6.390625 
z
M 39.703125 26.03125 
Q 34.90625 24.078125 25.34375 22.703125 
Q 19.921875 21.921875 17.671875 20.9375 
Q 15.4375 19.96875 14.203125 18.09375 
Q 12.984375 16.21875 12.984375 13.921875 
Q 12.984375 10.40625 15.640625 8.0625 
Q 18.3125 5.71875 23.4375 5.71875 
Q 28.515625 5.71875 32.46875 7.9375 
Q 36.421875 10.15625 38.28125 14.015625 
Q 39.703125 17 39.703125 22.796875 
z
" id="ArialMT-97"/>
      <path d="M 25.78125 7.859375 
L 27.046875 0.09375 
Q 23.34375 -0.6875 20.40625 -0.6875 
Q 15.625 -0.6875 12.984375 0.828125 
Q 10.359375 2.34375 9.28125 4.8125 
Q 8.203125 7.28125 8.203125 15.1875 
L 8.203125 45.015625 
L 1.765625 45.015625 
L 1.765625 51.859375 
L 8.203125 51.859375 
L 8.203125 64.703125 
L 16.9375 69.96875 
L 16.9375 51.859375 
L 25.78125 51.859375 
L 25.78125 45.015625 
L 16.9375 45.015625 
L 16.9375 14.703125 
Q 16.9375 10.9375 17.40625 9.859375 
Q 17.875 8.796875 18.921875 8.15625 
Q 19.96875 7.515625 21.921875 7.515625 
Q 23.390625 7.515625 25.78125 7.859375 
z
" id="ArialMT-116"/>
      <path d="M 42.09375 16.703125 
L 51.171875 15.578125 
Q 49.03125 7.625 43.21875 3.21875 
Q 37.40625 -1.171875 28.375 -1.171875 
Q 17 -1.171875 10.328125 5.828125 
Q 3.65625 12.84375 3.65625 25.484375 
Q 3.65625 38.578125 10.390625 45.796875 
Q 17.140625 53.03125 27.875 53.03125 
Q 38.28125 53.03125 44.875 45.953125 
Q 51.46875 38.875 51.46875 26.03125 
Q 51.46875 25.25 51.421875 23.6875 
L 12.75 23.6875 
Q 13.234375 15.140625 17.578125 10.59375 
Q 21.921875 6.0625 28.421875 6.0625 
Q 33.25 6.0625 36.671875 8.59375 
Q 40.09375 11.140625 42.09375 16.703125 
z
M 13.234375 30.90625 
L 42.1875 30.90625 
Q 41.609375 37.453125 38.875 40.71875 
Q 34.671875 45.796875 27.984375 45.796875 
Q 21.921875 45.796875 17.796875 41.75 
Q 13.671875 37.703125 13.234375 30.90625 
z
" id="ArialMT-101"/>
     </defs>
     <g style="fill:#262626;" transform="translate(376.001563 419.503125)scale(0.1 -0.1)">
      <use xlink:href="#ArialMT-68"/>
      <use x="72.216797" xlink:href="#ArialMT-97"/>
      <use x="127.832031" xlink:href="#ArialMT-116"/>
      <use x="155.615234" xlink:href="#ArialMT-101"/>
     </g>
    </g>
   </g>
   <g id="matplotlib.axis_2">
    <g id="ytick_1">
     <g id="line2d_10">
      <path clip-path="url(#p5fe6e01188)" d="M 63.925 371.212655 
L 709.2 371.212655 
" style="fill:none;stroke:#808080;stroke-linecap:round;stroke-opacity:0.2;"/>
     </g>
     <g id="text_11">
      <!-- 0 -->
      <g style="fill:#262626;" transform="translate(51.364062 374.791561)scale(0.1 -0.1)">
       <use xlink:href="#ArialMT-48"/>
      </g>
     </g>
    </g>
    <g id="ytick_2">
     <g id="line2d_11">
      <path clip-path="url(#p5fe6e01188)" d="M 63.925 315.053041 
L 709.2 315.053041 
" style="fill:none;stroke:#808080;stroke-linecap:round;stroke-opacity:0.2;"/>
     </g>
     <g id="text_12">
      <!-- 50000 -->
      <g style="fill:#262626;" transform="translate(29.120312 318.631947)scale(0.1 -0.1)">
       <use xlink:href="#ArialMT-53"/>
       <use x="55.615234" xlink:href="#ArialMT-48"/>
       <use x="111.230469" xlink:href="#ArialMT-48"/>
       <use x="166.845703" xlink:href="#ArialMT-48"/>
       <use x="222.460938" xlink:href="#ArialMT-48"/>
      </g>
     </g>
    </g>
    <g id="ytick_3">
     <g id="line2d_12">
      <path clip-path="url(#p5fe6e01188)" d="M 63.925 258.893426 
L 709.2 258.893426 
" style="fill:none;stroke:#808080;stroke-linecap:round;stroke-opacity:0.2;"/>
     </g>
     <g id="text_13">
      <!-- 100000 -->
      <g style="fill:#262626;" transform="translate(23.559375 262.472332)scale(0.1 -0.1)">
       <use xlink:href="#ArialMT-49"/>
       <use x="55.615234" xlink:href="#ArialMT-48"/>
       <use x="111.230469" xlink:href="#ArialMT-48"/>
       <use x="166.845703" xlink:href="#ArialMT-48"/>
       <use x="222.460938" xlink:href="#ArialMT-48"/>
       <use x="278.076172" xlink:href="#ArialMT-48"/>
      </g>
     </g>
    </g>
    <g id="ytick_4">
     <g id="line2d_13">
      <path clip-path="url(#p5fe6e01188)" d="M 63.925 202.733812 
L 709.2 202.733812 
" style="fill:none;stroke:#808080;stroke-linecap:round;stroke-opacity:0.2;"/>
     </g>
     <g id="text_14">
      <!-- 150000 -->
      <g style="fill:#262626;" transform="translate(23.559375 206.312718)scale(0.1 -0.1)">
       <use xlink:href="#ArialMT-49"/>
       <use x="55.615234" xlink:href="#ArialMT-53"/>
       <use x="111.230469" xlink:href="#ArialMT-48"/>
       <use x="166.845703" xlink:href="#ArialMT-48"/>
       <use x="222.460938" xlink:href="#ArialMT-48"/>
       <use x="278.076172" xlink:href="#ArialMT-48"/>
      </g>
     </g>
    </g>
    <g id="ytick_5">
     <g id="line2d_14">
      <path clip-path="url(#p5fe6e01188)" d="M 63.925 146.574198 
L 709.2 146.574198 
" style="fill:none;stroke:#808080;stroke-linecap:round;stroke-opacity:0.2;"/>
     </g>
     <g id="text_15">
      <!-- 200000 -->
      <g style="fill:#262626;" transform="translate(23.559375 150.153104)scale(0.1 -0.1)">
       <use xlink:href="#ArialMT-50"/>
       <use x="55.615234" xlink:href="#ArialMT-48"/>
       <use x="111.230469" xlink:href="#ArialMT-48"/>
       <use x="166.845703" xlink:href="#ArialMT-48"/>
       <use x="222.460938" xlink:href="#ArialMT-48"/>
       <use x="278.076172" xlink:href="#ArialMT-48"/>
      </g>
     </g>
    </g>
    <g id="ytick_6">
     <g id="line2d_15">
      <path clip-path="url(#p5fe6e01188)" d="M 63.925 90.414583 
L 709.2 90.414583 
" style="fill:none;stroke:#808080;stroke-linecap:round;stroke-opacity:0.2;"/>
     </g>
     <g id="text_16">
      <!-- 250000 -->
      <g style="fill:#262626;" transform="translate(23.559375 93.993489)scale(0.1 -0.1)">
       <use xlink:href="#ArialMT-50"/>
       <use x="55.615234" xlink:href="#ArialMT-53"/>
       <use x="111.230469" xlink:href="#ArialMT-48"/>
       <use x="166.845703" xlink:href="#ArialMT-48"/>
       <use x="222.460938" xlink:href="#ArialMT-48"/>
       <use x="278.076172" xlink:href="#ArialMT-48"/>
      </g>
     </g>
    </g>
    <g id="ytick_7">
     <g id="line2d_16">
      <path clip-path="url(#p5fe6e01188)" d="M 63.925 34.254969 
L 709.2 34.254969 
" style="fill:none;stroke:#808080;stroke-linecap:round;stroke-opacity:0.2;"/>
     </g>
     <g id="text_17">
      <!-- 300000 -->
      <g style="fill:#262626;" transform="translate(23.559375 37.833875)scale(0.1 -0.1)">
       <use xlink:href="#ArialMT-51"/>
       <use x="55.615234" xlink:href="#ArialMT-48"/>
       <use x="111.230469" xlink:href="#ArialMT-48"/>
       <use x="166.845703" xlink:href="#ArialMT-48"/>
       <use x="222.460938" xlink:href="#ArialMT-48"/>
       <use x="278.076172" xlink:href="#ArialMT-48"/>
      </g>
     </g>
    </g>
    <g id="text_18">
     <!-- Deaths -->
     <defs>
      <path d="M 6.59375 0 
L 6.59375 71.578125 
L 15.375 71.578125 
L 15.375 45.90625 
Q 21.53125 53.03125 30.90625 53.03125 
Q 36.671875 53.03125 40.921875 50.75 
Q 45.171875 48.484375 47 44.484375 
Q 48.828125 40.484375 48.828125 32.859375 
L 48.828125 0 
L 40.046875 0 
L 40.046875 32.859375 
Q 40.046875 39.453125 37.1875 42.453125 
Q 34.328125 45.453125 29.109375 45.453125 
Q 25.203125 45.453125 21.75 43.421875 
Q 18.3125 41.40625 16.84375 37.9375 
Q 15.375 34.46875 15.375 28.375 
L 15.375 0 
z
" id="ArialMT-104"/>
      <path d="M 3.078125 15.484375 
L 11.765625 16.84375 
Q 12.5 11.625 15.84375 8.84375 
Q 19.1875 6.0625 25.203125 6.0625 
Q 31.25 6.0625 34.171875 8.515625 
Q 37.109375 10.984375 37.109375 14.3125 
Q 37.109375 17.28125 34.515625 19 
Q 32.71875 20.171875 25.53125 21.96875 
Q 15.875 24.421875 12.140625 26.203125 
Q 8.40625 27.984375 6.46875 31.125 
Q 4.546875 34.28125 4.546875 38.09375 
Q 4.546875 41.546875 6.125 44.5 
Q 7.71875 47.46875 10.453125 49.421875 
Q 12.5 50.921875 16.03125 51.96875 
Q 19.578125 53.03125 23.640625 53.03125 
Q 29.734375 53.03125 34.34375 51.265625 
Q 38.96875 49.515625 41.15625 46.5 
Q 43.359375 43.5 44.1875 38.484375 
L 35.59375 37.3125 
Q 35.015625 41.3125 32.203125 43.546875 
Q 29.390625 45.796875 24.265625 45.796875 
Q 18.21875 45.796875 15.625 43.796875 
Q 13.03125 41.796875 13.03125 39.109375 
Q 13.03125 37.40625 14.109375 36.03125 
Q 15.1875 34.625 17.484375 33.6875 
Q 18.796875 33.203125 25.25 31.453125 
Q 34.578125 28.953125 38.25 27.359375 
Q 41.9375 25.78125 44.03125 22.75 
Q 46.140625 19.734375 46.140625 15.234375 
Q 46.140625 10.84375 43.578125 6.953125 
Q 41.015625 3.078125 36.171875 0.953125 
Q 31.34375 -1.171875 25.25 -1.171875 
Q 15.140625 -1.171875 9.84375 3.03125 
Q 4.546875 7.234375 3.078125 15.484375 
z
" id="ArialMT-115"/>
     </defs>
     <g style="fill:#262626;" transform="translate(17.571875 217.341406)rotate(-90)scale(0.1 -0.1)">
      <use xlink:href="#ArialMT-68"/>
      <use x="72.216797" xlink:href="#ArialMT-101"/>
      <use x="127.832031" xlink:href="#ArialMT-97"/>
      <use x="183.447266" xlink:href="#ArialMT-116"/>
      <use x="211.230469" xlink:href="#ArialMT-104"/>
      <use x="266.845703" xlink:href="#ArialMT-115"/>
     </g>
    </g>
   </g>
   <g id="PolyCollection_1">
    <defs>
     <path d="M 93.255682 -62.916057 
L 93.255682 -57.54985 
L 98.588533 -57.891316 
L 103.921384 -58.108174 
L 109.254236 -58.336954 
L 114.587087 -57.343668 
L 119.919938 -57.136364 
L 125.252789 -57.855867 
L 130.58564 -58.173169 
L 135.918492 -58.63034 
L 141.251343 -58.75163 
L 146.584194 -59.054408 
L 151.917045 -58.317914 
L 157.249897 -57.9621 
L 162.582748 -58.352024 
L 167.915599 -58.984437 
L 173.24845 -59.0864 
L 178.581302 -59.695874 
L 183.914153 -59.404328 
L 189.247004 -59.07239 
L 194.579855 -58.447609 
L 199.912707 -59.392812 
L 205.245558 -59.567318 
L 210.578409 -59.829155 
L 215.91126 -60.454027 
L 221.244112 -60.321678 
L 226.576963 -59.619499 
L 231.909814 -59.344287 
L 237.242665 -60.088956 
L 242.575517 -60.431444 
L 247.908368 -60.571435 
L 253.241219 -61.091883 
L 258.57407 -61.157687 
L 263.906921 -60.312504 
L 269.239773 -60.002815 
L 274.572624 -60.776173 
L 279.905475 -61.28552 
L 285.238326 -61.620261 
L 290.571178 -61.782508 
L 295.904029 -62.038148 
L 301.23688 -61.218112 
L 306.569731 -60.818422 
L 311.902583 -61.520334 
L 317.235434 -61.859037 
L 322.568285 -62.045323 
L 327.901136 -62.686147 
L 333.233988 -62.624751 
L 338.566839 -62.072299 
L 343.89969 -61.704154 
L 349.232541 -62.667071 
L 354.565393 -63.007334 
L 359.898244 -63.804235 
L 365.231095 -64.560055 
L 370.563946 -65.061868 
L 375.896798 -65.072408 
L 381.229649 -65.335911 
L 386.5625 -66.898219 
L 391.895351 -67.928835 
L 397.228202 -69.775791 
L 402.561054 -71.56064 
L 407.893905 -72.901824 
L 413.226756 -74.47825 
L 418.559607 -76.173513 
L 423.892459 -79.472598 
L 429.22531 -83.079523 
L 434.558161 -86.677333 
L 439.891012 -90.098966 
L 445.223864 -93.453827 
L 450.556715 -97.688135 
L 455.889566 -102.118008 
L 461.222417 -107.391717 
L 466.555269 -113.973518 
L 471.88812 -120.399951 
L 477.220971 -126.996664 
L 482.553822 -134.482145 
L 487.886674 -140.628053 
L 493.219525 -147.543372 
L 498.552376 -156.379784 
L 503.885227 -164.39965 
L 509.218079 -172.274851 
L 514.55093 -180.463615 
L 519.883781 -188.201283 
L 525.216632 -195.019885 
L 530.549483 -202.501647 
L 535.882335 -210.018821 
L 541.215186 -217.134187 
L 546.548037 -224.288747 
L 551.880888 -231.319239 
L 557.21374 -237.965561 
L 562.546591 -244.017477 
L 567.879442 -250.472844 
L 573.212293 -257.915157 
L 578.545145 -265.106047 
L 583.877996 -272.107525 
L 589.210847 -279.269167 
L 594.543698 -286.03045 
L 599.87655 -292.282047 
L 605.209401 -298.68718 
L 610.542252 -305.999696 
L 615.875103 -313.239108 
L 621.207955 -320.333536 
L 626.540806 -327.301537 
L 631.873657 -334.030349 
L 637.206508 -340.304946 
L 642.53936 -346.402098 
L 647.872211 -354.117597 
L 653.205062 -361.11488 
L 658.537913 -367.956823 
L 663.870764 -374.527715 
L 669.203616 -380.906415 
L 674.536467 -386.042964 
L 679.869318 -391.497321 
L 679.869318 -403.863636 
L 679.869318 -403.863636 
L 674.536467 -396.160201 
L 669.203616 -389.050584 
L 663.870764 -381.495449 
L 658.537913 -373.957878 
L 653.205062 -366.674666 
L 647.872211 -359.678281 
L 642.53936 -351.947262 
L 637.206508 -345.625346 
L 631.873657 -339.536716 
L 626.540806 -332.59104 
L 621.207955 -325.401607 
L 615.875103 -318.604106 
L 610.542252 -311.447112 
L 605.209401 -303.718645 
L 599.87655 -297.693967 
L 594.543698 -291.397137 
L 589.210847 -284.770808 
L 583.877996 -277.489145 
L 578.545145 -270.502994 
L 573.212293 -263.463472 
L 567.879442 -255.930039 
L 562.546591 -249.512664 
L 557.21374 -243.534066 
L 551.880888 -236.561256 
L 546.548037 -229.724841 
L 541.215186 -222.327523 
L 535.882335 -215.455434 
L 530.549483 -207.948393 
L 525.216632 -200.616544 
L 519.883781 -193.512017 
L 514.55093 -185.793505 
L 509.218079 -177.438622 
L 503.885227 -169.72687 
L 498.552376 -161.648225 
L 493.219525 -153.051024 
L 487.886674 -146.205012 
L 482.553822 -139.548579 
L 477.220971 -132.275161 
L 471.88812 -125.637579 
L 466.555269 -119.501355 
L 461.222417 -113.003005 
L 455.889566 -107.347133 
L 450.556715 -102.75672 
L 445.223864 -99.018717 
L 439.891012 -95.594218 
L 434.558161 -91.99863 
L 429.22531 -88.355557 
L 423.892459 -84.733527 
L 418.559607 -81.67605 
L 413.226756 -79.946915 
L 407.893905 -78.138444 
L 402.561054 -76.90588 
L 397.228202 -74.82247 
L 391.895351 -73.504546 
L 386.5625 -72.314173 
L 381.229649 -70.680203 
L 375.896798 -70.577792 
L 370.563946 -70.528909 
L 365.231095 -70.058066 
L 359.898244 -69.161499 
L 354.565393 -68.345966 
L 349.232541 -68.209285 
L 343.89969 -67.133098 
L 338.566839 -67.540873 
L 333.233988 -67.988002 
L 327.901136 -68.064724 
L 322.568285 -67.648512 
L 317.235434 -67.325899 
L 311.902583 -67.225026 
L 306.569731 -66.148224 
L 301.23688 -66.545862 
L 295.904029 -67.301684 
L 290.571178 -67.199366 
L 285.238326 -66.830319 
L 279.905475 -66.683233 
L 274.572624 -66.116152 
L 269.239773 -65.306008 
L 263.906921 -65.750671 
L 258.57407 -66.395298 
L 253.241219 -66.485046 
L 247.908368 -66.192885 
L 242.575517 -65.738903 
L 237.242665 -65.794215 
L 231.909814 -64.790412 
L 226.576963 -65.007035 
L 221.244112 -65.779623 
L 215.91126 -65.813996 
L 210.578409 -65.201193 
L 205.245558 -65.109038 
L 199.912707 -64.755562 
L 194.579855 -64.004996 
L 189.247004 -64.412497 
L 183.914153 -64.977752 
L 178.581302 -65.215771 
L 173.24845 -64.598053 
L 167.915599 -64.211372 
L 162.582748 -64.144124 
L 157.249897 -63.047608 
L 151.917045 -63.609795 
L 146.584194 -64.3862 
L 141.251343 -64.395956 
L 135.918492 -63.891099 
L 130.58564 -63.638794 
L 125.252789 -63.444101 
L 119.919938 -62.736075 
L 114.587087 -62.960124 
L 109.254236 -63.617862 
L 103.921384 -63.884572 
L 98.588533 -63.148165 
L 93.255682 -62.916057 
z
" id="m0eeac1c882" style="stroke:#0072b2;stroke-opacity:0.2;"/>
    </defs>
    <g clip-path="url(#p5fe6e01188)">
     <use style="fill:#0072b2;fill-opacity:0.2;stroke:#0072b2;stroke-opacity:0.2;" x="0" xlink:href="#m0eeac1c882" y="432"/>
    </g>
   </g>
   <g id="line2d_17">
    <defs>
     <path d="M 0 1.5 
C 0.397805 1.5 0.77937 1.341951 1.06066 1.06066 
C 1.341951 0.77937 1.5 0.397805 1.5 0 
C 1.5 -0.397805 1.341951 -0.77937 1.06066 -1.06066 
C 0.77937 -1.341951 0.397805 -1.5 0 -1.5 
C -0.397805 -1.5 -0.77937 -1.341951 -1.06066 -1.06066 
C -1.341951 -0.77937 -1.5 -0.397805 -1.5 0 
C -1.5 0.397805 -1.341951 0.77937 -1.06066 1.06066 
C -0.77937 1.341951 -0.397805 1.5 0 1.5 
z
" id="me442ac4877" style="stroke:#1a1a1a;"/>
    </defs>
    <g clip-path="url(#p5fe6e01188)">
     <use style="fill:#1a1a1a;stroke:#1a1a1a;" x="93.255682" xlink:href="#me442ac4877" y="371.193561"/>
     <use style="fill:#1a1a1a;stroke:#1a1a1a;" x="98.588533" xlink:href="#me442ac4877" y="371.192437"/>
     <use style="fill:#1a1a1a;stroke:#1a1a1a;" x="103.921384" xlink:href="#me442ac4877" y="371.183452"/>
     <use style="fill:#1a1a1a;stroke:#1a1a1a;" x="109.254236" xlink:href="#me442ac4877" y="371.165481"/>
     <use style="fill:#1a1a1a;stroke:#1a1a1a;" x="114.587087" xlink:href="#me442ac4877" y="371.149756"/>
     <use style="fill:#1a1a1a;stroke:#1a1a1a;" x="119.919938" xlink:href="#me442ac4877" y="371.120553"/>
     <use style="fill:#1a1a1a;stroke:#1a1a1a;" x="125.252789" xlink:href="#me442ac4877" y="371.065517"/>
     <use style="fill:#1a1a1a;stroke:#1a1a1a;" x="130.58564" xlink:href="#me442ac4877" y="371.06327"/>
     <use style="fill:#1a1a1a;stroke:#1a1a1a;" x="135.918492" xlink:href="#me442ac4877" y="371.020589"/>
     <use style="fill:#1a1a1a;stroke:#1a1a1a;" x="141.251343" xlink:href="#me442ac4877" y="370.973415"/>
     <use style="fill:#1a1a1a;stroke:#1a1a1a;" x="146.584194" xlink:href="#me442ac4877" y="370.921748"/>
     <use style="fill:#1a1a1a;stroke:#1a1a1a;" x="151.917045" xlink:href="#me442ac4877" y="370.806059"/>
     <use style="fill:#1a1a1a;stroke:#1a1a1a;" x="157.249897" xlink:href="#me442ac4877" y="370.734175"/>
     <use style="fill:#1a1a1a;stroke:#1a1a1a;" x="162.582748" xlink:href="#me442ac4877" y="370.660044"/>
     <use style="fill:#1a1a1a;stroke:#1a1a1a;" x="167.915599" xlink:href="#me442ac4877" y="370.579174"/>
     <use style="fill:#1a1a1a;stroke:#1a1a1a;" x="173.24845" xlink:href="#me442ac4877" y="370.500551"/>
     <use style="fill:#1a1a1a;stroke:#1a1a1a;" x="178.581302" xlink:href="#me442ac4877" y="370.40508"/>
     <use style="fill:#1a1a1a;stroke:#1a1a1a;" x="183.914153" xlink:href="#me442ac4877" y="370.307362"/>
     <use style="fill:#1a1a1a;stroke:#1a1a1a;" x="189.247004" xlink:href="#me442ac4877" y="370.195043"/>
     <use style="fill:#1a1a1a;stroke:#1a1a1a;" x="194.579855" xlink:href="#me442ac4877" y="370.074861"/>
     <use style="fill:#1a1a1a;stroke:#1a1a1a;" x="199.912707" xlink:href="#me442ac4877" y="369.962542"/>
     <use style="fill:#1a1a1a;stroke:#1a1a1a;" x="205.245558" xlink:href="#me442ac4877" y="369.956926"/>
     <use style="fill:#1a1a1a;stroke:#1a1a1a;" x="210.578409" xlink:href="#me442ac4877" y="369.672758"/>
     <use style="fill:#1a1a1a;stroke:#1a1a1a;" x="215.91126" xlink:href="#me442ac4877" y="369.502033"/>
     <use style="fill:#1a1a1a;stroke:#1a1a1a;" x="221.244112" xlink:href="#me442ac4877" y="369.341416"/>
     <use style="fill:#1a1a1a;stroke:#1a1a1a;" x="226.576963" xlink:href="#me442ac4877" y="369.224604"/>
     <use style="fill:#1a1a1a;stroke:#1a1a1a;" x="231.909814" xlink:href="#me442ac4877" y="369.114532"/>
     <use style="fill:#1a1a1a;stroke:#1a1a1a;" x="237.242665" xlink:href="#me442ac4877" y="368.958408"/>
     <use style="fill:#1a1a1a;stroke:#1a1a1a;" x="242.575517" xlink:href="#me442ac4877" y="368.829241"/>
     <use style="fill:#1a1a1a;stroke:#1a1a1a;" x="247.908368" xlink:href="#me442ac4877" y="368.688842"/>
     <use style="fill:#1a1a1a;stroke:#1a1a1a;" x="253.241219" xlink:href="#me442ac4877" y="368.684349"/>
     <use style="fill:#1a1a1a;stroke:#1a1a1a;" x="258.57407" xlink:href="#me442ac4877" y="368.451848"/>
     <use style="fill:#1a1a1a;stroke:#1a1a1a;" x="263.906921" xlink:href="#me442ac4877" y="368.439493"/>
     <use style="fill:#1a1a1a;stroke:#1a1a1a;" x="269.239773" xlink:href="#me442ac4877" y="368.259782"/>
     <use style="fill:#1a1a1a;stroke:#1a1a1a;" x="274.572624" xlink:href="#me442ac4877" y="368.17105"/>
     <use style="fill:#1a1a1a;stroke:#1a1a1a;" x="279.905475" xlink:href="#me442ac4877" y="368.101412"/>
     <use style="fill:#1a1a1a;stroke:#1a1a1a;" x="285.238326" xlink:href="#me442ac4877" y="368.051992"/>
     <use style="fill:#1a1a1a;stroke:#1a1a1a;" x="290.571178" xlink:href="#me442ac4877" y="367.986847"/>
     <use style="fill:#1a1a1a;stroke:#1a1a1a;" x="295.904029" xlink:href="#me442ac4877" y="367.909346"/>
     <use style="fill:#1a1a1a;stroke:#1a1a1a;" x="301.23688" xlink:href="#me442ac4877" y="367.847571"/>
     <use style="fill:#1a1a1a;stroke:#1a1a1a;" x="306.569731" xlink:href="#me442ac4877" y="367.747607"/>
     <use style="fill:#1a1a1a;stroke:#1a1a1a;" x="311.902583" xlink:href="#me442ac4877" y="367.663367"/>
     <use style="fill:#1a1a1a;stroke:#1a1a1a;" x="317.235434" xlink:href="#me442ac4877" y="367.557787"/>
     <use style="fill:#1a1a1a;stroke:#1a1a1a;" x="322.568285" xlink:href="#me442ac4877" y="367.45333"/>
     <use style="fill:#1a1a1a;stroke:#1a1a1a;" x="327.901136" xlink:href="#me442ac4877" y="367.327533"/>
     <use style="fill:#1a1a1a;stroke:#1a1a1a;" x="333.233988" xlink:href="#me442ac4877" y="367.216337"/>
     <use style="fill:#1a1a1a;stroke:#1a1a1a;" x="338.566839" xlink:href="#me442ac4877" y="366.943401"/>
     <use style="fill:#1a1a1a;stroke:#1a1a1a;" x="343.89969" xlink:href="#me442ac4877" y="366.734487"/>
     <use style="fill:#1a1a1a;stroke:#1a1a1a;" x="349.232541" xlink:href="#me442ac4877" y="366.424486"/>
     <use style="fill:#1a1a1a;stroke:#1a1a1a;" x="354.565393" xlink:href="#me442ac4877" y="366.030246"/>
     <use style="fill:#1a1a1a;stroke:#1a1a1a;" x="359.898244" xlink:href="#me442ac4877" y="365.908941"/>
     <use style="fill:#1a1a1a;stroke:#1a1a1a;" x="365.231095" xlink:href="#me442ac4877" y="365.138431"/>
     <use style="fill:#1a1a1a;stroke:#1a1a1a;" x="370.563946" xlink:href="#me442ac4877" y="364.664444"/>
     <use style="fill:#1a1a1a;stroke:#1a1a1a;" x="375.896798" xlink:href="#me442ac4877" y="363.943354"/>
     <use style="fill:#1a1a1a;stroke:#1a1a1a;" x="381.229649" xlink:href="#me442ac4877" y="363.18183"/>
     <use style="fill:#1a1a1a;stroke:#1a1a1a;" x="386.5625" xlink:href="#me442ac4877" y="362.276537"/>
     <use style="fill:#1a1a1a;stroke:#1a1a1a;" x="391.895351" xlink:href="#me442ac4877" y="361.302729"/>
     <use style="fill:#1a1a1a;stroke:#1a1a1a;" x="397.228202" xlink:href="#me442ac4877" y="360.041384"/>
     <use style="fill:#1a1a1a;stroke:#1a1a1a;" x="402.561054" xlink:href="#me442ac4877" y="358.383553"/>
     <use style="fill:#1a1a1a;stroke:#1a1a1a;" x="407.893905" xlink:href="#me442ac4877" y="356.470756"/>
     <use style="fill:#1a1a1a;stroke:#1a1a1a;" x="413.226756" xlink:href="#me442ac4877" y="354.561329"/>
     <use style="fill:#1a1a1a;stroke:#1a1a1a;" x="418.559607" xlink:href="#me442ac4877" y="352.389075"/>
     <use style="fill:#1a1a1a;stroke:#1a1a1a;" x="423.892459" xlink:href="#me442ac4877" y="349.856277"/>
     <use style="fill:#1a1a1a;stroke:#1a1a1a;" x="429.22531" xlink:href="#me442ac4877" y="346.743911"/>
     <use style="fill:#1a1a1a;stroke:#1a1a1a;" x="434.558161" xlink:href="#me442ac4877" y="343.370964"/>
     <use style="fill:#1a1a1a;stroke:#1a1a1a;" x="439.891012" xlink:href="#me442ac4877" y="339.439791"/>
     <use style="fill:#1a1a1a;stroke:#1a1a1a;" x="445.223864" xlink:href="#me442ac4877" y="335.49851"/>
     <use style="fill:#1a1a1a;stroke:#1a1a1a;" x="450.556715" xlink:href="#me442ac4877" y="331.538134"/>
     <use style="fill:#1a1a1a;stroke:#1a1a1a;" x="455.889566" xlink:href="#me442ac4877" y="326.915074"/>
     <use style="fill:#1a1a1a;stroke:#1a1a1a;" x="461.222417" xlink:href="#me442ac4877" y="321.524874"/>
     <use style="fill:#1a1a1a;stroke:#1a1a1a;" x="466.555269" xlink:href="#me442ac4877" y="315.418078"/>
     <use style="fill:#1a1a1a;stroke:#1a1a1a;" x="471.88812" xlink:href="#me442ac4877" y="308.519431"/>
     <use style="fill:#1a1a1a;stroke:#1a1a1a;" x="477.220971" xlink:href="#me442ac4877" y="301.785893"/>
     <use style="fill:#1a1a1a;stroke:#1a1a1a;" x="482.553822" xlink:href="#me442ac4877" y="294.85692"/>
     <use style="fill:#1a1a1a;stroke:#1a1a1a;" x="487.886674" xlink:href="#me442ac4877" y="289.134255"/>
     <use style="fill:#1a1a1a;stroke:#1a1a1a;" x="493.219525" xlink:href="#me442ac4877" y="282.742168"/>
     <use style="fill:#1a1a1a;stroke:#1a1a1a;" x="498.552376" xlink:href="#me442ac4877" y="273.874565"/>
     <use style="fill:#1a1a1a;stroke:#1a1a1a;" x="503.885227" xlink:href="#me442ac4877" y="266.358162"/>
     <use style="fill:#1a1a1a;stroke:#1a1a1a;" x="509.218079" xlink:href="#me442ac4877" y="257.902771"/>
     <use style="fill:#1a1a1a;stroke:#1a1a1a;" x="514.55093" xlink:href="#me442ac4877" y="249.780967"/>
     <use style="fill:#1a1a1a;stroke:#1a1a1a;" x="519.883781" xlink:href="#me442ac4877" y="243.004748"/>
     <use style="fill:#1a1a1a;stroke:#1a1a1a;" x="525.216632" xlink:href="#me442ac4877" y="236.59469"/>
     <use style="fill:#1a1a1a;stroke:#1a1a1a;" x="530.549483" xlink:href="#me442ac4877" y="230.183508"/>
     <use style="fill:#1a1a1a;stroke:#1a1a1a;" x="535.882335" xlink:href="#me442ac4877" y="222.458192"/>
     <use style="fill:#1a1a1a;stroke:#1a1a1a;" x="541.215186" xlink:href="#me442ac4877" y="213.226674"/>
     <use style="fill:#1a1a1a;stroke:#1a1a1a;" x="546.548037" xlink:href="#me442ac4877" y="205.040849"/>
     <use style="fill:#1a1a1a;stroke:#1a1a1a;" x="551.880888" xlink:href="#me442ac4877" y="195.091612"/>
     <use style="fill:#1a1a1a;stroke:#1a1a1a;" x="557.21374" xlink:href="#me442ac4877" y="187.891949"/>
     <use style="fill:#1a1a1a;stroke:#1a1a1a;" x="562.546591" xlink:href="#me442ac4877" y="182.771315"/>
     <use style="fill:#1a1a1a;stroke:#1a1a1a;" x="567.879442" xlink:href="#me442ac4877" y="176.790316"/>
     <use style="fill:#1a1a1a;stroke:#1a1a1a;" x="573.212293" xlink:href="#me442ac4877" y="168.771847"/>
     <use style="fill:#1a1a1a;stroke:#1a1a1a;" x="578.545145" xlink:href="#me442ac4877" y="161.272292"/>
     <use style="fill:#1a1a1a;stroke:#1a1a1a;" x="583.877996" xlink:href="#me442ac4877" y="153.687374"/>
     <use style="fill:#1a1a1a;stroke:#1a1a1a;" x="589.210847" xlink:href="#me442ac4877" y="146.575321"/>
     <use style="fill:#1a1a1a;stroke:#1a1a1a;" x="594.543698" xlink:href="#me442ac4877" y="139.625007"/>
     <use style="fill:#1a1a1a;stroke:#1a1a1a;" x="599.87655" xlink:href="#me442ac4877" y="135.454594"/>
     <use style="fill:#1a1a1a;stroke:#1a1a1a;" x="605.209401" xlink:href="#me442ac4877" y="130.30588"/>
     <use style="fill:#1a1a1a;stroke:#1a1a1a;" x="610.542252" xlink:href="#me442ac4877" y="123.212921"/>
     <use style="fill:#1a1a1a;stroke:#1a1a1a;" x="615.875103" xlink:href="#me442ac4877" y="115.501083"/>
     <use style="fill:#1a1a1a;stroke:#1a1a1a;" x="621.207955" xlink:href="#me442ac4877" y="109.107872"/>
     <use style="fill:#1a1a1a;stroke:#1a1a1a;" x="626.540806" xlink:href="#me442ac4877" y="103.197635"/>
     <use style="fill:#1a1a1a;stroke:#1a1a1a;" x="631.873657" xlink:href="#me442ac4877" y="97.36939"/>
     <use style="fill:#1a1a1a;stroke:#1a1a1a;" x="637.206508" xlink:href="#me442ac4877" y="93.25626"/>
     <use style="fill:#1a1a1a;stroke:#1a1a1a;" x="642.53936" xlink:href="#me442ac4877" y="88.688237"/>
    </g>
   </g>
   <g id="line2d_18">
    <path clip-path="url(#p5fe6e01188)" d="M 93.255682 371.598281 
L 98.588533 371.362506 
L 103.921384 371.01387 
L 109.254236 371.004022 
L 114.587087 371.690142 
L 119.919938 372.112062 
L 125.252789 371.296938 
L 130.58564 370.943322 
L 135.918492 370.707546 
L 141.251343 370.35891 
L 146.584194 370.349061 
L 151.917045 371.03518 
L 157.249897 371.4571 
L 162.582748 370.641976 
L 167.915599 370.288243 
L 173.24845 370.052352 
L 178.581302 369.7036 
L 183.914153 369.683935 
L 189.247004 370.360238 
L 194.579855 370.772341 
L 199.912707 369.9474 
L 205.245558 369.581229 
L 210.578409 369.3329 
L 215.91126 368.97171 
L 221.244112 368.9493 
L 226.576963 369.622859 
L 231.909814 370.032217 
L 237.242665 369.204533 
L 242.575517 368.838355 
L 247.908368 368.590019 
L 253.241219 368.228821 
L 258.57407 368.20641 
L 263.906921 368.879968 
L 269.239773 369.289325 
L 274.572624 368.461639 
L 279.905475 368.09546 
L 285.238326 367.847122 
L 290.571178 367.485923 
L 295.904029 367.463512 
L 301.23688 368.137069 
L 306.569731 368.546427 
L 311.902583 367.718741 
L 317.235434 367.352562 
L 322.568285 367.104224 
L 327.901136 366.706776 
L 333.233988 366.648115 
L 338.566839 367.285423 
L 343.89969 367.581672 
L 349.232541 366.640877 
L 354.565393 366.161589 
L 359.898244 365.479568 
L 365.231095 364.684685 
L 370.563946 364.22859 
L 375.896798 364.197073 
L 381.229649 363.901355 
L 386.5625 362.368595 
L 391.895351 361.297341 
L 397.228202 359.629861 
L 402.561054 357.84952 
L 407.893905 356.407967 
L 413.226756 354.843176 
L 418.559607 353.014186 
L 423.892459 349.948151 
L 429.22531 346.286171 
L 434.558161 342.742032 
L 439.891012 339.085032 
L 445.223864 335.76682 
L 450.556715 331.717118 
L 455.889566 327.403216 
L 461.222417 321.852271 
L 466.555269 315.316535 
L 471.88812 308.89864 
L 477.220971 302.367884 
L 482.553822 295.044134 
L 487.886674 288.416352 
L 493.219525 281.524371 
L 498.552376 272.997039 
L 503.885227 264.931213 
L 509.218079 256.98323 
L 514.55093 248.922385 
L 519.883781 241.200328 
L 525.216632 234.174239 
L 530.549483 226.88395 
L 535.882335 219.300826 
L 541.215186 212.179209 
L 546.548037 205.175434 
L 551.880888 198.058798 
L 557.21374 191.280949 
L 562.546591 185.199068 
L 567.879442 178.852988 
L 573.212293 171.269864 
L 578.545145 164.148247 
L 583.877996 157.144472 
L 589.210847 150.027836 
L 594.543698 143.249987 
L 599.87655 137.168106 
L 605.209401 130.822026 
L 610.542252 123.238902 
L 615.875103 116.117285 
L 621.207955 109.11351 
L 626.540806 101.996874 
L 631.873657 95.219025 
L 637.206508 89.137144 
L 642.53936 82.791064 
L 647.872211 75.20794 
L 653.205062 68.086323 
L 658.537913 61.082548 
L 663.870764 53.965911 
L 669.203616 47.188063 
L 674.536467 41.106182 
L 679.869318 34.760102 
" style="fill:none;stroke:#0072b2;stroke-linecap:round;stroke-width:1.5;"/>
   </g>
   <g id="patch_3">
    <path d="M 63.925 392.2 
L 63.925 10.8 
" style="fill:none;stroke:#cccccc;stroke-linecap:square;stroke-linejoin:miter;stroke-width:0.8;"/>
   </g>
   <g id="patch_4">
    <path d="M 709.2 392.2 
L 709.2 10.8 
" style="fill:none;stroke:#cccccc;stroke-linecap:square;stroke-linejoin:miter;stroke-width:0.8;"/>
   </g>
   <g id="patch_5">
    <path d="M 63.925 392.2 
L 709.2 392.2 
" style="fill:none;stroke:#cccccc;stroke-linecap:square;stroke-linejoin:miter;stroke-width:0.8;"/>
   </g>
   <g id="patch_6">
    <path d="M 63.925 10.8 
L 709.2 10.8 
" style="fill:none;stroke:#cccccc;stroke-linecap:square;stroke-linejoin:miter;stroke-width:0.8;"/>
   </g>
   <g id="text_19">
    <!-- Predicted Global Deaths -->
    <defs>
     <path d="M 7.71875 0 
L 7.71875 71.578125 
L 34.71875 71.578125 
Q 41.84375 71.578125 45.609375 70.90625 
Q 50.875 70.015625 54.4375 67.546875 
Q 58.015625 65.09375 60.1875 60.640625 
Q 62.359375 56.203125 62.359375 50.875 
Q 62.359375 41.75 56.546875 35.421875 
Q 50.734375 29.109375 35.546875 29.109375 
L 17.1875 29.109375 
L 17.1875 0 
z
M 17.1875 37.546875 
L 35.6875 37.546875 
Q 44.875 37.546875 48.734375 40.96875 
Q 52.59375 44.390625 52.59375 50.59375 
Q 52.59375 55.078125 50.3125 58.265625 
Q 48.046875 61.46875 44.34375 62.5 
Q 41.9375 63.140625 35.5 63.140625 
L 17.1875 63.140625 
z
" id="ArialMT-80"/>
     <path d="M 6.5 0 
L 6.5 51.859375 
L 14.40625 51.859375 
L 14.40625 44 
Q 17.4375 49.515625 20 51.265625 
Q 22.5625 53.03125 25.640625 53.03125 
Q 30.078125 53.03125 34.671875 50.203125 
L 31.640625 42.046875 
Q 28.421875 43.953125 25.203125 43.953125 
Q 22.3125 43.953125 20.015625 42.21875 
Q 17.71875 40.484375 16.75 37.40625 
Q 15.28125 32.71875 15.28125 27.15625 
L 15.28125 0 
z
" id="ArialMT-114"/>
     <path d="M 40.234375 0 
L 40.234375 6.546875 
Q 35.296875 -1.171875 25.734375 -1.171875 
Q 19.53125 -1.171875 14.328125 2.25 
Q 9.125 5.671875 6.265625 11.796875 
Q 3.421875 17.921875 3.421875 25.875 
Q 3.421875 33.640625 6 39.96875 
Q 8.59375 46.296875 13.765625 49.65625 
Q 18.953125 53.03125 25.34375 53.03125 
Q 30.03125 53.03125 33.6875 51.046875 
Q 37.359375 49.078125 39.65625 45.90625 
L 39.65625 71.578125 
L 48.390625 71.578125 
L 48.390625 0 
z
M 12.453125 25.875 
Q 12.453125 15.921875 16.640625 10.984375 
Q 20.84375 6.0625 26.5625 6.0625 
Q 32.328125 6.0625 36.34375 10.765625 
Q 40.375 15.484375 40.375 25.140625 
Q 40.375 35.796875 36.265625 40.765625 
Q 32.171875 45.75 26.171875 45.75 
Q 20.3125 45.75 16.375 40.96875 
Q 12.453125 36.1875 12.453125 25.875 
z
" id="ArialMT-100"/>
     <path d="M 6.640625 61.46875 
L 6.640625 71.578125 
L 15.4375 71.578125 
L 15.4375 61.46875 
z
M 6.640625 0 
L 6.640625 51.859375 
L 15.4375 51.859375 
L 15.4375 0 
z
" id="ArialMT-105"/>
     <path d="M 40.4375 19 
L 49.078125 17.875 
Q 47.65625 8.9375 41.8125 3.875 
Q 35.984375 -1.171875 27.484375 -1.171875 
Q 16.84375 -1.171875 10.375 5.78125 
Q 3.90625 12.75 3.90625 25.734375 
Q 3.90625 34.125 6.6875 40.421875 
Q 9.46875 46.734375 15.15625 49.875 
Q 20.84375 53.03125 27.546875 53.03125 
Q 35.984375 53.03125 41.359375 48.75 
Q 46.734375 44.484375 48.25 36.625 
L 39.703125 35.296875 
Q 38.484375 40.53125 35.375 43.15625 
Q 32.28125 45.796875 27.875 45.796875 
Q 21.234375 45.796875 17.078125 41.03125 
Q 12.9375 36.28125 12.9375 25.984375 
Q 12.9375 15.53125 16.9375 10.796875 
Q 20.953125 6.0625 27.390625 6.0625 
Q 32.5625 6.0625 36.03125 9.234375 
Q 39.5 12.40625 40.4375 19 
z
" id="ArialMT-99"/>
     <path id="ArialMT-32"/>
     <path d="M 41.21875 28.078125 
L 41.21875 36.46875 
L 71.53125 36.53125 
L 71.53125 9.96875 
Q 64.546875 4.390625 57.125 1.578125 
Q 49.703125 -1.21875 41.890625 -1.21875 
Q 31.34375 -1.21875 22.71875 3.296875 
Q 14.109375 7.8125 9.71875 16.359375 
Q 5.328125 24.90625 5.328125 35.453125 
Q 5.328125 45.90625 9.6875 54.953125 
Q 14.0625 64.015625 22.265625 68.40625 
Q 30.46875 72.796875 41.15625 72.796875 
Q 48.921875 72.796875 55.1875 70.28125 
Q 61.46875 67.78125 65.03125 63.28125 
Q 68.609375 58.796875 70.453125 51.5625 
L 61.921875 49.21875 
Q 60.296875 54.6875 57.90625 57.8125 
Q 55.515625 60.9375 51.0625 62.8125 
Q 46.625 64.703125 41.21875 64.703125 
Q 34.71875 64.703125 29.984375 62.71875 
Q 25.25 60.75 22.34375 57.515625 
Q 19.4375 54.296875 17.828125 50.4375 
Q 15.09375 43.796875 15.09375 36.03125 
Q 15.09375 26.46875 18.390625 20.015625 
Q 21.6875 13.578125 27.984375 10.453125 
Q 34.28125 7.328125 41.359375 7.328125 
Q 47.515625 7.328125 53.375 9.6875 
Q 59.234375 12.0625 62.25 14.75 
L 62.25 28.078125 
z
" id="ArialMT-71"/>
     <path d="M 6.390625 0 
L 6.390625 71.578125 
L 15.1875 71.578125 
L 15.1875 0 
z
" id="ArialMT-108"/>
     <path d="M 3.328125 25.921875 
Q 3.328125 40.328125 11.328125 47.265625 
Q 18.015625 53.03125 27.640625 53.03125 
Q 38.328125 53.03125 45.109375 46.015625 
Q 51.90625 39.015625 51.90625 26.65625 
Q 51.90625 16.65625 48.90625 10.90625 
Q 45.90625 5.171875 40.15625 2 
Q 34.421875 -1.171875 27.640625 -1.171875 
Q 16.75 -1.171875 10.03125 5.8125 
Q 3.328125 12.796875 3.328125 25.921875 
z
M 12.359375 25.921875 
Q 12.359375 15.96875 16.703125 11.015625 
Q 21.046875 6.0625 27.640625 6.0625 
Q 34.1875 6.0625 38.53125 11.03125 
Q 42.875 16.015625 42.875 26.21875 
Q 42.875 35.84375 38.5 40.796875 
Q 34.125 45.75 27.640625 45.75 
Q 21.046875 45.75 16.703125 40.8125 
Q 12.359375 35.890625 12.359375 25.921875 
z
" id="ArialMT-111"/>
     <path d="M 14.703125 0 
L 6.546875 0 
L 6.546875 71.578125 
L 15.328125 71.578125 
L 15.328125 46.046875 
Q 20.90625 53.03125 29.546875 53.03125 
Q 34.328125 53.03125 38.59375 51.09375 
Q 42.875 49.171875 45.625 45.671875 
Q 48.390625 42.1875 49.953125 37.25 
Q 51.515625 32.328125 51.515625 26.703125 
Q 51.515625 13.375 44.921875 6.09375 
Q 38.328125 -1.171875 29.109375 -1.171875 
Q 19.921875 -1.171875 14.703125 6.5 
z
M 14.59375 26.3125 
Q 14.59375 17 17.140625 12.84375 
Q 21.296875 6.0625 28.375 6.0625 
Q 34.125 6.0625 38.328125 11.0625 
Q 42.53125 16.0625 42.53125 25.984375 
Q 42.53125 36.140625 38.5 40.96875 
Q 34.46875 45.796875 28.765625 45.796875 
Q 23 45.796875 18.796875 40.796875 
Q 14.59375 35.796875 14.59375 26.3125 
z
" id="ArialMT-98"/>
    </defs>
    <g style="fill:#262626;" transform="translate(321.53 4.8)scale(0.12 -0.12)">
     <use xlink:href="#ArialMT-80"/>
     <use x="66.699219" xlink:href="#ArialMT-114"/>
     <use x="100" xlink:href="#ArialMT-101"/>
     <use x="155.615234" xlink:href="#ArialMT-100"/>
     <use x="211.230469" xlink:href="#ArialMT-105"/>
     <use x="233.447266" xlink:href="#ArialMT-99"/>
     <use x="283.447266" xlink:href="#ArialMT-116"/>
     <use x="311.230469" xlink:href="#ArialMT-101"/>
     <use x="366.845703" xlink:href="#ArialMT-100"/>
     <use x="422.460938" xlink:href="#ArialMT-32"/>
     <use x="450.244141" xlink:href="#ArialMT-71"/>
     <use x="528.027344" xlink:href="#ArialMT-108"/>
     <use x="550.244141" xlink:href="#ArialMT-111"/>
     <use x="605.859375" xlink:href="#ArialMT-98"/>
     <use x="661.474609" xlink:href="#ArialMT-97"/>
     <use x="717.089844" xlink:href="#ArialMT-108"/>
     <use x="739.306641" xlink:href="#ArialMT-32"/>
     <use x="767.089844" xlink:href="#ArialMT-68"/>
     <use x="839.306641" xlink:href="#ArialMT-101"/>
     <use x="894.921875" xlink:href="#ArialMT-97"/>
     <use x="950.537109" xlink:href="#ArialMT-116"/>
     <use x="978.320312" xlink:href="#ArialMT-104"/>
     <use x="1033.935547" xlink:href="#ArialMT-115"/>
    </g>
   </g>
  </g>
 </g>
 <defs>
  <clipPath id="p5fe6e01188">
   <rect height="381.4" width="645.275" x="63.925" y="10.8"/>
  </clipPath>
 </defs>
</svg>
