<?xml version="1.0" encoding="utf-8" standalone="no"?>
<!DOCTYPE svg PUBLIC "-//W3C//DTD SVG 1.1//EN"
  "http://www.w3.org/Graphics/SVG/1.1/DTD/svg11.dtd">
<!-- Created with matplotlib (https://matplotlib.org/) -->
<svg height="432pt" version="1.1" viewBox="0 0 720 432" width="720pt" xmlns="http://www.w3.org/2000/svg" xmlns:xlink="http://www.w3.org/1999/xlink">
 <defs>
  <style type="text/css">
*{stroke-linecap:butt;stroke-linejoin:round;}
  </style>
 </defs>
 <g id="figure_1">
  <g id="patch_1">
   <path d="M 0 432 
L 720 432 
L 720 0 
L 0 0 
z
" style="fill:#ffffff;"/>
  </g>
  <g id="axes_1">
   <g id="patch_2">
    <path d="M 44.8 392.2 
L 709.2 392.2 
L 709.2 20.8 
L 44.8 20.8 
z
" style="fill:#ffffff;"/>
   </g>
   <g id="matplotlib.axis_1">
    <g id="xtick_1">
     <g id="line2d_1">
      <path clip-path="url(#pd8a041bba6)" d="M 64.018182 392.2 
L 64.018182 20.8 
" style="fill:none;stroke:#808080;stroke-linecap:round;stroke-opacity:0.2;"/>
     </g>
     <g id="text_1">
      <!-- 2020-01-20 -->
      <defs>
       <path d="M 50.34375 8.453125 
L 50.34375 0 
L 3.03125 0 
Q 2.9375 3.171875 4.046875 6.109375 
Q 5.859375 10.9375 9.828125 15.625 
Q 13.8125 20.3125 21.34375 26.46875 
Q 33.015625 36.03125 37.109375 41.625 
Q 41.21875 47.21875 41.21875 52.203125 
Q 41.21875 57.421875 37.46875 61 
Q 33.734375 64.59375 27.734375 64.59375 
Q 21.390625 64.59375 17.578125 60.78125 
Q 13.765625 56.984375 13.71875 50.25 
L 4.6875 51.171875 
Q 5.609375 61.28125 11.65625 66.578125 
Q 17.71875 71.875 27.9375 71.875 
Q 38.234375 71.875 44.234375 66.15625 
Q 50.25 60.453125 50.25 52 
Q 50.25 47.703125 48.484375 43.546875 
Q 46.734375 39.40625 42.65625 34.8125 
Q 38.578125 30.21875 29.109375 22.21875 
Q 21.1875 15.578125 18.9375 13.203125 
Q 16.703125 10.84375 15.234375 8.453125 
z
" id="ArialMT-50"/>
       <path d="M 4.15625 35.296875 
Q 4.15625 48 6.765625 55.734375 
Q 9.375 63.484375 14.515625 67.671875 
Q 19.671875 71.875 27.484375 71.875 
Q 33.25 71.875 37.59375 69.546875 
Q 41.9375 67.234375 44.765625 62.859375 
Q 47.609375 58.5 49.21875 52.21875 
Q 50.828125 45.953125 50.828125 35.296875 
Q 50.828125 22.703125 48.234375 14.96875 
Q 45.65625 7.234375 40.5 3 
Q 35.359375 -1.21875 27.484375 -1.21875 
Q 17.140625 -1.21875 11.234375 6.203125 
Q 4.15625 15.140625 4.15625 35.296875 
z
M 13.1875 35.296875 
Q 13.1875 17.671875 17.3125 11.828125 
Q 21.4375 6 27.484375 6 
Q 33.546875 6 37.671875 11.859375 
Q 41.796875 17.71875 41.796875 35.296875 
Q 41.796875 52.984375 37.671875 58.78125 
Q 33.546875 64.59375 27.390625 64.59375 
Q 21.34375 64.59375 17.71875 59.46875 
Q 13.1875 52.9375 13.1875 35.296875 
z
" id="ArialMT-48"/>
       <path d="M 3.171875 21.484375 
L 3.171875 30.328125 
L 30.171875 30.328125 
L 30.171875 21.484375 
z
" id="ArialMT-45"/>
       <path d="M 37.25 0 
L 28.46875 0 
L 28.46875 56 
Q 25.296875 52.984375 20.140625 49.953125 
Q 14.984375 46.921875 10.890625 45.40625 
L 10.890625 53.90625 
Q 18.265625 57.375 23.78125 62.296875 
Q 29.296875 67.234375 31.59375 71.875 
L 37.25 71.875 
z
" id="ArialMT-49"/>
      </defs>
      <g style="fill:#262626;" transform="translate(38.444744 406.357812)scale(0.1 -0.1)">
       <use xlink:href="#ArialMT-50"/>
       <use x="55.615234" xlink:href="#ArialMT-48"/>
       <use x="111.230469" xlink:href="#ArialMT-50"/>
       <use x="166.845703" xlink:href="#ArialMT-48"/>
       <use x="222.460938" xlink:href="#ArialMT-45"/>
       <use x="255.761719" xlink:href="#ArialMT-48"/>
       <use x="311.376953" xlink:href="#ArialMT-49"/>
       <use x="366.992188" xlink:href="#ArialMT-45"/>
       <use x="400.292969" xlink:href="#ArialMT-50"/>
       <use x="455.908203" xlink:href="#ArialMT-48"/>
      </g>
     </g>
    </g>
    <g id="xtick_2">
     <g id="line2d_2">
      <path clip-path="url(#pd8a041bba6)" d="M 140.890909 392.2 
L 140.890909 20.8 
" style="fill:none;stroke:#808080;stroke-linecap:round;stroke-opacity:0.2;"/>
     </g>
     <g id="text_2">
      <!-- 2020-02-03 -->
      <defs>
       <path d="M 4.203125 18.890625 
L 12.984375 20.0625 
Q 14.5 12.59375 18.140625 9.296875 
Q 21.78125 6 27 6 
Q 33.203125 6 37.46875 10.296875 
Q 41.75 14.59375 41.75 20.953125 
Q 41.75 27 37.796875 30.921875 
Q 33.84375 34.859375 27.734375 34.859375 
Q 25.25 34.859375 21.53125 33.890625 
L 22.515625 41.609375 
Q 23.390625 41.5 23.921875 41.5 
Q 29.546875 41.5 34.03125 44.421875 
Q 38.53125 47.359375 38.53125 53.46875 
Q 38.53125 58.296875 35.25 61.46875 
Q 31.984375 64.65625 26.8125 64.65625 
Q 21.6875 64.65625 18.265625 61.421875 
Q 14.84375 58.203125 13.875 51.765625 
L 5.078125 53.328125 
Q 6.6875 62.15625 12.390625 67.015625 
Q 18.109375 71.875 26.609375 71.875 
Q 32.46875 71.875 37.390625 69.359375 
Q 42.328125 66.84375 44.9375 62.5 
Q 47.5625 58.15625 47.5625 53.265625 
Q 47.5625 48.640625 45.0625 44.828125 
Q 42.578125 41.015625 37.703125 38.765625 
Q 44.046875 37.3125 47.5625 32.6875 
Q 51.078125 28.078125 51.078125 21.140625 
Q 51.078125 11.765625 44.234375 5.25 
Q 37.40625 -1.265625 26.953125 -1.265625 
Q 17.53125 -1.265625 11.296875 4.34375 
Q 5.078125 9.96875 4.203125 18.890625 
z
" id="ArialMT-51"/>
      </defs>
      <g style="fill:#262626;" transform="translate(115.317472 406.357812)scale(0.1 -0.1)">
       <use xlink:href="#ArialMT-50"/>
       <use x="55.615234" xlink:href="#ArialMT-48"/>
       <use x="111.230469" xlink:href="#ArialMT-50"/>
       <use x="166.845703" xlink:href="#ArialMT-48"/>
       <use x="222.460938" xlink:href="#ArialMT-45"/>
       <use x="255.761719" xlink:href="#ArialMT-48"/>
       <use x="311.376953" xlink:href="#ArialMT-50"/>
       <use x="366.992188" xlink:href="#ArialMT-45"/>
       <use x="400.292969" xlink:href="#ArialMT-48"/>
       <use x="455.908203" xlink:href="#ArialMT-51"/>
      </g>
     </g>
    </g>
    <g id="xtick_3">
     <g id="line2d_3">
      <path clip-path="url(#pd8a041bba6)" d="M 217.763636 392.2 
L 217.763636 20.8 
" style="fill:none;stroke:#808080;stroke-linecap:round;stroke-opacity:0.2;"/>
     </g>
     <g id="text_3">
      <!-- 2020-02-17 -->
      <defs>
       <path d="M 4.734375 62.203125 
L 4.734375 70.65625 
L 51.078125 70.65625 
L 51.078125 63.8125 
Q 44.234375 56.546875 37.515625 44.484375 
Q 30.8125 32.421875 27.15625 19.671875 
Q 24.515625 10.6875 23.78125 0 
L 14.75 0 
Q 14.890625 8.453125 18.0625 20.40625 
Q 21.234375 32.375 27.171875 43.484375 
Q 33.109375 54.59375 39.796875 62.203125 
z
" id="ArialMT-55"/>
      </defs>
      <g style="fill:#262626;" transform="translate(192.190199 406.357812)scale(0.1 -0.1)">
       <use xlink:href="#ArialMT-50"/>
       <use x="55.615234" xlink:href="#ArialMT-48"/>
       <use x="111.230469" xlink:href="#ArialMT-50"/>
       <use x="166.845703" xlink:href="#ArialMT-48"/>
       <use x="222.460938" xlink:href="#ArialMT-45"/>
       <use x="255.761719" xlink:href="#ArialMT-48"/>
       <use x="311.376953" xlink:href="#ArialMT-50"/>
       <use x="366.992188" xlink:href="#ArialMT-45"/>
       <use x="400.292969" xlink:href="#ArialMT-49"/>
       <use x="455.908203" xlink:href="#ArialMT-55"/>
      </g>
     </g>
    </g>
    <g id="xtick_4">
     <g id="line2d_4">
      <path clip-path="url(#pd8a041bba6)" d="M 294.636364 392.2 
L 294.636364 20.8 
" style="fill:none;stroke:#808080;stroke-linecap:round;stroke-opacity:0.2;"/>
     </g>
     <g id="text_4">
      <!-- 2020-03-02 -->
      <g style="fill:#262626;" transform="translate(269.062926 406.357812)scale(0.1 -0.1)">
       <use xlink:href="#ArialMT-50"/>
       <use x="55.615234" xlink:href="#ArialMT-48"/>
       <use x="111.230469" xlink:href="#ArialMT-50"/>
       <use x="166.845703" xlink:href="#ArialMT-48"/>
       <use x="222.460938" xlink:href="#ArialMT-45"/>
       <use x="255.761719" xlink:href="#ArialMT-48"/>
       <use x="311.376953" xlink:href="#ArialMT-51"/>
       <use x="366.992188" xlink:href="#ArialMT-45"/>
       <use x="400.292969" xlink:href="#ArialMT-48"/>
       <use x="455.908203" xlink:href="#ArialMT-50"/>
      </g>
     </g>
    </g>
    <g id="xtick_5">
     <g id="line2d_5">
      <path clip-path="url(#pd8a041bba6)" d="M 371.509091 392.2 
L 371.509091 20.8 
" style="fill:none;stroke:#808080;stroke-linecap:round;stroke-opacity:0.2;"/>
     </g>
     <g id="text_5">
      <!-- 2020-03-16 -->
      <defs>
       <path d="M 49.75 54.046875 
L 41.015625 53.375 
Q 39.84375 58.546875 37.703125 60.890625 
Q 34.125 64.65625 28.90625 64.65625 
Q 24.703125 64.65625 21.53125 62.3125 
Q 17.390625 59.28125 14.984375 53.46875 
Q 12.59375 47.65625 12.5 36.921875 
Q 15.671875 41.75 20.265625 44.09375 
Q 24.859375 46.4375 29.890625 46.4375 
Q 38.671875 46.4375 44.84375 39.96875 
Q 51.03125 33.5 51.03125 23.25 
Q 51.03125 16.5 48.125 10.71875 
Q 45.21875 4.9375 40.140625 1.859375 
Q 35.0625 -1.21875 28.609375 -1.21875 
Q 17.625 -1.21875 10.6875 6.859375 
Q 3.765625 14.9375 3.765625 33.5 
Q 3.765625 54.25 11.421875 63.671875 
Q 18.109375 71.875 29.4375 71.875 
Q 37.890625 71.875 43.28125 67.140625 
Q 48.6875 62.40625 49.75 54.046875 
z
M 13.875 23.1875 
Q 13.875 18.65625 15.796875 14.5 
Q 17.71875 10.359375 21.1875 8.171875 
Q 24.65625 6 28.46875 6 
Q 34.03125 6 38.03125 10.484375 
Q 42.046875 14.984375 42.046875 22.703125 
Q 42.046875 30.125 38.078125 34.390625 
Q 34.125 38.671875 28.125 38.671875 
Q 22.171875 38.671875 18.015625 34.390625 
Q 13.875 30.125 13.875 23.1875 
z
" id="ArialMT-54"/>
      </defs>
      <g style="fill:#262626;" transform="translate(345.935653 406.357812)scale(0.1 -0.1)">
       <use xlink:href="#ArialMT-50"/>
       <use x="55.615234" xlink:href="#ArialMT-48"/>
       <use x="111.230469" xlink:href="#ArialMT-50"/>
       <use x="166.845703" xlink:href="#ArialMT-48"/>
       <use x="222.460938" xlink:href="#ArialMT-45"/>
       <use x="255.761719" xlink:href="#ArialMT-48"/>
       <use x="311.376953" xlink:href="#ArialMT-51"/>
       <use x="366.992188" xlink:href="#ArialMT-45"/>
       <use x="400.292969" xlink:href="#ArialMT-49"/>
       <use x="455.908203" xlink:href="#ArialMT-54"/>
      </g>
     </g>
    </g>
    <g id="xtick_6">
     <g id="line2d_6">
      <path clip-path="url(#pd8a041bba6)" d="M 448.381818 392.2 
L 448.381818 20.8 
" style="fill:none;stroke:#808080;stroke-linecap:round;stroke-opacity:0.2;"/>
     </g>
     <g id="text_6">
      <!-- 2020-03-30 -->
      <g style="fill:#262626;" transform="translate(422.808381 406.357812)scale(0.1 -0.1)">
       <use xlink:href="#ArialMT-50"/>
       <use x="55.615234" xlink:href="#ArialMT-48"/>
       <use x="111.230469" xlink:href="#ArialMT-50"/>
       <use x="166.845703" xlink:href="#ArialMT-48"/>
       <use x="222.460938" xlink:href="#ArialMT-45"/>
       <use x="255.761719" xlink:href="#ArialMT-48"/>
       <use x="311.376953" xlink:href="#ArialMT-51"/>
       <use x="366.992188" xlink:href="#ArialMT-45"/>
       <use x="400.292969" xlink:href="#ArialMT-51"/>
       <use x="455.908203" xlink:href="#ArialMT-48"/>
      </g>
     </g>
    </g>
    <g id="xtick_7">
     <g id="line2d_7">
      <path clip-path="url(#pd8a041bba6)" d="M 525.254545 392.2 
L 525.254545 20.8 
" style="fill:none;stroke:#808080;stroke-linecap:round;stroke-opacity:0.2;"/>
     </g>
     <g id="text_7">
      <!-- 2020-04-13 -->
      <defs>
       <path d="M 32.328125 0 
L 32.328125 17.140625 
L 1.265625 17.140625 
L 1.265625 25.203125 
L 33.9375 71.578125 
L 41.109375 71.578125 
L 41.109375 25.203125 
L 50.78125 25.203125 
L 50.78125 17.140625 
L 41.109375 17.140625 
L 41.109375 0 
z
M 32.328125 25.203125 
L 32.328125 57.46875 
L 9.90625 25.203125 
z
" id="ArialMT-52"/>
      </defs>
      <g style="fill:#262626;" transform="translate(499.681108 406.357812)scale(0.1 -0.1)">
       <use xlink:href="#ArialMT-50"/>
       <use x="55.615234" xlink:href="#ArialMT-48"/>
       <use x="111.230469" xlink:href="#ArialMT-50"/>
       <use x="166.845703" xlink:href="#ArialMT-48"/>
       <use x="222.460938" xlink:href="#ArialMT-45"/>
       <use x="255.761719" xlink:href="#ArialMT-48"/>
       <use x="311.376953" xlink:href="#ArialMT-52"/>
       <use x="366.992188" xlink:href="#ArialMT-45"/>
       <use x="400.292969" xlink:href="#ArialMT-49"/>
       <use x="455.908203" xlink:href="#ArialMT-51"/>
      </g>
     </g>
    </g>
    <g id="xtick_8">
     <g id="line2d_8">
      <path clip-path="url(#pd8a041bba6)" d="M 602.127273 392.2 
L 602.127273 20.8 
" style="fill:none;stroke:#808080;stroke-linecap:round;stroke-opacity:0.2;"/>
     </g>
     <g id="text_8">
      <!-- 2020-04-27 -->
      <g style="fill:#262626;" transform="translate(576.553835 406.357812)scale(0.1 -0.1)">
       <use xlink:href="#ArialMT-50"/>
       <use x="55.615234" xlink:href="#ArialMT-48"/>
       <use x="111.230469" xlink:href="#ArialMT-50"/>
       <use x="166.845703" xlink:href="#ArialMT-48"/>
       <use x="222.460938" xlink:href="#ArialMT-45"/>
       <use x="255.761719" xlink:href="#ArialMT-48"/>
       <use x="311.376953" xlink:href="#ArialMT-52"/>
       <use x="366.992188" xlink:href="#ArialMT-45"/>
       <use x="400.292969" xlink:href="#ArialMT-50"/>
       <use x="455.908203" xlink:href="#ArialMT-55"/>
      </g>
     </g>
    </g>
    <g id="xtick_9">
     <g id="line2d_9">
      <path clip-path="url(#pd8a041bba6)" d="M 679 392.2 
L 679 20.8 
" style="fill:none;stroke:#808080;stroke-linecap:round;stroke-opacity:0.2;"/>
     </g>
     <g id="text_9">
      <!-- 2020-05-11 -->
      <defs>
       <path d="M 4.15625 18.75 
L 13.375 19.53125 
Q 14.40625 12.796875 18.140625 9.390625 
Q 21.875 6 27.15625 6 
Q 33.5 6 37.890625 10.78125 
Q 42.28125 15.578125 42.28125 23.484375 
Q 42.28125 31 38.0625 35.34375 
Q 33.84375 39.703125 27 39.703125 
Q 22.75 39.703125 19.328125 37.765625 
Q 15.921875 35.84375 13.96875 32.765625 
L 5.71875 33.84375 
L 12.640625 70.609375 
L 48.25 70.609375 
L 48.25 62.203125 
L 19.671875 62.203125 
L 15.828125 42.96875 
Q 22.265625 47.46875 29.34375 47.46875 
Q 38.71875 47.46875 45.15625 40.96875 
Q 51.609375 34.46875 51.609375 24.265625 
Q 51.609375 14.546875 45.953125 7.46875 
Q 39.0625 -1.21875 27.15625 -1.21875 
Q 17.390625 -1.21875 11.203125 4.25 
Q 5.03125 9.71875 4.15625 18.75 
z
" id="ArialMT-53"/>
      </defs>
      <g style="fill:#262626;" transform="translate(653.795313 406.357812)scale(0.1 -0.1)">
       <use xlink:href="#ArialMT-50"/>
       <use x="55.615234" xlink:href="#ArialMT-48"/>
       <use x="111.230469" xlink:href="#ArialMT-50"/>
       <use x="166.845703" xlink:href="#ArialMT-48"/>
       <use x="222.460938" xlink:href="#ArialMT-45"/>
       <use x="255.761719" xlink:href="#ArialMT-48"/>
       <use x="311.376953" xlink:href="#ArialMT-53"/>
       <use x="366.992188" xlink:href="#ArialMT-45"/>
       <use x="400.292969" xlink:href="#ArialMT-49"/>
       <use x="448.533203" xlink:href="#ArialMT-49"/>
      </g>
     </g>
    </g>
    <g id="text_10">
     <!-- Date -->
     <defs>
      <path d="M 7.71875 0 
L 7.71875 71.578125 
L 32.375 71.578125 
Q 40.71875 71.578125 45.125 70.5625 
Q 51.265625 69.140625 55.609375 65.4375 
Q 61.28125 60.640625 64.078125 53.1875 
Q 66.890625 45.75 66.890625 36.1875 
Q 66.890625 28.03125 64.984375 21.734375 
Q 63.09375 15.4375 60.109375 11.296875 
Q 57.125 7.171875 53.578125 4.796875 
Q 50.046875 2.4375 45.046875 1.21875 
Q 40.046875 0 33.546875 0 
z
M 17.1875 8.453125 
L 32.46875 8.453125 
Q 39.546875 8.453125 43.578125 9.765625 
Q 47.609375 11.078125 50 13.484375 
Q 53.375 16.84375 55.25 22.53125 
Q 57.125 28.21875 57.125 36.328125 
Q 57.125 47.5625 53.4375 53.59375 
Q 49.75 59.625 44.484375 61.671875 
Q 40.671875 63.140625 32.234375 63.140625 
L 17.1875 63.140625 
z
" id="ArialMT-68"/>
      <path d="M 40.4375 6.390625 
Q 35.546875 2.25 31.03125 0.53125 
Q 26.515625 -1.171875 21.34375 -1.171875 
Q 12.796875 -1.171875 8.203125 3 
Q 3.609375 7.171875 3.609375 13.671875 
Q 3.609375 17.484375 5.34375 20.625 
Q 7.078125 23.78125 9.890625 25.6875 
Q 12.703125 27.59375 16.21875 28.5625 
Q 18.796875 29.25 24.03125 29.890625 
Q 34.671875 31.15625 39.703125 32.90625 
Q 39.75 34.71875 39.75 35.203125 
Q 39.75 40.578125 37.25 42.78125 
Q 33.890625 45.75 27.25 45.75 
Q 21.046875 45.75 18.09375 43.578125 
Q 15.140625 41.40625 13.71875 35.890625 
L 5.125 37.0625 
Q 6.296875 42.578125 8.984375 45.96875 
Q 11.671875 49.359375 16.75 51.1875 
Q 21.828125 53.03125 28.515625 53.03125 
Q 35.15625 53.03125 39.296875 51.46875 
Q 43.453125 49.90625 45.40625 47.53125 
Q 47.359375 45.171875 48.140625 41.546875 
Q 48.578125 39.3125 48.578125 33.453125 
L 48.578125 21.734375 
Q 48.578125 9.46875 49.140625 6.21875 
Q 49.703125 2.984375 51.375 0 
L 42.1875 0 
Q 40.828125 2.734375 40.4375 6.390625 
z
M 39.703125 26.03125 
Q 34.90625 24.078125 25.34375 22.703125 
Q 19.921875 21.921875 17.671875 20.9375 
Q 15.4375 19.96875 14.203125 18.09375 
Q 12.984375 16.21875 12.984375 13.921875 
Q 12.984375 10.40625 15.640625 8.0625 
Q 18.3125 5.71875 23.4375 5.71875 
Q 28.515625 5.71875 32.46875 7.9375 
Q 36.421875 10.15625 38.28125 14.015625 
Q 39.703125 17 39.703125 22.796875 
z
" id="ArialMT-97"/>
      <path d="M 25.78125 7.859375 
L 27.046875 0.09375 
Q 23.34375 -0.6875 20.40625 -0.6875 
Q 15.625 -0.6875 12.984375 0.828125 
Q 10.359375 2.34375 9.28125 4.8125 
Q 8.203125 7.28125 8.203125 15.1875 
L 8.203125 45.015625 
L 1.765625 45.015625 
L 1.765625 51.859375 
L 8.203125 51.859375 
L 8.203125 64.703125 
L 16.9375 69.96875 
L 16.9375 51.859375 
L 25.78125 51.859375 
L 25.78125 45.015625 
L 16.9375 45.015625 
L 16.9375 14.703125 
Q 16.9375 10.9375 17.40625 9.859375 
Q 17.875 8.796875 18.921875 8.15625 
Q 19.96875 7.515625 21.921875 7.515625 
Q 23.390625 7.515625 25.78125 7.859375 
z
" id="ArialMT-116"/>
      <path d="M 42.09375 16.703125 
L 51.171875 15.578125 
Q 49.03125 7.625 43.21875 3.21875 
Q 37.40625 -1.171875 28.375 -1.171875 
Q 17 -1.171875 10.328125 5.828125 
Q 3.65625 12.84375 3.65625 25.484375 
Q 3.65625 38.578125 10.390625 45.796875 
Q 17.140625 53.03125 27.875 53.03125 
Q 38.28125 53.03125 44.875 45.953125 
Q 51.46875 38.875 51.46875 26.03125 
Q 51.46875 25.25 51.421875 23.6875 
L 12.75 23.6875 
Q 13.234375 15.140625 17.578125 10.59375 
Q 21.921875 6.0625 28.421875 6.0625 
Q 33.25 6.0625 36.671875 8.59375 
Q 40.09375 11.140625 42.09375 16.703125 
z
M 13.234375 30.90625 
L 42.1875 30.90625 
Q 41.609375 37.453125 38.875 40.71875 
Q 34.671875 45.796875 27.984375 45.796875 
Q 21.921875 45.796875 17.796875 41.75 
Q 13.671875 37.703125 13.234375 30.90625 
z
" id="ArialMT-101"/>
     </defs>
     <g style="fill:#262626;" transform="translate(366.439063 419.503125)scale(0.1 -0.1)">
      <use xlink:href="#ArialMT-68"/>
      <use x="72.216797" xlink:href="#ArialMT-97"/>
      <use x="127.832031" xlink:href="#ArialMT-116"/>
      <use x="155.615234" xlink:href="#ArialMT-101"/>
     </g>
    </g>
   </g>
   <g id="matplotlib.axis_2">
    <g id="ytick_1">
     <g id="line2d_10">
      <path clip-path="url(#pd8a041bba6)" d="M 44.8 370.269182 
L 709.2 370.269182 
" style="fill:none;stroke:#808080;stroke-linecap:round;stroke-opacity:0.2;"/>
     </g>
     <g id="text_11">
      <!-- 0.0 -->
      <defs>
       <path d="M 9.078125 0 
L 9.078125 10.015625 
L 19.09375 10.015625 
L 19.09375 0 
z
" id="ArialMT-46"/>
      </defs>
      <g style="fill:#262626;" transform="translate(23.9 373.848088)scale(0.1 -0.1)">
       <use xlink:href="#ArialMT-48"/>
       <use x="55.615234" xlink:href="#ArialMT-46"/>
       <use x="83.398438" xlink:href="#ArialMT-48"/>
      </g>
     </g>
    </g>
    <g id="ytick_2">
     <g id="line2d_11">
      <path clip-path="url(#pd8a041bba6)" d="M 44.8 322.452698 
L 709.2 322.452698 
" style="fill:none;stroke:#808080;stroke-linecap:round;stroke-opacity:0.2;"/>
     </g>
     <g id="text_12">
      <!-- 0.2 -->
      <g style="fill:#262626;" transform="translate(23.9 326.031604)scale(0.1 -0.1)">
       <use xlink:href="#ArialMT-48"/>
       <use x="55.615234" xlink:href="#ArialMT-46"/>
       <use x="83.398438" xlink:href="#ArialMT-50"/>
      </g>
     </g>
    </g>
    <g id="ytick_3">
     <g id="line2d_12">
      <path clip-path="url(#pd8a041bba6)" d="M 44.8 274.636214 
L 709.2 274.636214 
" style="fill:none;stroke:#808080;stroke-linecap:round;stroke-opacity:0.2;"/>
     </g>
     <g id="text_13">
      <!-- 0.4 -->
      <g style="fill:#262626;" transform="translate(23.9 278.21512)scale(0.1 -0.1)">
       <use xlink:href="#ArialMT-48"/>
       <use x="55.615234" xlink:href="#ArialMT-46"/>
       <use x="83.398438" xlink:href="#ArialMT-52"/>
      </g>
     </g>
    </g>
    <g id="ytick_4">
     <g id="line2d_13">
      <path clip-path="url(#pd8a041bba6)" d="M 44.8 226.819729 
L 709.2 226.819729 
" style="fill:none;stroke:#808080;stroke-linecap:round;stroke-opacity:0.2;"/>
     </g>
     <g id="text_14">
      <!-- 0.6 -->
      <g style="fill:#262626;" transform="translate(23.9 230.398636)scale(0.1 -0.1)">
       <use xlink:href="#ArialMT-48"/>
       <use x="55.615234" xlink:href="#ArialMT-46"/>
       <use x="83.398438" xlink:href="#ArialMT-54"/>
      </g>
     </g>
    </g>
    <g id="ytick_5">
     <g id="line2d_14">
      <path clip-path="url(#pd8a041bba6)" d="M 44.8 179.003245 
L 709.2 179.003245 
" style="fill:none;stroke:#808080;stroke-linecap:round;stroke-opacity:0.2;"/>
     </g>
     <g id="text_15">
      <!-- 0.8 -->
      <defs>
       <path d="M 17.671875 38.8125 
Q 12.203125 40.828125 9.5625 44.53125 
Q 6.9375 48.25 6.9375 53.421875 
Q 6.9375 61.234375 12.546875 66.546875 
Q 18.171875 71.875 27.484375 71.875 
Q 36.859375 71.875 42.578125 66.421875 
Q 48.296875 60.984375 48.296875 53.171875 
Q 48.296875 48.1875 45.671875 44.5 
Q 43.0625 40.828125 37.75 38.8125 
Q 44.34375 36.671875 47.78125 31.875 
Q 51.21875 27.09375 51.21875 20.453125 
Q 51.21875 11.28125 44.71875 5.03125 
Q 38.234375 -1.21875 27.640625 -1.21875 
Q 17.046875 -1.21875 10.546875 5.046875 
Q 4.046875 11.328125 4.046875 20.703125 
Q 4.046875 27.6875 7.59375 32.390625 
Q 11.140625 37.109375 17.671875 38.8125 
z
M 15.921875 53.71875 
Q 15.921875 48.640625 19.1875 45.40625 
Q 22.46875 42.1875 27.6875 42.1875 
Q 32.765625 42.1875 36.015625 45.375 
Q 39.265625 48.578125 39.265625 53.21875 
Q 39.265625 58.0625 35.90625 61.359375 
Q 32.5625 64.65625 27.59375 64.65625 
Q 22.5625 64.65625 19.234375 61.421875 
Q 15.921875 58.203125 15.921875 53.71875 
z
M 13.09375 20.65625 
Q 13.09375 16.890625 14.875 13.375 
Q 16.65625 9.859375 20.171875 7.921875 
Q 23.6875 6 27.734375 6 
Q 34.03125 6 38.125 10.046875 
Q 42.234375 14.109375 42.234375 20.359375 
Q 42.234375 26.703125 38.015625 30.859375 
Q 33.796875 35.015625 27.4375 35.015625 
Q 21.234375 35.015625 17.15625 30.90625 
Q 13.09375 26.8125 13.09375 20.65625 
z
" id="ArialMT-56"/>
      </defs>
      <g style="fill:#262626;" transform="translate(23.9 182.582151)scale(0.1 -0.1)">
       <use xlink:href="#ArialMT-48"/>
       <use x="55.615234" xlink:href="#ArialMT-46"/>
       <use x="83.398438" xlink:href="#ArialMT-56"/>
      </g>
     </g>
    </g>
    <g id="ytick_6">
     <g id="line2d_15">
      <path clip-path="url(#pd8a041bba6)" d="M 44.8 131.186761 
L 709.2 131.186761 
" style="fill:none;stroke:#808080;stroke-linecap:round;stroke-opacity:0.2;"/>
     </g>
     <g id="text_16">
      <!-- 1.0 -->
      <g style="fill:#262626;" transform="translate(23.9 134.765667)scale(0.1 -0.1)">
       <use xlink:href="#ArialMT-49"/>
       <use x="55.615234" xlink:href="#ArialMT-46"/>
       <use x="83.398438" xlink:href="#ArialMT-48"/>
      </g>
     </g>
    </g>
    <g id="ytick_7">
     <g id="line2d_16">
      <path clip-path="url(#pd8a041bba6)" d="M 44.8 83.370277 
L 709.2 83.370277 
" style="fill:none;stroke:#808080;stroke-linecap:round;stroke-opacity:0.2;"/>
     </g>
     <g id="text_17">
      <!-- 1.2 -->
      <g style="fill:#262626;" transform="translate(23.9 86.949183)scale(0.1 -0.1)">
       <use xlink:href="#ArialMT-49"/>
       <use x="55.615234" xlink:href="#ArialMT-46"/>
       <use x="83.398438" xlink:href="#ArialMT-50"/>
      </g>
     </g>
    </g>
    <g id="ytick_8">
     <g id="line2d_17">
      <path clip-path="url(#pd8a041bba6)" d="M 44.8 35.553792 
L 709.2 35.553792 
" style="fill:none;stroke:#808080;stroke-linecap:round;stroke-opacity:0.2;"/>
     </g>
     <g id="text_18">
      <!-- 1.4 -->
      <g style="fill:#262626;" transform="translate(23.9 39.132699)scale(0.1 -0.1)">
       <use xlink:href="#ArialMT-49"/>
       <use x="55.615234" xlink:href="#ArialMT-46"/>
       <use x="83.398438" xlink:href="#ArialMT-52"/>
      </g>
     </g>
    </g>
    <g id="text_19">
     <!-- Recoveries (per 1 million) -->
     <defs>
      <path d="M 7.859375 0 
L 7.859375 71.578125 
L 39.59375 71.578125 
Q 49.171875 71.578125 54.140625 69.640625 
Q 59.125 67.71875 62.109375 62.828125 
Q 65.09375 57.953125 65.09375 52.046875 
Q 65.09375 44.4375 60.15625 39.203125 
Q 55.21875 33.984375 44.921875 32.5625 
Q 48.6875 30.765625 50.640625 29 
Q 54.78125 25.203125 58.5 19.484375 
L 70.953125 0 
L 59.03125 0 
L 49.5625 14.890625 
Q 45.40625 21.34375 42.71875 24.75 
Q 40.046875 28.171875 37.921875 29.53125 
Q 35.796875 30.90625 33.59375 31.453125 
Q 31.984375 31.78125 28.328125 31.78125 
L 17.328125 31.78125 
L 17.328125 0 
z
M 17.328125 39.984375 
L 37.703125 39.984375 
Q 44.1875 39.984375 47.84375 41.328125 
Q 51.515625 42.671875 53.421875 45.625 
Q 55.328125 48.578125 55.328125 52.046875 
Q 55.328125 57.125 51.640625 60.390625 
Q 47.953125 63.671875 39.984375 63.671875 
L 17.328125 63.671875 
z
" id="ArialMT-82"/>
      <path d="M 40.4375 19 
L 49.078125 17.875 
Q 47.65625 8.9375 41.8125 3.875 
Q 35.984375 -1.171875 27.484375 -1.171875 
Q 16.84375 -1.171875 10.375 5.78125 
Q 3.90625 12.75 3.90625 25.734375 
Q 3.90625 34.125 6.6875 40.421875 
Q 9.46875 46.734375 15.15625 49.875 
Q 20.84375 53.03125 27.546875 53.03125 
Q 35.984375 53.03125 41.359375 48.75 
Q 46.734375 44.484375 48.25 36.625 
L 39.703125 35.296875 
Q 38.484375 40.53125 35.375 43.15625 
Q 32.28125 45.796875 27.875 45.796875 
Q 21.234375 45.796875 17.078125 41.03125 
Q 12.9375 36.28125 12.9375 25.984375 
Q 12.9375 15.53125 16.9375 10.796875 
Q 20.953125 6.0625 27.390625 6.0625 
Q 32.5625 6.0625 36.03125 9.234375 
Q 39.5 12.40625 40.4375 19 
z
" id="ArialMT-99"/>
      <path d="M 3.328125 25.921875 
Q 3.328125 40.328125 11.328125 47.265625 
Q 18.015625 53.03125 27.640625 53.03125 
Q 38.328125 53.03125 45.109375 46.015625 
Q 51.90625 39.015625 51.90625 26.65625 
Q 51.90625 16.65625 48.90625 10.90625 
Q 45.90625 5.171875 40.15625 2 
Q 34.421875 -1.171875 27.640625 -1.171875 
Q 16.75 -1.171875 10.03125 5.8125 
Q 3.328125 12.796875 3.328125 25.921875 
z
M 12.359375 25.921875 
Q 12.359375 15.96875 16.703125 11.015625 
Q 21.046875 6.0625 27.640625 6.0625 
Q 34.1875 6.0625 38.53125 11.03125 
Q 42.875 16.015625 42.875 26.21875 
Q 42.875 35.84375 38.5 40.796875 
Q 34.125 45.75 27.640625 45.75 
Q 21.046875 45.75 16.703125 40.8125 
Q 12.359375 35.890625 12.359375 25.921875 
z
" id="ArialMT-111"/>
      <path d="M 21 0 
L 1.265625 51.859375 
L 10.546875 51.859375 
L 21.6875 20.796875 
Q 23.484375 15.765625 25 10.359375 
Q 26.171875 14.453125 28.265625 20.21875 
L 39.796875 51.859375 
L 48.828125 51.859375 
L 29.203125 0 
z
" id="ArialMT-118"/>
      <path d="M 6.5 0 
L 6.5 51.859375 
L 14.40625 51.859375 
L 14.40625 44 
Q 17.4375 49.515625 20 51.265625 
Q 22.5625 53.03125 25.640625 53.03125 
Q 30.078125 53.03125 34.671875 50.203125 
L 31.640625 42.046875 
Q 28.421875 43.953125 25.203125 43.953125 
Q 22.3125 43.953125 20.015625 42.21875 
Q 17.71875 40.484375 16.75 37.40625 
Q 15.28125 32.71875 15.28125 27.15625 
L 15.28125 0 
z
" id="ArialMT-114"/>
      <path d="M 6.640625 61.46875 
L 6.640625 71.578125 
L 15.4375 71.578125 
L 15.4375 61.46875 
z
M 6.640625 0 
L 6.640625 51.859375 
L 15.4375 51.859375 
L 15.4375 0 
z
" id="ArialMT-105"/>
      <path d="M 3.078125 15.484375 
L 11.765625 16.84375 
Q 12.5 11.625 15.84375 8.84375 
Q 19.1875 6.0625 25.203125 6.0625 
Q 31.25 6.0625 34.171875 8.515625 
Q 37.109375 10.984375 37.109375 14.3125 
Q 37.109375 17.28125 34.515625 19 
Q 32.71875 20.171875 25.53125 21.96875 
Q 15.875 24.421875 12.140625 26.203125 
Q 8.40625 27.984375 6.46875 31.125 
Q 4.546875 34.28125 4.546875 38.09375 
Q 4.546875 41.546875 6.125 44.5 
Q 7.71875 47.46875 10.453125 49.421875 
Q 12.5 50.921875 16.03125 51.96875 
Q 19.578125 53.03125 23.640625 53.03125 
Q 29.734375 53.03125 34.34375 51.265625 
Q 38.96875 49.515625 41.15625 46.5 
Q 43.359375 43.5 44.1875 38.484375 
L 35.59375 37.3125 
Q 35.015625 41.3125 32.203125 43.546875 
Q 29.390625 45.796875 24.265625 45.796875 
Q 18.21875 45.796875 15.625 43.796875 
Q 13.03125 41.796875 13.03125 39.109375 
Q 13.03125 37.40625 14.109375 36.03125 
Q 15.1875 34.625 17.484375 33.6875 
Q 18.796875 33.203125 25.25 31.453125 
Q 34.578125 28.953125 38.25 27.359375 
Q 41.9375 25.78125 44.03125 22.75 
Q 46.140625 19.734375 46.140625 15.234375 
Q 46.140625 10.84375 43.578125 6.953125 
Q 41.015625 3.078125 36.171875 0.953125 
Q 31.34375 -1.171875 25.25 -1.171875 
Q 15.140625 -1.171875 9.84375 3.03125 
Q 4.546875 7.234375 3.078125 15.484375 
z
" id="ArialMT-115"/>
      <path id="ArialMT-32"/>
      <path d="M 23.390625 -21.046875 
Q 16.109375 -11.859375 11.078125 0.4375 
Q 6.0625 12.75 6.0625 25.921875 
Q 6.0625 37.546875 9.8125 48.1875 
Q 14.203125 60.546875 23.390625 72.796875 
L 29.6875 72.796875 
Q 23.78125 62.640625 21.875 58.296875 
Q 18.890625 51.5625 17.1875 44.234375 
Q 15.09375 35.109375 15.09375 25.875 
Q 15.09375 2.390625 29.6875 -21.046875 
z
" id="ArialMT-40"/>
      <path d="M 6.59375 -19.875 
L 6.59375 51.859375 
L 14.59375 51.859375 
L 14.59375 45.125 
Q 17.4375 49.078125 21 51.046875 
Q 24.5625 53.03125 29.640625 53.03125 
Q 36.28125 53.03125 41.359375 49.609375 
Q 46.4375 46.1875 49.015625 39.953125 
Q 51.609375 33.734375 51.609375 26.3125 
Q 51.609375 18.359375 48.75 11.984375 
Q 45.90625 5.609375 40.453125 2.21875 
Q 35.015625 -1.171875 29 -1.171875 
Q 24.609375 -1.171875 21.109375 0.6875 
Q 17.625 2.546875 15.375 5.375 
L 15.375 -19.875 
z
M 14.546875 25.640625 
Q 14.546875 15.625 18.59375 10.84375 
Q 22.65625 6.0625 28.421875 6.0625 
Q 34.28125 6.0625 38.453125 11.015625 
Q 42.625 15.96875 42.625 26.375 
Q 42.625 36.28125 38.546875 41.203125 
Q 34.46875 46.140625 28.8125 46.140625 
Q 23.1875 46.140625 18.859375 40.890625 
Q 14.546875 35.640625 14.546875 25.640625 
z
" id="ArialMT-112"/>
      <path d="M 6.59375 0 
L 6.59375 51.859375 
L 14.453125 51.859375 
L 14.453125 44.578125 
Q 16.890625 48.390625 20.9375 50.703125 
Q 25 53.03125 30.171875 53.03125 
Q 35.9375 53.03125 39.625 50.640625 
Q 43.3125 48.25 44.828125 43.953125 
Q 50.984375 53.03125 60.84375 53.03125 
Q 68.5625 53.03125 72.703125 48.75 
Q 76.859375 44.484375 76.859375 35.59375 
L 76.859375 0 
L 68.109375 0 
L 68.109375 32.671875 
Q 68.109375 37.9375 67.25 40.25 
Q 66.40625 42.578125 64.15625 43.984375 
Q 61.921875 45.40625 58.890625 45.40625 
Q 53.421875 45.40625 49.796875 41.765625 
Q 46.1875 38.140625 46.1875 30.125 
L 46.1875 0 
L 37.40625 0 
L 37.40625 33.6875 
Q 37.40625 39.546875 35.25 42.46875 
Q 33.109375 45.40625 28.21875 45.40625 
Q 24.515625 45.40625 21.359375 43.453125 
Q 18.21875 41.5 16.796875 37.734375 
Q 15.375 33.984375 15.375 26.90625 
L 15.375 0 
z
" id="ArialMT-109"/>
      <path d="M 6.390625 0 
L 6.390625 71.578125 
L 15.1875 71.578125 
L 15.1875 0 
z
" id="ArialMT-108"/>
      <path d="M 6.59375 0 
L 6.59375 51.859375 
L 14.5 51.859375 
L 14.5 44.484375 
Q 20.21875 53.03125 31 53.03125 
Q 35.6875 53.03125 39.625 51.34375 
Q 43.5625 49.65625 45.515625 46.921875 
Q 47.46875 44.1875 48.25 40.4375 
Q 48.734375 37.984375 48.734375 31.890625 
L 48.734375 0 
L 39.9375 0 
L 39.9375 31.546875 
Q 39.9375 36.921875 38.90625 39.578125 
Q 37.890625 42.234375 35.28125 43.8125 
Q 32.671875 45.40625 29.15625 45.40625 
Q 23.53125 45.40625 19.453125 41.84375 
Q 15.375 38.28125 15.375 28.328125 
L 15.375 0 
z
" id="ArialMT-110"/>
      <path d="M 12.359375 -21.046875 
L 6.0625 -21.046875 
Q 20.65625 2.390625 20.65625 25.875 
Q 20.65625 35.0625 18.5625 44.09375 
Q 16.890625 51.421875 13.921875 58.15625 
Q 12.015625 62.546875 6.0625 72.796875 
L 12.359375 72.796875 
Q 21.53125 60.546875 25.921875 48.1875 
Q 29.6875 37.546875 29.6875 25.921875 
Q 29.6875 12.75 24.625 0.4375 
Q 19.578125 -11.859375 12.359375 -21.046875 
z
" id="ArialMT-41"/>
     </defs>
     <g style="fill:#262626;" transform="translate(17.795312 263.18125)rotate(-90)scale(0.1 -0.1)">
      <use xlink:href="#ArialMT-82"/>
      <use x="72.216797" xlink:href="#ArialMT-101"/>
      <use x="127.832031" xlink:href="#ArialMT-99"/>
      <use x="177.832031" xlink:href="#ArialMT-111"/>
      <use x="233.447266" xlink:href="#ArialMT-118"/>
      <use x="283.447266" xlink:href="#ArialMT-101"/>
      <use x="339.0625" xlink:href="#ArialMT-114"/>
      <use x="372.363281" xlink:href="#ArialMT-105"/>
      <use x="394.580078" xlink:href="#ArialMT-101"/>
      <use x="450.195312" xlink:href="#ArialMT-115"/>
      <use x="500.195312" xlink:href="#ArialMT-32"/>
      <use x="527.978516" xlink:href="#ArialMT-40"/>
      <use x="561.279297" xlink:href="#ArialMT-112"/>
      <use x="616.894531" xlink:href="#ArialMT-101"/>
      <use x="672.509766" xlink:href="#ArialMT-114"/>
      <use x="705.810547" xlink:href="#ArialMT-32"/>
      <use x="733.59375" xlink:href="#ArialMT-49"/>
      <use x="789.208984" xlink:href="#ArialMT-32"/>
      <use x="816.992188" xlink:href="#ArialMT-109"/>
      <use x="900.292969" xlink:href="#ArialMT-105"/>
      <use x="922.509766" xlink:href="#ArialMT-108"/>
      <use x="944.726562" xlink:href="#ArialMT-108"/>
      <use x="966.943359" xlink:href="#ArialMT-105"/>
      <use x="989.160156" xlink:href="#ArialMT-111"/>
      <use x="1044.775391" xlink:href="#ArialMT-110"/>
      <use x="1100.390625" xlink:href="#ArialMT-41"/>
     </g>
    </g>
    <g id="text_20">
     <!-- 1e6 -->
     <g style="fill:#262626;" transform="translate(44.8 17.8)scale(0.1 -0.1)">
      <use xlink:href="#ArialMT-49"/>
      <use x="55.615234" xlink:href="#ArialMT-101"/>
      <use x="111.230469" xlink:href="#ArialMT-54"/>
     </g>
    </g>
   </g>
   <g id="PolyCollection_1">
    <defs>
     <path d="M 75 -64.722868 
L 75 -56.733773 
L 80.490909 -57.123277 
L 85.981818 -57.598426 
L 91.472727 -57.614787 
L 96.963636 -57.406672 
L 102.454545 -57.079627 
L 107.945455 -57.013648 
L 113.436364 -56.681818 
L 118.927273 -57.568624 
L 124.418182 -57.87179 
L 129.909091 -58.255094 
L 135.4 -58.159945 
L 140.890909 -57.775716 
L 146.381818 -57.562447 
L 151.872727 -58.013293 
L 157.363636 -58.474999 
L 162.854545 -58.599687 
L 168.345455 -58.980048 
L 173.836364 -58.743344 
L 179.327273 -58.60443 
L 184.818182 -58.290239 
L 190.309091 -58.471587 
L 195.8 -59.355457 
L 201.290909 -59.932104 
L 206.781818 -60.501263 
L 212.272727 -60.12909 
L 217.763636 -60.295519 
L 223.254545 -60.592441 
L 228.745455 -61.135393 
L 234.236364 -61.76535 
L 239.727273 -62.417321 
L 245.218182 -63.472253 
L 250.709091 -63.709994 
L 256.2 -63.949899 
L 261.690909 -63.930701 
L 267.181818 -64.905654 
L 272.672727 -66.129401 
L 278.163636 -66.422586 
L 283.654545 -67.515142 
L 289.145455 -67.644377 
L 294.636364 -68.370659 
L 300.127273 -68.124056 
L 305.618182 -69.359847 
L 311.109091 -69.991747 
L 316.6 -71.082934 
L 322.090909 -71.855781 
L 327.581818 -71.813242 
L 333.072727 -72.252108 
L 338.563636 -71.992928 
L 344.054545 -73.463666 
L 349.545455 -73.667663 
L 355.036364 -75.074101 
L 360.527273 -75.737282 
L 366.018182 -76.238138 
L 371.509091 -76.153164 
L 377 -76.414035 
L 382.490909 -77.215868 
L 387.981818 -78.46301 
L 393.472727 -79.287638 
L 398.963636 -80.091632 
L 404.454545 -80.609185 
L 409.945455 -81.486681 
L 415.436364 -81.936234 
L 420.927273 -84.435341 
L 426.418182 -86.641469 
L 431.909091 -88.901799 
L 437.4 -90.777212 
L 442.890909 -93.710276 
L 448.381818 -96.674143 
L 453.872727 -99.217153 
L 459.363636 -103.413277 
L 464.854545 -107.871512 
L 470.345455 -111.770795 
L 475.836364 -116.220564 
L 481.327273 -121.240199 
L 486.818182 -125.660419 
L 492.309091 -129.860245 
L 497.8 -135.276383 
L 503.290909 -140.633158 
L 508.781818 -145.998168 
L 514.272727 -150.867789 
L 519.763636 -155.574593 
L 525.254545 -160.551472 
L 530.745455 -167.972195 
L 536.236364 -176.013454 
L 541.727273 -184.69001 
L 547.218182 -192.780057 
L 552.709091 -200.708717 
L 558.2 -208.402345 
L 563.690909 -216.288386 
L 569.181818 -223.754543 
L 574.672727 -231.742602 
L 580.163636 -239.998717 
L 585.654545 -248.975591 
L 591.145455 -256.52557 
L 596.636364 -264.62412 
L 602.127273 -272.372179 
L 607.618182 -279.677995 
L 613.109091 -287.897084 
L 618.6 -296.28645 
L 624.090909 -304.326513 
L 629.581818 -312.586796 
L 635.072727 -320.605263 
L 640.563636 -328.13635 
L 646.054545 -335.401841 
L 651.545455 -343.93222 
L 657.036364 -351.868266 
L 662.527273 -359.894783 
L 668.018182 -367.400943 
L 673.509091 -374.563856 
L 679 -382.370426 
L 679 -394.318182 
L 679 -394.318182 
L 673.509091 -386.030418 
L 668.018182 -377.219517 
L 662.527273 -369.279138 
L 657.036364 -360.563854 
L 651.545455 -352.432251 
L 646.054545 -343.663761 
L 640.563636 -336.171194 
L 635.072727 -328.530442 
L 629.581818 -320.877787 
L 624.090909 -312.790461 
L 618.6 -304.449134 
L 613.109091 -295.857665 
L 607.618182 -288.125926 
L 602.127273 -280.520684 
L 596.636364 -272.819199 
L 591.145455 -265.316759 
L 585.654545 -257.139145 
L 580.163636 -248.890863 
L 574.672727 -240.430183 
L 569.181818 -231.992814 
L 563.690909 -224.820031 
L 558.2 -217.218662 
L 552.709091 -209.145612 
L 547.218182 -201.768418 
L 541.727273 -192.897202 
L 536.236364 -184.268837 
L 530.745455 -176.737032 
L 525.254545 -168.598444 
L 519.763636 -164.321477 
L 514.272727 -159.15876 
L 508.781818 -154.408945 
L 503.290909 -149.0047 
L 497.8 -143.570851 
L 492.309091 -138.135448 
L 486.818182 -133.709798 
L 481.327273 -129.171638 
L 475.836364 -125.201511 
L 470.345455 -120.423767 
L 464.854545 -116.10185 
L 459.363636 -111.64107 
L 453.872727 -107.446691 
L 448.381818 -104.846779 
L 442.890909 -102.247704 
L 437.4 -98.94207 
L 431.909091 -97.456344 
L 426.418182 -94.963757 
L 420.927273 -93.095351 
L 415.436364 -90.849609 
L 409.945455 -90.163807 
L 404.454545 -89.361357 
L 398.963636 -88.404938 
L 393.472727 -87.647759 
L 387.981818 -87.044902 
L 382.490909 -85.50689 
L 377 -84.888025 
L 371.509091 -84.880073 
L 366.018182 -84.471817 
L 360.527273 -84.209752 
L 355.036364 -83.566967 
L 349.545455 -82.174309 
L 344.054545 -81.729279 
L 338.563636 -80.820743 
L 333.072727 -80.585704 
L 327.581818 -79.847234 
L 322.090909 -80.08286 
L 316.6 -78.894319 
L 311.109091 -78.444945 
L 305.618182 -77.779537 
L 300.127273 -76.673986 
L 294.636364 -76.563555 
L 289.145455 -76.004472 
L 283.654545 -75.485215 
L 278.163636 -75.068602 
L 272.672727 -74.092017 
L 267.181818 -72.911685 
L 261.690909 -72.327813 
L 256.2 -72.265154 
L 250.709091 -71.826827 
L 245.218182 -71.586791 
L 239.727273 -70.886249 
L 234.236364 -70.277916 
L 228.745455 -69.174704 
L 223.254545 -68.45494 
L 217.763636 -68.687216 
L 212.272727 -68.68704 
L 206.781818 -68.478908 
L 201.290909 -67.948793 
L 195.8 -67.856048 
L 190.309091 -66.644149 
L 184.818182 -66.449649 
L 179.327273 -67.124955 
L 173.836364 -67.07565 
L 168.345455 -67.24384 
L 162.854545 -67.207686 
L 157.363636 -66.940099 
L 151.872727 -65.920193 
L 146.381818 -65.832628 
L 140.890909 -66.114756 
L 135.4 -66.200422 
L 129.909091 -66.4212 
L 124.418182 -66.502344 
L 118.927273 -66.102491 
L 113.436364 -65.540247 
L 107.945455 -65.101514 
L 102.454545 -65.295972 
L 96.963636 -65.980498 
L 91.472727 -65.821876 
L 85.981818 -65.726229 
L 80.490909 -65.166141 
L 75 -64.722868 
z
" id="m697a819b0d" style="stroke:#0072b2;stroke-opacity:0.2;"/>
    </defs>
    <g clip-path="url(#pd8a041bba6)">
     <use style="fill:#0072b2;fill-opacity:0.2;stroke:#0072b2;stroke-opacity:0.2;" x="0" xlink:href="#m697a819b0d" y="432"/>
    </g>
   </g>
   <g id="line2d_18">
    <defs>
     <path d="M 0 1.5 
C 0.397805 1.5 0.77937 1.341951 1.06066 1.06066 
C 1.341951 0.77937 1.5 0.397805 1.5 0 
C 1.5 -0.397805 1.341951 -0.77937 1.06066 -1.06066 
C 0.77937 -1.341951 0.397805 -1.5 0 -1.5 
C -0.397805 -1.5 -0.77937 -1.341951 -1.06066 -1.06066 
C -1.341951 -0.77937 -1.5 -0.397805 -1.5 0 
C -1.5 0.397805 -1.341951 0.77937 -1.06066 1.06066 
C -0.77937 1.341951 -0.397805 1.5 0 1.5 
z
" id="mb6bf216b74" style="stroke:#1a1a1a;"/>
    </defs>
    <g clip-path="url(#pd8a041bba6)">
     <use style="fill:#1a1a1a;stroke:#1a1a1a;" x="75" xlink:href="#mb6bf216b74" y="370.262488"/>
     <use style="fill:#1a1a1a;stroke:#1a1a1a;" x="80.490909" xlink:href="#mb6bf216b74" y="370.26201"/>
     <use style="fill:#1a1a1a;stroke:#1a1a1a;" x="85.981818" xlink:href="#mb6bf216b74" y="370.260575"/>
     <use style="fill:#1a1a1a;stroke:#1a1a1a;" x="91.472727" xlink:href="#mb6bf216b74" y="370.259858"/>
     <use style="fill:#1a1a1a;stroke:#1a1a1a;" x="96.963636" xlink:href="#mb6bf216b74" y="370.25675"/>
     <use style="fill:#1a1a1a;stroke:#1a1a1a;" x="102.454545" xlink:href="#mb6bf216b74" y="370.254598"/>
     <use style="fill:#1a1a1a;stroke:#1a1a1a;" x="107.945455" xlink:href="#mb6bf216b74" y="370.2436"/>
     <use style="fill:#1a1a1a;stroke:#1a1a1a;" x="113.436364" xlink:href="#mb6bf216b74" y="370.239058"/>
     <use style="fill:#1a1a1a;stroke:#1a1a1a;" x="118.927273" xlink:href="#mb6bf216b74" y="370.234993"/>
     <use style="fill:#1a1a1a;stroke:#1a1a1a;" x="124.418182" xlink:href="#mb6bf216b74" y="370.216106"/>
     <use style="fill:#1a1a1a;stroke:#1a1a1a;" x="129.909091" xlink:href="#mb6bf216b74" y="370.201283"/>
     <use style="fill:#1a1a1a;stroke:#1a1a1a;" x="135.4" xlink:href="#mb6bf216b74" y="370.156335"/>
     <use style="fill:#1a1a1a;stroke:#1a1a1a;" x="140.890909" xlink:href="#mb6bf216b74" y="370.120234"/>
     <use style="fill:#1a1a1a;stroke:#1a1a1a;" x="146.381818" xlink:href="#mb6bf216b74" y="370.065484"/>
     <use style="fill:#1a1a1a;stroke:#1a1a1a;" x="151.872727" xlink:href="#mb6bf216b74" y="370.000453"/>
     <use style="fill:#1a1a1a;stroke:#1a1a1a;" x="157.363636" xlink:href="#mb6bf216b74" y="369.913667"/>
     <use style="fill:#1a1a1a;stroke:#1a1a1a;" x="162.854545" xlink:href="#mb6bf216b74" y="369.788387"/>
     <use style="fill:#1a1a1a;stroke:#1a1a1a;" x="168.345455" xlink:href="#mb6bf216b74" y="369.643742"/>
     <use style="fill:#1a1a1a;stroke:#1a1a1a;" x="173.836364" xlink:href="#mb6bf216b74" y="369.493599"/>
     <use style="fill:#1a1a1a;stroke:#1a1a1a;" x="179.327273" xlink:href="#mb6bf216b74" y="369.325763"/>
     <use style="fill:#1a1a1a;stroke:#1a1a1a;" x="184.818182" xlink:href="#mb6bf216b74" y="369.149559"/>
     <use style="fill:#1a1a1a;stroke:#1a1a1a;" x="190.309091" xlink:href="#mb6bf216b74" y="369.037908"/>
     <use style="fill:#1a1a1a;stroke:#1a1a1a;" x="195.8" xlink:href="#mb6bf216b74" y="368.764158"/>
     <use style="fill:#1a1a1a;stroke:#1a1a1a;" x="201.290909" xlink:href="#mb6bf216b74" y="368.342656"/>
     <use style="fill:#1a1a1a;stroke:#1a1a1a;" x="206.781818" xlink:href="#mb6bf216b74" y="368.023003"/>
     <use style="fill:#1a1a1a;stroke:#1a1a1a;" x="212.272727" xlink:href="#mb6bf216b74" y="367.671552"/>
     <use style="fill:#1a1a1a;stroke:#1a1a1a;" x="217.763636" xlink:href="#mb6bf216b74" y="367.260808"/>
     <use style="fill:#1a1a1a;stroke:#1a1a1a;" x="223.254545" xlink:href="#mb6bf216b74" y="366.837871"/>
     <use style="fill:#1a1a1a;stroke:#1a1a1a;" x="228.745455" xlink:href="#mb6bf216b74" y="366.414934"/>
     <use style="fill:#1a1a1a;stroke:#1a1a1a;" x="234.236364" xlink:href="#mb6bf216b74" y="365.923381"/>
     <use style="fill:#1a1a1a;stroke:#1a1a1a;" x="239.727273" xlink:href="#mb6bf216b74" y="365.752915"/>
     <use style="fill:#1a1a1a;stroke:#1a1a1a;" x="245.218182" xlink:href="#mb6bf216b74" y="364.797542"/>
     <use style="fill:#1a1a1a;stroke:#1a1a1a;" x="250.709091" xlink:href="#mb6bf216b74" y="364.676088"/>
     <use style="fill:#1a1a1a;stroke:#1a1a1a;" x="256.2" xlink:href="#mb6bf216b74" y="364.23785"/>
     <use style="fill:#1a1a1a;stroke:#1a1a1a;" x="261.690909" xlink:href="#mb6bf216b74" y="363.597587"/>
     <use style="fill:#1a1a1a;stroke:#1a1a1a;" x="267.181818" xlink:href="#mb6bf216b74" y="363.004902"/>
     <use style="fill:#1a1a1a;stroke:#1a1a1a;" x="272.672727" xlink:href="#mb6bf216b74" y="362.313236"/>
     <use style="fill:#1a1a1a;stroke:#1a1a1a;" x="278.163636" xlink:href="#mb6bf216b74" y="361.492227"/>
     <use style="fill:#1a1a1a;stroke:#1a1a1a;" x="283.654545" xlink:href="#mb6bf216b74" y="360.758005"/>
     <use style="fill:#1a1a1a;stroke:#1a1a1a;" x="289.145455" xlink:href="#mb6bf216b74" y="360.056537"/>
     <use style="fill:#1a1a1a;stroke:#1a1a1a;" x="294.636364" xlink:href="#mb6bf216b74" y="359.366546"/>
     <use style="fill:#1a1a1a;stroke:#1a1a1a;" x="300.127273" xlink:href="#mb6bf216b74" y="358.738715"/>
     <use style="fill:#1a1a1a;stroke:#1a1a1a;" x="305.618182" xlink:href="#mb6bf216b74" y="358.035335"/>
     <use style="fill:#1a1a1a;stroke:#1a1a1a;" x="311.109091" xlink:href="#mb6bf216b74" y="357.407504"/>
     <use style="fill:#1a1a1a;stroke:#1a1a1a;" x="316.6" xlink:href="#mb6bf216b74" y="356.912843"/>
     <use style="fill:#1a1a1a;stroke:#1a1a1a;" x="322.090909" xlink:href="#mb6bf216b74" y="356.31681"/>
     <use style="fill:#1a1a1a;stroke:#1a1a1a;" x="327.581818" xlink:href="#mb6bf216b74" y="355.758314"/>
     <use style="fill:#1a1a1a;stroke:#1a1a1a;" x="333.072727" xlink:href="#mb6bf216b74" y="355.327965"/>
     <use style="fill:#1a1a1a;stroke:#1a1a1a;" x="338.563636" xlink:href="#mb6bf216b74" y="354.871318"/>
     <use style="fill:#1a1a1a;stroke:#1a1a1a;" x="344.054545" xlink:href="#mb6bf216b74" y="354.249943"/>
     <use style="fill:#1a1a1a;stroke:#1a1a1a;" x="349.545455" xlink:href="#mb6bf216b74" y="353.934115"/>
     <use style="fill:#1a1a1a;stroke:#1a1a1a;" x="355.036364" xlink:href="#mb6bf216b74" y="353.473403"/>
     <use style="fill:#1a1a1a;stroke:#1a1a1a;" x="360.527273" xlink:href="#mb6bf216b74" y="352.90606"/>
     <use style="fill:#1a1a1a;stroke:#1a1a1a;" x="366.018182" xlink:href="#mb6bf216b74" y="352.090789"/>
     <use style="fill:#1a1a1a;stroke:#1a1a1a;" x="371.509091" xlink:href="#mb6bf216b74" y="351.599714"/>
     <use style="fill:#1a1a1a;stroke:#1a1a1a;" x="377" xlink:href="#mb6bf216b74" y="350.941759"/>
     <use style="fill:#1a1a1a;stroke:#1a1a1a;" x="382.490909" xlink:href="#mb6bf216b74" y="350.350747"/>
     <use style="fill:#1a1a1a;stroke:#1a1a1a;" x="387.981818" xlink:href="#mb6bf216b74" y="349.953153"/>
     <use style="fill:#1a1a1a;stroke:#1a1a1a;" x="393.472727" xlink:href="#mb6bf216b74" y="349.368597"/>
     <use style="fill:#1a1a1a;stroke:#1a1a1a;" x="398.963636" xlink:href="#mb6bf216b74" y="348.347237"/>
     <use style="fill:#1a1a1a;stroke:#1a1a1a;" x="404.454545" xlink:href="#mb6bf216b74" y="346.863252"/>
     <use style="fill:#1a1a1a;stroke:#1a1a1a;" x="409.945455" xlink:href="#mb6bf216b74" y="346.755187"/>
     <use style="fill:#1a1a1a;stroke:#1a1a1a;" x="415.436364" xlink:href="#mb6bf216b74" y="344.448281"/>
     <use style="fill:#1a1a1a;stroke:#1a1a1a;" x="420.927273" xlink:href="#mb6bf216b74" y="343.064711"/>
     <use style="fill:#1a1a1a;stroke:#1a1a1a;" x="426.418182" xlink:href="#mb6bf216b74" y="341.065264"/>
     <use style="fill:#1a1a1a;stroke:#1a1a1a;" x="431.909091" xlink:href="#mb6bf216b74" y="338.969707"/>
     <use style="fill:#1a1a1a;stroke:#1a1a1a;" x="437.4" xlink:href="#mb6bf216b74" y="336.937506"/>
     <use style="fill:#1a1a1a;stroke:#1a1a1a;" x="442.890909" xlink:href="#mb6bf216b74" y="334.626297"/>
     <use style="fill:#1a1a1a;stroke:#1a1a1a;" x="448.381818" xlink:href="#mb6bf216b74" y="330.924344"/>
     <use style="fill:#1a1a1a;stroke:#1a1a1a;" x="453.872727" xlink:href="#mb6bf216b74" y="327.704382"/>
     <use style="fill:#1a1a1a;stroke:#1a1a1a;" x="459.363636" xlink:href="#mb6bf216b74" y="324.083957"/>
     <use style="fill:#1a1a1a;stroke:#1a1a1a;" x="464.854545" xlink:href="#mb6bf216b74" y="319.998995"/>
     <use style="fill:#1a1a1a;stroke:#1a1a1a;" x="470.345455" xlink:href="#mb6bf216b74" y="316.285328"/>
     <use style="fill:#1a1a1a;stroke:#1a1a1a;" x="475.836364" xlink:href="#mb6bf216b74" y="311.418566"/>
     <use style="fill:#1a1a1a;stroke:#1a1a1a;" x="481.327273" xlink:href="#mb6bf216b74" y="308.104884"/>
     <use style="fill:#1a1a1a;stroke:#1a1a1a;" x="486.818182" xlink:href="#mb6bf216b74" y="304.159306"/>
     <use style="fill:#1a1a1a;stroke:#1a1a1a;" x="492.309091" xlink:href="#mb6bf216b74" y="298.531545"/>
     <use style="fill:#1a1a1a;stroke:#1a1a1a;" x="497.8" xlink:href="#mb6bf216b74" y="291.692114"/>
     <use style="fill:#1a1a1a;stroke:#1a1a1a;" x="503.290909" xlink:href="#mb6bf216b74" y="285.639982"/>
     <use style="fill:#1a1a1a;stroke:#1a1a1a;" x="508.781818" xlink:href="#mb6bf216b74" y="280.35124"/>
     <use style="fill:#1a1a1a;stroke:#1a1a1a;" x="514.272727" xlink:href="#mb6bf216b74" y="274.13175"/>
     <use style="fill:#1a1a1a;stroke:#1a1a1a;" x="519.763636" xlink:href="#mb6bf216b74" y="269.442865"/>
     <use style="fill:#1a1a1a;stroke:#1a1a1a;" x="525.254545" xlink:href="#mb6bf216b74" y="263.003658"/>
     <use style="fill:#1a1a1a;stroke:#1a1a1a;" x="530.745455" xlink:href="#mb6bf216b74" y="256.951765"/>
     <use style="fill:#1a1a1a;stroke:#1a1a1a;" x="536.236364" xlink:href="#mb6bf216b74" y="248.21665"/>
     <use style="fill:#1a1a1a;stroke:#1a1a1a;" x="541.727273" xlink:href="#mb6bf216b74" y="240.784055"/>
     <use style="fill:#1a1a1a;stroke:#1a1a1a;" x="547.218182" xlink:href="#mb6bf216b74" y="234.528464"/>
     <use style="fill:#1a1a1a;stroke:#1a1a1a;" x="552.709091" xlink:href="#mb6bf216b74" y="228.800527"/>
     <use style="fill:#1a1a1a;stroke:#1a1a1a;" x="558.2" xlink:href="#mb6bf216b74" y="221.247435"/>
     <use style="fill:#1a1a1a;stroke:#1a1a1a;" x="563.690909" xlink:href="#mb6bf216b74" y="215.987383"/>
     <use style="fill:#1a1a1a;stroke:#1a1a1a;" x="569.181818" xlink:href="#mb6bf216b74" y="207.718478"/>
     <use style="fill:#1a1a1a;stroke:#1a1a1a;" x="574.672727" xlink:href="#mb6bf216b74" y="200.512773"/>
     <use style="fill:#1a1a1a;stroke:#1a1a1a;" x="580.163636" xlink:href="#mb6bf216b74" y="193.587751"/>
     <use style="fill:#1a1a1a;stroke:#1a1a1a;" x="585.654545" xlink:href="#mb6bf216b74" y="181.490659"/>
     <use style="fill:#1a1a1a;stroke:#1a1a1a;" x="591.145455" xlink:href="#mb6bf216b74" y="174.839864"/>
     <use style="fill:#1a1a1a;stroke:#1a1a1a;" x="596.636364" xlink:href="#mb6bf216b74" y="168.00904"/>
     <use style="fill:#1a1a1a;stroke:#1a1a1a;" x="602.127273" xlink:href="#mb6bf216b74" y="161.38837"/>
     <use style="fill:#1a1a1a;stroke:#1a1a1a;" x="607.618182" xlink:href="#mb6bf216b74" y="153.435054"/>
     <use style="fill:#1a1a1a;stroke:#1a1a1a;" x="613.109091" xlink:href="#mb6bf216b74" y="143.517437"/>
     <use style="fill:#1a1a1a;stroke:#1a1a1a;" x="618.6" xlink:href="#mb6bf216b74" y="127.870449"/>
     <use style="fill:#1a1a1a;stroke:#1a1a1a;" x="624.090909" xlink:href="#mb6bf216b74" y="118.655256"/>
     <use style="fill:#1a1a1a;stroke:#1a1a1a;" x="629.581818" xlink:href="#mb6bf216b74" y="108.925319"/>
     <use style="fill:#1a1a1a;stroke:#1a1a1a;" x="635.072727" xlink:href="#mb6bf216b74" y="101.245035"/>
     <use style="fill:#1a1a1a;stroke:#1a1a1a;" x="640.563636" xlink:href="#mb6bf216b74" y="92.282313"/>
    </g>
   </g>
   <g id="line2d_19">
    <path clip-path="url(#pd8a041bba6)" d="M 75 371.34943 
L 80.490909 370.784746 
L 85.981818 370.437822 
L 91.472727 370.310123 
L 96.963636 370.497422 
L 102.454545 370.611617 
L 107.945455 371.040388 
L 113.436364 370.65912 
L 118.927273 370.094436 
L 124.418182 369.747512 
L 129.909091 369.619813 
L 135.4 369.807112 
L 140.890909 369.921307 
L 146.381818 370.350078 
L 151.872727 369.96881 
L 157.363636 369.404126 
L 162.854545 369.057202 
L 168.345455 368.905522 
L 173.836364 369.068841 
L 179.327273 369.159056 
L 184.818182 369.563846 
L 190.309091 369.132325 
L 195.8 368.517388 
L 201.290909 368.120211 
L 206.781818 367.699664 
L 212.272727 367.594115 
L 217.763636 367.415462 
L 223.254545 367.50531 
L 228.745455 366.785119 
L 234.236364 365.881511 
L 239.727273 365.195665 
L 245.218182 364.587978 
L 250.709091 364.295288 
L 256.2 363.929495 
L 261.690909 363.861885 
L 267.181818 362.984236 
L 272.672727 361.923171 
L 278.163636 361.079815 
L 283.654545 360.455683 
L 289.145455 360.146549 
L 294.636364 359.764311 
L 300.127273 359.696649 
L 305.618182 358.818947 
L 311.109091 357.75783 
L 316.6 356.914471 
L 322.090909 356.290337 
L 327.581818 355.9812 
L 333.072727 355.59896 
L 338.563636 355.531295 
L 344.054545 354.653591 
L 349.545455 353.592431 
L 355.036364 352.749031 
L 360.527273 352.124856 
L 366.018182 351.815281 
L 371.509091 351.432602 
L 377 351.364499 
L 382.490909 350.486357 
L 387.981818 349.424299 
L 393.472727 348.580001 
L 398.963636 347.954928 
L 404.454545 347.111079 
L 409.945455 346.194125 
L 415.436364 345.591748 
L 420.927273 343.423203 
L 426.418182 341.071244 
L 431.909091 338.937044 
L 437.4 337.022069 
L 442.890909 334.204361 
L 448.381818 331.313548 
L 453.872727 328.737312 
L 459.363636 324.491099 
L 464.854545 320.06147 
L 470.345455 315.849602 
L 475.836364 311.159264 
L 481.327273 306.783925 
L 486.818182 302.335481 
L 492.309091 297.859701 
L 497.8 292.57388 
L 503.290909 287.104644 
L 508.781818 281.853169 
L 514.272727 276.820918 
L 519.763636 272.103665 
L 525.254545 267.313308 
L 530.745455 259.865739 
L 536.236364 251.608131 
L 541.727273 243.167107 
L 547.218182 234.943843 
L 552.709091 226.939804 
L 558.2 219.250763 
L 563.690909 211.488618 
L 569.181818 204.041049 
L 574.672727 195.783441 
L 580.163636 187.342417 
L 585.654545 179.119153 
L 591.145455 171.115114 
L 596.636364 163.426073 
L 602.127273 155.663928 
L 607.618182 148.216359 
L 613.109091 139.958751 
L 618.6 131.517727 
L 624.090909 123.294463 
L 629.581818 115.290424 
L 635.072727 107.601383 
L 640.563636 99.839238 
L 646.054545 92.391669 
L 651.545455 84.134061 
L 657.036364 75.693037 
L 662.527273 67.469773 
L 668.018182 59.465734 
L 673.509091 51.776693 
L 679 44.014548 
" style="fill:none;stroke:#0072b2;stroke-linecap:round;stroke-width:1.5;"/>
   </g>
   <g id="patch_3">
    <path d="M 44.8 392.2 
L 44.8 20.8 
" style="fill:none;stroke:#cccccc;stroke-linecap:square;stroke-linejoin:miter;stroke-width:0.8;"/>
   </g>
   <g id="patch_4">
    <path d="M 709.2 392.2 
L 709.2 20.8 
" style="fill:none;stroke:#cccccc;stroke-linecap:square;stroke-linejoin:miter;stroke-width:0.8;"/>
   </g>
   <g id="patch_5">
    <path d="M 44.8 392.2 
L 709.2 392.2 
" style="fill:none;stroke:#cccccc;stroke-linecap:square;stroke-linejoin:miter;stroke-width:0.8;"/>
   </g>
   <g id="patch_6">
    <path d="M 44.8 20.8 
L 709.2 20.8 
" style="fill:none;stroke:#cccccc;stroke-linecap:square;stroke-linejoin:miter;stroke-width:0.8;"/>
   </g>
   <g id="text_21">
    <!-- Predicted Global Recoveries -->
    <defs>
     <path d="M 7.71875 0 
L 7.71875 71.578125 
L 34.71875 71.578125 
Q 41.84375 71.578125 45.609375 70.90625 
Q 50.875 70.015625 54.4375 67.546875 
Q 58.015625 65.09375 60.1875 60.640625 
Q 62.359375 56.203125 62.359375 50.875 
Q 62.359375 41.75 56.546875 35.421875 
Q 50.734375 29.109375 35.546875 29.109375 
L 17.1875 29.109375 
L 17.1875 0 
z
M 17.1875 37.546875 
L 35.6875 37.546875 
Q 44.875 37.546875 48.734375 40.96875 
Q 52.59375 44.390625 52.59375 50.59375 
Q 52.59375 55.078125 50.3125 58.265625 
Q 48.046875 61.46875 44.34375 62.5 
Q 41.9375 63.140625 35.5 63.140625 
L 17.1875 63.140625 
z
" id="ArialMT-80"/>
     <path d="M 40.234375 0 
L 40.234375 6.546875 
Q 35.296875 -1.171875 25.734375 -1.171875 
Q 19.53125 -1.171875 14.328125 2.25 
Q 9.125 5.671875 6.265625 11.796875 
Q 3.421875 17.921875 3.421875 25.875 
Q 3.421875 33.640625 6 39.96875 
Q 8.59375 46.296875 13.765625 49.65625 
Q 18.953125 53.03125 25.34375 53.03125 
Q 30.03125 53.03125 33.6875 51.046875 
Q 37.359375 49.078125 39.65625 45.90625 
L 39.65625 71.578125 
L 48.390625 71.578125 
L 48.390625 0 
z
M 12.453125 25.875 
Q 12.453125 15.921875 16.640625 10.984375 
Q 20.84375 6.0625 26.5625 6.0625 
Q 32.328125 6.0625 36.34375 10.765625 
Q 40.375 15.484375 40.375 25.140625 
Q 40.375 35.796875 36.265625 40.765625 
Q 32.171875 45.75 26.171875 45.75 
Q 20.3125 45.75 16.375 40.96875 
Q 12.453125 36.1875 12.453125 25.875 
z
" id="ArialMT-100"/>
     <path d="M 41.21875 28.078125 
L 41.21875 36.46875 
L 71.53125 36.53125 
L 71.53125 9.96875 
Q 64.546875 4.390625 57.125 1.578125 
Q 49.703125 -1.21875 41.890625 -1.21875 
Q 31.34375 -1.21875 22.71875 3.296875 
Q 14.109375 7.8125 9.71875 16.359375 
Q 5.328125 24.90625 5.328125 35.453125 
Q 5.328125 45.90625 9.6875 54.953125 
Q 14.0625 64.015625 22.265625 68.40625 
Q 30.46875 72.796875 41.15625 72.796875 
Q 48.921875 72.796875 55.1875 70.28125 
Q 61.46875 67.78125 65.03125 63.28125 
Q 68.609375 58.796875 70.453125 51.5625 
L 61.921875 49.21875 
Q 60.296875 54.6875 57.90625 57.8125 
Q 55.515625 60.9375 51.0625 62.8125 
Q 46.625 64.703125 41.21875 64.703125 
Q 34.71875 64.703125 29.984375 62.71875 
Q 25.25 60.75 22.34375 57.515625 
Q 19.4375 54.296875 17.828125 50.4375 
Q 15.09375 43.796875 15.09375 36.03125 
Q 15.09375 26.46875 18.390625 20.015625 
Q 21.6875 13.578125 27.984375 10.453125 
Q 34.28125 7.328125 41.359375 7.328125 
Q 47.515625 7.328125 53.375 9.6875 
Q 59.234375 12.0625 62.25 14.75 
L 62.25 28.078125 
z
" id="ArialMT-71"/>
     <path d="M 14.703125 0 
L 6.546875 0 
L 6.546875 71.578125 
L 15.328125 71.578125 
L 15.328125 46.046875 
Q 20.90625 53.03125 29.546875 53.03125 
Q 34.328125 53.03125 38.59375 51.09375 
Q 42.875 49.171875 45.625 45.671875 
Q 48.390625 42.1875 49.953125 37.25 
Q 51.515625 32.328125 51.515625 26.703125 
Q 51.515625 13.375 44.921875 6.09375 
Q 38.328125 -1.171875 29.109375 -1.171875 
Q 19.921875 -1.171875 14.703125 6.5 
z
M 14.59375 26.3125 
Q 14.59375 17 17.140625 12.84375 
Q 21.296875 6.0625 28.375 6.0625 
Q 34.125 6.0625 38.328125 11.0625 
Q 42.53125 16.0625 42.53125 25.984375 
Q 42.53125 36.140625 38.5 40.96875 
Q 34.46875 45.796875 28.765625 45.796875 
Q 23 45.796875 18.796875 40.796875 
Q 14.59375 35.796875 14.59375 26.3125 
z
" id="ArialMT-98"/>
    </defs>
    <g style="fill:#262626;" transform="translate(300.966875 14.8)scale(0.12 -0.12)">
     <use xlink:href="#ArialMT-80"/>
     <use x="66.699219" xlink:href="#ArialMT-114"/>
     <use x="100" xlink:href="#ArialMT-101"/>
     <use x="155.615234" xlink:href="#ArialMT-100"/>
     <use x="211.230469" xlink:href="#ArialMT-105"/>
     <use x="233.447266" xlink:href="#ArialMT-99"/>
     <use x="283.447266" xlink:href="#ArialMT-116"/>
     <use x="311.230469" xlink:href="#ArialMT-101"/>
     <use x="366.845703" xlink:href="#ArialMT-100"/>
     <use x="422.460938" xlink:href="#ArialMT-32"/>
     <use x="450.244141" xlink:href="#ArialMT-71"/>
     <use x="528.027344" xlink:href="#ArialMT-108"/>
     <use x="550.244141" xlink:href="#ArialMT-111"/>
     <use x="605.859375" xlink:href="#ArialMT-98"/>
     <use x="661.474609" xlink:href="#ArialMT-97"/>
     <use x="717.089844" xlink:href="#ArialMT-108"/>
     <use x="739.306641" xlink:href="#ArialMT-32"/>
     <use x="767.089844" xlink:href="#ArialMT-82"/>
     <use x="839.306641" xlink:href="#ArialMT-101"/>
     <use x="894.921875" xlink:href="#ArialMT-99"/>
     <use x="944.921875" xlink:href="#ArialMT-111"/>
     <use x="1000.537109" xlink:href="#ArialMT-118"/>
     <use x="1050.537109" xlink:href="#ArialMT-101"/>
     <use x="1106.152344" xlink:href="#ArialMT-114"/>
     <use x="1139.453125" xlink:href="#ArialMT-105"/>
     <use x="1161.669922" xlink:href="#ArialMT-101"/>
     <use x="1217.285156" xlink:href="#ArialMT-115"/>
    </g>
   </g>
  </g>
 </g>
 <defs>
  <clipPath id="pd8a041bba6">
   <rect height="371.4" width="664.4" x="44.8" y="20.8"/>
  </clipPath>
 </defs>
</svg>
